<?xml version="1.0" encoding="utf-8"?>
<!-- Generator: Adobe Illustrator 21.0.2, SVG Export Plug-In . SVG Version: 6.00 Build 0)  -->
<svg version="1.1" baseProfile="basic" id="Layer_1"
	 xmlns="http://www.w3.org/2000/svg" xmlns:xlink="http://www.w3.org/1999/xlink" x="0px" y="0px" width="577px" height="797px"
	 viewBox="0 0 577 797" xml:space="preserve">
<style type="text/css">
	.st0{fill:#FAA314;}
</style>
<g>
	<g transform="translate(-247 -1256)">
		<g>
			<g>
				<path id="_x38_udua" class="st0" d="M741.8,1448.3l-177.5-177.5c-7.5-7.6-17.7-11.8-28.4-11.8c-10.7,0-20.9,4.2-28.4,11.8
					l-244.8,244.8c-7.6,7.5-11.8,17.7-11.8,28.4c0,10.7,4.2,20.9,11.8,28.4L536,1845.6l81.2-81.2L396.8,1544L536,1404.8l219.3,219.3
					C794.2,1571.2,789.7,1496.1,741.8,1448.3"/>
			</g>
		</g>
		<g>
			<g>
				<path id="_x38_udub" class="st0" d="M809.3,1790.6c15.7-15.7,15.7-41.1,0-56.8l-273.2-273.2l-81.2,81.2l220.4,220.4
					l-139.2,139.2L316.8,1682c-17.1,23.2-26.3,51.3-26.2,80.1c0,36.2,14.1,70.1,39.6,95.7l177.5,177.5c15.1,15.2,41.6,15.2,56.8,0
					L809.3,1790.6z"/>
			</g>
		</g>
	</g>
</g>

</svg>
