<?xml version="1.0" encoding="utf-8"?>
<!-- Generator: Adobe Illustrator 21.0.0, SVG Export Plug-In . SVG Version: 6.00 Build 0)  -->
<svg version="1.1" id="Layer_1" xmlns="http://www.w3.org/2000/svg" xmlns:xlink="http://www.w3.org/1999/xlink" x="0px" y="0px"
	 viewBox="0 0 1048 206" style="enable-background:new 0 0 1048 206;" xml:space="preserve">
<style type="text/css">
	.st0{fill:#006AA5;}
	.st1{fill:#F7E03F;}
</style>
<g>
	<g>
		<g>
			<path class="st0" d="M119.5,117.5c0,0-13.6,14-25.2,25.9c-5.6,5.7-15,14.5-23,22c-2.6,2.4-5.1,4.7-7.3,6.8
				c-4.9,4.5-8.3,7.6-8.3,7.6c-0.9,0.8-2,1.2-3.1,1.2c-1.1,0-2.1-0.4-3-1.1c-1.9-1.7-2.1-4.6-0.4-6.5c0,0,3-3.2,7.4-7.9
				c2.2-2.3,4.7-5,7.3-7.8c7.9-8.5,17-18.1,21.4-22.9c8.8-9.6,21.3-20.9,21.3-20.9L94.3,99l7.3-6.7l17.8,16.4
				C121.9,111.1,121.9,115,119.5,117.5z"/>
			<path class="st0" d="M94.3,85.6l-5.7,6.7L64,63.3l-2.7-3.1v0L53.5,51c-0.2-0.2-0.3-0.4-0.3-0.7c0-0.3,0.1-0.6,0.4-0.8
				c0.4-0.4,1-0.4,1.4,0l9,8.3l2.7,2.4L94.3,85.6z"/>
		</g>
		<g>
			<path class="st1" d="M42.6,134.5C47,139.3,56,149,64,157.5c-2.6,2.8-5.2,5.5-7.3,7.8c-8.1-7.5-17.4-16.3-23-22
				c-11.5-11.8-25.2-25.9-25.2-25.9c-2.4-2.5-2.3-6.4,0.2-8.7l17.8-16.4l7.3-6.7l27.6-25.4l2.7,3.1l-24.6,29L33.7,99l-12.4,14.6
				C21.3,113.6,33.8,124.9,42.6,134.5z"/>
			<path class="st1" d="M74.7,50.3c0,0.2-0.1,0.5-0.3,0.7l-7.8,9.2L64,57.7l9-8.3c0.4-0.4,1-0.4,1.4,0C74.6,49.7,74.7,50,74.7,50.3z
				"/>
			<path class="st1" d="M78.4,179.7c-0.9,0.7-1.9,1.1-3,1.1c-1.1,0-2.2-0.4-3.1-1.2c0,0-3.4-3.1-8.3-7.6c2.2-2,4.7-4.3,7.3-6.8
				c4.4,4.7,7.4,7.9,7.4,7.9C80.5,175.1,80.3,178.1,78.4,179.7z"/>
		</g>
		<g>
			<path class="st0" d="M64,27.1C56,35.6,47,45.3,42.6,50.1C33.8,59.7,21.3,71,21.3,71l12.4,14.6l-7.3,6.7L8.6,75.9
				c-2.5-2.4-2.6-6.3-0.2-8.7c0,0,13.6-14.1,25.2-25.9c5.6-5.7,14.9-14.5,23-22C58.8,21.6,61.3,24.3,64,27.1z"/>
			<path class="st0" d="M74.7,134.4c0,0.3-0.1,0.6-0.4,0.8c-0.4,0.4-1,0.4-1.4,0l-9-8.3l-2.7-2.5L33.7,99l5.7-6.7l24.6,29l2.7,3.1
				l7.8,9.2C74.7,133.9,74.7,134.1,74.7,134.4z"/>
			<path class="st0" d="M78.7,11.4c0,0-3,3.2-7.4,7.9c-2.6-2.4-5.1-4.7-7.3-6.8C68.9,8.1,72.3,5,72.3,5c0.9-0.8,2-1.2,3.1-1.2
				c1.1,0,2.1,0.4,3,1.1C80.3,6.6,80.5,9.5,78.7,11.4z"/>
		</g>
		<g>
			<path class="st1" d="M119.4,75.9l-17.8,16.4L94.3,99l-27.6,25.4l-2.7-3.1l24.6-29l5.7-6.7L106.7,71c0,0-12.5-11.3-21.3-20.9
				C81,45.3,71.9,35.6,64,27.1c-2.6-2.8-5.2-5.5-7.3-7.8c-4.4-4.7-7.4-7.9-7.4-7.9c-1.7-1.9-1.6-4.8,0.4-6.5c0.9-0.7,1.9-1.1,3-1.1
				c1.1,0,2.2,0.4,3.1,1.2c0,0,3.4,3.1,8.3,7.6c2.2,2,4.7,4.3,7.3,6.8c8.1,7.5,17.4,16.3,23,22c11.5,11.8,25.2,25.9,25.2,25.9
				C121.9,69.6,121.9,73.6,119.4,75.9z"/>
			<path class="st1" d="M64,126.9l-9,8.3c-0.4,0.4-1,0.4-1.4,0c-0.2-0.2-0.4-0.5-0.4-0.8c0-0.2,0.1-0.5,0.3-0.7l7.8-9.2L64,126.9z"
				/>
		</g>
	</g>
	<g>
		<g>
			<path class="st1" d="M178.2,45.8c-2.6,0-4.7-0.6-6.1-1.9c-1.4-1.3-2.2-3-2.2-5.2c0-0.9,0.1-2,0.4-3.4l2.9-13.7h3.8l-3,13.8
				c-0.2,1-0.3,1.9-0.3,2.6c0,1.5,0.4,2.6,1.2,3.4c0.8,0.7,1.9,1.1,3.4,1.1c1.9,0,3.4-0.5,4.4-1.6c0.9-0.9,1.6-2.3,1.9-4.1l3.2-15.2
				h3.8l-3.3,15.5c-0.6,2.8-1.6,4.9-3,6.2C183.6,45,181.2,45.8,178.2,45.8z"/>
			<path class="st1" d="M193,45.5l5.1-23.8h3.8l-2.3,10.7h0.1l10.1-10.7h4.6l-11.9,12.4l7.8,11.4h-4.5L199,35.3h-0.1l-2.2,10.2H193z
				"/>
			<path class="st1" d="M214.1,45.5l5.1-23.8h5.1c2.6,0,4.6,0.6,5.8,1.7c1.3,1.1,1.9,2.6,1.9,4.4c0,1.9-0.6,3.5-1.7,4.7
				c-1.1,1.2-2.7,2-4.6,2.4V35c0.3,0.5,0.8,1.5,1.6,3l3.3,7.4h-4.1l-2.5-6.1c-0.8-1.9-1.4-3-1.7-3.5h-2.3l-2.1,9.6H214.1z
				 M220.6,32.8h1.9c1.8,0,3.1-0.4,4.2-1.2c1-0.8,1.6-1.9,1.6-3.4c0-2.2-1.4-3.4-4.1-3.4h-1.7L220.6,32.8z"/>
			<path class="st1" d="M232.6,45.5l12.9-23.9h3.1l4.5,23.9h-4l-1-6.1H240l-3.2,6.1H232.6z M241.7,36.3h5.9l-1-6.4
				c0-0.3-0.1-0.8-0.2-1.4c-0.1-0.6-0.2-1.1-0.2-1.4h-0.1c-0.4,1.1-0.9,2.1-1.3,3L241.7,36.3z"/>
			<path class="st1" d="M257,45.5l5.1-23.8h3.8l-5.1,23.8H257z"/>
			<path class="st1" d="M267.2,45.5l5.1-23.8h3.6l7.6,14.5c0.6,1.1,1.1,2.2,1.6,3.3h0.1c0.3-1.5,0.5-2.7,0.7-3.5l3-14.4h3.8
				l-5.1,23.8h-3.2l-7.9-15.1c-0.8-1.6-1.3-2.7-1.6-3.2h-0.1c-0.1,0.6-0.3,1.7-0.6,3.2l-3.2,15H267.2z"/>
			<path class="st1" d="M293.9,45.5l5.1-23.8h3.8l-5.1,23.8H293.9z"/>
			<path class="st1" d="M302.1,45.5l12.9-23.9h3.1l4.5,23.9h-4l-1-6.1h-8.1l-3.2,6.1H302.1z M311.1,36.3h5.9l-1-6.4
				c0-0.3-0.1-0.8-0.2-1.4c-0.1-0.6-0.2-1.1-0.2-1.4h-0.1c-0.4,1.1-0.9,2.1-1.3,3L311.1,36.3z"/>
			<path class="st1" d="M326.5,45.5l5.1-23.8h3.6l7.6,14.5c0.6,1.1,1.1,2.2,1.6,3.3h0.1c0.3-1.5,0.5-2.7,0.7-3.5l3-14.4h3.8
				l-5.1,23.8h-3.2l-7.9-15.1c-0.8-1.6-1.3-2.7-1.6-3.2h-0.1c-0.1,0.6-0.3,1.7-0.6,3.2l-3.2,15H326.5z"/>
			<path class="st1" d="M359.6,44.2l1.5-3c1.5,1,3.1,1.4,4.8,1.4c1.3,0,2.4-0.3,3.2-0.9c0.9-0.6,1.3-1.5,1.3-2.7
				c0-0.9-0.3-1.6-0.8-2.3c-0.5-0.7-1.2-1.3-1.9-1.8c-0.7-0.5-1.5-1-2.3-1.6c-0.8-0.5-1.4-1.2-1.9-2.1c-0.5-0.9-0.8-1.9-0.8-3
				c0-2,0.7-3.6,2.1-4.9c1.4-1.3,3.3-1.9,5.7-1.9c2,0,3.9,0.4,5.7,1.2l-0.7,3.2c-1.5-0.9-3.1-1.3-4.9-1.3c-1.2,0-2.1,0.3-2.8,0.8
				c-0.7,0.6-1.1,1.3-1.1,2.2c0,0.8,0.3,1.5,0.8,2.1s1.2,1.2,1.9,1.7c0.8,0.5,1.5,1,2.3,1.6c0.8,0.6,1.4,1.3,1.9,2.3
				c0.5,0.9,0.8,2,0.8,3.2c0,2.4-0.8,4.2-2.4,5.4c-1.6,1.2-3.7,1.9-6.1,1.9C363.7,45.8,361.6,45.3,359.6,44.2z"/>
			<path class="st1" d="M378.2,45.5l5.1-23.8h3.8L382,45.5H378.2z"/>
			<path class="st1" d="M388.4,45.5l5.1-23.8h4.7c2.7,0,5,0.4,6.9,1.2c3.4,1.5,5.1,4.4,5.1,8.6c0,2.9-0.7,5.5-2.1,7.7
				c-1.4,2.2-3.4,3.9-6,4.9c-2.1,0.9-4.6,1.3-7.3,1.3H388.4z M392.9,42.3h2.2c2.1,0,4-0.4,5.5-1.1c1.8-0.8,3.2-2.1,4.1-3.8
				c1-1.7,1.5-3.7,1.5-6.1c0-2.7-1.1-4.5-3.2-5.5c-1.2-0.6-2.8-0.9-4.9-0.9h-1.5L392.9,42.3z"/>
			<path class="st1" d="M414.5,45.5l5.1-23.8h12.1l-1.2,3.2h-7.8l-1.5,6.9h7.6l-0.7,3.2h-7.6l-1.6,7.3h8.7l-0.7,3.2H414.5z"/>
			<path class="st1" d="M450.7,45.8c-3,0-5.3-0.9-7.1-2.6c-1.8-1.7-2.6-4.2-2.6-7.3c0-4,1.2-7.4,3.7-10.2c2.5-2.8,5.6-4.2,9.5-4.2
				c3,0,5.4,0.9,7.1,2.6c1.8,1.7,2.6,4.2,2.6,7.3c0,4-1.2,7.4-3.7,10.2C457.7,44.4,454.6,45.8,450.7,45.8z M450.9,42.6
				c1.8,0,3.4-0.6,4.8-1.7c1.4-1.1,2.4-2.5,3.1-4.2c0.7-1.7,1-3.4,1-5.3c0-2.1-0.5-3.8-1.6-5c-1-1.2-2.5-1.8-4.4-1.8
				c-1.8,0-3.4,0.6-4.8,1.7c-1.4,1.1-2.5,2.5-3.2,4.2c-0.7,1.7-1,3.4-1,5.3c0,2.2,0.5,3.8,1.5,5C447.5,42,449,42.6,450.9,42.6z"/>
			<path class="st1" d="M466.6,45.5l5.1-23.8h12.1l-1.2,3.2h-7.8l-1.5,6.9h7.6l-0.7,3.2h-7.6l-2.2,10.5H466.6z"/>
			<path class="st1" d="M495.5,45.5l4.4-20.6h-7l0.7-3.2h17.9l-1.4,3.2h-6.5l-4.4,20.6H495.5z"/>
			<path class="st1" d="M510.2,45.5l5.1-23.8h3.8l-2.2,10.1h11.6l2.2-10.1h3.8l-5.1,23.8h-3.8l2.2-10.5h-11.5L514,45.5H510.2z"/>
			<path class="st1" d="M535.7,45.5l5.1-23.8h12.1l-1.2,3.2h-7.8l-1.5,6.9h7.6l-0.7,3.2h-7.6l-1.5,7.3h8.7l-0.7,3.2H535.7z"/>
		</g>
		<g>
			<path class="st0" d="M194.6,73.5c0,0.1,0,0.3,0,0.6c0,0.3-0.1,0.6-0.1,0.9c-0.1,0.3-0.1,0.7-0.2,1c-0.1,0.4-0.2,0.7-0.3,1
				c-0.1,0.3-0.3,0.5-0.5,0.7c-0.2,0.2-0.4,0.3-0.6,0.3h-12.6l-1.7,8.6h10.7c0.3,0,0.4,0.1,0.5,0.3c0.1,0.2,0.2,0.4,0.2,0.8
				c0,0.1,0,0.3,0,0.6c0,0.3-0.1,0.6-0.1,0.9c-0.1,0.3-0.1,0.7-0.2,1c-0.1,0.3-0.2,0.7-0.3,1c-0.1,0.3-0.3,0.5-0.5,0.7
				c-0.2,0.2-0.4,0.3-0.6,0.3h-10.6l-2,9.9h12.7c0.2,0,0.4,0.1,0.5,0.3c0.1,0.2,0.2,0.5,0.2,0.8c0,0.1,0,0.3,0,0.6
				c0,0.3-0.1,0.6-0.1,0.9c-0.1,0.3-0.1,0.7-0.2,1c-0.1,0.3-0.2,0.7-0.3,1c-0.1,0.3-0.3,0.5-0.5,0.7c-0.2,0.2-0.4,0.3-0.6,0.3h-17.7
				c-0.3,0-0.6,0-0.8-0.1c-0.2-0.1-0.4-0.2-0.6-0.4c-0.2-0.2-0.3-0.4-0.3-0.7c-0.1-0.3,0-0.6,0-1l6.1-30.7c0.2-0.8,0.5-1.4,1-1.7
				c0.5-0.4,1-0.5,1.6-0.5h17.5C194.3,72.5,194.6,72.8,194.6,73.5z"/>
			<path class="st0" d="M228.6,94.7c-0.5,2.2-1.2,4.2-2.1,5.9c-1,1.7-2.2,3.1-3.6,4.3c-1.4,1.1-3.1,2-4.9,2.6
				c-1.9,0.6-3.9,0.9-6.2,0.9c-2.4,0-4.4-0.3-6.2-0.9c-1.7-0.6-3.1-1.5-4.1-2.6c-1-1.2-1.6-2.6-1.9-4.4c-0.3-1.7-0.2-3.8,0.3-6.1
				l4.2-20.9c0-0.2,0.1-0.3,0.3-0.5c0.1-0.1,0.4-0.3,0.7-0.4c0.3-0.1,0.7-0.2,1.1-0.2c0.5-0.1,1-0.1,1.8-0.1c0.7,0,1.3,0,1.7,0.1
				c0.5,0.1,0.8,0.1,1.1,0.2c0.3,0.1,0.4,0.2,0.5,0.4c0.1,0.1,0.1,0.3,0.1,0.5L207,94.3c-0.3,1.4-0.4,2.6-0.2,3.6
				c0.1,1,0.4,1.9,0.9,2.5c0.5,0.7,1.1,1.2,1.9,1.5c0.8,0.3,1.8,0.5,2.9,0.5c1.2,0,2.2-0.2,3.2-0.5c1-0.4,1.9-0.9,2.6-1.6
				c0.8-0.7,1.4-1.5,1.9-2.5c0.5-1,0.9-2.1,1.2-3.3l4.2-21.1c0-0.2,0.1-0.3,0.3-0.5c0.1-0.1,0.3-0.3,0.6-0.4
				c0.3-0.1,0.7-0.2,1.1-0.2s1.1-0.1,1.7-0.1c0.7,0,1.3,0,1.7,0.1c0.4,0.1,0.8,0.1,1,0.2c0.3,0.1,0.4,0.2,0.5,0.4
				c0.1,0.1,0.1,0.3,0.1,0.5L228.6,94.7z"/>
			<path class="st0" d="M252,88.5c0,0.1,0,0.3,0,0.6c0,0.3-0.1,0.6-0.1,0.9c-0.1,0.3-0.2,0.7-0.3,1c-0.1,0.3-0.2,0.6-0.4,0.9
				c-0.1,0.3-0.3,0.5-0.5,0.7c-0.2,0.2-0.4,0.3-0.7,0.3h-11.3c-0.3,0-0.6-0.1-0.7-0.3c-0.1-0.2-0.2-0.5-0.2-1c0-0.1,0-0.4,0-0.6
				c0-0.3,0.1-0.6,0.1-0.9c0.1-0.3,0.2-0.6,0.3-1c0.1-0.3,0.2-0.6,0.4-0.9c0.1-0.3,0.3-0.5,0.5-0.7s0.4-0.2,0.7-0.2H251
				c0.3,0,0.6,0.1,0.7,0.3C251.9,87.8,252,88.1,252,88.5z"/>
			<path class="st0" d="M287.9,94.7c-0.5,2.2-1.2,4.2-2.1,5.9c-1,1.7-2.2,3.1-3.6,4.3c-1.4,1.1-3.1,2-4.9,2.6
				c-1.9,0.6-3.9,0.9-6.2,0.9c-2.4,0-4.4-0.3-6.2-0.9c-1.7-0.6-3.1-1.5-4.1-2.6c-1-1.2-1.6-2.6-1.9-4.4c-0.3-1.7-0.2-3.8,0.3-6.1
				l4.2-20.9c0-0.2,0.1-0.3,0.3-0.5c0.1-0.1,0.4-0.3,0.7-0.4s0.7-0.2,1.1-0.2c0.5-0.1,1-0.1,1.8-0.1c0.7,0,1.3,0,1.7,0.1
				c0.5,0.1,0.8,0.1,1.1,0.2s0.4,0.2,0.5,0.4c0.1,0.1,0.1,0.3,0.1,0.5l-4.2,20.9c-0.3,1.4-0.4,2.6-0.2,3.6c0.1,1,0.4,1.9,0.9,2.5
				c0.5,0.7,1.1,1.2,1.9,1.5s1.8,0.5,2.9,0.5c1.2,0,2.2-0.2,3.2-0.5c1-0.4,1.9-0.9,2.6-1.6c0.8-0.7,1.4-1.5,1.9-2.5
				c0.5-1,0.9-2.1,1.2-3.3l4.2-21.1c0-0.2,0.1-0.3,0.3-0.5c0.1-0.1,0.3-0.3,0.6-0.4c0.3-0.1,0.7-0.2,1.1-0.2
				c0.5-0.1,1.1-0.1,1.7-0.1c0.7,0,1.3,0,1.7,0.1c0.4,0.1,0.8,0.1,1,0.2c0.3,0.1,0.4,0.2,0.5,0.4c0.1,0.1,0.1,0.3,0.1,0.5
				L287.9,94.7z"/>
			<path class="st0" d="M327.9,73.5c0,0.3-0.1,0.7-0.4,1c-0.2,0.4-0.6,0.8-1.1,1.4l-12.5,13.2l7.4,15.7c0.1,0.4,0.3,0.7,0.3,0.9
				c0.1,0.3,0.1,0.5,0.1,0.7c0,0.3-0.1,0.5-0.2,0.6c-0.1,0.2-0.3,0.3-0.6,0.4c-0.3,0.1-0.7,0.2-1.2,0.2c-0.5,0.1-1.1,0.1-1.9,0.1
				c-0.8,0-1.4,0-1.8-0.1c-0.5,0-0.8-0.1-1.1-0.2c-0.3-0.1-0.5-0.2-0.6-0.4c-0.1-0.2-0.2-0.4-0.3-0.6l-7.5-16.7l-3.3,16.8
				c0,0.2-0.1,0.4-0.3,0.5c-0.1,0.1-0.4,0.3-0.7,0.4c-0.3,0.1-0.7,0.2-1.1,0.2c-0.5,0-1,0.1-1.7,0.1c-0.7,0-1.3,0-1.7-0.1
				c-0.4,0-0.8-0.1-1-0.2c-0.3-0.1-0.4-0.2-0.5-0.4c-0.1-0.1-0.1-0.3-0.1-0.5l6.6-33.3c0-0.2,0.1-0.4,0.2-0.5
				c0.1-0.1,0.4-0.2,0.7-0.3c0.3-0.1,0.7-0.2,1.1-0.2c0.5,0,1-0.1,1.8-0.1c0.7,0,1.3,0,1.7,0.1c0.4,0,0.8,0.1,1,0.2
				c0.3,0.1,0.4,0.2,0.5,0.3c0.1,0.1,0.1,0.3,0.1,0.5l-3,15L320,73.5c0.2-0.2,0.4-0.4,0.6-0.6c0.2-0.2,0.5-0.3,0.8-0.4
				c0.3-0.1,0.7-0.2,1.2-0.2c0.5,0,1.1-0.1,1.8-0.1c0.7,0,1.3,0,1.8,0.1c0.5,0,0.8,0.1,1.1,0.2c0.3,0.1,0.4,0.2,0.5,0.4
				C327.8,73.1,327.9,73.3,327.9,73.5z"/>
			<path class="st0" d="M358.9,80.1c0,1.2-0.2,2.3-0.5,3.5c-0.3,1.1-0.8,2.2-1.5,3.2c-0.7,1-1.6,1.9-2.7,2.7c-1.1,0.8-2.4,1.5-4,2
				c0.9,0.3,1.6,1,2.2,2.1c0.6,1,1.1,2.4,1.5,4.2l1.4,7.2c0.1,0.4,0.1,0.8,0.2,1.1c0,0.3,0.1,0.6,0.1,0.8c0,0.2-0.1,0.3-0.2,0.5
				c-0.1,0.1-0.3,0.2-0.6,0.3c-0.3,0.1-0.7,0.1-1.3,0.2c-0.5,0-1.2,0.1-2,0.1c-0.8,0-1.4,0-1.8-0.1c-0.5,0-0.8-0.1-1.1-0.2
				c-0.3-0.1-0.4-0.2-0.5-0.4c-0.1-0.2-0.1-0.4-0.2-0.6l-1.4-7.8c-0.1-0.9-0.3-1.7-0.6-2.4c-0.2-0.7-0.6-1.3-0.9-1.7
				c-0.4-0.5-0.8-0.8-1.4-1c-0.6-0.2-1.2-0.3-2-0.3h-2.2l-2.7,13.4c0,0.2-0.1,0.3-0.3,0.5c-0.1,0.1-0.4,0.3-0.7,0.4
				c-0.3,0.1-0.7,0.2-1.2,0.2c-0.5,0-1.1,0.1-1.7,0.1c-0.7,0-1.3,0-1.7-0.1c-0.4,0-0.8-0.1-1-0.2c-0.3-0.1-0.4-0.2-0.5-0.3
				c-0.1-0.1-0.1-0.3-0.1-0.5l6.4-32c0.1-0.8,0.5-1.4,1-1.7c0.5-0.4,1.1-0.5,1.7-0.5h9.4c1.7,0,3.1,0.2,4.5,0.5
				c1.3,0.3,2.5,0.8,3.4,1.4c0.9,0.6,1.7,1.4,2.2,2.4C358.6,77.7,358.9,78.8,358.9,80.1z M351.2,81.5c0-0.5-0.1-1-0.3-1.4
				c-0.2-0.4-0.4-0.8-0.8-1.1c-0.4-0.3-0.9-0.6-1.5-0.7c-0.6-0.2-1.3-0.3-2.2-0.3h-4.1l-2,10h3.4c1.4,0,2.5-0.2,3.5-0.6
				c0.9-0.4,1.7-0.9,2.3-1.5c0.6-0.6,1-1.3,1.3-2.1C351.1,83,351.2,82.3,351.2,81.5z"/>
			<path class="st0" d="M393,105c0.1,0.7,0.1,1.2,0.1,1.6c0,0.4-0.1,0.7-0.4,0.9s-0.6,0.3-1.2,0.4c-0.6,0-1.3,0.1-2.3,0.1
				c-0.7,0-1.3,0-1.7,0c-0.4,0-0.8-0.1-1-0.1c-0.2-0.1-0.4-0.2-0.5-0.3c-0.1-0.1-0.1-0.3-0.2-0.6l-1-7.1h-13.2l-3.6,6.9
				c-0.1,0.3-0.3,0.5-0.4,0.6c-0.2,0.2-0.4,0.3-0.7,0.4c-0.3,0.1-0.7,0.2-1.2,0.2c-0.5,0-1.2,0.1-1.9,0.1c-0.8,0-1.5,0-1.9-0.1
				c-0.5-0.1-0.8-0.2-0.9-0.4c-0.2-0.2-0.2-0.5-0.1-0.9c0.1-0.4,0.3-0.9,0.7-1.5l17.1-31.2c0.2-0.3,0.4-0.6,0.5-0.7
				c0.2-0.2,0.4-0.3,0.8-0.4c0.3-0.1,0.8-0.2,1.4-0.2c0.6,0,1.3,0,2.2,0c1.1,0,1.9,0,2.5,0c0.6,0,1.1,0.1,1.5,0.2
				c0.3,0.1,0.6,0.2,0.7,0.4c0.1,0.2,0.2,0.5,0.2,0.8L393,105z M382.3,79.2L382.3,79.2l-7.9,15h9.9L382.3,79.2z"/>
			<path class="st0" d="M407.7,106.7c0,0.2-0.1,0.3-0.3,0.5c-0.1,0.1-0.4,0.3-0.7,0.4c-0.3,0.1-0.7,0.2-1.2,0.2
				c-0.5,0-1.1,0.1-1.7,0.1c-0.7,0-1.3,0-1.7-0.1c-0.4,0-0.8-0.1-1-0.2c-0.3-0.1-0.4-0.2-0.5-0.4c-0.1-0.1-0.1-0.3-0.1-0.5l6.7-33.3
				c0-0.2,0.1-0.3,0.3-0.5c0.2-0.1,0.4-0.3,0.7-0.4c0.3-0.1,0.7-0.2,1.1-0.2c0.5,0,1-0.1,1.7-0.1c0.7,0,1.3,0,1.7,0.1
				c0.4,0,0.8,0.1,1.1,0.2c0.3,0.1,0.4,0.2,0.5,0.4c0.1,0.1,0.1,0.3,0.1,0.5L407.7,106.7z"/>
			<path class="st0" d="M447.5,105.2c-0.1,0.4-0.2,0.8-0.4,1.1c-0.2,0.3-0.5,0.6-0.7,0.8c-0.3,0.2-0.6,0.4-0.9,0.5
				c-0.3,0.1-0.7,0.1-1,0.1h-3c-0.7,0-1.2-0.1-1.6-0.2c-0.4-0.1-0.8-0.4-1.1-0.7c-0.3-0.3-0.6-0.8-0.8-1.3c-0.2-0.6-0.5-1.3-0.7-2.1
				l-5.2-15.7c-0.4-1.2-0.8-2.4-1.1-3.7c-0.3-1.2-0.7-2.5-1-3.7h-0.1c-0.2,1.4-0.4,2.8-0.6,4.2c-0.2,1.4-0.5,2.8-0.8,4.2l-3.6,18
				c0,0.2-0.1,0.3-0.3,0.5c-0.1,0.1-0.3,0.3-0.6,0.4c-0.3,0.1-0.6,0.2-1,0.2c-0.4,0.1-1,0.1-1.6,0.1c-0.6,0-1.2,0-1.6-0.1
				c-0.4-0.1-0.7-0.1-0.9-0.2c-0.2-0.1-0.4-0.2-0.4-0.4c-0.1-0.1-0.1-0.3,0-0.5l6.3-31.7c0.2-0.9,0.5-1.5,1.1-1.9
				c0.6-0.4,1.2-0.6,2-0.6h3.7c0.6,0,1.1,0.1,1.5,0.2c0.4,0.1,0.8,0.4,1.1,0.7c0.3,0.3,0.6,0.7,0.8,1.2c0.2,0.5,0.4,1.1,0.6,1.7
				l5.2,15.9c0.3,1,0.7,2,0.9,3c0.3,1,0.6,2,0.9,3h0.1c0.2-1.3,0.4-2.7,0.7-4c0.2-1.4,0.5-2.7,0.7-4l3.3-16.6c0-0.2,0.1-0.3,0.2-0.5
				c0.1-0.1,0.3-0.2,0.6-0.3c0.3-0.1,0.6-0.1,1-0.2c0.4,0,0.9-0.1,1.6-0.1c0.6,0,1.2,0,1.6,0.1c0.4,0,0.7,0.1,1,0.2
				c0.2,0.1,0.4,0.2,0.4,0.3c0.1,0.1,0.1,0.3,0.1,0.5L447.5,105.2z"/>
			<path class="st0" d="M485.1,73.5c0,0.1,0,0.3,0,0.6c0,0.3-0.1,0.6-0.1,0.9c-0.1,0.3-0.1,0.7-0.2,1c-0.1,0.4-0.2,0.7-0.3,1
				c-0.1,0.3-0.3,0.5-0.5,0.7c-0.2,0.2-0.4,0.3-0.6,0.3h-12.6l-1.7,8.6h10.7c0.3,0,0.4,0.1,0.5,0.3c0.1,0.2,0.2,0.4,0.2,0.8
				c0,0.1,0,0.3,0,0.6c0,0.3-0.1,0.6-0.1,0.9c-0.1,0.3-0.1,0.7-0.2,1c-0.1,0.3-0.2,0.7-0.3,1c-0.1,0.3-0.3,0.5-0.5,0.7
				c-0.2,0.2-0.4,0.3-0.6,0.3h-10.6l-2,9.9h12.7c0.2,0,0.4,0.1,0.5,0.3c0.1,0.2,0.2,0.5,0.2,0.8c0,0.1,0,0.3,0,0.6
				c0,0.3-0.1,0.6-0.1,0.9c-0.1,0.3-0.1,0.7-0.2,1c-0.1,0.3-0.2,0.7-0.3,1c-0.1,0.3-0.3,0.5-0.5,0.7c-0.2,0.2-0.4,0.3-0.6,0.3h-17.7
				c-0.3,0-0.6,0-0.8-0.1c-0.2-0.1-0.4-0.2-0.6-0.4c-0.2-0.2-0.3-0.4-0.3-0.7c-0.1-0.3,0-0.6,0-1l6.1-30.7c0.2-0.8,0.5-1.4,1-1.7
				c0.5-0.4,1-0.5,1.6-0.5h17.5C484.8,72.5,485.1,72.8,485.1,73.5z"/>
			<path class="st0" d="M533.2,75.9c0,0.5-0.1,1.2-0.3,2c-0.2,0.9-0.4,1.5-0.7,2.1c-0.3,0.5-0.6,0.8-0.9,0.8c-0.2,0-0.5-0.1-0.8-0.4
				c-0.3-0.3-0.8-0.6-1.3-1c-0.5-0.3-1.2-0.7-2-1c-0.8-0.3-1.8-0.4-3-0.4c-1.3,0-2.6,0.3-3.7,0.8c-1.1,0.5-2.1,1.2-3,2.1
				c-0.9,0.9-1.6,1.9-2.3,3c-0.7,1.1-1.2,2.3-1.6,3.6c-0.4,1.2-0.7,2.5-1,3.7c-0.2,1.2-0.3,2.4-0.3,3.4c0,1.3,0.2,2.4,0.5,3.3
				c0.3,1,0.8,1.8,1.4,2.4c0.6,0.6,1.3,1.1,2.2,1.4c0.9,0.3,1.8,0.5,2.9,0.5c1.3,0,2.4-0.1,3.3-0.4c0.9-0.3,1.7-0.6,2.3-0.9
				c0.6-0.3,1.2-0.6,1.6-0.9c0.4-0.3,0.8-0.4,1.2-0.4c0.2,0,0.4,0.1,0.5,0.3c0.1,0.2,0.1,0.4,0.1,0.7c0,0.1,0,0.3-0.1,0.6
				c0,0.3-0.1,0.5-0.1,0.9c-0.1,0.3-0.1,0.7-0.2,1c-0.1,0.4-0.2,0.7-0.2,1c-0.1,0.3-0.2,0.6-0.3,0.9c-0.1,0.3-0.3,0.5-0.5,0.7
				c-0.2,0.2-0.6,0.5-1.2,0.8c-0.6,0.3-1.3,0.6-2.1,0.9c-0.8,0.3-1.8,0.5-2.8,0.7c-1.1,0.2-2.2,0.3-3.4,0.3c-2,0-3.8-0.3-5.3-0.8
				c-1.6-0.5-2.9-1.3-4-2.4c-1.1-1.1-2-2.4-2.6-4c-0.6-1.6-0.9-3.5-0.9-5.7c0-1.7,0.2-3.4,0.5-5.3c0.3-1.8,0.9-3.6,1.6-5.3
				c0.7-1.7,1.6-3.4,2.7-5c1.1-1.6,2.3-2.9,3.8-4.1c1.5-1.2,3.1-2.1,5-2.8c1.9-0.7,3.9-1,6.2-1c1.3,0,2.5,0.1,3.6,0.4
				c1.1,0.3,2.1,0.6,3,1c0.8,0.4,1.4,0.8,1.8,1.2C533,74.9,533.2,75.3,533.2,75.9z"/>
			<path class="st0" d="M542.5,106.7c0,0.2-0.1,0.3-0.3,0.5c-0.1,0.1-0.4,0.3-0.7,0.4c-0.3,0.1-0.7,0.2-1.2,0.2
				c-0.5,0-1.1,0.1-1.7,0.1c-0.7,0-1.3,0-1.7-0.1c-0.4,0-0.8-0.1-1-0.2c-0.3-0.1-0.4-0.2-0.5-0.4c-0.1-0.1-0.1-0.3-0.1-0.5l6.7-33.3
				c0-0.2,0.1-0.3,0.3-0.5c0.2-0.1,0.4-0.3,0.7-0.4c0.3-0.1,0.7-0.2,1.1-0.2c0.5,0,1-0.1,1.7-0.1c0.7,0,1.3,0,1.7,0.1
				c0.4,0,0.8,0.1,1.1,0.2c0.3,0.1,0.4,0.2,0.5,0.4c0.1,0.1,0.1,0.3,0.1,0.5L542.5,106.7z"/>
			<path class="st0" d="M570.8,106.4c-0.2,0.3-0.3,0.6-0.5,0.7c-0.2,0.2-0.4,0.3-0.8,0.4c-0.3,0.1-0.8,0.2-1.4,0.2
				c-0.6,0-1.3,0-2.2,0c-1.1,0-1.9,0-2.6,0c-0.6,0-1.1-0.1-1.4-0.2c-0.3-0.1-0.5-0.2-0.7-0.4s-0.2-0.5-0.2-0.8l-4.3-31.8
				c-0.1-0.5-0.1-0.9-0.1-1.2c0-0.3,0.1-0.5,0.4-0.7c0.2-0.2,0.6-0.3,1.1-0.3c0.5,0,1.2-0.1,2.1-0.1c0.9,0,1.6,0,2.1,0.1
				c0.5,0,0.9,0.1,1.1,0.2c0.3,0.1,0.4,0.2,0.5,0.4c0.1,0.2,0.1,0.4,0.2,0.7l3,27.1h0.1l13.7-27.2c0.1-0.3,0.3-0.5,0.4-0.6
				c0.2-0.2,0.4-0.3,0.7-0.4c0.3-0.1,0.7-0.2,1.2-0.2c0.5,0,1.2-0.1,2-0.1c0.9,0,1.6,0,2,0.1c0.5,0.1,0.8,0.2,1,0.4
				c0.2,0.2,0.2,0.5,0.1,0.9c-0.1,0.4-0.4,0.9-0.7,1.6L570.8,106.4z"/>
			<path class="st0" d="M596.2,106.7c0,0.2-0.1,0.3-0.3,0.5c-0.1,0.1-0.4,0.3-0.7,0.4c-0.3,0.1-0.7,0.2-1.2,0.2
				c-0.5,0-1.1,0.1-1.7,0.1c-0.7,0-1.3,0-1.7-0.1c-0.4,0-0.8-0.1-1-0.2c-0.3-0.1-0.4-0.2-0.5-0.4c-0.1-0.1-0.1-0.3-0.1-0.5l6.7-33.3
				c0-0.2,0.1-0.3,0.3-0.5c0.2-0.1,0.4-0.3,0.7-0.4c0.3-0.1,0.7-0.2,1.1-0.2c0.5,0,1-0.1,1.7-0.1c0.7,0,1.3,0,1.7,0.1
				c0.4,0,0.8,0.1,1.1,0.2c0.3,0.1,0.4,0.2,0.5,0.4c0.1,0.1,0.1,0.3,0.1,0.5L596.2,106.7z"/>
			<path class="st0" d="M626.8,102.9c0,0.1,0,0.3,0,0.6c0,0.3-0.1,0.6-0.1,1c-0.1,0.4-0.1,0.7-0.2,1.1c-0.1,0.4-0.2,0.7-0.4,1
				c-0.1,0.3-0.3,0.6-0.5,0.8c-0.2,0.2-0.4,0.3-0.6,0.3h-16.1c-0.3,0-0.6,0-0.8-0.1c-0.2-0.1-0.4-0.2-0.6-0.4
				c-0.2-0.2-0.3-0.4-0.3-0.7c-0.1-0.3,0-0.6,0-1l6.4-32c0-0.2,0.1-0.3,0.2-0.5c0.1-0.1,0.4-0.3,0.7-0.4c0.3-0.1,0.7-0.2,1.1-0.2
				c0.5,0,1-0.1,1.8-0.1c0.7,0,1.3,0,1.7,0.1c0.5,0,0.8,0.1,1.1,0.2c0.3,0.1,0.4,0.2,0.5,0.4c0.1,0.1,0.1,0.3,0.1,0.5l-5.7,28.3
				h11.1c0.3,0,0.4,0.1,0.5,0.3C626.8,102.3,626.8,102.5,626.8,102.9z"/>
			<path class="st0" d="M191.9,137.2c0,0.1,0,0.4,0,0.6c0,0.3-0.1,0.6-0.1,0.9c-0.1,0.3-0.1,0.7-0.2,1c-0.1,0.3-0.2,0.6-0.3,0.9
				c-0.1,0.3-0.2,0.5-0.4,0.7c-0.1,0.2-0.3,0.3-0.5,0.3c-0.3,0-0.6-0.1-1-0.3c-0.4-0.2-0.8-0.5-1.4-0.7c-0.6-0.3-1.2-0.5-1.9-0.7
				c-0.7-0.2-1.6-0.3-2.5-0.3c-1,0-1.8,0.1-2.5,0.4c-0.7,0.3-1.2,0.6-1.7,1.1c-0.4,0.4-0.8,0.9-1,1.5c-0.2,0.6-0.3,1.1-0.3,1.7
				c0,0.7,0.2,1.2,0.5,1.7c0.3,0.5,0.8,1,1.3,1.4c0.5,0.4,1.2,0.8,1.9,1.2c0.7,0.4,1.4,0.8,2.1,1.3c0.7,0.4,1.4,0.9,2.1,1.4
				c0.7,0.5,1.3,1.1,1.9,1.8c0.5,0.7,1,1.5,1.3,2.3c0.3,0.9,0.5,1.9,0.5,3c0,1.7-0.3,3.3-1,4.7c-0.7,1.5-1.7,2.7-2.9,3.8
				c-1.3,1.1-2.8,1.9-4.6,2.5c-1.8,0.6-3.8,0.9-5.9,0.9c-1.2,0-2.3-0.1-3.3-0.3c-1-0.2-1.9-0.4-2.7-0.7c-0.8-0.3-1.4-0.6-1.9-0.9
				c-0.5-0.3-0.9-0.6-1.2-0.9c-0.3-0.3-0.4-0.7-0.4-1.2c0-0.1,0-0.4,0.1-0.7c0-0.3,0.1-0.6,0.1-0.9c0.1-0.3,0.1-0.7,0.2-1
				c0.1-0.4,0.2-0.7,0.3-1c0.1-0.3,0.3-0.5,0.4-0.7c0.2-0.2,0.3-0.3,0.5-0.3c0.3,0,0.7,0.1,1.1,0.4c0.4,0.3,1,0.6,1.6,0.9
				c0.6,0.3,1.4,0.6,2.3,0.9c0.9,0.3,1.9,0.4,3.1,0.4c1.1,0,2-0.1,2.8-0.4c0.8-0.3,1.5-0.6,2-1.1c0.5-0.5,1-1,1.2-1.6
				c0.3-0.6,0.4-1.3,0.4-2.1c0-0.7-0.2-1.3-0.5-1.8c-0.3-0.5-0.8-1-1.3-1.4c-0.5-0.4-1.1-0.8-1.8-1.2c-0.7-0.4-1.4-0.8-2.1-1.2
				c-0.7-0.4-1.4-0.9-2.1-1.4c-0.7-0.5-1.3-1.1-1.8-1.8c-0.5-0.7-1-1.5-1.3-2.4c-0.3-0.9-0.5-1.9-0.5-3.1c0-1.6,0.3-3.1,1-4.5
				c0.7-1.4,1.6-2.6,2.7-3.5c1.2-1,2.5-1.8,4.2-2.3c1.6-0.6,3.4-0.8,5.3-0.8c0.9,0,1.8,0.1,2.6,0.2c0.8,0.1,1.6,0.3,2.2,0.5
				c0.7,0.2,1.2,0.4,1.7,0.7c0.5,0.3,0.8,0.5,1,0.6c0.2,0.2,0.3,0.4,0.4,0.5C191.9,136.6,191.9,136.9,191.9,137.2z"/>
			<path class="st0" d="M231.3,146.3c0,1.6-0.1,3.3-0.4,5.1c-0.3,1.8-0.8,3.6-1.4,5.4c-0.6,1.8-1.5,3.5-2.5,5.1
				c-1.1,1.6-2.3,3.1-3.8,4.3c-1.5,1.2-3.3,2.2-5.3,3c-2,0.7-4.3,1.1-6.9,1.1c-2.2,0-4.1-0.2-5.8-0.7c-1.7-0.5-3.1-1.2-4.2-2.3
				c-1.2-1-2-2.3-2.6-3.8c-0.6-1.5-0.9-3.4-0.9-5.4c0-1.7,0.1-3.5,0.4-5.3c0.3-1.9,0.8-3.7,1.4-5.5c0.7-1.8,1.5-3.5,2.6-5.1
				c1.1-1.6,2.4-3,3.9-4.3c1.5-1.2,3.3-2.2,5.3-2.9c2-0.7,4.3-1.1,6.9-1.1c2.2,0,4.1,0.2,5.8,0.7c1.7,0.5,3.1,1.3,4.2,2.3
				c1.1,1,2,2.3,2.6,3.9C231,142.3,231.3,144.1,231.3,146.3z M223.7,146.9c0-1.1-0.1-2.1-0.4-3c-0.2-0.9-0.6-1.7-1.2-2.3
				c-0.5-0.6-1.3-1.1-2.1-1.4c-0.9-0.3-2-0.5-3.2-0.5c-1.6,0-3,0.3-4.2,0.9c-1.2,0.6-2.2,1.4-3.1,2.4c-0.9,1-1.6,2.1-2.2,3.4
				c-0.6,1.3-1.1,2.5-1.4,3.8c-0.4,1.3-0.6,2.6-0.8,3.8c-0.2,1.2-0.2,2.3-0.2,3.2c0,1.1,0.1,2.1,0.4,3c0.2,0.9,0.6,1.6,1.2,2.2
				c0.6,0.6,1.3,1.1,2.1,1.4c0.9,0.3,2,0.5,3.3,0.5c1.6,0,2.9-0.3,4.1-0.9c1.2-0.6,2.2-1.4,3.1-2.4c0.9-1,1.6-2.1,2.2-3.3
				c0.6-1.3,1.1-2.5,1.4-3.8c0.4-1.3,0.6-2.5,0.8-3.8C223.7,149,223.7,147.9,223.7,146.9z"/>
			<path class="st0" d="M266,137.9c0,0.5-0.1,1.2-0.3,2c-0.2,0.9-0.4,1.5-0.7,2.1c-0.3,0.5-0.6,0.8-0.9,0.8c-0.2,0-0.5-0.1-0.8-0.4
				s-0.8-0.6-1.3-1c-0.5-0.3-1.2-0.7-2-1c-0.8-0.3-1.8-0.4-3-0.4c-1.3,0-2.6,0.3-3.7,0.8c-1.1,0.5-2.1,1.2-3,2.1
				c-0.9,0.9-1.6,1.9-2.3,3c-0.7,1.1-1.2,2.3-1.6,3.6c-0.4,1.2-0.7,2.5-1,3.7c-0.2,1.2-0.3,2.4-0.3,3.4c0,1.3,0.2,2.4,0.5,3.3
				c0.3,1,0.8,1.8,1.4,2.4c0.6,0.6,1.3,1.1,2.2,1.4c0.9,0.3,1.8,0.5,2.9,0.5c1.3,0,2.4-0.1,3.3-0.4c0.9-0.3,1.7-0.6,2.3-0.9
				c0.6-0.3,1.2-0.6,1.6-0.9c0.4-0.3,0.8-0.4,1.2-0.4c0.2,0,0.4,0.1,0.5,0.3c0.1,0.2,0.1,0.4,0.1,0.7c0,0.1,0,0.3-0.1,0.6
				c0,0.3-0.1,0.5-0.1,0.9c-0.1,0.3-0.1,0.7-0.2,1c-0.1,0.4-0.2,0.7-0.2,1c-0.1,0.3-0.2,0.6-0.3,0.9c-0.1,0.3-0.3,0.5-0.5,0.7
				c-0.2,0.2-0.6,0.5-1.2,0.8c-0.6,0.3-1.3,0.6-2.1,0.9c-0.8,0.3-1.8,0.5-2.8,0.7c-1.1,0.2-2.2,0.3-3.4,0.3c-2,0-3.8-0.3-5.3-0.8
				c-1.6-0.5-2.9-1.3-4-2.4c-1.1-1.1-2-2.4-2.6-4c-0.6-1.6-0.9-3.5-0.9-5.7c0-1.7,0.2-3.4,0.5-5.3c0.3-1.8,0.9-3.6,1.6-5.3
				c0.7-1.7,1.6-3.4,2.7-5c1.1-1.6,2.3-2.9,3.8-4.1c1.5-1.2,3.1-2.1,5-2.8c1.9-0.7,3.9-1,6.2-1c1.3,0,2.5,0.1,3.6,0.4
				c1.1,0.3,2.1,0.6,3,1c0.8,0.4,1.4,0.8,1.8,1.2C265.9,136.9,266,137.3,266,137.9z"/>
			<path class="st0" d="M275.4,168.7c0,0.2-0.1,0.3-0.3,0.5c-0.1,0.1-0.4,0.3-0.7,0.4c-0.3,0.1-0.7,0.2-1.2,0.2
				c-0.5,0-1.1,0.1-1.7,0.1c-0.7,0-1.3,0-1.7-0.1c-0.4,0-0.8-0.1-1-0.2c-0.3-0.1-0.4-0.2-0.5-0.4c-0.1-0.1-0.1-0.3-0.1-0.5l6.7-33.3
				c0-0.2,0.1-0.3,0.3-0.5c0.2-0.1,0.4-0.3,0.7-0.4c0.3-0.1,0.7-0.2,1.1-0.2c0.5,0,1-0.1,1.7-0.1c0.7,0,1.3,0,1.7,0.1
				c0.4,0,0.8,0.1,1.1,0.2c0.3,0.1,0.4,0.2,0.5,0.4c0.1,0.1,0.1,0.3,0.1,0.5L275.4,168.7z"/>
			<path class="st0" d="M313.3,135.5c0,0.1,0,0.3,0,0.6c0,0.3-0.1,0.6-0.1,0.9c-0.1,0.3-0.1,0.7-0.2,1c-0.1,0.4-0.2,0.7-0.3,1
				c-0.1,0.3-0.3,0.5-0.5,0.7c-0.2,0.2-0.4,0.3-0.6,0.3h-12.6l-1.7,8.6h10.7c0.3,0,0.4,0.1,0.5,0.3c0.1,0.2,0.2,0.4,0.2,0.8
				c0,0.1,0,0.3,0,0.6c0,0.3-0.1,0.6-0.1,0.9c-0.1,0.3-0.1,0.7-0.2,1c-0.1,0.3-0.2,0.7-0.3,1c-0.1,0.3-0.3,0.5-0.5,0.7
				c-0.2,0.2-0.4,0.3-0.6,0.3h-10.6l-2,9.9h12.7c0.2,0,0.4,0.1,0.5,0.3c0.1,0.2,0.2,0.5,0.2,0.8c0,0.1,0,0.3,0,0.6
				c0,0.3-0.1,0.6-0.1,0.9c-0.1,0.3-0.1,0.7-0.2,1c-0.1,0.3-0.2,0.7-0.3,1c-0.1,0.3-0.3,0.5-0.5,0.7c-0.2,0.2-0.4,0.3-0.6,0.3h-17.7
				c-0.3,0-0.6,0-0.8-0.1c-0.2-0.1-0.4-0.2-0.6-0.4c-0.2-0.2-0.3-0.4-0.3-0.7c-0.1-0.3,0-0.6,0-1l6.1-30.7c0.2-0.8,0.5-1.4,1-1.7
				c0.5-0.4,1-0.5,1.6-0.5h17.5C313,134.5,313.3,134.8,313.3,135.5z"/>
			<path class="st0" d="M346.1,135.6c0,0.1,0,0.3,0,0.6c0,0.3-0.1,0.6-0.1,0.9c-0.1,0.3-0.1,0.7-0.2,1.1c-0.1,0.4-0.2,0.7-0.4,1
				c-0.1,0.3-0.3,0.6-0.5,0.8c-0.2,0.2-0.4,0.3-0.6,0.3h-8.8l-5.7,28.4c-0.1,0.2-0.2,0.3-0.3,0.5c-0.1,0.1-0.4,0.3-0.7,0.4
				c-0.3,0.1-0.7,0.2-1.1,0.2c-0.5,0.1-1,0.1-1.8,0.1c-0.7,0-1.3,0-1.7-0.1c-0.5-0.1-0.8-0.1-1-0.2c-0.2-0.1-0.4-0.2-0.5-0.4
				c-0.1-0.1-0.1-0.3-0.1-0.5l5.7-28.4h-8.8c-0.3,0-0.5-0.1-0.6-0.3c-0.1-0.2-0.2-0.5-0.2-0.8c0-0.1,0-0.4,0-0.6
				c0-0.3,0.1-0.6,0.1-1c0.1-0.4,0.1-0.7,0.2-1.1c0.1-0.4,0.2-0.7,0.4-1c0.1-0.3,0.3-0.6,0.5-0.7c0.2-0.2,0.4-0.3,0.6-0.3h24.8
				c0.2,0,0.4,0.1,0.5,0.3C346,135,346.1,135.3,346.1,135.6z"/>
			<path class="st0" d="M363.4,156.3l-2.4,12.4c-0.1,0.2-0.2,0.3-0.3,0.5c-0.1,0.1-0.4,0.3-0.7,0.4c-0.3,0.1-0.7,0.2-1.2,0.2
				c-0.5,0-1.1,0.1-1.7,0.1c-0.7,0-1.3,0-1.7-0.1c-0.5,0-0.8-0.1-1-0.2c-0.2-0.1-0.4-0.2-0.5-0.4c-0.1-0.1-0.1-0.3-0.1-0.5l2.4-12.4
				l-5.8-19.2c-0.2-0.6-0.3-1.1-0.4-1.5c0-0.4,0-0.7,0.3-0.9c0.2-0.2,0.6-0.3,1.1-0.4c0.5-0.1,1.3-0.1,2.3-0.1c0.8,0,1.4,0,1.8,0
				c0.4,0,0.8,0.1,1,0.2c0.3,0.1,0.4,0.2,0.5,0.4c0.1,0.2,0.2,0.4,0.3,0.7l2.4,8.5c0.3,1,0.5,2,0.7,2.9c0.2,0.9,0.4,1.9,0.6,2.9h0.1
				c0.5-1,1-1.9,1.6-2.9c0.5-0.9,1.1-1.9,1.7-2.8l5.6-8.6c0.1-0.2,0.3-0.4,0.5-0.6c0.2-0.2,0.4-0.3,0.7-0.4c0.3-0.1,0.7-0.2,1.2-0.2
				c0.5,0,1.1-0.1,1.9-0.1c1.1,0,1.9,0,2.4,0.1c0.6,0.1,0.9,0.2,1.1,0.4c0.2,0.2,0.2,0.5,0,0.9c-0.2,0.4-0.5,0.9-0.9,1.5
				L363.4,156.3z"/>
			<path class="st0" d="M423.1,143.1c0,1-0.1,2.1-0.3,3.2c-0.2,1.1-0.6,2.2-1.1,3.3c-0.5,1.1-1.2,2.1-2,3c-0.8,1-1.8,1.8-3,2.5
				c-1.2,0.7-2.5,1.3-4.1,1.7c-1.5,0.4-3.4,0.6-5.4,0.6h-3.7l-2.3,11.3c0,0.2-0.1,0.3-0.3,0.5c-0.1,0.1-0.4,0.3-0.7,0.4
				c-0.3,0.1-0.7,0.2-1.2,0.2c-0.5,0-1.1,0.1-1.7,0.1c-0.7,0-1.2,0-1.7-0.1c-0.4,0-0.8-0.1-1-0.2c-0.3-0.1-0.4-0.2-0.5-0.3
				c-0.1-0.1-0.1-0.3-0.1-0.5l6.3-31.7c0.2-0.9,0.5-1.5,1.1-1.9c0.5-0.4,1.2-0.6,2-0.6h7.7c0.9,0,1.8,0,2.5,0.1
				c0.7,0.1,1.5,0.2,2.2,0.3c1.1,0.2,2.1,0.6,3,1c0.9,0.5,1.6,1,2.2,1.7c0.6,0.7,1.1,1.5,1.4,2.4
				C422.9,140.9,423.1,141.9,423.1,143.1z M415.6,143.9c0-0.9-0.2-1.6-0.6-2.3c-0.4-0.6-1.1-1.1-1.9-1.3c-0.4-0.1-0.8-0.2-1.3-0.3
				c-0.5,0-1-0.1-1.6-0.1H407l-2.3,11.9h3.3c1,0,1.9-0.1,2.7-0.4c0.7-0.2,1.4-0.6,1.9-1c0.6-0.4,1-0.9,1.4-1.4
				c0.4-0.5,0.7-1.1,1-1.7c0.2-0.6,0.4-1.2,0.5-1.8C415.5,145.1,415.6,144.5,415.6,143.9z"/>
			<path class="st0" d="M446.7,164.9c0,0.1,0,0.3,0,0.6c0,0.3-0.1,0.6-0.1,1s-0.1,0.7-0.2,1.1c-0.1,0.4-0.2,0.7-0.4,1
				c-0.1,0.3-0.3,0.6-0.5,0.8c-0.2,0.2-0.4,0.3-0.6,0.3h-16.1c-0.3,0-0.6,0-0.8-0.1c-0.2-0.1-0.4-0.2-0.6-0.4
				c-0.2-0.2-0.3-0.4-0.3-0.7c-0.1-0.3,0-0.6,0-1l6.4-32c0-0.2,0.1-0.3,0.2-0.5c0.1-0.1,0.4-0.3,0.7-0.4c0.3-0.1,0.7-0.2,1.1-0.2
				c0.5,0,1-0.1,1.8-0.1c0.7,0,1.3,0,1.7,0.1c0.5,0,0.8,0.1,1.1,0.2c0.3,0.1,0.4,0.2,0.5,0.4c0.1,0.1,0.1,0.3,0.1,0.5l-5.7,28.3H446
				c0.3,0,0.4,0.1,0.5,0.3C446.6,164.3,446.7,164.5,446.7,164.9z"/>
			<path class="st0" d="M482.4,167c0.1,0.7,0.1,1.2,0.1,1.6c0,0.4-0.1,0.7-0.4,0.9c-0.2,0.2-0.6,0.3-1.2,0.4c-0.6,0-1.3,0.1-2.3,0.1
				c-0.7,0-1.3,0-1.7,0c-0.4,0-0.8-0.1-1-0.1c-0.2-0.1-0.4-0.2-0.5-0.3c-0.1-0.1-0.1-0.3-0.2-0.6l-1-7.1h-13.2l-3.6,6.9
				c-0.1,0.3-0.3,0.5-0.4,0.6c-0.2,0.2-0.4,0.3-0.7,0.4c-0.3,0.1-0.7,0.2-1.2,0.2c-0.5,0-1.2,0.1-1.9,0.1c-0.8,0-1.5,0-1.9-0.1
				c-0.5-0.1-0.8-0.2-0.9-0.4c-0.2-0.2-0.2-0.5-0.1-0.9c0.1-0.4,0.3-0.9,0.7-1.5l17.1-31.2c0.2-0.3,0.4-0.6,0.5-0.7
				c0.2-0.2,0.4-0.3,0.8-0.4c0.3-0.1,0.8-0.2,1.4-0.2c0.6,0,1.3,0,2.2,0c1.1,0,1.9,0,2.5,0c0.6,0,1.1,0.1,1.5,0.2
				c0.3,0.1,0.6,0.2,0.7,0.4c0.1,0.2,0.2,0.5,0.2,0.8L482.4,167z M471.7,141.2L471.7,141.2l-7.9,15h9.9L471.7,141.2z"/>
			<path class="st0" d="M515.4,135.6c0,0.1,0,0.3,0,0.6c0,0.3-0.1,0.6-0.1,0.9c-0.1,0.3-0.1,0.7-0.2,1.1c-0.1,0.4-0.2,0.7-0.4,1
				c-0.1,0.3-0.3,0.6-0.5,0.8c-0.2,0.2-0.4,0.3-0.6,0.3h-8.8l-5.7,28.4c-0.1,0.2-0.2,0.3-0.3,0.5c-0.1,0.1-0.4,0.3-0.7,0.4
				c-0.3,0.1-0.7,0.2-1.1,0.2c-0.5,0.1-1,0.1-1.8,0.1c-0.7,0-1.3,0-1.7-0.1c-0.5-0.1-0.8-0.1-1-0.2c-0.2-0.1-0.4-0.2-0.5-0.4
				c-0.1-0.1-0.1-0.3-0.1-0.5l5.7-28.4h-8.8c-0.3,0-0.5-0.1-0.6-0.3c-0.1-0.2-0.1-0.5-0.1-0.8c0-0.1,0-0.4,0-0.6
				c0-0.3,0.1-0.6,0.1-1c0.1-0.4,0.1-0.7,0.2-1.1c0.1-0.4,0.2-0.7,0.4-1c0.1-0.3,0.3-0.6,0.5-0.7c0.2-0.2,0.4-0.3,0.6-0.3h24.8
				c0.2,0,0.4,0.1,0.5,0.3C515.3,135,515.4,135.3,515.4,135.6z"/>
			<path class="st0" d="M542.2,135.6c0,0.1,0,0.3,0,0.6c0,0.3-0.1,0.6-0.1,0.9c-0.1,0.3-0.1,0.7-0.2,1.1c-0.1,0.4-0.2,0.7-0.3,1
				c-0.1,0.3-0.3,0.6-0.5,0.8c-0.2,0.2-0.4,0.3-0.6,0.3h-11.5l-1.9,9.5h10.8c0.3,0,0.4,0.1,0.5,0.3c0.1,0.2,0.2,0.5,0.2,0.8
				c0,0.1,0,0.3-0.1,0.6c0,0.3-0.1,0.6-0.2,0.9c-0.1,0.3-0.1,0.7-0.2,1.1c-0.1,0.4-0.2,0.7-0.4,1c-0.1,0.3-0.3,0.5-0.5,0.7
				c-0.2,0.2-0.4,0.3-0.6,0.3h-10.7l-2.6,13.1c0,0.2-0.1,0.4-0.3,0.5c-0.1,0.1-0.4,0.3-0.7,0.4c-0.3,0.1-0.7,0.2-1.2,0.2
				c-0.5,0.1-1.1,0.1-1.7,0.1c-0.7,0-1.3,0-1.7-0.1c-0.4-0.1-0.8-0.1-1-0.2c-0.3-0.1-0.4-0.2-0.5-0.4c-0.1-0.1-0.1-0.3-0.1-0.5
				l6.4-31.9c0.2-0.8,0.5-1.4,1-1.7c0.5-0.4,1-0.5,1.6-0.5h16.5c0.3,0,0.5,0.1,0.6,0.3C542.2,135,542.2,135.3,542.2,135.6z"/>
			<path class="st0" d="M579.2,146.3c0,1.6-0.1,3.3-0.4,5.1c-0.3,1.8-0.8,3.6-1.4,5.4c-0.6,1.8-1.5,3.5-2.5,5.1
				c-1.1,1.6-2.3,3.1-3.8,4.3c-1.5,1.2-3.3,2.2-5.3,3c-2,0.7-4.3,1.1-6.9,1.1c-2.2,0-4.1-0.2-5.8-0.7c-1.7-0.5-3.1-1.2-4.2-2.3
				c-1.2-1-2-2.3-2.6-3.8c-0.6-1.5-0.9-3.4-0.9-5.4c0-1.7,0.2-3.5,0.4-5.3c0.3-1.9,0.8-3.7,1.4-5.5s1.5-3.5,2.6-5.1
				c1.1-1.6,2.4-3,3.9-4.3c1.5-1.2,3.3-2.2,5.3-2.9c2-0.7,4.3-1.1,6.9-1.1c2.2,0,4.1,0.2,5.8,0.7c1.7,0.5,3.1,1.3,4.2,2.3
				c1.1,1,2,2.3,2.6,3.9C578.9,142.3,579.2,144.1,579.2,146.3z M571.6,146.9c0-1.1-0.1-2.1-0.4-3c-0.2-0.9-0.6-1.7-1.2-2.3
				c-0.5-0.6-1.3-1.1-2.1-1.4c-0.9-0.3-2-0.5-3.2-0.5c-1.6,0-3,0.3-4.2,0.9c-1.2,0.6-2.2,1.4-3.1,2.4c-0.9,1-1.6,2.1-2.2,3.4
				c-0.6,1.3-1.1,2.5-1.4,3.8c-0.4,1.3-0.6,2.6-0.8,3.8c-0.2,1.2-0.2,2.3-0.2,3.2c0,1.1,0.1,2.1,0.4,3c0.2,0.9,0.6,1.6,1.2,2.2
				c0.6,0.6,1.3,1.1,2.1,1.4c0.9,0.3,2,0.5,3.2,0.5c1.6,0,2.9-0.3,4.1-0.9c1.2-0.6,2.2-1.4,3.1-2.4c0.9-1,1.6-2.1,2.2-3.3
				c0.6-1.3,1.1-2.5,1.4-3.8c0.4-1.3,0.6-2.5,0.8-3.8C571.6,149,571.6,147.9,571.6,146.9z"/>
			<path class="st0" d="M613.7,142.1c0,1.2-0.2,2.3-0.5,3.5c-0.3,1.1-0.8,2.2-1.5,3.2c-0.7,1-1.6,1.9-2.7,2.7c-1.1,0.8-2.4,1.5-4,2
				c0.9,0.3,1.6,1,2.2,2.1c0.6,1,1.1,2.4,1.5,4.2l1.4,7.2c0.1,0.4,0.1,0.8,0.2,1.1c0,0.3,0.1,0.6,0.1,0.8c0,0.2-0.1,0.3-0.2,0.5
				c-0.1,0.1-0.3,0.2-0.6,0.3c-0.3,0.1-0.7,0.1-1.3,0.2c-0.5,0-1.2,0.1-2,0.1c-0.8,0-1.4,0-1.8-0.1c-0.5,0-0.8-0.1-1.1-0.2
				c-0.3-0.1-0.4-0.2-0.5-0.4c-0.1-0.2-0.1-0.4-0.2-0.6l-1.4-7.8c-0.1-0.9-0.3-1.7-0.6-2.4c-0.2-0.7-0.6-1.3-0.9-1.7
				c-0.4-0.5-0.8-0.8-1.4-1c-0.6-0.2-1.2-0.3-2-0.3h-2.2l-2.7,13.4c0,0.2-0.1,0.3-0.3,0.5c-0.1,0.1-0.4,0.3-0.7,0.4
				c-0.3,0.1-0.7,0.2-1.2,0.2c-0.5,0-1.1,0.1-1.7,0.1c-0.7,0-1.3,0-1.7-0.1c-0.4,0-0.8-0.1-1-0.2c-0.3-0.1-0.4-0.2-0.5-0.3
				c-0.1-0.1-0.1-0.3-0.1-0.5l6.4-32c0.1-0.8,0.5-1.4,1-1.7c0.5-0.4,1.1-0.5,1.7-0.5h9.4c1.7,0,3.1,0.2,4.5,0.5
				c1.3,0.3,2.5,0.8,3.4,1.4c0.9,0.6,1.7,1.4,2.2,2.4C613.4,139.7,613.7,140.8,613.7,142.1z M606,143.5c0-0.5-0.1-1-0.3-1.4
				c-0.2-0.4-0.4-0.8-0.8-1.1c-0.4-0.3-0.9-0.6-1.5-0.7c-0.6-0.2-1.3-0.3-2.2-0.3h-4.1l-2,10h3.4c1.4,0,2.5-0.2,3.5-0.6
				c0.9-0.4,1.7-0.9,2.3-1.5c0.6-0.6,1-1.3,1.3-2.1C605.9,145,606,144.3,606,143.5z"/>
			<path class="st0" d="M659.6,168.7c-0.1,0.2-0.1,0.3-0.2,0.5c-0.1,0.1-0.3,0.3-0.6,0.4c-0.3,0.1-0.6,0.2-1.1,0.2
				c-0.5,0-1,0.1-1.7,0.1c-0.7,0-1.3,0-1.7-0.1c-0.4,0-0.8-0.1-1-0.2c-0.2-0.1-0.4-0.2-0.4-0.4c-0.1-0.1-0.1-0.3,0-0.5l5.7-28.6
				h-0.1l-16,28.6c-0.2,0.5-0.6,0.8-1.3,0.9c-0.6,0.2-1.5,0.2-2.7,0.2c-1.2,0-2-0.1-2.5-0.3c-0.5-0.2-0.8-0.5-0.8-0.8l-4.1-28.7
				h-0.1l-5.7,28.7c0,0.2-0.1,0.3-0.2,0.5c-0.1,0.1-0.3,0.3-0.6,0.4c-0.3,0.1-0.6,0.2-1.1,0.2c-0.4,0-1,0.1-1.7,0.1s-1.2,0-1.7-0.1
				c-0.4,0-0.8-0.1-1-0.2c-0.2-0.1-0.4-0.2-0.5-0.4c-0.1-0.1-0.1-0.3,0-0.5l6.3-31.4c0.1-0.5,0.2-0.9,0.4-1.2
				c0.2-0.4,0.4-0.7,0.7-0.9c0.3-0.2,0.6-0.4,1-0.6c0.4-0.1,0.8-0.2,1.2-0.2h4.5c0.8,0,1.5,0.1,2,0.2c0.6,0.1,1,0.4,1.4,0.7
				c0.4,0.3,0.6,0.8,0.8,1.3c0.2,0.5,0.3,1.2,0.4,1.9l3.4,20.9h0.1l12.1-20.9c0.4-0.7,0.7-1.3,1.1-1.8c0.4-0.5,0.8-0.9,1.2-1.3
				c0.4-0.3,0.9-0.6,1.5-0.7c0.5-0.2,1.2-0.2,1.9-0.2h5.1c0.5,0,0.8,0.1,1.2,0.2c0.3,0.1,0.6,0.3,0.8,0.6c0.2,0.2,0.3,0.5,0.4,0.9
				c0,0.4,0,0.8,0,1.2L659.6,168.7z"/>
		</g>
	</g>
</g>
</svg>
