<?xml version="1.0" encoding="utf-8"?>
<!-- Generator: Adobe Illustrator 21.0.0, SVG Export Plug-In . SVG Version: 6.00 Build 0)  -->
<svg version="1.1" id="Layer_1" xmlns="http://www.w3.org/2000/svg" xmlns:xlink="http://www.w3.org/1999/xlink" x="0px" y="0px"
	 viewBox="0 0 1048 206" style="enable-background:new 0 0 1048 206;" xml:space="preserve">
<style type="text/css">
	.st0{fill:#F7E03F;}
	.st1{fill:#006AA5;}
</style>
<g>
	<g>
		<g>
			<path class="st0" d="M174,55.5l0.8-3.1c0.5,0.2,0.9,0.3,1.4,0.3c0.9,0,1.6-0.3,2.3-0.9c0.7-0.6,1.5-1.6,2.3-3l-4.7-16.8h4
				l3.2,12.9h0.1l7.7-12.9h4.2l-11.4,18.4c-1.3,2-2.5,3.5-3.6,4.3c-1.1,0.9-2.4,1.3-3.9,1.3C175.5,55.9,174.7,55.7,174,55.5z"/>
			<path class="st0" d="M194.2,55.6l5.1-23.8h3.8l-2.2,10.2h2.6c0.9,0,1.7-0.5,2.4-1.4c0.7-0.9,1.3-2.1,2-3.7
				c0.7-1.5,1.3-2.7,1.9-3.4c1.1-1.3,2.5-2,4.2-2c0.8,0,1.6,0.1,2.2,0.4l-0.7,3.3c-0.4-0.1-0.8-0.2-1.2-0.2c-0.7,0-1.3,0.4-1.9,1.1
				c-0.4,0.5-0.8,1.3-1.4,2.5c-0.6,1.2-1.2,2.2-1.8,3.1c-0.6,0.9-1.3,1.5-2.2,1.8v0.1c0.8,0.3,1.6,1.3,2.1,3.1l2.8,8.9h-4.2l-2.2-8
				c-0.5-1.6-1-2.4-1.7-2.4h-3.7l-2.2,10.4H194.2z"/>
			<path class="st0" d="M216.8,55.6l5.1-23.8h4.2c1.6,0,2.9,0.2,4,0.6c1.3,0.5,2.4,1.3,3.1,2.3c0.7,1.1,1.1,2.3,1.1,3.8
				c0,1.9-0.5,3.5-1.5,4.9c-1,1.4-2.5,2.4-4.3,3c-1.4,0.5-3,0.7-4.9,0.7h-1.2l-1.8,8.4H216.8z M223,44.1h1.1c1.2,0,2.3-0.2,3.1-0.6
				c1.1-0.4,1.9-1,2.4-1.9c0.6-0.9,0.8-1.8,0.8-3c0-1.7-0.7-2.9-2.2-3.4c-0.7-0.3-1.5-0.4-2.4-0.4H225L223,44.1z"/>
			<path class="st0" d="M234.3,55.6l12.9-23.9h3.1l4.5,23.9h-4l-1-6.1h-8.1l-3.2,6.1H234.3z M243.4,46.4h5.9l-1-6.4
				c0-0.3-0.1-0.8-0.2-1.4c-0.1-0.6-0.2-1.1-0.2-1.4h-0.1c-0.4,1.1-0.9,2.1-1.3,3L243.4,46.4z"/>
			<path class="st0" d="M258.9,55.6l5.1-23.8h3.8l-5.1,23.8H258.9z M262.9,30.3c-0.5,0-0.9-0.2-1.3-0.5c-0.3-0.3-0.5-0.7-0.5-1.2
				c0-0.6,0.2-1.2,0.6-1.6c0.4-0.4,0.9-0.7,1.5-0.7c0.5,0,0.9,0.2,1.3,0.5c0.3,0.3,0.5,0.7,0.5,1.2c0,0.6-0.2,1.2-0.6,1.6
				C264,30,263.5,30.3,262.9,30.3z M269.6,30.3c-0.5,0-0.9-0.2-1.3-0.5c-0.3-0.3-0.5-0.7-0.5-1.2c0-0.6,0.2-1.2,0.6-1.6
				c0.4-0.4,0.9-0.7,1.5-0.7c0.5,0,0.9,0.2,1.3,0.5c0.3,0.3,0.5,0.7,0.5,1.2c0,0.6-0.2,1.2-0.6,1.6C270.7,30,270.2,30.3,269.6,30.3z
				"/>
			<path class="st0" d="M269.2,55.6l5.1-23.8h3.8l-2.2,10.1h11.6l2.2-10.1h3.8l-5.1,23.8h-3.8l2.2-10.5h-11.5L273,55.6H269.2z"/>
			<path class="st0" d="M306.4,55.9c-3.2,0-5.7-0.9-7.5-2.7c-1.8-1.8-2.7-4.2-2.7-7.3c0-4.2,1.3-7.7,4-10.3c2.7-2.7,6-4,10-4
				c2.2,0,4.2,0.4,6,1.2l-0.8,3.2c-1.6-0.8-3.3-1.2-5.2-1.2c-3,0-5.4,1.1-7.2,3.2c-1.9,2.1-2.8,4.6-2.8,7.6c0,2.2,0.6,3.9,1.7,5.2
				c1.2,1.3,2.8,1.9,4.9,1.9c1.9,0,3.8-0.5,5.7-1.4l0.7,3.1C311.2,55.4,308.9,55.9,306.4,55.9z"/>
			<path class="st0" d="M317.1,55.6l5.1-23.8h3.8l-1.9,9.1h1.6c2.3,0,4.1,0.3,5.4,0.9c2.1,1.1,3.2,2.8,3.2,5.2
				c0,2.7-0.9,4.8-2.7,6.3c-1.8,1.5-4.3,2.3-7.6,2.3H317.1z M321.6,52.4h2.6c1.9,0,3.5-0.4,4.6-1.3c1.1-0.9,1.7-2.2,1.7-3.9
				c0-1.2-0.5-2.1-1.5-2.6c-0.7-0.4-1.9-0.6-3.3-0.6h-2.2L321.6,52.4z"/>
			<path class="st0" d="M338.1,55.6l5.1-23.8h3.8l-2.2,10.2h2.6c0.9,0,1.7-0.5,2.4-1.4c0.7-0.9,1.3-2.1,2-3.7
				c0.7-1.5,1.3-2.7,1.9-3.4c1.1-1.3,2.5-2,4.2-2c0.8,0,1.6,0.1,2.2,0.4l-0.7,3.3c-0.4-0.1-0.8-0.2-1.2-0.2c-0.7,0-1.3,0.4-1.9,1.1
				c-0.4,0.5-0.8,1.3-1.4,2.5c-0.6,1.2-1.2,2.2-1.8,3.1c-0.6,0.9-1.3,1.5-2.2,1.8v0.1c0.8,0.3,1.6,1.3,2.1,3.1l2.8,8.9h-4.2l-2.2-8
				c-0.5-1.6-1-2.4-1.7-2.4h-3.7l-2.2,10.4H338.1z"/>
			<path class="st0" d="M358.7,55.6l12.9-23.9h3.1l4.5,23.9h-4l-1-6.1H366l-3.2,6.1H358.7z M367.7,46.4h5.9l-1-6.4
				c0-0.3-0.1-0.8-0.2-1.4c-0.1-0.6-0.2-1.1-0.2-1.4h-0.1c-0.4,1.1-0.9,2.1-1.3,3L367.7,46.4z"/>
			<path class="st0" d="M401.8,55.9c-3.2,0-5.7-0.9-7.5-2.7c-1.8-1.8-2.7-4.2-2.7-7.3c0-4.2,1.3-7.7,4-10.3c2.7-2.7,6-4,10-4
				c2.2,0,4.2,0.4,6,1.2l-0.8,3.2c-1.6-0.8-3.3-1.2-5.2-1.2c-3,0-5.4,1.1-7.2,3.2c-1.9,2.1-2.8,4.6-2.8,7.6c0,2.2,0.6,3.9,1.7,5.2
				c1.2,1.3,2.8,1.9,4.9,1.9c1.9,0,3.8-0.5,5.7-1.4l0.7,3.1C406.6,55.4,404.4,55.9,401.8,55.9z"/>
			<path class="st0" d="M416.9,55.6l4.4-20.6h-7l0.7-3.2h17.9l-1.4,3.2h-6.5l-4.4,20.6H416.9z"/>
			<path class="st0" d="M442.7,55.9c-3,0-5.3-0.9-7.1-2.6c-1.8-1.7-2.6-4.2-2.6-7.3c0-4,1.2-7.4,3.7-10.2c2.5-2.8,5.6-4.2,9.5-4.2
				c3,0,5.4,0.9,7.1,2.6c1.8,1.7,2.6,4.2,2.6,7.3c0,4-1.2,7.4-3.7,10.2C449.8,54.5,446.6,55.9,442.7,55.9z M443,52.7
				c1.8,0,3.4-0.6,4.8-1.7c1.4-1.1,2.4-2.5,3.1-4.2c0.7-1.7,1-3.4,1-5.3c0-2.1-0.5-3.8-1.6-5c-1-1.2-2.5-1.8-4.4-1.8
				c-1.8,0-3.4,0.6-4.8,1.7c-1.4,1.1-2.5,2.5-3.2,4.2c-0.7,1.7-1,3.4-1,5.3c0,2.2,0.5,3.8,1.5,5C439.5,52.1,441,52.7,443,52.7z"/>
			<path class="st0" d="M458.8,55.6l5.1-23.8h4.2c1.6,0,2.9,0.2,4,0.6c1.3,0.5,2.4,1.3,3.1,2.3c0.7,1.1,1.1,2.3,1.1,3.8
				c0,1.9-0.5,3.5-1.5,4.9c-1,1.4-2.5,2.4-4.3,3c-1.4,0.5-3,0.7-4.9,0.7h-1.2l-1.8,8.4H458.8z M465,44.1h1.1c1.2,0,2.3-0.2,3.1-0.6
				c1.1-0.4,1.9-1,2.4-1.9c0.6-0.9,0.8-1.8,0.8-3c0-1.7-0.7-2.9-2.2-3.4c-0.7-0.3-1.5-0.4-2.4-0.4H467L465,44.1z"/>
			<path class="st0" d="M489.4,55.9c-3,0-5.3-0.9-7.1-2.6c-1.8-1.7-2.6-4.2-2.6-7.3c0-4,1.2-7.4,3.7-10.2c2.5-2.8,5.6-4.2,9.5-4.2
				c3,0,5.4,0.9,7.1,2.6c1.8,1.7,2.6,4.2,2.6,7.3c0,4-1.2,7.4-3.7,10.2C496.5,54.5,493.3,55.9,489.4,55.9z M489.7,52.7
				c1.8,0,3.4-0.6,4.8-1.7c1.4-1.1,2.4-2.5,3.1-4.2c0.7-1.7,1-3.4,1-5.3c0-2.1-0.5-3.8-1.6-5c-1-1.2-2.5-1.8-4.4-1.8
				c-1.8,0-3.4,0.6-4.8,1.7c-1.4,1.1-2.5,2.5-3.2,4.2c-0.7,1.7-1,3.4-1,5.3c0,2.2,0.5,3.8,1.5,5C486.2,52.1,487.7,52.7,489.7,52.7z"
				/>
			<path class="st0" d="M505.5,55.6l5.1-23.8h3.8l-2.2,10.1h11.6l2.2-10.1h3.8l-5.1,23.8h-3.8l2.2-10.5h-11.5l-2.2,10.5H505.5z"/>
			<path class="st0" d="M529.1,55.6l12.9-23.9h3.1l4.5,23.9h-4l-1-6.1h-8.1l-3.2,6.1H529.1z M538.1,46.4h5.9l-1-6.4
				c0-0.3-0.1-0.8-0.2-1.4c-0.1-0.6-0.2-1.1-0.2-1.4h-0.1c-0.4,1.1-0.9,2.1-1.3,3L538.1,46.4z"/>
		</g>
		<g>
			<path class="st1" d="M200.1,116.8c0,0.2-0.1,0.3-0.3,0.5c-0.1,0.1-0.3,0.2-0.6,0.3c-0.3,0.1-0.7,0.2-1.1,0.2
				c-0.5,0-1,0.1-1.7,0.1c-0.7,0-1.3,0-1.7-0.1c-0.5,0-0.8-0.1-1.1-0.2c-0.3-0.1-0.4-0.2-0.5-0.3c-0.1-0.1-0.1-0.3-0.1-0.5l5.7-28.3
				h-13.1l-5.7,28.3c0,0.2-0.1,0.3-0.3,0.5c-0.1,0.1-0.4,0.2-0.7,0.3c-0.3,0.1-0.7,0.2-1.2,0.2c-0.5,0-1.1,0.1-1.7,0.1
				c-0.7,0-1.3,0-1.7-0.1c-0.4,0-0.8-0.1-1-0.2c-0.3-0.1-0.4-0.2-0.5-0.3c-0.1-0.1-0.1-0.3,0-0.5l6.4-32c0.1-0.8,0.4-1.3,0.9-1.7
				c0.5-0.4,1-0.6,1.6-0.6h23.2c0.7,0,1.1,0.2,1.4,0.6c0.3,0.4,0.4,0.9,0.2,1.7L200.1,116.8z"/>
			<path class="st1" d="M238.1,116.8c0,0.2-0.1,0.3-0.3,0.5c-0.1,0.1-0.4,0.2-0.7,0.3c-0.3,0.1-0.7,0.2-1.2,0.2
				c-0.5,0-1,0.1-1.7,0.1c-0.7,0-1.3,0-1.7-0.1c-0.5,0-0.8-0.1-1.1-0.2c-0.3-0.1-0.4-0.2-0.5-0.3c-0.1-0.1-0.1-0.3,0-0.5l5.7-28.4
				H229c-1.3,4.2-2.5,7.8-3.7,10.9c-1.1,3.1-2.2,5.8-3.3,8c-1,2.2-2.1,4-3.1,5.4c-1,1.4-2.1,2.5-3.2,3.3c-1.1,0.8-2.2,1.4-3.4,1.7
				c-1.2,0.3-2.5,0.5-3.9,0.5c-0.5,0-0.9-0.1-1.1-0.3c-0.2-0.2-0.3-0.5-0.3-0.9c0-0.1,0-0.4,0.1-0.7c0-0.3,0.1-0.7,0.2-1.1
				c0.1-0.4,0.2-0.8,0.3-1.2c0.1-0.4,0.3-0.8,0.4-1.1c0.2-0.3,0.3-0.6,0.5-0.8c0.2-0.2,0.4-0.3,0.6-0.3c0.6,0,1.1-0.1,1.7-0.3
				c0.6-0.2,1.1-0.7,1.8-1.3c0.6-0.7,1.3-1.6,1.9-2.8c0.7-1.2,1.4-2.8,2.3-4.8c0.8-2,1.7-4.4,2.7-7.2c1-2.8,2.1-6.2,3.3-10.2
				c0.1-0.4,0.2-0.7,0.4-1c0.1-0.3,0.3-0.6,0.5-0.8c0.2-0.2,0.4-0.4,0.7-0.5c0.3-0.1,0.6-0.2,1-0.2h17.3c0.7,0,1.1,0.2,1.4,0.6
				c0.3,0.4,0.4,0.9,0.2,1.7L238.1,116.8z"/>
			<path class="st1" d="M277.9,115.1c0.1,0.7,0.1,1.2,0.1,1.6c0,0.4-0.1,0.7-0.4,0.9c-0.2,0.2-0.6,0.3-1.2,0.4
				c-0.6,0-1.3,0.1-2.3,0.1c-0.7,0-1.3,0-1.7,0c-0.4,0-0.8-0.1-1-0.1c-0.2-0.1-0.4-0.2-0.5-0.3c-0.1-0.1-0.1-0.3-0.2-0.6l-1-7.1
				h-13.2l-3.6,6.9c-0.1,0.3-0.3,0.5-0.4,0.6c-0.2,0.2-0.4,0.3-0.7,0.4c-0.3,0.1-0.7,0.2-1.2,0.2c-0.5,0-1.2,0.1-1.9,0.1
				c-0.8,0-1.5,0-1.9-0.1c-0.5-0.1-0.8-0.2-0.9-0.4c-0.2-0.2-0.2-0.5-0.1-0.9c0.1-0.4,0.3-0.9,0.7-1.5l17.1-31.2
				c0.2-0.3,0.4-0.6,0.5-0.7c0.2-0.2,0.4-0.3,0.8-0.4c0.3-0.1,0.8-0.2,1.4-0.2c0.6,0,1.3,0,2.2,0c1.1,0,1.9,0,2.5,0
				c0.6,0,1.1,0.1,1.5,0.2c0.3,0.1,0.6,0.2,0.7,0.4c0.1,0.2,0.2,0.5,0.2,0.8L277.9,115.1z M267.2,89.3L267.2,89.3l-7.9,15h9.9
				L267.2,89.3z"/>
			<path class="st1" d="M311.5,83.7c0,0.1,0,0.3,0,0.6c0,0.3-0.1,0.6-0.1,0.9c-0.1,0.3-0.1,0.7-0.2,1.1s-0.2,0.7-0.4,1
				c-0.1,0.3-0.3,0.6-0.5,0.8c-0.2,0.2-0.4,0.3-0.6,0.3h-8.8l-5.7,28.4c-0.1,0.2-0.2,0.3-0.3,0.5c-0.1,0.1-0.4,0.3-0.7,0.4
				c-0.3,0.1-0.7,0.2-1.1,0.2c-0.5,0.1-1,0.1-1.8,0.1c-0.7,0-1.3,0-1.7-0.1c-0.5-0.1-0.8-0.1-1-0.2c-0.2-0.1-0.4-0.2-0.5-0.4
				c-0.1-0.1-0.1-0.3-0.1-0.5l5.7-28.4h-8.8c-0.3,0-0.5-0.1-0.6-0.3c-0.1-0.2-0.1-0.5-0.1-0.8c0-0.1,0-0.4,0-0.6
				c0-0.3,0.1-0.6,0.1-1s0.1-0.7,0.2-1.1c0.1-0.4,0.2-0.7,0.4-1c0.1-0.3,0.3-0.6,0.5-0.7c0.2-0.2,0.4-0.3,0.6-0.3h24.8
				c0.2,0,0.4,0.1,0.5,0.3C311.4,83.1,311.5,83.4,311.5,83.7z"/>
			<path class="st1" d="M348.5,96.1c0,1.3-0.1,2.6-0.4,3.8c-0.3,1.3-0.7,2.5-1.2,3.7c-0.6,1.2-1.3,2.3-2.2,3.3c-0.9,1-2,2-3.3,2.8
				c-1.3,0.8-2.8,1.5-4.5,2c-1.7,0.5-3.7,0.9-5.9,1.1l-0.8,4c-0.1,0.2-0.1,0.3-0.3,0.5c-0.1,0.1-0.3,0.2-0.6,0.3
				c-0.3,0.1-0.7,0.2-1.1,0.2c-0.5,0-1,0.1-1.7,0.1c-0.7,0-1.3,0-1.7-0.1c-0.4,0-0.8-0.1-1-0.2c-0.3-0.1-0.4-0.2-0.5-0.3
				c-0.1-0.1-0.1-0.3-0.1-0.5l0.8-4c-2.1-0.2-3.9-0.5-5.5-1.1c-1.5-0.5-2.8-1.2-3.8-2.1c-1-0.9-1.7-1.9-2.2-3.1
				c-0.5-1.2-0.7-2.5-0.7-4c0-1.3,0.1-2.5,0.4-3.8c0.2-1.3,0.6-2.5,1.2-3.7c0.6-1.2,1.3-2.3,2.2-3.3c0.9-1,2-2,3.3-2.8
				c1.3-0.8,2.8-1.5,4.5-2c1.7-0.5,3.7-0.9,5.9-1.1l0.8-3.8c0-0.2,0.1-0.3,0.3-0.5c0.1-0.1,0.3-0.2,0.6-0.3c0.3-0.1,0.7-0.1,1.1-0.2
				c0.5,0,1-0.1,1.7-0.1c0.7,0,1.3,0,1.7,0.1c0.4,0,0.8,0.1,1,0.2c0.3,0.1,0.4,0.2,0.5,0.3c0.1,0.1,0.1,0.3,0.1,0.5l-0.8,3.8
				c2.2,0.2,4.1,0.6,5.7,1.1c1.5,0.6,2.8,1.3,3.7,2.2c1,0.9,1.6,1.9,2.1,3.1C348.3,93.5,348.5,94.7,348.5,96.1z M328.3,91.3
				c-1.2,0.1-2.3,0.4-3.3,0.8c-0.9,0.4-1.8,0.9-2.4,1.4c-0.7,0.6-1.3,1.2-1.7,1.9c-0.5,0.7-0.8,1.4-1.1,2.1
				c-0.3,0.7-0.5,1.5-0.6,2.2c-0.1,0.7-0.2,1.4-0.2,2c0,0.8,0.1,1.5,0.3,2.2c0.2,0.7,0.5,1.3,1,1.7c0.5,0.5,1.1,0.9,1.9,1.2
				c0.8,0.3,1.8,0.5,3,0.6L328.3,91.3z M341.3,97c0-0.9-0.1-1.6-0.3-2.3c-0.2-0.7-0.6-1.3-1.1-1.7c-0.5-0.5-1.1-0.8-1.9-1.1
				c-0.8-0.3-1.7-0.4-2.8-0.5l-3.2,16.1c1.2-0.1,2.3-0.4,3.2-0.8c0.9-0.4,1.8-0.9,2.4-1.5c0.7-0.6,1.3-1.2,1.7-1.9
				c0.5-0.7,0.9-1.4,1.1-2.2c0.3-0.7,0.5-1.5,0.6-2.1C341.3,98.2,341.3,97.5,341.3,97z"/>
			<path class="st1" d="M388.7,94.4c0,1.6-0.1,3.3-0.4,5.1c-0.3,1.8-0.8,3.6-1.4,5.4c-0.6,1.8-1.5,3.5-2.5,5.1
				c-1.1,1.6-2.3,3.1-3.8,4.3c-1.5,1.2-3.3,2.2-5.3,3c-2,0.7-4.3,1.1-6.9,1.1c-2.2,0-4.1-0.2-5.8-0.7c-1.7-0.5-3.1-1.2-4.2-2.3
				c-1.2-1-2-2.3-2.6-3.8c-0.6-1.5-0.9-3.4-0.9-5.4c0-1.7,0.1-3.5,0.4-5.3c0.3-1.9,0.8-3.7,1.4-5.5c0.7-1.8,1.5-3.5,2.6-5.1
				c1.1-1.6,2.4-3,3.9-4.3c1.5-1.2,3.3-2.2,5.3-2.9c2-0.7,4.3-1.1,6.9-1.1c2.2,0,4.1,0.2,5.8,0.7c1.7,0.5,3.1,1.3,4.2,2.3
				c1.1,1,2,2.3,2.6,3.9C388.4,90.4,388.7,92.2,388.7,94.4z M381.1,95c0-1.1-0.1-2.1-0.4-3c-0.2-0.9-0.6-1.7-1.2-2.3
				c-0.5-0.6-1.3-1.1-2.1-1.4c-0.9-0.3-2-0.5-3.2-0.5c-1.6,0-3,0.3-4.2,0.9c-1.2,0.6-2.2,1.4-3.1,2.4c-0.9,1-1.6,2.1-2.2,3.4
				c-0.6,1.3-1.1,2.5-1.4,3.8c-0.4,1.3-0.6,2.6-0.8,3.8c-0.2,1.2-0.2,2.3-0.2,3.2c0,1.1,0.1,2.1,0.4,3c0.2,0.9,0.6,1.6,1.2,2.2
				c0.6,0.6,1.3,1.1,2.1,1.4c0.9,0.3,2,0.5,3.3,0.5c1.6,0,2.9-0.3,4.1-0.9c1.2-0.6,2.2-1.4,3.1-2.4c0.9-1,1.6-2.1,2.2-3.3
				c0.6-1.3,1.1-2.5,1.4-3.8c0.4-1.3,0.6-2.5,0.8-3.8C381.1,97.1,381.1,96,381.1,95z"/>
			<path class="st1" d="M422.8,91.2c0,1-0.1,2.1-0.3,3.2c-0.2,1.1-0.6,2.2-1.1,3.3c-0.5,1.1-1.2,2.1-2,3c-0.8,1-1.8,1.8-3,2.5
				c-1.2,0.7-2.5,1.3-4.1,1.7c-1.5,0.4-3.4,0.6-5.4,0.6h-3.7l-2.3,11.3c0,0.2-0.1,0.3-0.3,0.5c-0.1,0.1-0.4,0.3-0.7,0.4
				c-0.3,0.1-0.7,0.2-1.2,0.2c-0.5,0-1.1,0.1-1.7,0.1c-0.7,0-1.2,0-1.7-0.1c-0.4,0-0.8-0.1-1-0.2c-0.3-0.1-0.4-0.2-0.5-0.3
				c-0.1-0.1-0.1-0.3-0.1-0.5l6.3-31.7c0.2-0.9,0.5-1.5,1.1-1.9c0.5-0.4,1.2-0.6,2-0.6h7.7c0.9,0,1.8,0,2.5,0.1
				c0.7,0.1,1.5,0.2,2.2,0.3c1.1,0.2,2.1,0.6,3,1c0.9,0.5,1.6,1,2.2,1.7c0.6,0.7,1.1,1.5,1.4,2.4C422.6,89,422.8,90,422.8,91.2z
				 M415.2,92c0-0.9-0.2-1.6-0.6-2.3c-0.4-0.6-1.1-1.1-1.9-1.3c-0.4-0.1-0.8-0.2-1.3-0.3c-0.5,0-1-0.1-1.6-0.1h-3.2l-2.3,11.9h3.3
				c1,0,1.9-0.1,2.7-0.4c0.7-0.2,1.4-0.6,1.9-1c0.6-0.4,1-0.9,1.4-1.4c0.4-0.5,0.7-1.1,1-1.7c0.2-0.6,0.4-1.2,0.5-1.8
				C415.2,93.2,415.2,92.6,415.2,92z"/>
			<path class="st1" d="M467.4,116.8c-0.1,0.2-0.1,0.3-0.2,0.5c-0.1,0.1-0.3,0.3-0.6,0.4c-0.3,0.1-0.6,0.2-1.1,0.2
				c-0.5,0-1,0.1-1.7,0.1c-0.7,0-1.3,0-1.7-0.1c-0.4,0-0.8-0.1-1-0.2c-0.2-0.1-0.4-0.2-0.4-0.4c-0.1-0.1-0.1-0.3,0-0.5l5.7-28.6
				h-0.1l-16,28.6c-0.2,0.5-0.6,0.8-1.3,0.9c-0.6,0.2-1.5,0.2-2.7,0.2c-1.2,0-2-0.1-2.5-0.3c-0.5-0.2-0.8-0.5-0.8-0.8l-4.1-28.7
				h-0.1l-5.7,28.7c0,0.2-0.1,0.3-0.2,0.5c-0.1,0.1-0.3,0.3-0.6,0.4c-0.3,0.1-0.6,0.2-1.1,0.2c-0.4,0-1,0.1-1.7,0.1
				c-0.7,0-1.3,0-1.7-0.1c-0.4,0-0.8-0.1-1-0.2c-0.2-0.1-0.4-0.2-0.5-0.4c-0.1-0.1-0.1-0.3,0-0.5l6.3-31.4c0.1-0.5,0.2-0.9,0.4-1.2
				c0.2-0.4,0.4-0.7,0.7-0.9c0.3-0.2,0.6-0.4,1-0.6c0.4-0.1,0.8-0.2,1.2-0.2h4.5c0.8,0,1.5,0.1,2,0.2c0.6,0.1,1,0.4,1.4,0.7
				c0.4,0.3,0.6,0.8,0.8,1.3c0.2,0.5,0.3,1.2,0.4,1.9l3.4,20.9h0.1l12.1-20.9c0.4-0.7,0.7-1.3,1.1-1.8s0.8-0.9,1.2-1.3
				c0.4-0.3,0.9-0.6,1.5-0.7c0.5-0.2,1.2-0.2,1.9-0.2h5.1c0.5,0,0.8,0.1,1.2,0.2c0.3,0.1,0.6,0.3,0.8,0.6c0.2,0.2,0.3,0.5,0.4,0.9
				c0,0.4,0,0.8,0,1.2L467.4,116.8z"/>
			<path class="st1" d="M506.7,116.8c0,0.2-0.1,0.3-0.3,0.5c-0.1,0.1-0.4,0.2-0.7,0.3c-0.3,0.1-0.7,0.2-1.2,0.2
				c-0.5,0-1.1,0.1-1.7,0.1c-0.7,0-1.3,0-1.7-0.1c-0.4,0-0.8-0.1-1-0.2c-0.2-0.1-0.4-0.2-0.5-0.3c-0.1-0.1-0.1-0.3-0.1-0.5l3-15.1
				c0.1-0.5,0.2-1.1,0.3-1.7c0.1-0.6,0.3-1.2,0.4-1.8c0.1-0.6,0.3-1.3,0.4-1.9c0.2-0.6,0.3-1.2,0.5-1.8h0c-0.8,1.1-1.7,2.2-2.6,3.3
				c-0.9,1.1-1.8,2.2-2.6,3.2l-14,15.9c-0.2,0.2-0.4,0.4-0.6,0.5c-0.2,0.1-0.4,0.2-0.7,0.3c-0.3,0.1-0.6,0.1-1,0.2
				c-0.4,0-0.9,0-1.5,0c-0.7,0-1.3,0-1.7-0.1c-0.4,0-0.8-0.1-1-0.2c-0.2-0.1-0.4-0.2-0.5-0.4c-0.1-0.2-0.1-0.3,0-0.6l6.7-33.2
				c0-0.2,0.1-0.3,0.3-0.5c0.2-0.1,0.4-0.2,0.7-0.3c0.3-0.1,0.7-0.2,1.1-0.2c0.5,0,1-0.1,1.7-0.1c0.7,0,1.3,0,1.7,0.1
				c0.4,0,0.8,0.1,1,0.2c0.3,0.1,0.4,0.2,0.5,0.3c0.1,0.1,0.1,0.3,0.1,0.5l-3.3,16.4c-0.1,0.4-0.2,0.9-0.3,1.4
				c-0.1,0.5-0.2,1.1-0.4,1.6c-0.1,0.5-0.3,1.1-0.4,1.6c-0.1,0.5-0.3,1-0.4,1.5h0.1c0.3-0.5,0.7-1,1.1-1.5c0.4-0.5,0.8-1,1.2-1.6
				c0.4-0.5,0.8-1,1.3-1.5c0.4-0.5,0.8-1,1.2-1.4l14.3-16.5c0.2-0.2,0.4-0.4,0.6-0.6c0.2-0.2,0.5-0.3,0.7-0.4c0.3-0.1,0.6-0.2,1-0.2
				c0.4,0,0.9-0.1,1.4-0.1c0.7,0,1.3,0,1.7,0.1c0.4,0,0.8,0.1,1,0.2c0.2,0.1,0.4,0.2,0.5,0.3c0.1,0.1,0.1,0.3,0.1,0.5L506.7,116.8z"
				/>
			<path class="st1" d="M559.2,83.8c0,0.1,0,0.4,0,0.6c0,0.3-0.1,0.6-0.1,0.9c-0.1,0.3-0.1,0.7-0.2,1.1c-0.1,0.4-0.2,0.7-0.4,1
				c-0.1,0.3-0.3,0.6-0.5,0.7c-0.2,0.2-0.4,0.3-0.6,0.3h-11.7l-5.7,28.4c0,0.2-0.1,0.3-0.3,0.5c-0.1,0.1-0.4,0.2-0.7,0.3
				c-0.3,0.1-0.7,0.2-1.2,0.2c-0.5,0-1.1,0.1-1.7,0.1c-0.7,0-1.3,0-1.7-0.1c-0.4,0-0.8-0.1-1-0.2c-0.3-0.1-0.4-0.2-0.5-0.3
				c-0.1-0.1-0.1-0.3-0.1-0.5l6.4-32c0.1-0.8,0.5-1.3,0.9-1.7c0.5-0.4,1-0.6,1.7-0.6h16.7c0.3,0,0.5,0.1,0.5,0.3
				C559.2,83.1,559.2,83.4,559.2,83.8z"/>
			<path class="st1" d="M588.8,91.2c0,1-0.1,2.1-0.3,3.2c-0.2,1.1-0.6,2.2-1.1,3.3c-0.5,1.1-1.2,2.1-2,3c-0.8,1-1.8,1.8-3,2.5
				c-1.2,0.7-2.5,1.3-4.1,1.7c-1.5,0.4-3.4,0.6-5.4,0.6h-3.7l-2.3,11.3c0,0.2-0.1,0.3-0.3,0.5c-0.1,0.1-0.4,0.3-0.7,0.4
				c-0.3,0.1-0.7,0.2-1.2,0.2c-0.5,0-1.1,0.1-1.7,0.1c-0.7,0-1.2,0-1.7-0.1c-0.4,0-0.8-0.1-1-0.2c-0.3-0.1-0.4-0.2-0.5-0.3
				c-0.1-0.1-0.1-0.3-0.1-0.5l6.3-31.7c0.2-0.9,0.5-1.5,1.1-1.9c0.5-0.4,1.2-0.6,2-0.6h7.7c0.9,0,1.8,0,2.5,0.1
				c0.7,0.1,1.5,0.2,2.2,0.3c1.1,0.2,2.1,0.6,3,1c0.9,0.5,1.6,1,2.2,1.7c0.6,0.7,1.1,1.5,1.4,2.4C588.7,89,588.8,90,588.8,91.2z
				 M581.3,92c0-0.9-0.2-1.6-0.6-2.3c-0.4-0.6-1.1-1.1-1.9-1.3c-0.4-0.1-0.8-0.2-1.3-0.3c-0.5,0-1-0.1-1.6-0.1h-3.2l-2.3,11.9h3.3
				c1,0,1.9-0.1,2.7-0.4c0.7-0.2,1.4-0.6,1.9-1c0.6-0.4,1-0.9,1.4-1.4c0.4-0.5,0.7-1.1,1-1.7c0.2-0.6,0.4-1.2,0.5-1.8
				C581.3,93.2,581.3,92.6,581.3,92z"/>
			<path class="st1" d="M627.6,94.4c0,1.6-0.1,3.3-0.4,5.1c-0.3,1.8-0.8,3.6-1.4,5.4c-0.6,1.8-1.5,3.5-2.5,5.1
				c-1.1,1.6-2.3,3.1-3.8,4.3c-1.5,1.2-3.3,2.2-5.3,3c-2,0.7-4.3,1.1-6.9,1.1c-2.2,0-4.1-0.2-5.8-0.7c-1.7-0.5-3.1-1.2-4.2-2.3
				c-1.2-1-2-2.3-2.6-3.8c-0.6-1.5-0.9-3.4-0.9-5.4c0-1.7,0.1-3.5,0.4-5.3c0.3-1.9,0.8-3.7,1.4-5.5c0.7-1.8,1.5-3.5,2.6-5.1
				c1.1-1.6,2.4-3,3.9-4.3c1.5-1.2,3.3-2.2,5.3-2.9c2-0.7,4.3-1.1,6.9-1.1c2.2,0,4.1,0.2,5.8,0.7c1.7,0.5,3.1,1.3,4.2,2.3
				c1.1,1,2,2.3,2.6,3.9C627.3,90.4,627.6,92.2,627.6,94.4z M620,95c0-1.1-0.1-2.1-0.4-3c-0.2-0.9-0.6-1.7-1.2-2.3
				c-0.5-0.6-1.3-1.1-2.1-1.4c-0.9-0.3-2-0.5-3.2-0.5c-1.6,0-3,0.3-4.2,0.9c-1.2,0.6-2.2,1.4-3.1,2.4c-0.9,1-1.6,2.1-2.2,3.4
				c-0.6,1.3-1.1,2.5-1.4,3.8c-0.4,1.3-0.6,2.6-0.8,3.8c-0.2,1.2-0.2,2.3-0.2,3.2c0,1.1,0.1,2.1,0.4,3c0.2,0.9,0.6,1.6,1.2,2.2
				c0.6,0.6,1.3,1.1,2.1,1.4c0.9,0.3,2,0.5,3.3,0.5c1.6,0,2.9-0.3,4.1-0.9c1.2-0.6,2.2-1.4,3.1-2.4c0.9-1,1.6-2.1,2.2-3.3
				c0.6-1.3,1.1-2.5,1.4-3.8c0.4-1.3,0.6-2.5,0.8-3.8C619.9,97.1,620,96,620,95z"/>
			<path class="st1" d="M673.7,116.8c-0.1,0.2-0.1,0.3-0.2,0.5c-0.1,0.1-0.3,0.3-0.6,0.4c-0.3,0.1-0.6,0.2-1.1,0.2
				c-0.5,0-1,0.1-1.7,0.1c-0.7,0-1.3,0-1.7-0.1c-0.4,0-0.8-0.1-1-0.2c-0.2-0.1-0.4-0.2-0.4-0.4c-0.1-0.1-0.1-0.3,0-0.5l5.7-28.6
				h-0.1l-16,28.6c-0.2,0.5-0.6,0.8-1.3,0.9c-0.6,0.2-1.5,0.2-2.7,0.2c-1.2,0-2-0.1-2.5-0.3c-0.5-0.2-0.8-0.5-0.8-0.8l-4.1-28.7
				h-0.1l-5.7,28.7c0,0.2-0.1,0.3-0.2,0.5c-0.1,0.1-0.3,0.3-0.6,0.4c-0.3,0.1-0.6,0.2-1.1,0.2c-0.4,0-1,0.1-1.7,0.1
				c-0.7,0-1.3,0-1.7-0.1c-0.4,0-0.8-0.1-1-0.2c-0.2-0.1-0.4-0.2-0.5-0.4c-0.1-0.1-0.1-0.3,0-0.5l6.3-31.4c0.1-0.5,0.2-0.9,0.4-1.2
				c0.2-0.4,0.4-0.7,0.7-0.9c0.3-0.2,0.6-0.4,1-0.6c0.4-0.1,0.8-0.2,1.2-0.2h4.5c0.8,0,1.5,0.1,2,0.2c0.6,0.1,1,0.4,1.4,0.7
				c0.4,0.3,0.6,0.8,0.8,1.3c0.2,0.5,0.3,1.2,0.4,1.9l3.4,20.9h0.1l12.1-20.9c0.4-0.7,0.7-1.3,1.1-1.8c0.4-0.5,0.8-0.9,1.2-1.3
				c0.4-0.3,0.9-0.6,1.5-0.7c0.5-0.2,1.2-0.2,1.9-0.2h5.1c0.5,0,0.8,0.1,1.2,0.2c0.3,0.1,0.6,0.3,0.8,0.6c0.2,0.2,0.3,0.5,0.4,0.9
				c0,0.4,0,0.8,0,1.2L673.7,116.8z"/>
			<path class="st1" d="M713.4,115.1c0.1,0.7,0.1,1.2,0.1,1.6c0,0.4-0.1,0.7-0.4,0.9c-0.2,0.2-0.6,0.3-1.2,0.4
				c-0.6,0-1.3,0.1-2.3,0.1c-0.7,0-1.3,0-1.7,0c-0.4,0-0.8-0.1-1-0.1c-0.2-0.1-0.4-0.2-0.5-0.3c-0.1-0.1-0.1-0.3-0.2-0.6l-1-7.1
				h-13.2l-3.6,6.9c-0.1,0.3-0.3,0.5-0.4,0.6c-0.2,0.2-0.4,0.3-0.7,0.4c-0.3,0.1-0.7,0.2-1.2,0.2c-0.5,0-1.2,0.1-1.9,0.1
				c-0.8,0-1.5,0-1.9-0.1c-0.5-0.1-0.8-0.2-0.9-0.4c-0.2-0.2-0.2-0.5-0.1-0.9c0.1-0.4,0.3-0.9,0.7-1.5L699,83.8
				c0.2-0.3,0.4-0.6,0.5-0.7c0.2-0.2,0.4-0.3,0.8-0.4c0.3-0.1,0.8-0.2,1.4-0.2c0.6,0,1.3,0,2.2,0c1.1,0,1.9,0,2.5,0
				c0.6,0,1.1,0.1,1.5,0.2c0.3,0.1,0.6,0.2,0.7,0.4c0.1,0.2,0.2,0.5,0.2,0.8L713.4,115.1z M702.8,89.3L702.8,89.3l-7.9,15h9.9
				L702.8,89.3z"/>
			<path class="st1" d="M751.6,126.1c0,0.2-0.1,0.3-0.2,0.5c-0.1,0.1-0.3,0.2-0.6,0.3c-0.3,0.1-0.6,0.1-1,0.2
				c-0.4,0-0.9,0.1-1.6,0.1c-0.6,0-1.1,0-1.5-0.1c-0.4,0-0.7-0.1-0.9-0.2c-0.2-0.1-0.4-0.2-0.4-0.3c-0.1-0.1-0.1-0.3-0.1-0.5
				l1.7-8.3h-23.4l-1.7,8.3c0,0.2-0.1,0.3-0.2,0.5c-0.1,0.1-0.3,0.2-0.6,0.3c-0.3,0.1-0.6,0.1-1,0.2c-0.4,0-0.9,0.1-1.5,0.1
				c-0.6,0-1.1,0-1.5-0.1c-0.4,0-0.7-0.1-0.9-0.2c-0.2-0.1-0.3-0.2-0.4-0.3c-0.1-0.1-0.1-0.3-0.1-0.5l2.5-12.6
				c0.1-0.5,0.3-0.9,0.5-1.1c0.3-0.2,0.6-0.3,1.1-0.3h1.6c0.5-0.6,1.1-1.3,1.6-1.9s1.1-1.4,1.6-2.3c0.6-0.9,1.1-2,1.7-3.2
				c0.6-1.2,1.3-2.8,2-4.6c0.7-1.8,1.5-3.9,2.3-6.4c0.8-2.5,1.8-5.3,2.8-8.7c0.3-0.8,0.6-1.4,1-1.8c0.4-0.4,0.9-0.6,1.5-0.6h18
				c0.7,0,1.1,0.2,1.4,0.6c0.3,0.4,0.3,0.9,0.2,1.7l-5.4,27.1h3c0.5,0,0.8,0.1,1,0.4c0.2,0.3,0.2,0.6,0.1,1.1L751.6,126.1z
				 M747.7,88.3h-8.2c-0.9,2.7-1.7,5.2-2.4,7.2c-0.7,2.1-1.4,3.9-2,5.5c-0.6,1.6-1.2,2.9-1.8,4.1c-0.6,1.1-1.1,2.1-1.6,3
				c-0.5,0.8-1,1.6-1.5,2.2c-0.5,0.6-1,1.2-1.5,1.7H743L747.7,88.3z"/>
			<path class="st1" d="M785.7,116.8c-0.1,0.2-0.1,0.3-0.3,0.5c-0.1,0.1-0.3,0.2-0.6,0.3c-0.3,0.1-0.7,0.2-1.1,0.2
				c-0.5,0-1.1,0.1-1.7,0.1c-0.7,0-1.3,0-1.7-0.1c-0.5,0-0.8-0.1-1.1-0.2c-0.3-0.1-0.4-0.2-0.5-0.3c-0.1-0.1-0.1-0.3-0.1-0.5
				l2.6-13.2h-2.7c-0.9,0-1.6,0.1-2.3,0.3c-0.7,0.2-1.3,0.6-1.8,1c-0.5,0.4-1,1-1.5,1.6c-0.5,0.6-0.9,1.4-1.4,2.2l-4.1,7.8
				c-0.1,0.2-0.3,0.4-0.5,0.6c-0.2,0.2-0.4,0.3-0.8,0.4c-0.3,0.1-0.7,0.2-1.3,0.2c-0.5,0-1.1,0.1-1.9,0.1c-0.8,0-1.5,0-2-0.1
				c-0.5,0-0.9-0.1-1.1-0.1c-0.3-0.1-0.4-0.1-0.5-0.2c-0.1-0.1-0.1-0.2-0.1-0.4c0-0.2,0.1-0.4,0.2-0.7c0.1-0.3,0.4-0.7,0.7-1.3
				l4.3-7.5c0.5-0.9,1-1.7,1.5-2.4c0.5-0.7,1-1.3,1.6-1.8c0.5-0.5,1.1-0.9,1.6-1.3c0.5-0.3,1.1-0.6,1.6-0.7
				c-0.8-0.2-1.6-0.4-2.2-0.8c-0.7-0.4-1.2-0.9-1.7-1.4c-0.5-0.6-0.8-1.2-1.1-1.9c-0.2-0.7-0.4-1.5-0.4-2.3c0-2,0.4-3.8,1.1-5.4
				c0.7-1.5,1.7-2.8,3.1-3.9c1.3-1,2.9-1.8,4.7-2.4s3.8-0.8,6-0.8h10.2c0.3,0,0.6,0,0.8,0.1c0.2,0.1,0.4,0.2,0.6,0.4
				c0.1,0.2,0.2,0.4,0.3,0.7c0.1,0.3,0,0.6,0,1L785.7,116.8z M780.2,88.1c-1.2,0-2.2,0.1-3.1,0.4c-0.9,0.3-1.7,0.7-2.3,1.2
				c-0.6,0.5-1.1,1.2-1.4,2c-0.3,0.8-0.5,1.7-0.5,2.7c0,0.6,0.1,1.1,0.3,1.6c0.2,0.5,0.5,0.9,1,1.2c0.4,0.3,1,0.6,1.6,0.8
				c0.6,0.2,1.4,0.3,2.2,0.3h4.3l2-10.2H780.2z"/>
			<path class="st1" d="M823.8,116.8c0,0.2-0.1,0.3-0.3,0.5c-0.1,0.1-0.4,0.3-0.7,0.4c-0.3,0.1-0.7,0.2-1.1,0.2
				c-0.5,0-1.1,0.1-1.7,0.1c-0.7,0-1.3,0-1.7-0.1c-0.5,0-0.8-0.1-1-0.2c-0.2-0.1-0.4-0.2-0.5-0.4c-0.1-0.1-0.1-0.3-0.1-0.5l2.8-14.3
				h-13.2l-2.8,14.3c0,0.2-0.1,0.3-0.3,0.5c-0.1,0.1-0.4,0.3-0.7,0.4c-0.3,0.1-0.7,0.2-1.1,0.2c-0.5,0-1,0.1-1.7,0.1
				c-0.7,0-1.3,0-1.7-0.1c-0.4,0-0.8-0.1-1-0.2c-0.3-0.1-0.4-0.2-0.5-0.4c-0.1-0.1-0.1-0.3-0.1-0.5l6.7-33.3c0-0.2,0.1-0.3,0.2-0.5
				c0.1-0.1,0.4-0.3,0.7-0.4c0.3-0.1,0.7-0.2,1.1-0.2c0.5,0,1.1-0.1,1.7-0.1c0.7,0,1.3,0,1.7,0.1c0.5,0,0.8,0.1,1.1,0.2
				c0.3,0.1,0.4,0.2,0.5,0.4c0.1,0.1,0.1,0.3,0.1,0.5l-2.6,12.9h13.2l2.6-12.9c0-0.2,0.1-0.3,0.3-0.5c0.1-0.1,0.4-0.3,0.7-0.4
				c0.3-0.1,0.7-0.2,1.1-0.2c0.5,0,1.1-0.1,1.7-0.1c0.7,0,1.3,0,1.7,0.1c0.5,0,0.8,0.1,1.1,0.2c0.3,0.1,0.4,0.2,0.5,0.4
				c0.1,0.1,0.1,0.3,0.1,0.5L823.8,116.8z"/>
			<path class="st1" d="M864.1,86c0,0.5-0.1,1.2-0.3,2c-0.2,0.9-0.4,1.5-0.7,2.1c-0.3,0.5-0.6,0.8-0.9,0.8c-0.2,0-0.5-0.1-0.8-0.4
				c-0.3-0.3-0.8-0.6-1.3-1c-0.5-0.3-1.2-0.7-2-1c-0.8-0.3-1.8-0.4-3-0.4c-1.3,0-2.6,0.3-3.7,0.8c-1.1,0.5-2.1,1.2-3,2.1
				c-0.9,0.9-1.6,1.9-2.3,3c-0.7,1.1-1.2,2.3-1.6,3.6c-0.4,1.2-0.7,2.5-1,3.7c-0.2,1.2-0.3,2.4-0.3,3.4c0,1.3,0.2,2.4,0.5,3.3
				c0.3,1,0.8,1.8,1.4,2.4c0.6,0.6,1.3,1.1,2.2,1.4c0.9,0.3,1.8,0.5,2.9,0.5c1.3,0,2.4-0.1,3.3-0.4c0.9-0.3,1.7-0.6,2.3-0.9
				c0.6-0.3,1.2-0.6,1.6-0.9c0.4-0.3,0.8-0.4,1.2-0.4c0.2,0,0.4,0.1,0.5,0.3c0.1,0.2,0.1,0.4,0.1,0.7c0,0.1,0,0.3-0.1,0.6
				c0,0.3-0.1,0.5-0.1,0.9c-0.1,0.3-0.1,0.7-0.2,1c-0.1,0.4-0.2,0.7-0.2,1c-0.1,0.3-0.2,0.6-0.3,0.9c-0.1,0.3-0.3,0.5-0.5,0.7
				c-0.2,0.2-0.6,0.5-1.2,0.8c-0.6,0.3-1.3,0.6-2.1,0.9c-0.8,0.3-1.8,0.5-2.8,0.7c-1.1,0.2-2.2,0.3-3.4,0.3c-2,0-3.8-0.3-5.3-0.8
				c-1.6-0.5-2.9-1.3-4-2.4c-1.1-1.1-2-2.4-2.6-4c-0.6-1.6-0.9-3.5-0.9-5.7c0-1.7,0.2-3.4,0.5-5.3c0.3-1.8,0.9-3.6,1.6-5.3
				c0.7-1.7,1.6-3.4,2.7-5c1.1-1.6,2.3-2.9,3.8-4.1c1.5-1.2,3.1-2.1,5-2.8c1.9-0.7,3.9-1,6.2-1c1.3,0,2.5,0.1,3.6,0.4
				c1.1,0.3,2.1,0.6,3,1c0.8,0.4,1.4,0.8,1.8,1.2C864,85,864.1,85.4,864.1,86z"/>
			<path class="st1" d="M894.5,104.3c0,0.7-0.1,1.5-0.2,2.3c-0.1,0.8-0.4,1.7-0.7,2.5c-0.3,0.9-0.7,1.7-1.3,2.5s-1.2,1.6-1.9,2.3
				c-0.8,0.7-1.7,1.4-2.7,1.9c-1,0.6-2.2,1-3.5,1.3c-0.9,0.2-2,0.4-3.1,0.5c-1.1,0.1-2.3,0.2-3.7,0.2h-9.1c-0.3,0-0.6,0-0.8-0.1
				c-0.3-0.1-0.5-0.2-0.6-0.4c-0.2-0.2-0.3-0.4-0.3-0.7c-0.1-0.3-0.1-0.6,0-1l6.4-32c0-0.2,0.1-0.3,0.3-0.5c0.2-0.1,0.4-0.2,0.7-0.3
				c0.3-0.1,0.7-0.2,1.1-0.2c0.5,0,1-0.1,1.7-0.1c0.7,0,1.3,0,1.7,0.1c0.4,0,0.8,0.1,1,0.2c0.3,0.1,0.4,0.2,0.5,0.3
				c0.1,0.1,0.1,0.3,0.1,0.5l-2.4,12h4.3c0.7,0,1.3,0,1.9,0c0.6,0,1.1,0.1,1.6,0.1c0.5,0,0.9,0.1,1.3,0.2c0.4,0.1,0.8,0.1,1.1,0.3
				c1.2,0.3,2.2,0.7,3,1.3c0.8,0.6,1.5,1.2,2.1,1.9c0.5,0.7,0.9,1.5,1.2,2.4C894.4,102.5,894.5,103.4,894.5,104.3z M887,105.2
				c0-0.7-0.2-1.4-0.5-2.1c-0.3-0.7-0.9-1.2-1.7-1.5c-0.2-0.1-0.4-0.2-0.7-0.2c-0.2-0.1-0.5-0.1-0.8-0.2c-0.3,0-0.7-0.1-1.1-0.1
				c-0.4,0-0.9,0-1.4,0h-4.1l-2.3,11.2h4.2c0.6,0,1.1,0,1.5,0c0.4,0,0.8-0.1,1.2-0.1c0.3-0.1,0.7-0.1,0.9-0.2
				c0.3-0.1,0.6-0.2,0.9-0.3c0.6-0.2,1.1-0.6,1.6-1c0.5-0.4,0.9-0.9,1.3-1.5c0.4-0.6,0.6-1.2,0.8-1.8
				C886.9,106.6,887,105.9,887,105.2z"/>
			<path class="st1" d="M926,116.4c0,0.3-0.1,0.6-0.2,0.7c-0.1,0.2-0.3,0.3-0.6,0.5c-0.3,0.1-0.7,0.2-1.2,0.2
				c-0.5,0-1.1,0.1-1.8,0.1c-0.8,0-1.4,0-1.8-0.1c-0.4,0-0.8-0.1-1-0.2c-0.2-0.1-0.4-0.2-0.5-0.4c-0.1-0.2-0.1-0.4-0.2-0.6l-1.3-7.8
				c-0.2-1.1-0.4-2.1-0.7-2.9c-0.3-0.8-0.7-1.4-1.1-1.9c-0.5-0.5-1-0.8-1.6-1c-0.6-0.2-1.4-0.3-2.2-0.3h-1.6l-2.8,14.1
				c0,0.2-0.1,0.4-0.3,0.5c-0.1,0.1-0.4,0.3-0.7,0.4c-0.3,0.1-0.7,0.2-1.1,0.2c-0.5,0-1,0.1-1.7,0.1c-0.7,0-1.3,0-1.7-0.1
				c-0.4,0-0.8-0.1-1-0.2c-0.3-0.1-0.4-0.2-0.5-0.4c-0.1-0.1-0.1-0.3-0.1-0.5l6.7-33.3c0-0.2,0.1-0.4,0.3-0.5
				c0.2-0.1,0.4-0.2,0.7-0.3c0.3-0.1,0.7-0.2,1.1-0.2c0.5,0,1-0.1,1.8-0.1c0.7,0,1.3,0,1.7,0.1c0.4,0,0.8,0.1,1,0.2
				c0.3,0.1,0.4,0.2,0.5,0.3c0.1,0.1,0.1,0.3,0.1,0.5l-2.7,13.2h1.6c0.8,0,1.5-0.1,2.2-0.3c0.6-0.2,1.3-0.6,1.8-1
				c0.6-0.5,1.1-1.1,1.7-1.8c0.6-0.8,1.1-1.7,1.7-2.8l3.8-7c0.1-0.3,0.3-0.5,0.5-0.6c0.2-0.2,0.4-0.3,0.7-0.4
				c0.3-0.1,0.7-0.2,1.2-0.2c0.5,0,1.1-0.1,1.9-0.1c0.7,0,1.3,0,1.7,0.1c0.4,0,0.8,0.1,1,0.2c0.2,0.1,0.4,0.2,0.5,0.3
				c0.1,0.1,0.1,0.2,0.1,0.4c0,0.3-0.1,0.6-0.2,0.9c-0.2,0.4-0.4,0.8-0.8,1.4l-3.6,6.3c-0.7,1.2-1.3,2.2-1.9,3
				c-0.6,0.8-1.2,1.5-1.8,2.1c-0.6,0.6-1.2,1-1.8,1.4c-0.6,0.4-1.3,0.7-1.9,0.9v0c0.7,0.3,1.2,0.7,1.7,1c0.5,0.4,0.9,0.9,1.3,1.5
				c0.4,0.6,0.7,1.3,1,2.2c0.3,0.9,0.5,1.9,0.8,3.2l1.4,7.3c0.1,0.4,0.2,0.7,0.2,1C926,115.9,926,116.2,926,116.4z"/>
			<path class="st1" d="M968.1,94.4c0,1.6-0.1,3.3-0.4,5.1c-0.3,1.8-0.8,3.6-1.4,5.4c-0.6,1.8-1.5,3.5-2.5,5.1
				c-1.1,1.6-2.3,3.1-3.8,4.3c-1.5,1.2-3.3,2.2-5.3,3c-2,0.7-4.3,1.1-6.9,1.1c-2.2,0-4.1-0.2-5.8-0.7c-1.7-0.5-3.1-1.2-4.2-2.3
				c-1.2-1-2-2.3-2.6-3.8c-0.6-1.5-0.9-3.4-0.9-5.4c0-1.7,0.1-3.5,0.4-5.3c0.3-1.9,0.8-3.7,1.4-5.5c0.7-1.8,1.5-3.5,2.6-5.1
				c1.1-1.6,2.4-3,3.9-4.3c1.5-1.2,3.3-2.2,5.3-2.9c2-0.7,4.3-1.1,6.9-1.1c2.2,0,4.1,0.2,5.8,0.7c1.7,0.5,3.1,1.3,4.2,2.3
				c1.1,1,2,2.3,2.6,3.9C967.8,90.4,968.1,92.2,968.1,94.4z M960.5,95c0-1.1-0.1-2.1-0.4-3c-0.2-0.9-0.6-1.7-1.2-2.3
				c-0.5-0.6-1.3-1.1-2.1-1.4c-0.9-0.3-2-0.5-3.2-0.5c-1.6,0-3,0.3-4.2,0.9c-1.2,0.6-2.2,1.4-3.1,2.4c-0.9,1-1.6,2.1-2.2,3.4
				c-0.6,1.3-1.1,2.5-1.4,3.8c-0.4,1.3-0.6,2.6-0.8,3.8c-0.2,1.2-0.2,2.3-0.2,3.2c0,1.1,0.1,2.1,0.4,3c0.2,0.9,0.6,1.6,1.2,2.2
				c0.6,0.6,1.3,1.1,2.1,1.4c0.9,0.3,2,0.5,3.3,0.5c1.6,0,2.9-0.3,4.1-0.9c1.2-0.6,2.2-1.4,3.1-2.4c0.9-1,1.6-2.1,2.2-3.3
				c0.6-1.3,1.1-2.5,1.4-3.8c0.4-1.3,0.6-2.5,0.8-3.8C960.4,97.1,960.5,96,960.5,95z"/>
			<path class="st1" d="M999.6,83.8c0,0.1,0,0.4,0,0.6c0,0.3-0.1,0.6-0.1,0.9c-0.1,0.3-0.1,0.7-0.2,1.1c-0.1,0.4-0.2,0.7-0.4,1
				c-0.1,0.3-0.3,0.6-0.5,0.7c-0.2,0.2-0.4,0.3-0.6,0.3H986l-5.7,28.4c0,0.2-0.1,0.3-0.3,0.5c-0.1,0.1-0.4,0.2-0.7,0.3
				c-0.3,0.1-0.7,0.2-1.2,0.2c-0.5,0-1.1,0.1-1.7,0.1c-0.7,0-1.3,0-1.7-0.1c-0.4,0-0.8-0.1-1-0.2c-0.3-0.1-0.4-0.2-0.5-0.3
				c-0.1-0.1-0.1-0.3-0.1-0.5l6.4-32c0.1-0.8,0.5-1.3,0.9-1.7c0.5-0.4,1-0.6,1.7-0.6h16.7c0.3,0,0.5,0.1,0.5,0.3
				C999.5,83.1,999.6,83.4,999.6,83.8z"/>
			<path class="st1" d="M1034.1,94.4c0,1.6-0.1,3.3-0.4,5.1c-0.3,1.8-0.8,3.6-1.4,5.4c-0.6,1.8-1.5,3.5-2.5,5.1
				c-1.1,1.6-2.3,3.1-3.8,4.3c-1.5,1.2-3.3,2.2-5.3,3c-2,0.7-4.3,1.1-6.9,1.1c-2.2,0-4.1-0.2-5.8-0.7c-1.7-0.5-3.1-1.2-4.2-2.3
				c-1.2-1-2-2.3-2.6-3.8c-0.6-1.5-0.9-3.4-0.9-5.4c0-1.7,0.1-3.5,0.4-5.3c0.3-1.9,0.8-3.7,1.4-5.5c0.7-1.8,1.5-3.5,2.6-5.1
				c1.1-1.6,2.4-3,3.9-4.3c1.5-1.2,3.3-2.2,5.3-2.9c2-0.7,4.3-1.1,6.9-1.1c2.2,0,4.1,0.2,5.8,0.7c1.7,0.5,3.1,1.3,4.2,2.3
				c1.1,1,2,2.3,2.6,3.9C1033.8,90.4,1034.1,92.2,1034.1,94.4z M1026.5,95c0-1.1-0.1-2.1-0.4-3c-0.2-0.9-0.6-1.7-1.2-2.3
				c-0.5-0.6-1.3-1.1-2.1-1.4c-0.9-0.3-2-0.5-3.2-0.5c-1.6,0-3,0.3-4.2,0.9c-1.2,0.6-2.2,1.4-3.1,2.4c-0.9,1-1.6,2.1-2.2,3.4
				c-0.6,1.3-1.1,2.5-1.4,3.8c-0.4,1.3-0.6,2.6-0.8,3.8c-0.2,1.2-0.2,2.3-0.2,3.2c0,1.1,0.1,2.1,0.4,3c0.2,0.9,0.6,1.6,1.2,2.2
				c0.6,0.6,1.3,1.1,2.1,1.4c0.9,0.3,2,0.5,3.3,0.5c1.6,0,2.9-0.3,4.1-0.9c1.2-0.6,2.2-1.4,3.1-2.4c0.9-1,1.6-2.1,2.2-3.3
				c0.6-1.3,1.1-2.5,1.4-3.8c0.4-1.3,0.6-2.5,0.8-3.8C1026.4,97.1,1026.5,96,1026.5,95z"/>
			<path class="st1" d="M202.3,148c0,0.5-0.1,1.2-0.3,2c-0.2,0.9-0.4,1.5-0.7,2.1c-0.3,0.5-0.6,0.8-0.9,0.8c-0.2,0-0.5-0.1-0.8-0.4
				c-0.3-0.3-0.8-0.6-1.3-1c-0.5-0.3-1.2-0.7-2-1c-0.8-0.3-1.8-0.4-3-0.4c-1.3,0-2.6,0.3-3.7,0.8c-1.1,0.5-2.1,1.2-3,2.1
				c-0.9,0.9-1.6,1.9-2.3,3c-0.7,1.1-1.2,2.3-1.6,3.6c-0.4,1.2-0.7,2.5-1,3.7c-0.2,1.2-0.3,2.4-0.3,3.4c0,1.3,0.2,2.4,0.5,3.3
				c0.3,1,0.8,1.8,1.4,2.4c0.6,0.6,1.3,1.1,2.2,1.4c0.9,0.3,1.8,0.5,2.9,0.5c1.3,0,2.4-0.1,3.3-0.4c0.9-0.3,1.7-0.6,2.3-0.9
				c0.6-0.3,1.2-0.6,1.6-0.9c0.4-0.3,0.8-0.4,1.2-0.4c0.2,0,0.4,0.1,0.5,0.3c0.1,0.2,0.1,0.4,0.1,0.7c0,0.1,0,0.3-0.1,0.6
				c0,0.3-0.1,0.5-0.1,0.9c-0.1,0.3-0.1,0.7-0.2,1c-0.1,0.4-0.2,0.7-0.2,1c-0.1,0.3-0.2,0.6-0.3,0.9c-0.1,0.3-0.3,0.5-0.5,0.7
				c-0.2,0.2-0.6,0.5-1.2,0.8c-0.6,0.3-1.3,0.6-2.1,0.9c-0.8,0.3-1.8,0.5-2.8,0.7c-1.1,0.2-2.2,0.3-3.4,0.3c-2,0-3.8-0.3-5.3-0.8
				c-1.6-0.5-2.9-1.3-4-2.4c-1.1-1.1-2-2.4-2.6-4c-0.6-1.6-0.9-3.5-0.9-5.7c0-1.7,0.2-3.4,0.5-5.3c0.3-1.8,0.9-3.6,1.6-5.3
				c0.7-1.7,1.6-3.4,2.7-5c1.1-1.6,2.3-2.9,3.8-4.1c1.5-1.2,3.1-2.1,5-2.8c1.9-0.7,3.9-1,6.2-1c1.3,0,2.5,0.1,3.6,0.4
				c1.1,0.3,2.1,0.6,3,1c0.8,0.4,1.4,0.8,1.8,1.2C202.2,147,202.3,147.4,202.3,148z"/>
			<path class="st1" d="M223.5,169.5c-1.3,2.2-2.5,4.1-3.5,5.5c-1.1,1.4-2.1,2.5-3.1,3.3c-1,0.8-2.1,1.3-3.2,1.6
				c-1.1,0.3-2.4,0.4-3.8,0.4c-0.4,0-0.8,0-1.2-0.1c-0.4-0.1-0.9-0.1-1.3-0.2c-0.4-0.1-0.8-0.2-1.1-0.4c-0.4-0.1-0.6-0.3-0.8-0.5
				c-0.3-0.3-0.4-0.6-0.4-1.1c0-0.1,0-0.4,0-0.7c0-0.3,0.1-0.7,0.1-1c0.1-0.4,0.1-0.8,0.2-1.2c0.1-0.4,0.2-0.8,0.4-1.1
				c0.1-0.3,0.3-0.6,0.5-0.8c0.2-0.2,0.4-0.3,0.6-0.3c0.2,0,0.4,0.1,0.5,0.2c0.2,0.1,0.4,0.3,0.6,0.4c0.2,0.1,0.5,0.3,0.9,0.4
				c0.3,0.1,0.8,0.2,1.3,0.2c0.4,0,0.7-0.1,1.1-0.2c0.4-0.1,0.7-0.3,1.1-0.6c0.4-0.3,0.8-0.6,1.1-1.1c0.4-0.4,0.8-1,1.2-1.7
				l-6.9-23.3c-0.2-0.6-0.3-1.1-0.3-1.4c0-0.4,0.1-0.6,0.3-0.8c0.2-0.2,0.6-0.3,1.1-0.4c0.5-0.1,1.2-0.1,2.1-0.1c0.9,0,1.5,0,2,0.1
				c0.5,0,0.9,0.1,1.1,0.2c0.3,0.1,0.4,0.3,0.6,0.5c0.1,0.2,0.2,0.5,0.3,0.9l3,10.8c0.3,1.1,0.6,2.3,0.9,3.4
				c0.3,1.1,0.5,2.2,0.8,3.3h0.1c0.6-1.3,1.3-2.5,1.9-3.6c0.6-1.2,1.3-2.4,2-3.5l6.2-10.8c0.1-0.2,0.3-0.4,0.5-0.6
				c0.2-0.2,0.5-0.3,0.8-0.4c0.3-0.1,0.8-0.2,1.3-0.2c0.6,0,1.2-0.1,2.1-0.1c0.8,0,1.5,0,2,0.1c0.5,0,0.8,0.2,1,0.3
				c0.2,0.2,0.2,0.4,0.1,0.7c-0.1,0.3-0.3,0.7-0.6,1.3L223.5,169.5z"/>
			<path class="st1" d="M266.7,148c0,0.5-0.1,1.2-0.3,2c-0.2,0.9-0.4,1.5-0.7,2.1c-0.3,0.5-0.6,0.8-0.9,0.8c-0.2,0-0.5-0.1-0.8-0.4
				c-0.3-0.3-0.8-0.6-1.3-1c-0.5-0.3-1.2-0.7-2-1c-0.8-0.3-1.8-0.4-3-0.4c-1.3,0-2.6,0.3-3.7,0.8c-1.1,0.5-2.1,1.2-3,2.1
				c-0.9,0.9-1.6,1.9-2.3,3c-0.7,1.1-1.2,2.3-1.6,3.6c-0.4,1.2-0.7,2.5-1,3.7c-0.2,1.2-0.3,2.4-0.3,3.4c0,1.3,0.2,2.4,0.5,3.3
				c0.3,1,0.8,1.8,1.4,2.4c0.6,0.6,1.3,1.1,2.2,1.4c0.9,0.3,1.8,0.5,2.9,0.5c1.3,0,2.4-0.1,3.3-0.4c0.9-0.3,1.7-0.6,2.3-0.9
				c0.6-0.3,1.2-0.6,1.6-0.9c0.4-0.3,0.8-0.4,1.2-0.4c0.2,0,0.4,0.1,0.5,0.3c0.1,0.2,0.1,0.4,0.1,0.7c0,0.1,0,0.3-0.1,0.6
				c0,0.3-0.1,0.5-0.1,0.9c-0.1,0.3-0.1,0.7-0.2,1c-0.1,0.4-0.2,0.7-0.2,1c-0.1,0.3-0.2,0.6-0.3,0.9c-0.1,0.3-0.3,0.5-0.5,0.7
				c-0.2,0.2-0.6,0.5-1.2,0.8c-0.6,0.3-1.3,0.6-2.1,0.9c-0.8,0.3-1.8,0.5-2.8,0.7c-1.1,0.2-2.2,0.3-3.4,0.3c-2,0-3.8-0.3-5.3-0.8
				c-1.6-0.5-2.9-1.3-4-2.4c-1.1-1.1-2-2.4-2.6-4c-0.6-1.6-0.9-3.5-0.9-5.7c0-1.7,0.2-3.4,0.5-5.3c0.3-1.8,0.9-3.6,1.6-5.3
				c0.7-1.7,1.6-3.4,2.7-5c1.1-1.6,2.3-2.9,3.8-4.1c1.5-1.2,3.1-2.1,5-2.8c1.9-0.7,3.9-1,6.2-1c1.3,0,2.5,0.1,3.6,0.4
				c1.1,0.3,2.1,0.6,3,1c0.8,0.4,1.4,0.8,1.8,1.2C266.5,147,266.7,147.4,266.7,148z"/>
			<path class="st1" d="M296.3,178.8c0,0.2-0.1,0.3-0.3,0.5c-0.1,0.1-0.3,0.2-0.6,0.3c-0.3,0.1-0.7,0.2-1.1,0.2
				c-0.5,0-1,0.1-1.7,0.1c-0.7,0-1.3,0-1.7-0.1c-0.5,0-0.8-0.1-1.1-0.2c-0.3-0.1-0.4-0.2-0.5-0.3c-0.1-0.1-0.1-0.3-0.1-0.5l5.7-28.3
				h-13.1l-5.7,28.3c0,0.2-0.1,0.3-0.3,0.5c-0.1,0.1-0.4,0.2-0.7,0.3c-0.3,0.1-0.7,0.2-1.2,0.2c-0.5,0-1.1,0.1-1.7,0.1
				c-0.7,0-1.3,0-1.7-0.1c-0.4,0-0.8-0.1-1-0.2c-0.3-0.1-0.4-0.2-0.5-0.3c-0.1-0.1-0.1-0.3,0-0.5l6.4-32c0.1-0.8,0.4-1.3,0.9-1.7
				c0.5-0.4,1-0.6,1.6-0.6h23.2c0.7,0,1.1,0.2,1.4,0.6c0.3,0.4,0.4,0.9,0.2,1.7L296.3,178.8z"/>
			<path class="st1" d="M314.1,178.8c0,0.2-0.1,0.3-0.3,0.5c-0.1,0.1-0.4,0.3-0.7,0.4c-0.3,0.1-0.7,0.2-1.2,0.2
				c-0.5,0-1.1,0.1-1.7,0.1c-0.7,0-1.3,0-1.7-0.1c-0.4,0-0.8-0.1-1-0.2c-0.3-0.1-0.4-0.2-0.5-0.4c-0.1-0.1-0.1-0.3-0.1-0.5l6.7-33.3
				c0-0.2,0.1-0.3,0.3-0.5c0.2-0.1,0.4-0.3,0.7-0.4c0.3-0.1,0.7-0.2,1.1-0.2c0.5,0,1-0.1,1.7-0.1c0.7,0,1.3,0,1.7,0.1
				c0.4,0,0.8,0.1,1.1,0.2c0.3,0.1,0.4,0.2,0.5,0.4c0.1,0.1,0.1,0.3,0.1,0.5L314.1,178.8z"/>
			<path class="st1" d="M352.1,178.8c0,0.2-0.1,0.3-0.3,0.5c-0.1,0.1-0.4,0.2-0.7,0.3c-0.3,0.1-0.7,0.2-1.2,0.2
				c-0.5,0-1,0.1-1.7,0.1c-0.7,0-1.3,0-1.7-0.1c-0.5,0-0.8-0.1-1.1-0.2c-0.3-0.1-0.4-0.2-0.5-0.3c-0.1-0.1-0.1-0.3,0-0.5l5.7-28.4
				H343c-1.3,4.2-2.5,7.8-3.7,10.9c-1.1,3.1-2.2,5.8-3.3,8c-1,2.2-2.1,4-3.1,5.4c-1,1.4-2.1,2.5-3.2,3.3c-1.1,0.8-2.2,1.4-3.4,1.7
				c-1.2,0.3-2.5,0.5-3.9,0.5c-0.5,0-0.9-0.1-1.1-0.3c-0.2-0.2-0.3-0.5-0.3-0.9c0-0.1,0-0.4,0.1-0.7c0-0.3,0.1-0.7,0.2-1.1
				c0.1-0.4,0.2-0.8,0.3-1.2c0.1-0.4,0.3-0.8,0.4-1.1c0.2-0.3,0.3-0.6,0.5-0.8c0.2-0.2,0.4-0.3,0.6-0.3c0.6,0,1.1-0.1,1.7-0.3
				c0.6-0.2,1.1-0.7,1.8-1.3c0.6-0.7,1.3-1.6,1.9-2.8c0.7-1.2,1.4-2.8,2.3-4.8c0.8-2,1.7-4.4,2.7-7.2c1-2.8,2.1-6.2,3.3-10.2
				c0.1-0.4,0.2-0.7,0.4-1c0.1-0.3,0.3-0.6,0.5-0.8c0.2-0.2,0.4-0.4,0.7-0.5c0.3-0.1,0.6-0.2,1-0.2h17.3c0.7,0,1.1,0.2,1.4,0.6
				c0.3,0.4,0.4,0.9,0.2,1.7L352.1,178.8z"/>
			<path class="st1" d="M390.9,166.3c0,0.7-0.1,1.5-0.2,2.3c-0.1,0.8-0.4,1.7-0.7,2.5c-0.3,0.9-0.7,1.7-1.3,2.5
				c-0.5,0.8-1.2,1.6-1.9,2.3c-0.8,0.7-1.7,1.4-2.7,1.9c-1,0.6-2.2,1-3.5,1.3c-0.9,0.2-2,0.4-3.1,0.5c-1.1,0.1-2.3,0.2-3.7,0.2h-9.1
				c-0.3,0-0.6,0-0.8-0.1c-0.3-0.1-0.5-0.2-0.6-0.4c-0.2-0.2-0.3-0.4-0.3-0.7c-0.1-0.3-0.1-0.6,0-1l6.4-32c0-0.2,0.1-0.3,0.3-0.5
				c0.2-0.1,0.4-0.2,0.7-0.3c0.3-0.1,0.7-0.2,1.1-0.2c0.5,0,1-0.1,1.7-0.1c0.7,0,1.3,0,1.7,0.1c0.4,0,0.8,0.1,1,0.2
				c0.3,0.1,0.4,0.2,0.5,0.3c0.1,0.1,0.1,0.3,0.1,0.5l-2.4,12h4.3c0.7,0,1.3,0,1.9,0c0.6,0,1.1,0.1,1.6,0.1c0.5,0,0.9,0.1,1.3,0.2
				c0.4,0.1,0.8,0.1,1.1,0.3c1.2,0.3,2.2,0.7,3,1.3c0.8,0.6,1.5,1.2,2.1,1.9c0.5,0.7,0.9,1.5,1.2,2.4
				C390.7,164.5,390.9,165.4,390.9,166.3z M383.4,167.2c0-0.7-0.2-1.4-0.5-2.1c-0.3-0.7-0.9-1.2-1.7-1.5c-0.2-0.1-0.4-0.2-0.7-0.2
				c-0.2-0.1-0.5-0.1-0.8-0.2c-0.3,0-0.7-0.1-1.1-0.1c-0.4,0-0.9,0-1.4,0H373l-2.3,11.2h4.2c0.6,0,1.1,0,1.5,0
				c0.4,0,0.8-0.1,1.2-0.1c0.3-0.1,0.7-0.1,0.9-0.2c0.3-0.1,0.6-0.2,0.9-0.3c0.6-0.2,1.1-0.6,1.6-1c0.5-0.4,0.9-0.9,1.3-1.5
				c0.4-0.6,0.6-1.2,0.8-1.8C383.3,168.6,383.4,167.9,383.4,167.2z"/>
			<path class="st1" d="M426.1,148c0,0.5-0.1,1.2-0.3,2c-0.2,0.9-0.4,1.5-0.7,2.1c-0.3,0.5-0.6,0.8-0.9,0.8c-0.2,0-0.5-0.1-0.8-0.4
				c-0.3-0.3-0.8-0.6-1.3-1c-0.5-0.3-1.2-0.7-2-1c-0.8-0.3-1.8-0.4-3-0.4c-1.3,0-2.6,0.3-3.7,0.8c-1.1,0.5-2.1,1.2-3,2.1
				c-0.9,0.9-1.6,1.9-2.3,3c-0.7,1.1-1.2,2.3-1.6,3.6c-0.4,1.2-0.7,2.5-1,3.7c-0.2,1.2-0.3,2.4-0.3,3.4c0,1.3,0.2,2.4,0.5,3.3
				c0.3,1,0.8,1.8,1.4,2.4c0.6,0.6,1.3,1.1,2.2,1.4c0.9,0.3,1.8,0.5,2.9,0.5c1.3,0,2.4-0.1,3.3-0.4c0.9-0.3,1.7-0.6,2.3-0.9
				c0.6-0.3,1.2-0.6,1.6-0.9c0.4-0.3,0.8-0.4,1.2-0.4c0.2,0,0.4,0.1,0.5,0.3c0.1,0.2,0.1,0.4,0.1,0.7c0,0.1,0,0.3-0.1,0.6
				c0,0.3-0.1,0.5-0.1,0.9c-0.1,0.3-0.1,0.7-0.2,1c-0.1,0.4-0.2,0.7-0.2,1c-0.1,0.3-0.2,0.6-0.3,0.9c-0.1,0.3-0.3,0.5-0.5,0.7
				c-0.2,0.2-0.6,0.5-1.2,0.8c-0.6,0.3-1.3,0.6-2.1,0.9c-0.8,0.3-1.8,0.5-2.8,0.7c-1.1,0.2-2.2,0.3-3.4,0.3c-2,0-3.8-0.3-5.3-0.8
				c-1.6-0.5-2.9-1.3-4-2.4c-1.1-1.1-2-2.4-2.6-4c-0.6-1.6-0.9-3.5-0.9-5.7c0-1.7,0.2-3.4,0.5-5.3c0.3-1.8,0.9-3.6,1.6-5.3
				c0.7-1.7,1.6-3.4,2.7-5c1.1-1.6,2.3-2.9,3.8-4.1c1.5-1.2,3.1-2.1,5-2.8c1.9-0.7,3.9-1,6.2-1c1.3,0,2.5,0.1,3.6,0.4
				c1.1,0.3,2.1,0.6,3,1c0.8,0.4,1.4,0.8,1.8,1.2C426,147,426.1,147.4,426.1,148z"/>
			<path class="st1" d="M458.2,145.7c0,0.1,0,0.3,0,0.6c0,0.3-0.1,0.6-0.1,0.9c-0.1,0.3-0.1,0.7-0.2,1.1c-0.1,0.4-0.2,0.7-0.4,1
				c-0.1,0.3-0.3,0.6-0.5,0.8c-0.2,0.2-0.4,0.3-0.6,0.3h-8.8l-5.7,28.4c-0.1,0.2-0.2,0.3-0.3,0.5c-0.1,0.1-0.4,0.3-0.7,0.4
				c-0.3,0.1-0.7,0.2-1.1,0.2c-0.5,0.1-1,0.1-1.8,0.1c-0.7,0-1.3,0-1.7-0.1c-0.5-0.1-0.8-0.1-1-0.2c-0.2-0.1-0.4-0.2-0.5-0.4
				c-0.1-0.1-0.1-0.3-0.1-0.5l5.7-28.4h-8.8c-0.3,0-0.5-0.1-0.6-0.3c-0.1-0.2-0.1-0.5-0.1-0.8c0-0.1,0-0.4,0-0.6
				c0-0.3,0.1-0.6,0.1-1s0.1-0.7,0.2-1.1c0.1-0.4,0.2-0.7,0.4-1c0.1-0.3,0.3-0.6,0.5-0.7c0.2-0.2,0.4-0.3,0.6-0.3h24.8
				c0.2,0,0.4,0.1,0.5,0.3C458.2,145.1,458.2,145.4,458.2,145.7z"/>
			<path class="st1" d="M487.5,151.8c0,1.1-0.1,2.1-0.4,3c-0.3,1-0.7,1.8-1.3,2.6c-0.6,0.8-1.3,1.5-2.1,2.1
				c-0.8,0.6-1.7,1.1-2.7,1.5c0.8,0.1,1.5,0.4,2.2,0.8c0.7,0.4,1.2,0.8,1.7,1.4c0.5,0.6,0.9,1.2,1.1,2c0.3,0.8,0.4,1.6,0.4,2.6
				c0,0.9-0.1,1.8-0.4,2.7c-0.2,0.9-0.6,1.8-1.1,2.7c-0.5,0.9-1.2,1.7-2,2.5c-0.8,0.8-1.8,1.5-3,2.1c-1.2,0.6-2.5,1.1-4,1.4
				c-1.5,0.4-3.3,0.5-5.2,0.5H461c-0.7,0-1.3-0.2-1.6-0.5c-0.3-0.4-0.4-0.9-0.3-1.7l6.1-30.7c0.1-0.8,0.5-1.4,1-1.7
				c0.5-0.4,1.1-0.5,1.7-0.5h8.5c1.9,0,3.5,0.1,4.8,0.4c1.4,0.3,2.5,0.7,3.4,1.3c0.9,0.6,1.6,1.3,2.1,2.2
				C487.2,149.5,487.5,150.5,487.5,151.8z M478.9,168c0-1.2-0.4-2.1-1.3-2.7c-0.9-0.7-2.2-1-4.1-1h-4.8l-2,10h5.1
				c1.3,0,2.4-0.2,3.3-0.5c0.9-0.4,1.6-0.8,2.2-1.4c0.6-0.6,1-1.2,1.3-2C478.8,169.6,478.9,168.8,478.9,168z M480.1,153.1
				c0-0.5-0.1-1-0.3-1.3c-0.2-0.4-0.5-0.7-0.8-1c-0.4-0.3-0.8-0.5-1.4-0.6c-0.6-0.1-1.3-0.2-2.1-0.2h-3.9l-1.8,9.1h4
				c1.2,0,2.2-0.2,2.9-0.6c0.8-0.4,1.4-0.9,1.9-1.4c0.5-0.6,0.9-1.2,1.1-1.9C480,154.4,480.1,153.7,480.1,153.1z"/>
			<path class="st1" d="M521.6,177.1c0.1,0.7,0.1,1.2,0.1,1.6c0,0.4-0.1,0.7-0.4,0.9c-0.2,0.2-0.6,0.3-1.2,0.4
				c-0.6,0-1.3,0.1-2.3,0.1c-0.7,0-1.3,0-1.7,0c-0.4,0-0.8-0.1-1-0.1c-0.2-0.1-0.4-0.2-0.5-0.3c-0.1-0.1-0.1-0.3-0.2-0.6l-1-7.1
				h-13.2l-3.6,6.9c-0.1,0.3-0.3,0.5-0.4,0.6c-0.2,0.2-0.4,0.3-0.7,0.4c-0.3,0.1-0.7,0.2-1.2,0.2c-0.5,0-1.2,0.1-1.9,0.1
				c-0.8,0-1.5,0-1.9-0.1c-0.5-0.1-0.8-0.2-0.9-0.4c-0.2-0.2-0.2-0.5-0.1-0.9c0.1-0.4,0.3-0.9,0.7-1.5l17.1-31.2
				c0.2-0.3,0.4-0.6,0.5-0.7c0.2-0.2,0.4-0.3,0.8-0.4c0.3-0.1,0.8-0.2,1.4-0.2c0.6,0,1.3,0,2.2,0c1.1,0,1.9,0,2.5,0
				c0.6,0,1.1,0.1,1.5,0.2c0.3,0.1,0.6,0.2,0.7,0.4c0.1,0.2,0.2,0.5,0.2,0.8L521.6,177.1z M510.9,151.3L510.9,151.3l-7.9,15h9.9
				L510.9,151.3z"/>
			<path class="st1" d="M563.7,169.5c-1.3,2.2-2.5,4.1-3.5,5.5c-1.1,1.4-2.1,2.5-3.1,3.3c-1,0.8-2.1,1.3-3.2,1.6
				c-1.1,0.3-2.4,0.4-3.8,0.4c-0.4,0-0.8,0-1.2-0.1c-0.4-0.1-0.9-0.1-1.3-0.2c-0.4-0.1-0.8-0.2-1.1-0.4c-0.4-0.1-0.6-0.3-0.8-0.5
				c-0.3-0.3-0.4-0.6-0.4-1.1c0-0.1,0-0.4,0-0.7c0-0.3,0.1-0.7,0.1-1c0.1-0.4,0.1-0.8,0.2-1.2c0.1-0.4,0.2-0.8,0.4-1.1
				c0.1-0.3,0.3-0.6,0.5-0.8c0.2-0.2,0.4-0.3,0.6-0.3c0.2,0,0.4,0.1,0.5,0.2c0.2,0.1,0.4,0.3,0.6,0.4c0.2,0.1,0.5,0.3,0.9,0.4
				c0.3,0.1,0.8,0.2,1.3,0.2c0.4,0,0.7-0.1,1.1-0.2c0.4-0.1,0.7-0.3,1.1-0.6c0.4-0.3,0.8-0.6,1.1-1.1c0.4-0.4,0.8-1,1.2-1.7
				l-6.9-23.3c-0.2-0.6-0.3-1.1-0.3-1.4c0-0.4,0.1-0.6,0.3-0.8c0.2-0.2,0.6-0.3,1.1-0.4c0.5-0.1,1.2-0.1,2.1-0.1c0.9,0,1.5,0,2,0.1
				c0.5,0,0.9,0.1,1.1,0.2c0.3,0.1,0.4,0.3,0.6,0.5c0.1,0.2,0.2,0.5,0.3,0.9l3,10.8c0.3,1.1,0.6,2.3,0.9,3.4
				c0.3,1.1,0.5,2.2,0.8,3.3h0.1c0.6-1.3,1.3-2.5,1.9-3.6c0.6-1.2,1.3-2.4,2-3.5l6.2-10.8c0.1-0.2,0.3-0.4,0.5-0.6
				c0.2-0.2,0.5-0.3,0.8-0.4c0.3-0.1,0.8-0.2,1.3-0.2c0.6,0,1.2-0.1,2.1-0.1c0.8,0,1.5,0,2,0.1c0.5,0,0.8,0.2,1,0.3
				c0.2,0.2,0.2,0.4,0.1,0.7c-0.1,0.3-0.3,0.7-0.6,1.3L563.7,169.5z"/>
			<path class="st1" d="M604.1,178.4c0,0.3-0.1,0.6-0.2,0.7c-0.1,0.2-0.3,0.3-0.6,0.5c-0.3,0.1-0.7,0.2-1.2,0.2
				c-0.5,0-1.1,0.1-1.8,0.1c-0.8,0-1.4,0-1.8-0.1c-0.4,0-0.8-0.1-1-0.2c-0.2-0.1-0.4-0.2-0.5-0.4c-0.1-0.2-0.1-0.4-0.2-0.6l-1.3-7.8
				c-0.2-1.1-0.4-2.1-0.7-2.9c-0.3-0.8-0.7-1.4-1.1-1.9c-0.5-0.5-1-0.8-1.6-1c-0.6-0.2-1.4-0.3-2.2-0.3h-1.6l-2.8,14.1
				c0,0.2-0.1,0.4-0.3,0.5c-0.1,0.1-0.4,0.3-0.7,0.4c-0.3,0.1-0.7,0.2-1.1,0.2c-0.5,0-1,0.1-1.7,0.1c-0.7,0-1.3,0-1.7-0.1
				c-0.4,0-0.8-0.1-1-0.2c-0.3-0.1-0.4-0.2-0.5-0.4c-0.1-0.1-0.1-0.3-0.1-0.5l6.7-33.3c0-0.2,0.1-0.4,0.3-0.5
				c0.2-0.1,0.4-0.2,0.7-0.3c0.3-0.1,0.7-0.2,1.1-0.2c0.5,0,1-0.1,1.8-0.1c0.7,0,1.3,0,1.7,0.1c0.4,0,0.8,0.1,1,0.2
				c0.3,0.1,0.4,0.2,0.5,0.3c0.1,0.1,0.1,0.3,0.1,0.5l-2.7,13.2h1.6c0.8,0,1.5-0.1,2.2-0.3c0.6-0.2,1.3-0.6,1.8-1
				c0.6-0.5,1.1-1.1,1.7-1.8c0.6-0.8,1.1-1.7,1.7-2.8l3.8-7c0.1-0.3,0.3-0.5,0.5-0.6c0.2-0.2,0.4-0.3,0.7-0.4
				c0.3-0.1,0.7-0.2,1.2-0.2c0.5,0,1.1-0.1,1.9-0.1c0.7,0,1.3,0,1.7,0.1c0.4,0,0.8,0.1,1,0.2c0.2,0.1,0.4,0.2,0.5,0.3
				c0.1,0.1,0.1,0.2,0.1,0.4c0,0.3-0.1,0.6-0.2,0.9c-0.2,0.4-0.4,0.8-0.8,1.4l-3.6,6.3c-0.7,1.2-1.3,2.2-1.9,3
				c-0.6,0.8-1.2,1.5-1.8,2.1c-0.6,0.6-1.2,1-1.8,1.4s-1.3,0.7-1.9,0.9v0c0.7,0.3,1.2,0.7,1.7,1c0.5,0.4,0.9,0.9,1.3,1.5
				c0.4,0.6,0.7,1.3,1,2.2c0.3,0.9,0.5,1.9,0.8,3.2l1.4,7.3c0.1,0.4,0.2,0.7,0.2,1C604.1,177.9,604.1,178.2,604.1,178.4z"/>
			<path class="st1" d="M641.5,153.2c0,1-0.1,2.1-0.3,3.2c-0.2,1.1-0.6,2.2-1.1,3.3c-0.5,1.1-1.2,2.1-2,3c-0.8,1-1.8,1.8-3,2.5
				c-1.2,0.7-2.5,1.3-4.1,1.7c-1.5,0.4-3.4,0.6-5.4,0.6h-3.7l-2.3,11.3c0,0.2-0.1,0.3-0.3,0.5c-0.1,0.1-0.4,0.3-0.7,0.4
				c-0.3,0.1-0.7,0.2-1.2,0.2c-0.5,0-1.1,0.1-1.7,0.1c-0.7,0-1.2,0-1.7-0.1c-0.4,0-0.8-0.1-1-0.2c-0.3-0.1-0.4-0.2-0.5-0.3
				c-0.1-0.1-0.1-0.3-0.1-0.5l6.3-31.7c0.2-0.9,0.5-1.5,1.1-1.9c0.5-0.4,1.2-0.6,2-0.6h7.7c0.9,0,1.8,0,2.5,0.1
				c0.7,0.1,1.5,0.2,2.2,0.3c1.1,0.2,2.1,0.6,3,1c0.9,0.5,1.6,1,2.2,1.7c0.6,0.7,1.1,1.5,1.4,2.4C641.3,151,641.5,152,641.5,153.2z
				 M633.9,154c0-0.9-0.2-1.6-0.6-2.3c-0.4-0.6-1.1-1.1-1.9-1.3c-0.4-0.1-0.8-0.2-1.3-0.3c-0.5,0-1-0.1-1.6-0.1h-3.2L623,162h3.3
				c1,0,1.9-0.1,2.7-0.4c0.7-0.2,1.4-0.6,1.9-1c0.6-0.4,1-0.9,1.4-1.4c0.4-0.5,0.7-1.1,1-1.7c0.2-0.6,0.4-1.2,0.5-1.8
				C633.9,155.2,633.9,154.6,633.9,154z"/>
			<path class="st1" d="M671.5,177.1c0.1,0.7,0.1,1.2,0.1,1.6c0,0.4-0.1,0.7-0.4,0.9c-0.2,0.2-0.6,0.3-1.2,0.4
				c-0.6,0-1.3,0.1-2.3,0.1c-0.7,0-1.3,0-1.7,0c-0.4,0-0.8-0.1-1-0.1c-0.2-0.1-0.4-0.2-0.5-0.3c-0.1-0.1-0.1-0.3-0.2-0.6l-1-7.1
				h-13.2l-3.6,6.9c-0.1,0.3-0.3,0.5-0.4,0.6c-0.2,0.2-0.4,0.3-0.7,0.4c-0.3,0.1-0.7,0.2-1.2,0.2c-0.5,0-1.2,0.1-1.9,0.1
				c-0.8,0-1.5,0-1.9-0.1c-0.5-0.1-0.8-0.2-0.9-0.4c-0.2-0.2-0.2-0.5-0.1-0.9c0.1-0.4,0.3-0.9,0.7-1.5l17.1-31.2
				c0.2-0.3,0.4-0.6,0.5-0.7c0.2-0.2,0.4-0.3,0.8-0.4c0.3-0.1,0.8-0.2,1.4-0.2c0.6,0,1.3,0,2.2,0c1.1,0,1.9,0,2.5,0
				c0.6,0,1.1,0.1,1.5,0.2c0.3,0.1,0.6,0.2,0.7,0.4c0.1,0.2,0.2,0.5,0.2,0.8L671.5,177.1z M660.8,151.3L660.8,151.3l-7.9,15h9.9
				L660.8,151.3z"/>
			<path class="st1" d="M686.2,178.8c0,0.2-0.1,0.3-0.3,0.5c-0.1,0.1-0.4,0.3-0.7,0.4c-0.3,0.1-0.7,0.2-1.2,0.2
				c-0.5,0-1.1,0.1-1.7,0.1c-0.7,0-1.3,0-1.7-0.1c-0.4,0-0.8-0.1-1-0.2c-0.3-0.1-0.4-0.2-0.5-0.4c-0.1-0.1-0.1-0.3-0.1-0.5l6.7-33.3
				c0-0.2,0.1-0.3,0.3-0.5c0.2-0.1,0.4-0.3,0.7-0.4c0.3-0.1,0.7-0.2,1.1-0.2c0.5,0,1-0.1,1.7-0.1c0.7,0,1.3,0,1.7,0.1
				c0.4,0,0.8,0.1,1.1,0.2c0.3,0.1,0.4,0.2,0.5,0.4c0.1,0.1,0.1,0.3,0.1,0.5L686.2,178.8z M688.4,138.2c-0.1,0.6-0.3,1.2-0.5,1.6
				c-0.2,0.4-0.5,0.8-0.8,1c-0.3,0.3-0.7,0.4-1.2,0.5c-0.5,0.1-1,0.1-1.7,0.1c-0.7,0-1.3,0-1.7-0.1c-0.4-0.1-0.8-0.3-1-0.5
				c-0.2-0.3-0.4-0.6-0.4-1c0-0.4,0-0.9,0.1-1.6c0.1-0.7,0.3-1.2,0.5-1.7c0.2-0.5,0.5-0.8,0.8-1.1c0.3-0.3,0.7-0.4,1.2-0.6
				c0.5-0.1,1.1-0.2,1.8-0.2c0.7,0,1.2,0.1,1.6,0.2c0.4,0.1,0.8,0.3,1,0.6c0.2,0.3,0.4,0.6,0.4,1.1
				C688.5,137,688.5,137.5,688.4,138.2z M700.3,138.2c-0.1,0.6-0.3,1.2-0.5,1.6c-0.2,0.4-0.5,0.8-0.8,1c-0.3,0.3-0.7,0.4-1.2,0.5
				c-0.5,0.1-1,0.1-1.7,0.1c-0.7,0-1.2,0-1.7-0.1c-0.4-0.1-0.8-0.3-1-0.5c-0.2-0.3-0.4-0.6-0.4-1c0-0.4,0-0.9,0.1-1.6
				c0.1-0.7,0.3-1.2,0.5-1.7c0.2-0.5,0.4-0.8,0.8-1.1c0.3-0.3,0.7-0.4,1.2-0.6c0.5-0.1,1.1-0.2,1.7-0.2c0.7,0,1.2,0.1,1.6,0.2
				c0.4,0.1,0.8,0.3,1,0.6c0.2,0.3,0.4,0.6,0.4,1.1C700.4,137,700.4,137.5,700.3,138.2z"/>
			<path class="st1" d="M724.3,178.8c0,0.2-0.1,0.3-0.3,0.5c-0.1,0.1-0.4,0.3-0.7,0.4c-0.3,0.1-0.7,0.2-1.1,0.2
				c-0.5,0-1.1,0.1-1.7,0.1c-0.7,0-1.3,0-1.7-0.1c-0.5,0-0.8-0.1-1-0.2c-0.2-0.1-0.4-0.2-0.5-0.4c-0.1-0.1-0.1-0.3-0.1-0.5l2.8-14.3
				h-13.2l-2.8,14.3c0,0.2-0.1,0.3-0.3,0.5c-0.1,0.1-0.4,0.3-0.7,0.4c-0.3,0.1-0.7,0.2-1.1,0.2c-0.5,0-1,0.1-1.7,0.1
				c-0.7,0-1.3,0-1.7-0.1c-0.4,0-0.8-0.1-1-0.2c-0.3-0.1-0.4-0.2-0.5-0.4c-0.1-0.1-0.1-0.3-0.1-0.5l6.7-33.3c0-0.2,0.1-0.3,0.2-0.5
				c0.1-0.1,0.4-0.3,0.7-0.4c0.3-0.1,0.7-0.2,1.1-0.2c0.5,0,1.1-0.1,1.7-0.1c0.7,0,1.3,0,1.7,0.1c0.5,0,0.8,0.1,1.1,0.2
				c0.3,0.1,0.4,0.2,0.5,0.4c0.1,0.1,0.1,0.3,0.1,0.5l-2.6,12.9h13.2l2.6-12.9c0-0.2,0.1-0.3,0.3-0.5c0.1-0.1,0.4-0.3,0.7-0.4
				c0.3-0.1,0.7-0.2,1.1-0.2c0.5,0,1.1-0.1,1.7-0.1c0.7,0,1.3,0,1.7,0.1c0.5,0,0.8,0.1,1.1,0.2c0.3,0.1,0.4,0.2,0.5,0.4
				c0.1,0.1,0.1,0.3,0.1,0.5L724.3,178.8z"/>
			<path class="st1" d="M764.1,177.1c0.1,0.7,0.1,1.2,0.1,1.6c0,0.4-0.1,0.7-0.4,0.9c-0.2,0.2-0.6,0.3-1.2,0.4
				c-0.6,0-1.3,0.1-2.3,0.1c-0.7,0-1.3,0-1.7,0c-0.4,0-0.8-0.1-1-0.1c-0.2-0.1-0.4-0.2-0.5-0.3c-0.1-0.1-0.1-0.3-0.2-0.6l-1-7.1
				h-13.2l-3.6,6.9c-0.1,0.3-0.3,0.5-0.4,0.6c-0.2,0.2-0.4,0.3-0.7,0.4c-0.3,0.1-0.7,0.2-1.2,0.2c-0.5,0-1.2,0.1-1.9,0.1
				c-0.8,0-1.5,0-1.9-0.1c-0.5-0.1-0.8-0.2-0.9-0.4c-0.2-0.2-0.2-0.5-0.1-0.9c0.1-0.4,0.3-0.9,0.7-1.5l17.1-31.2
				c0.2-0.3,0.4-0.6,0.5-0.7c0.2-0.2,0.4-0.3,0.8-0.4c0.3-0.1,0.8-0.2,1.4-0.2c0.6,0,1.3,0,2.2,0c1.1,0,1.9,0,2.5,0
				c0.6,0,1.1,0.1,1.5,0.2c0.3,0.1,0.6,0.2,0.7,0.4c0.1,0.2,0.2,0.5,0.2,0.8L764.1,177.1z M753.4,151.3L753.4,151.3l-7.9,15h9.9
				L753.4,151.3z"/>
			<path class="st1" d="M786.8,160.6c0,0.1,0,0.3,0,0.6c0,0.3-0.1,0.6-0.1,0.9c-0.1,0.3-0.2,0.7-0.3,1c-0.1,0.3-0.2,0.6-0.4,0.9
				c-0.1,0.3-0.3,0.5-0.5,0.7c-0.2,0.2-0.4,0.3-0.7,0.3h-11.3c-0.3,0-0.6-0.1-0.7-0.3c-0.1-0.2-0.2-0.5-0.2-1c0-0.1,0-0.4,0-0.6
				c0-0.3,0.1-0.6,0.1-0.9c0.1-0.3,0.1-0.6,0.3-1c0.1-0.3,0.2-0.6,0.4-0.9c0.1-0.3,0.3-0.5,0.5-0.7c0.2-0.2,0.4-0.2,0.7-0.2h11.3
				c0.3,0,0.6,0.1,0.7,0.3C786.8,159.9,786.8,160.2,786.8,160.6z"/>
			<path class="st1" d="M816.9,173c0,0.2,0,0.6-0.1,1.2c-0.1,0.6-0.2,1.1-0.3,1.7c-0.1,0.6-0.2,1-0.3,1.3c-0.1,0.3-0.2,0.5-0.4,0.7
				c-0.2,0.2-0.6,0.5-1.3,0.8c-0.7,0.3-1.5,0.6-2.4,0.9c-0.9,0.3-1.9,0.5-2.9,0.6c-1,0.2-2,0.2-3,0.2c-2.5,0-4.5-0.3-6.2-1
				c-1.7-0.6-3.1-1.5-4.1-2.7c-1-1.1-1.8-2.5-2.3-4.1c-0.5-1.6-0.7-3.2-0.7-5.1c0-1.3,0.1-2.7,0.4-4.4c0.2-1.7,0.7-3.4,1.2-5.1
				c0.6-1.7,1.4-3.5,2.3-5.2c1-1.7,2.2-3.2,3.7-4.5c1.5-1.3,3.2-2.4,5.2-3.2c2-0.8,4.3-1.2,6.9-1.2c1,0,2,0.1,2.9,0.2
				c0.9,0.1,1.8,0.3,2.5,0.6c0.8,0.3,1.4,0.5,2,0.9c0.6,0.3,1,0.6,1.3,1c0.2,0.2,0.3,0.4,0.4,0.7c0.1,0.3,0.1,0.5,0.1,0.8
				c0,0.1,0,0.4,0,0.6c0,0.3-0.1,0.6-0.1,0.9c-0.1,0.3-0.1,0.6-0.2,1c-0.1,0.3-0.2,0.6-0.3,0.9c-0.1,0.3-0.2,0.5-0.4,0.7
				c-0.1,0.2-0.3,0.3-0.4,0.3c-0.2,0-0.5-0.1-0.8-0.4c-0.3-0.3-0.8-0.6-1.4-0.9c-0.6-0.3-1.3-0.6-2.2-0.9c-0.9-0.3-1.9-0.4-3.2-0.4
				c-1.4,0-2.7,0.2-3.8,0.7c-1.2,0.5-2.2,1.1-3.2,2c-0.9,0.8-1.7,1.8-2.4,2.9c-0.7,1.1-1.2,2.3-1.6,3.6h14.5c0.5,0,0.7,0.4,0.7,1.1
				c0,0.1,0,0.3,0,0.6c0,0.3-0.1,0.6-0.1,0.9c-0.1,0.3-0.1,0.7-0.2,1c-0.1,0.4-0.2,0.7-0.3,1c-0.1,0.3-0.3,0.5-0.5,0.7
				c-0.2,0.2-0.4,0.3-0.6,0.3h-14.6c-0.1,0.5-0.2,1-0.2,1.5c0,0.5-0.1,1-0.1,1.5c0,1.2,0.1,2.2,0.4,3.1c0.3,0.9,0.7,1.6,1.3,2.2
				c0.6,0.6,1.3,1,2.2,1.3c0.9,0.3,2,0.4,3.3,0.4c1.3,0,2.4-0.1,3.3-0.4c1-0.3,1.8-0.6,2.5-0.9c0.7-0.3,1.3-0.6,1.8-0.9
				c0.5-0.3,0.9-0.4,1.1-0.4c0.2,0,0.4,0.1,0.5,0.2C816.8,172.3,816.9,172.6,816.9,173z"/>
			<path class="st1" d="M854.3,148c0,0.5-0.1,1.2-0.3,2c-0.2,0.9-0.4,1.5-0.7,2.1c-0.3,0.5-0.6,0.8-0.9,0.8c-0.2,0-0.5-0.1-0.8-0.4
				c-0.3-0.3-0.8-0.6-1.3-1c-0.5-0.3-1.2-0.7-2-1c-0.8-0.3-1.8-0.4-3-0.4c-1.3,0-2.6,0.3-3.7,0.8c-1.1,0.5-2.1,1.2-3,2.1
				c-0.9,0.9-1.6,1.9-2.3,3c-0.7,1.1-1.2,2.3-1.6,3.6c-0.4,1.2-0.7,2.5-1,3.7c-0.2,1.2-0.3,2.4-0.3,3.4c0,1.3,0.2,2.4,0.5,3.3
				c0.3,1,0.8,1.8,1.4,2.4c0.6,0.6,1.3,1.1,2.2,1.4c0.9,0.3,1.8,0.5,2.9,0.5c1.3,0,2.4-0.1,3.3-0.4c0.9-0.3,1.7-0.6,2.3-0.9
				c0.6-0.3,1.2-0.6,1.6-0.9c0.4-0.3,0.8-0.4,1.2-0.4c0.2,0,0.4,0.1,0.5,0.3c0.1,0.2,0.1,0.4,0.1,0.7c0,0.1,0,0.3-0.1,0.6
				c0,0.3-0.1,0.5-0.1,0.9c-0.1,0.3-0.1,0.7-0.2,1c-0.1,0.4-0.2,0.7-0.2,1c-0.1,0.3-0.2,0.6-0.3,0.9c-0.1,0.3-0.3,0.5-0.5,0.7
				c-0.2,0.2-0.6,0.5-1.2,0.8c-0.6,0.3-1.3,0.6-2.1,0.9c-0.8,0.3-1.8,0.5-2.8,0.7c-1.1,0.2-2.2,0.3-3.4,0.3c-2,0-3.8-0.3-5.3-0.8
				c-1.6-0.5-2.9-1.3-4-2.4c-1.1-1.1-2-2.4-2.6-4c-0.6-1.6-0.9-3.5-0.9-5.7c0-1.7,0.2-3.4,0.5-5.3c0.3-1.8,0.9-3.6,1.6-5.3
				c0.7-1.7,1.6-3.4,2.7-5c1.1-1.6,2.3-2.9,3.8-4.1c1.5-1.2,3.1-2.1,5-2.8c1.9-0.7,3.9-1,6.2-1c1.3,0,2.5,0.1,3.6,0.4
				c1.1,0.3,2.1,0.6,3,1c0.8,0.4,1.4,0.8,1.8,1.2C854.1,147,854.3,147.4,854.3,148z"/>
		</g>
	</g>
	<g>
		<g>
			<path class="st1" d="M125.4,128.5c0,0-13.6,14-25.2,25.9c-5.6,5.7-15,14.5-23,22c-2.6,2.4-5.1,4.7-7.3,6.8
				c-4.9,4.5-8.3,7.6-8.3,7.6c-0.9,0.8-2,1.2-3.1,1.2c-1.1,0-2.1-0.4-3-1.1c-1.9-1.7-2.1-4.6-0.4-6.5c0,0,3-3.2,7.4-7.9
				c2.2-2.3,4.7-5,7.3-7.8c7.9-8.5,17-18.1,21.4-22.9c8.8-9.6,21.3-20.9,21.3-20.9L100.2,110l7.3-6.7l17.8,16.4
				C127.7,122.1,127.8,126,125.4,128.5z"/>
			<path class="st1" d="M100.2,96.6l-5.7,6.7l-24.6-29l-2.7-3.1v0L59.4,62c-0.2-0.2-0.3-0.4-0.3-0.7c0-0.3,0.1-0.6,0.4-0.8
				c0.4-0.4,1-0.4,1.4,0l9,8.3l2.7,2.4L100.2,96.6z"/>
		</g>
		<g>
			<path class="st0" d="M48.5,145.5c4.4,4.8,13.4,14.5,21.4,22.9c-2.6,2.8-5.2,5.5-7.3,7.8c-8.1-7.5-17.4-16.3-23-22
				c-11.5-11.8-25.2-25.9-25.2-25.9c-2.4-2.5-2.3-6.4,0.2-8.7l17.8-16.4l7.3-6.7l27.6-25.4l2.7,3.1l-24.6,29l-5.7,6.7l-12.4,14.6
				C27.1,124.6,39.7,135.9,48.5,145.5z"/>
			<path class="st0" d="M80.6,61.3c0,0.2-0.1,0.5-0.3,0.7l-7.8,9.2l-2.7-2.4l9-8.3c0.4-0.4,1-0.4,1.4,0C80.5,60.7,80.6,61,80.6,61.3
				z"/>
			<path class="st0" d="M84.3,190.7c-0.9,0.7-1.9,1.1-3,1.1c-1.1,0-2.2-0.4-3.1-1.2c0,0-3.4-3.1-8.3-7.6c2.2-2,4.7-4.3,7.3-6.8
				c4.4,4.7,7.4,7.9,7.4,7.9C86.4,186.1,86.2,189.1,84.3,190.7z"/>
		</g>
		<g>
			<path class="st1" d="M69.9,38.1c-7.9,8.5-17,18.1-21.4,22.9C39.7,70.7,27.1,82,27.1,82l12.4,14.6l-7.3,6.7L14.5,86.9
				c-2.5-2.4-2.6-6.3-0.2-8.7c0,0,13.6-14.1,25.2-25.9c5.6-5.7,15-14.5,23-22C64.7,32.6,67.2,35.3,69.9,38.1z"/>
			<path class="st1" d="M80.6,145.4c0,0.3-0.1,0.6-0.4,0.8c-0.4,0.4-1,0.4-1.4,0l-9-8.3l-2.7-2.5L39.6,110l5.7-6.7l24.6,29l2.7,3.1
				l7.8,9.2C80.5,144.9,80.6,145.1,80.6,145.4z"/>
			<path class="st1" d="M84.6,22.4c0,0-3,3.2-7.4,7.9c-2.6-2.4-5.1-4.7-7.3-6.8c4.9-4.5,8.3-7.6,8.3-7.6c0.9-0.8,2-1.2,3.1-1.2
				c1.1,0,2.1,0.4,3,1.1C86.2,17.6,86.4,20.5,84.6,22.4z"/>
		</g>
		<g>
			<path class="st0" d="M125.2,86.9l-17.8,16.4l-7.3,6.7l-27.6,25.4l-2.7-3.1l24.6-29l5.7-6.7L112.6,82c0,0-12.5-11.3-21.3-20.9
				c-4.4-4.8-13.4-14.5-21.4-22.9c-2.6-2.8-5.2-5.5-7.3-7.8c-4.4-4.7-7.4-7.9-7.4-7.9c-1.7-1.9-1.6-4.8,0.4-6.5
				c0.9-0.7,1.9-1.1,3-1.1c1.1,0,2.2,0.4,3.1,1.2c0,0,3.4,3.1,8.3,7.6c2.2,2,4.7,4.3,7.3,6.8c8.1,7.5,17.4,16.3,23,22
				c11.5,11.8,25.2,25.9,25.2,25.9C127.8,80.6,127.7,84.6,125.2,86.9z"/>
			<path class="st0" d="M69.9,137.9l-9,8.3c-0.4,0.4-1,0.4-1.4,0c-0.2-0.2-0.4-0.5-0.4-0.8c0-0.2,0.1-0.5,0.3-0.7l7.8-9.2
				L69.9,137.9z"/>
		</g>
	</g>
</g>
</svg>
