<?xml version="1.0" encoding="UTF-8"?>
<svg width="14px" height="16px" viewBox="0 0 14 16" version="1.1" xmlns="http://www.w3.org/2000/svg" xmlns:xlink="http://www.w3.org/1999/xlink">
    <!-- Generator: Sketch 47.1 (45422) - http://www.bohemiancoding.com/sketch -->
    <title>youtube-logo</title>
    <desc>Created with Sketch.</desc>
    <defs></defs>
    <g id="screen" stroke="none" stroke-width="1" fill="none" fill-rule="evenodd">
        <g id="screen_1440" transform="translate(-396.000000, -448.000000)" fill-rule="nonzero" fill="#243269">
            <g id="head" transform="translate(0.000000, 20.000000)">
                <g id="social" transform="translate(247.000000, 382.000000)">
                    <g id="youtube" transform="translate(140.000000, 34.000000)">
                        <g id="Group-21" transform="translate(9.000000, 12.000000)">
                            <g id="youtube-logo">
                                <path d="M12.9985625,8.26175 C12.9213437,7.91071875 12.7501562,7.61634375 12.4855625,7.3785 C12.22075,7.14065625 11.9159687,7.00084375 11.570875,6.9591875 C10.4765,6.84025 8.82596875,6.7808125 6.61909375,6.7808125 C4.41228125,6.7808125 2.7646875,6.84028125 1.67615625,6.9591875 C1.3253125,7.00084375 1.019,7.14065625 0.7571875,7.3785 C0.4954375,7.6164375 0.3229375,7.91084375 0.239625,8.26175 C0.085,8.95184375 0.00765625,9.99271875 0.00765625,11.3845937 C0.00765625,12.8001875 0.085,13.8411562 0.239625,14.5074062 C0.3170625,14.8581875 0.48809375,15.1528125 0.75278125,15.3905625 C1.01746875,15.6285 1.3223125,15.7652812 1.66725,15.801 C2.7618125,15.9259062 4.41246875,15.988375 6.61915625,15.988375 C8.8256875,15.988375 10.4766562,15.9259062 11.5708125,15.801 C11.9159062,15.7652812 12.2191875,15.6285 12.481,15.3905625 C12.7427812,15.1528437 12.9152812,14.8581875 12.9985,14.5074062 C13.153125,13.8173125 13.2305625,12.7764375 13.2305625,11.3845937 C13.2305312,9.96896875 13.1530937,8.92796875 12.9985625,8.26175 Z M3.78203125,9.1630625 L2.827375,9.1630625 L2.827375,14.239625 L1.93521875,14.239625 L1.93521875,9.1630625 L0.99834375,9.1630625 L0.99834375,8.32440625 L3.7820625,8.32440625 L3.7820625,9.1630625 L3.78203125,9.1630625 Z M6.1909375,14.239625 L5.396875,14.239625 L5.396875,13.7577187 C5.0756875,14.1206875 4.77221875,14.3020625 4.48671875,14.3020625 C4.21315625,14.3020625 4.040625,14.1919375 3.96934375,13.9719375 C3.9218125,13.8291875 3.89790625,13.6119687 3.89790625,13.3205625 L3.89790625,9.83209375 L4.69196875,9.83209375 L4.69196875,13.0797187 C4.69196875,13.2699688 4.69496875,13.374125 4.70096875,13.392 C4.7188125,13.5169062 4.78121875,13.5793437 4.88834375,13.5793437 C5.04890625,13.5793437 5.21853125,13.4544375 5.39690625,13.204625 L5.39690625,9.83209375 L6.19096875,9.83209375 L6.19096875,14.239625 L6.1909375,14.239625 Z M9.22446875,12.9190938 C9.22446875,13.3532813 9.19775,13.650875 9.14446875,13.8115312 C9.04309375,14.1384687 8.83209375,14.3020625 8.5109375,14.3020625 C8.22540625,14.3020625 7.948875,14.1384687 7.6810625,13.8115312 L7.6810625,14.2397187 L6.887125,14.2397187 L6.887125,8.32440625 L7.6810625,8.32440625 L7.6810625,10.2605 C7.93696875,9.93946875 8.2134375,9.77884375 8.5109375,9.77884375 C8.83209375,9.77884375 9.04309375,9.9454375 9.14446875,10.2784687 C9.19771875,10.4330937 9.22446875,10.7275 9.22446875,11.1617187 L9.22446875,12.9190938 Z M12.2401562,12.1875938 L10.6431562,12.1875938 L10.6431562,12.9638125 C10.6431562,13.37425 10.7798437,13.5793437 11.0535,13.5793437 C11.2497187,13.5793437 11.3687812,13.4724062 11.410375,13.2580938 C11.422125,13.1986563 11.4282187,13.0172812 11.4282187,12.7139688 L12.240125,12.7139688 L12.240125,12.8299063 C12.240125,13.1214375 12.2340312,13.2938438 12.22225,13.3475 C12.2045312,13.5079063 12.14225,13.6685313 12.0349062,13.8291563 C11.8207812,14.1444375 11.4993125,14.3020625 11.071125,14.3020625 C10.6609062,14.3020625 10.3396562,14.1503438 10.1075937,13.847125 C9.9351875,13.6270313 9.849,13.2820312 9.849,12.812125 L9.849,11.2685 C9.849,10.798625 9.9321875,10.453625 10.0985937,10.2335313 C10.3306875,9.93025 10.6489062,9.77859375 11.0535,9.77859375 C11.4520937,9.77859375 11.7675625,9.93025 11.9992187,10.2335313 C12.1600312,10.453625 12.2401562,10.798625 12.2401562,11.2685 L12.2401562,12.1875938 L12.2401562,12.1875938 Z" id="Shape"></path>
                                <path d="M8.0823125,10.5013438 C7.9454375,10.5013438 7.81175,10.567 7.68084375,10.6976875 L7.68084375,13.383125 C7.81171875,13.5139375 7.9454375,13.5793438 8.0823125,13.5793438 C8.31415625,13.5793438 8.4304375,13.3802188 8.4304375,12.9815313 L8.4304375,11.0991563 C8.43040625,10.7005625 8.31440625,10.5013438 8.0823125,10.5013438 Z" id="Shape"></path>
                                <path d="M11.044625,10.5013438 C10.7769687,10.5013438 10.6431563,10.7036875 10.6431563,11.1079063 L10.6431563,11.5183438 L11.4460625,11.5183438 L11.4460625,11.1079063 C11.4460625,10.7034688 11.3121875,10.5013438 11.044625,10.5013438 Z" id="Shape"></path>
                                <path d="M3.26478125,3.55990625 L3.26478125,5.977875 L4.1569375,5.977875 L4.1569375,3.55990625 L5.23634375,0 L4.3263125,0 L3.71975,2.34653125 L3.08621875,0 L2.14053125,0 C2.30709375,0.4996875 2.50040625,1.05578125 2.7205,1.66846875 C3.00009375,2.48925 3.18140625,3.11984375 3.26478125,3.55990625 Z" id="Shape"></path>
                                <path d="M6.431875,6.04034375 C6.8423125,6.04034375 7.15746875,5.88865625 7.3775625,5.5853125 C7.5441875,5.36521875 7.627375,5.01425 7.627375,4.53253125 L7.627375,2.97109375 C7.627375,2.4953125 7.54396875,2.14725 7.3775625,1.92715625 C7.15746875,1.6238125 6.8423125,1.472125 6.431875,1.472125 C6.03325,1.472125 5.7209375,1.6238125 5.495,1.92715625 C5.32853125,2.14725 5.24525,2.4953125 5.24525,2.97109375 L5.24525,4.5325 C5.24525,5.00828125 5.3284375,5.35928125 5.495,5.58528125 C5.72103125,5.88865625 6.03321875,6.04034375 6.431875,6.04034375 Z M6.04815625,2.81046875 C6.04815625,2.40003125 6.1760625,2.1948125 6.431875,2.1948125 C6.6876875,2.1948125 6.81546875,2.40003125 6.81546875,2.81046875 L6.81546875,4.6840625 C6.81546875,5.1005625 6.6876875,5.30859375 6.431875,5.30859375 C6.1760625,5.30859375 6.04815625,5.1004375 6.04815625,4.6840625 L6.04815625,2.81046875 L6.04815625,2.81046875 Z" id="Shape"></path>
                                <path d="M8.88525,6.04034375 C9.18284375,6.04034375 9.48925,5.8559375 9.80440625,5.4870625 L9.80440625,5.97778125 L10.6163125,5.97778125 L10.6163125,1.5256875 L9.80440625,1.5256875 L9.80440625,4.92496875 C9.62590625,5.18078125 9.4565,5.3085625 9.2956875,5.3085625 C9.18853125,5.3085625 9.1260625,5.24315625 9.1083125,5.1123125 C9.10234375,5.10040625 9.09934375,4.99621875 9.09934375,4.8 L9.09934375,1.5256875 L8.2874375,1.5256875 L8.2874375,5.0410625 C8.2874375,5.34434375 8.31140625,5.5673125 8.358875,5.71015625 C8.43628125,5.93025 8.6116875,6.04034375 8.88525,6.04034375 Z" id="Shape"></path>
                            </g>
                        </g>
                    </g>
                </g>
            </g>
        </g>
    </g>
</svg>