<?xml version="1.0" encoding="utf-8"?>
<!-- Generator: Adobe Illustrator 21.0.0, SVG Export Plug-In . SVG Version: 6.00 Build 0)  -->
<svg version="1.1" id="Layer_1" xmlns="http://www.w3.org/2000/svg" xmlns:xlink="http://www.w3.org/1999/xlink" x="0px" y="0px"
	 viewBox="0 0 378 250" style="enable-background:new 0 0 378 250;" xml:space="preserve">
<style type="text/css">
	.st0{fill:#676767;}
	.st1{fill:#FBAF19;}
	.st2{fill:#243269;}
</style>
<g>
	<g>
		<g>
			<g>
				<path class="st0" d="M168,51.4l2.1,6.1c-4.5,2.4-9.4,3.7-14.8,3.7c-7.5,0-13.4-2.3-17.6-6.8c-4.3-4.5-6.4-10.4-6.4-17.6
					c0-7.1,2.3-13.1,7-18c4.7-4.8,10.7-7.2,18.1-7.2c4.9,0,9,0.8,12.4,2.4v7.2c-3.9-2.1-8-3.1-12.3-3.1c-5.2,0-9.4,1.8-12.4,5.3
					c-3.1,3.5-4.6,7.9-4.6,13.1c0,5.4,1.5,9.7,4.5,13.1c3,3.3,7.1,5,12.2,5C160.3,54.6,164.2,53.6,168,51.4z"/>
				<path class="st0" d="M184.4,18c-0.9,0.9-2,1.4-3.4,1.4c-1.4,0-2.5-0.5-3.4-1.4c-0.9-0.9-1.4-2-1.4-3.3c0-1.3,0.5-2.4,1.4-3.3
					c0.9-0.9,2-1.4,3.4-1.4c1.4,0,2.5,0.4,3.4,1.3c0.9,0.9,1.4,2,1.4,3.4C185.7,15.9,185.3,17,184.4,18z M177.1,60.4V25.7h7.6v34.7
					H177.1z"/>
				<path class="st0" d="M204,60.7l-14-35h7.8l9.1,25h0.1l8.9-25h7.8l-13.9,35H204z"/>
				<path class="st0" d="M236.3,18c-0.9,0.9-2,1.4-3.4,1.4c-1.4,0-2.5-0.5-3.4-1.4c-0.9-0.9-1.4-2-1.4-3.3c0-1.3,0.5-2.4,1.4-3.3
					c0.9-0.9,2-1.4,3.4-1.4c1.4,0,2.5,0.4,3.4,1.3c0.9,0.9,1.4,2,1.4,3.4C237.7,15.9,237.2,17,236.3,18z M229.1,60.4V25.7h7.6v34.7
					H229.1z"/>
				<path class="st0" d="M261.4,61.2c-5.4,0-9.6-1.7-12.7-5c-3.1-3.4-4.6-7.6-4.6-12.8c0-5.3,1.7-9.7,5.1-13.2
					c3.4-3.5,7.7-5.3,12.9-5.3c3.6,0,6.6,0.8,9.2,2.3v6.5c-2.6-1.7-5.4-2.6-8.5-2.6c-3.3,0-6,1.1-7.9,3.4c-2,2.3-2.9,5.1-2.9,8.7
					c0,3.7,0.9,6.6,2.8,8.7s4.4,3.1,7.6,3.1c2.6,0,5.3-0.8,8.2-2.4l2.2,5.3C269.7,60.1,265.8,61.2,261.4,61.2z"/>
				<path class="st0" d="M130.7,122.8l3.1-5.9c3.4,2.3,6.9,3.4,10.7,3.4c2.5,0,4.6-0.5,6.2-1.5c1.6-1,2.5-2.6,2.5-4.8
					c0-1.9-0.7-3.5-2.2-4.9c-1.4-1.4-3.2-2.6-5.3-3.7c-2.1-1-4.2-2.1-6.2-3.3c-2.1-1.2-3.8-2.7-5.3-4.7c-1.4-2-2.2-4.3-2.2-7
					c0-3.7,1.4-6.8,4.1-9.3c2.7-2.5,6.5-3.7,11.2-3.7c4.6,0,8.3,0.8,11.4,2.4v7c-3.7-1.9-7.4-2.9-11.2-2.9c-2.1,0-3.8,0.5-5.2,1.4
					c-1.4,0.9-2.1,2.4-2.1,4.4c0,1.7,0.7,3.2,2.2,4.6c1.4,1.3,3.2,2.5,5.3,3.6c2.1,1,4.1,2.1,6.2,3.3c2.1,1.2,3.8,2.8,5.3,4.9
					c1.4,2.1,2.2,4.5,2.2,7.3c0,4.2-1.5,7.5-4.6,9.9c-3.1,2.4-7.1,3.7-12.1,3.7C139.1,126.8,134.5,125.5,130.7,122.8z"/>
				<path class="st0" d="M201.5,91.3l-13.2,36.4c-1.2,3.4-2.5,6.2-3.9,8.3c-1.3,2.2-2.8,3.8-4.2,4.8c-1.5,1-2.9,1.7-4.2,2.1
					c-1.3,0.4-2.8,0.6-4.5,0.6c-2.6,0-5.1-0.5-7.3-1.5l1.9-6.1c1.8,0.8,3.5,1.2,5.1,1.2c2.2,0,4.1-0.9,5.7-2.6
					c1.6-1.7,3.1-4.6,4.4-8.6l-15.6-34.7h8.2l10.8,25.7h0.1l8.6-25.7H201.5z"/>
				<path class="st0" d="M206.3,126.1V91.3h6.5l0.8,4.1c4.1-3.3,8.1-5,12-5c3.1,0,5.7,1,7.8,2.9c2.1,2,3.1,5.1,3.1,9.5v23.1h-7.6
					v-20.7c0-2.6-0.4-4.6-1.2-6.1c-0.8-1.4-2.3-2.2-4.4-2.2c-2.8,0-5.9,1.4-9.2,4.2v24.8H206.3z"/>
				<path class="st0" d="M273.5,110.6h-22.3c0.1,3,1.1,5.5,2.9,7.3c1.8,1.9,4.3,2.8,7.5,2.8c3,0,6-0.8,8.7-2.4l2.3,5.2
					c-3.3,2.2-7.2,3.2-11.8,3.2c-5.7,0-10.1-1.7-13-5.2c-2.9-3.5-4.4-7.8-4.4-13c0-5.3,1.4-9.7,4.1-13.1c2.7-3.4,6.4-5.1,11.1-5.1
					c4.7,0,8.4,1.6,11,4.9c2.6,3.3,3.9,7.7,3.9,13.4V110.6z M251.1,105.1h14.6c-0.1-2.4-0.7-4.5-1.9-6.2c-1.2-1.7-3-2.5-5.3-2.5
					c-2.3,0-4,0.8-5.4,2.5C251.8,100.6,251.2,102.7,251.1,105.1z"/>
				<path class="st0" d="M280.5,126.1V91.3h6.4l0.9,4c3.2-3.3,6.4-4.9,9.6-4.9c1.8,0,3.3,0.4,4.6,1.3l-2.7,6.5c-1.1-0.6-2.4-1-3.7-1
					c-2.2,0-4.6,1.3-7.4,3.9v24.9H280.5z"/>
				<path class="st0" d="M318.2,143.5c-4.9,0-8.8-0.9-11.6-2.8c-2.8-1.8-4.3-4.3-4.3-7.4c0-3.8,2.1-6.7,6.3-8.6
					c-1.6-0.9-2.4-2.3-2.4-4.3c0-2.4,1.3-4.7,4-6.7c-3.8-2.3-5.7-5.8-5.7-10.7c0-3.5,1.2-6.5,3.7-9c2.4-2.5,5.8-3.7,10-3.7
					c2.6,0,4.9,0.5,6.8,1.5c0.2,0.1,0.5,0.1,0.8-0.1c2-2,4.7-3,8-3c0.6,0,1.3,0.1,2.2,0.2l-1.5,5.6c-1.1-0.2-1.9-0.3-2.4-0.3
					c-1.1,0-2,0.2-2.8,0.7c2.2,2.3,3.3,5.1,3.3,8.4c0,3.8-1.3,6.9-3.9,9.3c-2.6,2.4-6,3.5-10.1,3.5c-1.7,0-3.2-0.2-4.3-0.7
					c-0.8,1.1-1.2,2.1-1.2,3c0,1.2,0.8,2,2.4,2.6c1.6,0.6,3.5,1,5.7,1.3c2.2,0.3,4.5,0.6,6.7,1.1c2.3,0.5,4.2,1.4,5.7,2.9
					c1.6,1.4,2.4,3.3,2.4,5.7c0,3.3-1.6,6-4.7,8.1C328.2,142.4,323.8,143.5,318.2,143.5z M319.1,138c2.9,0,5.2-0.5,6.9-1.4
					c1.7-0.9,2.6-2.1,2.6-3.5c0-1.6-0.9-2.8-2.6-3.5c-1.7-0.7-4.1-1.2-7.1-1.6c-3-0.4-5-0.7-6.2-1.1c-2.3,1.5-3.5,3.3-3.5,5.2
					c0,1.8,0.9,3.3,2.7,4.3C313.7,137.4,316.1,138,319.1,138z M318.8,110.4c2,0,3.6-0.6,4.8-1.8c1.3-1.2,1.9-2.9,1.9-5.1
					c0-2-0.6-3.6-1.9-5c-1.2-1.3-2.9-2-5-2c-2,0-3.5,0.6-4.7,1.8c-1.2,1.2-1.8,2.9-1.8,5.1c0,2.1,0.6,3.7,1.8,5.1
					C315.1,109.7,316.7,110.4,318.8,110.4z"/>
				<path class="st0" d="M373.8,91.3l-13.2,36.4c-1.2,3.4-2.5,6.2-3.9,8.3c-1.3,2.2-2.8,3.8-4.2,4.8c-1.5,1-2.9,1.7-4.2,2.1
					c-1.3,0.4-2.8,0.6-4.5,0.6c-2.6,0-5.1-0.5-7.3-1.5l1.9-6.1c1.8,0.8,3.5,1.2,5.1,1.2c2.2,0,4.1-0.9,5.7-2.6
					c1.6-1.7,3.1-4.6,4.4-8.6l-15.6-34.7h8.2l10.8,25.7h0.1l8.6-25.7H373.8z"/>
			</g>
		</g>
		<g>
			<g>
				<path class="st0" d="M131.9,182l1-2c1.1,0.7,2.3,1.1,3.7,1.1c1,0,1.9-0.2,2.7-0.7c0.7-0.5,1.1-1.3,1.1-2.4
					c0-0.6-0.1-1.2-0.4-1.7c-0.3-0.5-0.7-0.9-1.1-1.3c-0.4-0.3-0.9-0.7-1.4-1.1c-0.5-0.4-1-0.8-1.4-1.1c-0.4-0.4-0.8-0.8-1.1-1.4
					c-0.3-0.6-0.4-1.3-0.4-2c0-1.5,0.5-2.7,1.6-3.7c1.1-0.9,2.5-1.4,4.2-1.4c1.6,0,2.9,0.3,4.2,0.9l-0.4,2.1c-1.2-0.6-2.4-1-3.7-1
					c-1,0-1.7,0.2-2.4,0.7c-0.6,0.5-0.9,1.1-0.9,1.9c0,0.6,0.2,1.2,0.6,1.7c0.4,0.5,0.9,1,1.5,1.4c0.6,0.4,1.2,0.8,1.7,1.3
					c0.6,0.5,1.1,1.1,1.5,1.8c0.4,0.7,0.6,1.6,0.6,2.5c0,1.8-0.6,3.2-1.8,4.1c-1.2,0.9-2.7,1.4-4.6,1.4
					C134.9,183.2,133.3,182.8,131.9,182z"/>
				<path class="st0" d="M151.1,183.2c-1.7,0-3-0.5-3.8-1.5c-0.9-1-1.3-2.2-1.3-3.8c0-2.5,0.7-4.6,2.1-6.2c1.4-1.6,3.1-2.5,5.1-2.5
					c1.7,0,2.9,0.5,3.8,1.5c0.9,1,1.3,2.2,1.3,3.8c0,2.5-0.7,4.6-2.1,6.2C154.8,182.4,153.1,183.2,151.1,183.2z M151.1,181.2
					c1.3,0,2.4-0.6,3.3-1.9c0.9-1.3,1.3-2.8,1.3-4.5c0-2.2-0.9-3.3-2.7-3.3c-1.3,0-2.5,0.6-3.3,1.9c-0.9,1.3-1.3,2.8-1.3,4.5
					C148.4,180.1,149.3,181.2,151.1,181.2z"/>
				<path class="st0" d="M165.8,183.2c-1.7,0-3.1-0.5-4.1-1.5c-1-1-1.5-2.4-1.5-4.1c0-2.3,0.7-4.3,2.2-5.9c1.5-1.6,3.3-2.4,5.5-2.4
					c1.2,0,2.3,0.2,3.3,0.7l-0.4,2c-0.9-0.4-1.9-0.7-2.9-0.7c-1.4,0-2.7,0.6-3.7,1.7c-1,1.1-1.5,2.6-1.5,4.3c0,1.2,0.3,2.1,0.9,2.8
					c0.6,0.7,1.4,1,2.5,1c1.1,0,2.2-0.3,3.4-1l0.6,1.8c-0.5,0.4-1.2,0.7-2,0.9C167.3,183.1,166.5,183.2,165.8,183.2z"/>
				<path class="st0" d="M171.8,183l2.8-13.3h2.4l-2.9,13.3H171.8z M176.6,166.9c-0.4,0-0.8-0.1-1.1-0.4c-0.3-0.3-0.4-0.6-0.4-1
					c0-0.5,0.2-1,0.5-1.3c0.4-0.3,0.8-0.5,1.2-0.5c0.4,0,0.8,0.1,1.1,0.4c0.3,0.3,0.4,0.6,0.4,1c0,0.5-0.2,0.9-0.5,1.3
					C177.5,166.8,177.1,166.9,176.6,166.9z"/>
				<path class="st0" d="M184.2,183.2c-1.7,0-3-0.5-4-1.5c-1-1-1.5-2.4-1.5-4.2c0-2.3,0.7-4.3,2-5.9c1.3-1.6,3-2.4,5-2.4
					c1.4,0,2.5,0.4,3.3,1.2c0.8,0.8,1.1,1.8,1.1,3.2c0,0.9-0.2,2-0.6,3.1l-8.4,0.1c0,0.1,0,0.4,0,0.7c0,1.1,0.3,2,0.9,2.7
					c0.6,0.6,1.4,1,2.4,1c1.1,0,2.3-0.3,3.6-1l0.7,1.8C187.4,182.8,185.9,183.2,184.2,183.2z M181.5,175.1l6-0.1
					c0.1-0.5,0.2-1,0.2-1.4c0-0.7-0.2-1.2-0.5-1.6c-0.4-0.4-0.9-0.7-1.7-0.7c-0.9,0-1.8,0.4-2.5,1.1
					C182.2,173.1,181.7,174,181.5,175.1z"/>
				<path class="st0" d="M195.7,183.2c-1,0-1.8-0.2-2.3-0.7c-0.5-0.5-0.8-1.1-0.8-2c0-0.5,0.1-1,0.2-1.6l1.5-7.3h-2.2l0.4-2h2.2
					l0.6-3l2.6-0.7l-0.8,3.7h3.6l-0.8,2h-3.3l-1.6,7.5c-0.1,0.3-0.1,0.6-0.1,0.9c0,0.7,0.4,1.1,1.2,1.1c0.7,0,1.4-0.2,2.2-0.7
					l0.6,1.8C198,182.9,196.9,183.2,195.7,183.2z"/>
				<path class="st0" d="M197.3,189.1l0.9-1.9c0.5,0.2,1,0.4,1.6,0.4c0.9,0,1.7-0.3,2.5-1c0.8-0.7,1.6-1.9,2.5-3.6l-3-13.3h2.4
					l1.4,6.8c0.1,0.5,0.4,1.8,0.8,3.8h0.1c0.4-1,1-2.2,1.6-3.4l3.4-7.1h2.6l-7,13.7c-1.2,2.3-2.3,3.9-3.4,4.8
					c-1.1,0.9-2.5,1.4-4,1.4C198.7,189.6,197.9,189.4,197.3,189.1z"/>
				<path class="st0" d="M216,187.7c1.7-1.6,2.9-3.6,3.7-5.7c0.7-2.2,1.4-5.6,2.1-10.3h-2.1l0.3-2h2l0.3-1.8c0.2-1.1,0.5-2,1-2.7
					c0.9-1.4,2.3-2.2,4-2.2c1,0,1.9,0.2,2.6,0.6l-0.8,1.9c-0.6-0.3-1.1-0.4-1.7-0.4c-1.4,0-2.3,0.9-2.6,2.8l-0.3,1.7h3.1l-0.8,2
					h-2.7c-0.3,2-0.5,3.5-0.7,4.6c-0.2,1.1-0.5,2.4-0.8,3.9c-0.4,1.5-0.7,2.7-1.2,3.6c-0.4,0.9-0.9,1.9-1.6,2.9
					c-0.7,1-1.4,1.9-2.3,2.6L216,187.7z"/>
				<path class="st0" d="M232.8,183.2c-1.7,0-2.9-0.5-3.8-1.5c-0.9-1-1.3-2.2-1.3-3.8c0-2.5,0.7-4.6,2.1-6.2
					c1.4-1.6,3.1-2.5,5.1-2.5c1.7,0,2.9,0.5,3.8,1.5c0.9,1,1.3,2.2,1.3,3.8c0,2.5-0.7,4.6-2.1,6.2
					C236.5,182.4,234.8,183.2,232.8,183.2z M232.8,181.2c1.3,0,2.5-0.6,3.3-1.9c0.9-1.3,1.3-2.8,1.3-4.5c0-2.2-0.9-3.3-2.8-3.3
					c-1.3,0-2.5,0.6-3.3,1.9c-0.9,1.3-1.3,2.8-1.3,4.5C230.1,180.1,231,181.2,232.8,181.2z"/>
				<path class="st0" d="M241.3,183l2.8-13.3h2l-0.3,2.6h0.1c1-2,2.2-3,3.8-3c0.6,0,1.1,0.2,1.6,0.5l-1,2.1
					c-0.4-0.2-0.7-0.3-1.2-0.3c-0.8,0-1.6,0.5-2.4,1.5c-0.7,1-1.3,2.5-1.8,4.4l-1.1,5.4H241.3z"/>
				<path class="st0" d="M255.8,183l3.9-18.5h9l-0.8,2.1h-6.1l-1.2,5.9h6l-0.4,2.1h-6l-1.3,6.3h6.8l-0.4,2.1H255.8z"/>
				<path class="st0" d="M276.4,183.2c-1.9,0-3.5-0.5-4.5-1.4c-1.1-1-1.6-2.3-1.6-3.9c0-0.6,0.1-1.4,0.3-2.6l2.3-10.8h2.5l-2.3,10.9
					c-0.2,0.9-0.3,1.6-0.3,2.2c0,1.2,0.3,2.1,1,2.7c0.7,0.6,1.6,0.9,2.8,0.9c1.6,0,2.8-0.4,3.6-1.3c0.7-0.7,1.3-1.9,1.6-3.4l2.6-12
					h2.5l-2.6,12.2c-0.4,2.1-1.2,3.6-2.3,4.7C280.5,182.6,278.7,183.2,276.4,183.2z"/>
				<path class="st0" d="M132.3,211.6l3.9-18.5h2.5l-3.9,18.5H132.3z"/>
				<path class="st0" d="M139,211.6l2.8-13.3h2l-0.3,2.6h0.1c0.6-0.9,1.3-1.6,2.2-2.1c0.9-0.6,1.8-0.8,2.8-0.8
					c0.9,0,1.7,0.3,2.2,0.8c0.6,0.5,0.8,1.4,0.8,2.4c0,0.7-0.1,1.5-0.3,2.6l-1.7,7.8h-2.4l1.7-7.7c0.2-0.9,0.3-1.6,0.3-2
					c0-1.1-0.5-1.7-1.5-1.7c-0.5,0-1.1,0.2-1.7,0.5c-0.6,0.3-1.2,0.9-1.7,1.5c-0.7,0.9-1.2,2.1-1.5,3.7l-1.2,5.6H139z"/>
				<path class="st0" d="M157.5,211.9c-1,0-1.8-0.2-2.3-0.7c-0.5-0.5-0.8-1.1-0.8-2c0-0.5,0.1-1,0.2-1.6l1.5-7.3H154l0.4-2h2.2
					l0.6-3l2.6-0.7l-0.8,3.7h3.6l-0.8,2h-3.3l-1.6,7.5c-0.1,0.3-0.1,0.6-0.1,0.9c0,0.7,0.4,1.1,1.2,1.1c0.7,0,1.4-0.2,2.2-0.7
					l0.6,1.8C159.8,211.6,158.7,211.9,157.5,211.9z"/>
				<path class="st0" d="M168.8,211.9c-1.7,0-3-0.5-4-1.5c-1-1-1.5-2.4-1.5-4.2c0-2.3,0.7-4.3,2-5.9c1.3-1.6,3-2.4,5-2.4
					c1.4,0,2.5,0.4,3.3,1.2c0.8,0.8,1.1,1.8,1.1,3.2c0,0.9-0.2,2-0.6,3.1l-8.4,0.1c0,0.1,0,0.4,0,0.7c0,1.1,0.3,2,0.9,2.7
					c0.6,0.6,1.4,1,2.4,1c1.1,0,2.3-0.3,3.6-1l0.7,1.8C171.9,211.5,170.4,211.9,168.8,211.9z M166,203.7l6-0.1
					c0.1-0.5,0.2-1,0.2-1.4c0-0.7-0.2-1.2-0.5-1.6c-0.4-0.4-0.9-0.7-1.7-0.7c-0.9,0-1.8,0.4-2.5,1.1S166.2,202.7,166,203.7z"/>
				<path class="st0" d="M175.2,217.3l0.9-2c1.1,0.6,2.2,0.9,3.3,0.9c1.3,0,2.3-0.4,3-1.1c0.7-0.7,1.2-1.8,1.5-3.3l0.5-2.1h-0.1
					c-1.2,1.5-2.6,2.2-4.1,2.2c-1.1,0-2.1-0.4-2.7-1.2c-0.7-0.8-1-1.9-1-3.4c0-1.6,0.3-3.2,0.9-4.5c0.6-1.4,1.5-2.5,2.8-3.4
					c1.3-0.9,2.8-1.4,4.7-1.4c1.5,0,3,0.3,4.3,0.8l-2.8,13.3c-0.4,2-1.1,3.6-2.2,4.6c-1,1.1-2.6,1.6-4.8,1.6
					C177.8,218.3,176.5,217.9,175.2,217.3z M180.9,209.8c0.8,0,1.7-0.4,2.6-1.3c0.9-0.9,1.6-2.3,2-4.4l0.8-3.8
					c-0.5-0.2-1.1-0.3-1.9-0.3c-1.7,0-3,0.7-4,2c-1,1.4-1.5,3-1.5,4.8C178.9,208.9,179.6,209.8,180.9,209.8z"/>
				<path class="st0" d="M190,211.6l2.8-13.3h2l-0.3,2.6h0.1c1-2,2.2-3,3.8-3c0.6,0,1.1,0.2,1.6,0.5l-1,2.1
					c-0.4-0.2-0.7-0.3-1.1-0.3c-0.8,0-1.6,0.5-2.4,1.5c-0.7,1-1.3,2.5-1.8,4.4l-1.1,5.4H190z"/>
				<path class="st0" d="M202.6,211.9c-1.1,0-1.9-0.3-2.6-1c-0.6-0.7-1-1.5-1-2.5c0-1.5,0.5-2.7,1.6-3.5c1.2-1,3-1.5,5.4-1.5l1.9,0
					c0.1-0.4,0.2-0.9,0.2-1.4c0-1.3-0.8-2-2.4-2c-1.2,0-2.5,0.3-3.9,1l-0.3-1.9c1.6-0.7,3.1-1.1,4.7-1.1c1.3,0,2.3,0.3,3.2,0.9
					c0.9,0.6,1.3,1.6,1.3,3c0,0.7-0.2,1.7-0.5,3.2l-0.3,1.2c-0.3,1.4-0.5,2.6-0.5,3.4c0,0.6,0.1,1.1,0.2,1.7l-2.1,0.4
					c-0.2-0.7-0.4-1.5-0.4-2.3C205.7,211.1,204.3,211.9,202.6,211.9z M203.2,209.9c0.9,0,1.7-0.4,2.5-1.1c0.8-0.7,1.3-1.6,1.6-2.7
					l0.2-0.9h-1c-2,0-3.4,0.3-4.1,0.9c-0.6,0.5-0.9,1.1-0.9,2C201.5,209.3,202.1,209.9,203.2,209.9z"/>
				<path class="st0" d="M216.6,211.9c-1,0-1.8-0.2-2.3-0.7c-0.5-0.5-0.8-1.1-0.8-2c0-0.5,0.1-1,0.2-1.6l1.5-7.3h-2.2l0.4-2h2.2
					l0.6-3l2.6-0.7l-0.8,3.7h3.6l-0.8,2h-3.3l-1.6,7.5c-0.1,0.3-0.1,0.6-0.1,0.9c0,0.7,0.4,1.1,1.2,1.1c0.7,0,1.4-0.2,2.2-0.7
					l0.6,1.8C218.9,211.6,217.8,211.9,216.6,211.9z"/>
				<path class="st0" d="M221.8,211.6l2.8-13.3h2.4l-2.9,13.3H221.8z M226.5,195.6c-0.4,0-0.8-0.1-1.1-0.4c-0.3-0.3-0.4-0.6-0.4-1
					c0-0.5,0.2-1,0.5-1.3c0.4-0.3,0.8-0.5,1.2-0.5c0.4,0,0.8,0.1,1.1,0.4c0.3,0.3,0.4,0.6,0.4,1c0,0.5-0.2,0.9-0.5,1.3
					C227.4,195.4,227,195.6,226.5,195.6z"/>
				<path class="st0" d="M233.8,211.9c-1.7,0-2.9-0.5-3.8-1.5c-0.9-1-1.3-2.2-1.3-3.8c0-2.5,0.7-4.6,2.1-6.2
					c1.4-1.6,3.1-2.5,5.1-2.5c1.7,0,2.9,0.5,3.8,1.5c0.9,1,1.3,2.2,1.3,3.8c0,2.5-0.7,4.6-2.1,6.2
					C237.5,211.1,235.8,211.9,233.8,211.9z M233.9,209.8c1.3,0,2.5-0.6,3.3-1.9c0.9-1.3,1.3-2.8,1.3-4.5c0-2.2-0.9-3.3-2.8-3.3
					c-1.3,0-2.5,0.6-3.3,1.9c-0.9,1.3-1.3,2.8-1.3,4.5C231.1,208.7,232,209.8,233.9,209.8z"/>
				<path class="st0" d="M242.3,211.6l2.8-13.3h2l-0.3,2.6h0.1c0.6-0.9,1.3-1.6,2.2-2.1c0.9-0.6,1.8-0.8,2.8-0.8
					c0.9,0,1.7,0.3,2.2,0.8c0.6,0.5,0.8,1.4,0.8,2.4c0,0.7-0.1,1.5-0.3,2.6l-1.7,7.8h-2.4l1.7-7.7c0.2-0.9,0.3-1.6,0.3-2
					c0-1.1-0.5-1.7-1.5-1.7c-0.5,0-1.1,0.2-1.7,0.5c-0.6,0.3-1.2,0.9-1.7,1.5c-0.7,0.9-1.2,2.1-1.5,3.7l-1.2,5.6H242.3z"/>
				<path class="st0" d="M132.3,240.3l3.9-18.5h3.6c2,0,3.4,0.4,4.4,1.3c1,0.9,1.4,2,1.4,3.3c0,1.5-0.4,2.8-1.3,3.7
					c-0.9,0.9-2.1,1.5-3.7,1.9v0.1c0.3,0.5,0.7,1.3,1.2,2.4l2.6,5.8h-2.7l-2-4.7c-0.7-1.5-1.2-2.5-1.5-3h-2l-1.6,7.7H132.3z
					 M136.9,230.5h1.6c1.5,0,2.6-0.3,3.5-1c0.8-0.7,1.3-1.6,1.3-2.9c0-0.9-0.3-1.5-0.8-2.1c-0.6-0.5-1.4-0.8-2.6-0.8h-1.5
					L136.9,230.5z"/>
				<path class="st0" d="M152.9,240.5c-1.7,0-3-0.5-4-1.5c-1-1-1.5-2.4-1.5-4.2c0-2.3,0.7-4.3,2-5.9c1.3-1.6,3-2.4,5-2.4
					c1.4,0,2.5,0.4,3.3,1.2c0.8,0.8,1.2,1.8,1.2,3.2c0,0.9-0.2,2-0.6,3.1l-8.4,0.1c0,0.1,0,0.4,0,0.7c0,1.1,0.3,2,0.9,2.7
					c0.6,0.6,1.4,1,2.4,1c1.1,0,2.3-0.3,3.6-1l0.7,1.8C156,240.1,154.5,240.5,152.9,240.5z M150.1,232.4l6-0.1
					c0.1-0.5,0.2-1,0.2-1.4c0-0.7-0.2-1.2-0.5-1.6c-0.4-0.4-0.9-0.7-1.7-0.7c-0.9,0-1.8,0.4-2.5,1.1
					C150.8,230.4,150.3,231.3,150.1,232.4z"/>
				<path class="st0" d="M158.8,245c1.7-1.6,2.9-3.6,3.7-5.7c0.7-2.2,1.4-5.6,2.1-10.3h-2.1l0.3-2h2l0.3-1.8c0.2-1.1,0.5-2,1-2.7
					c0.9-1.4,2.3-2.2,4-2.2c1,0,1.9,0.2,2.6,0.6l-0.8,1.9c-0.6-0.3-1.1-0.4-1.7-0.4c-1.4,0-2.3,0.9-2.6,2.8l-0.3,1.7h3.1l-0.8,2H167
					c-0.3,2-0.5,3.5-0.7,4.6c-0.2,1.1-0.5,2.4-0.8,3.9c-0.4,1.5-0.7,2.7-1.1,3.6c-0.4,0.9-0.9,1.9-1.6,2.9c-0.7,1-1.4,1.9-2.3,2.6
					L158.8,245z"/>
				<path class="st0" d="M175.5,240.5c-1.7,0-3-0.5-3.8-1.5c-0.9-1-1.3-2.2-1.3-3.8c0-2.5,0.7-4.6,2.1-6.2s3.1-2.5,5.1-2.5
					c1.7,0,2.9,0.5,3.8,1.5c0.9,1,1.3,2.2,1.3,3.8c0,2.5-0.7,4.6-2.1,6.2C179.2,239.7,177.5,240.5,175.5,240.5z M175.6,238.5
					c1.3,0,2.4-0.6,3.3-1.9c0.9-1.3,1.3-2.8,1.3-4.5c0-2.2-0.9-3.3-2.7-3.3c-1.3,0-2.5,0.6-3.3,1.9c-0.9,1.3-1.3,2.8-1.3,4.5
					C172.9,237.4,173.8,238.5,175.6,238.5z"/>
				<path class="st0" d="M184,240.3l2.8-13.3h2l-0.3,2.6h0.1c1-2,2.2-3,3.8-3c0.6,0,1.1,0.2,1.6,0.5l-1,2.1
					c-0.4-0.2-0.7-0.3-1.2-0.3c-0.8,0-1.6,0.5-2.4,1.5c-0.7,1-1.3,2.5-1.8,4.4l-1.1,5.4H184z"/>
				<path class="st0" d="M193.3,240.3l2.8-13.3h2l-0.3,2.6h0.1c0.6-0.9,1.3-1.6,2.1-2.1c0.8-0.6,1.7-0.8,2.6-0.8
					c0.9,0,1.6,0.3,2.1,0.8c0.5,0.5,0.8,1.3,0.7,2.3h0.1c0.6-0.9,1.3-1.6,2.2-2.2c0.9-0.6,1.8-0.9,2.7-0.9c0.9,0,1.6,0.3,2.2,0.8
					c0.5,0.5,0.8,1.3,0.8,2.3c0,0.5-0.1,1.4-0.3,2.7l-1.7,7.9H209l1.7-8c0.2-0.7,0.2-1.4,0.2-1.9c0-1.1-0.5-1.6-1.4-1.6
					c-1.1,0-2.2,0.7-3.2,2c-0.7,0.9-1.2,2.1-1.5,3.7l-1.2,5.7h-2.4l1.7-8c0.2-0.7,0.3-1.4,0.3-1.9c0-1.1-0.5-1.6-1.4-1.6
					c-1.1,0-2.2,0.7-3.2,2.1c-0.7,0.9-1.2,2.1-1.5,3.6l-1.2,5.7H193.3z"/>
				<path class="st0" d="M214.1,239.5l0.8-1.9c1,0.6,2,0.9,3.1,0.9c0.7,0,1.3-0.2,1.8-0.5c0.5-0.3,0.7-0.8,0.7-1.4
					c0-0.4-0.1-0.8-0.4-1.2c-0.3-0.4-0.7-0.7-1.1-1c-0.4-0.3-0.8-0.6-1.3-0.9c-0.4-0.3-0.8-0.8-1.1-1.3c-0.3-0.5-0.4-1.1-0.4-1.8
					c0-1.1,0.4-2,1.2-2.8c0.8-0.7,1.9-1.1,3.3-1.1c1.2,0,2.3,0.2,3.3,0.6l-0.4,2c-1-0.4-2-0.6-2.8-0.6c-0.6,0-1.2,0.1-1.6,0.4
					c-0.4,0.3-0.6,0.7-0.6,1.3c0,0.4,0.1,0.8,0.4,1.2s0.7,0.7,1.1,1c0.4,0.3,0.8,0.6,1.3,0.9c0.4,0.3,0.8,0.8,1.1,1.3
					c0.3,0.5,0.4,1.1,0.4,1.8c0,1.2-0.5,2.2-1.4,2.9c-0.9,0.7-2.1,1.1-3.5,1.1C216.6,240.5,215.3,240.2,214.1,239.5z"/>
			</g>
		</g>
	</g>
	<g>
		<path class="st1" d="M80.8,34.9L53.1,7.2c-1.2-1.2-2.8-1.8-4.4-1.8c-1.7,0-3.2,0.7-4.4,1.8L6.1,45.4c-1.2,1.2-1.8,2.8-1.8,4.4
			c0,1.7,0.7,3.2,1.8,4.4l42.6,42.6l12.7-12.7L27,49.8l21.7-21.7l34.2,34.2C88.9,54,88.2,42.3,80.8,34.9z"/>
		<path class="st2" d="M91.3,88.2c2.4-2.4,2.4-6.4,0-8.9L48.7,36.8L36,49.4l34.4,34.4l-21.7,21.7L14.5,71.3
			c-2.7,3.6-4.1,7.9-4.1,12.5c0,5.6,2.2,10.9,6.2,14.9l27.7,27.7c2.4,2.4,6.5,2.4,8.9,0L91.3,88.2z"/>
	</g>
</g>
</svg>
