<?xml version="1.0" encoding="utf-8"?>
<!-- Generator: Adobe Illustrator 21.0.0, SVG Export Plug-In . SVG Version: 6.00 Build 0)  -->
<svg version="1.1" id="Layer_1" xmlns="http://www.w3.org/2000/svg" xmlns:xlink="http://www.w3.org/1999/xlink" x="0px" y="0px"
	 viewBox="0 0 501 250" style="enable-background:new 0 0 501 250;" xml:space="preserve">
<style type="text/css">
	.st0{fill:#676767;}
	.st1{fill:#FBAF19;}
	.st2{fill:#243269;}
</style>
<g>
	<g>
		<g>
			<g>
				<path class="st0" d="M140.2,60.6v-48h26.1l-2.2,6.5h-16.3v41.5H140.2z"/>
				<path class="st0" d="M168.5,72.8V27.5c4.1-1.5,8.3-2.2,12.4-2.2c5.9,0,10.4,1.6,13.6,4.8c3.2,3.2,4.8,7.6,4.8,13.2
					c0,5.4-1.6,9.7-4.9,13.1c-3.3,3.3-7.5,5-12.8,5c-1.9,0-3.7-0.3-5.5-0.9v12.4H168.5z M176.1,53.9c1.6,0.7,3.3,1.1,5,1.1
					c3.3,0,5.9-1.1,7.7-3.2c1.8-2.1,2.7-5,2.7-8.6c0-3.8-1-6.7-2.9-8.7c-1.9-1.9-4.6-2.9-7.9-2.9c-1.6,0-3.1,0.2-4.6,0.7V53.9z"/>
				<path class="st0" d="M233.8,56.2c-3.1,3.4-7.1,5.1-12.1,5.1c-4.9,0-9-1.7-12.1-5.1c-3.1-3.4-4.7-7.7-4.7-12.9
					c0-5.2,1.6-9.5,4.7-12.9c3.1-3.4,7.2-5.1,12.2-5.1c4.9,0,9,1.7,12.1,5.1c3.1,3.4,4.7,7.7,4.7,12.9
					C238.5,48.5,236.9,52.8,233.8,56.2z M215.1,51.9c1.6,2.2,3.8,3.3,6.6,3.3c2.8,0,5-1.1,6.6-3.3c1.6-2.2,2.4-5,2.4-8.6
					c0-3.5-0.8-6.3-2.4-8.5c-1.6-2.2-3.8-3.3-6.6-3.3c-2.8,0-5,1.1-6.6,3.3c-1.6,2.2-2.4,5-2.4,8.5
					C212.7,46.8,213.5,49.7,215.1,51.9z"/>
				<path class="st0" d="M245.9,60.6V26.2h7.4l6,9.8c1.6,2.5,3,5.1,4.3,7.7h0.1c1-2.1,2.5-4.7,4.3-7.8l5.8-9.7h7.6v34.4H274V44
					c0-3,0.1-5.2,0.2-6.5H274c-0.9,1.7-2,3.6-3.3,5.7l-5.4,9h-3.4l-5.5-9c-1.5-2.4-2.5-4.3-3.2-5.7H253c0.1,1.5,0.2,3.8,0.2,6.9
					v16.2H245.9z"/>
				<path class="st0" d="M311.1,60.6l-1.2-3.5c-3,2.8-6.4,4.2-10,4.2c-3.3,0-6-1-8.1-3c-2.1-2-3.1-4.6-3.1-7.9
					c0-4.3,1.9-7.4,5.7-9.3c2-1.1,5-1.7,8.8-1.8l6.2-0.2v-1.5c0-4.3-2.3-6.4-6.9-6.4c-3.2,0-6.2,0.9-9.2,2.5l-2.6-5
					c4-2.3,8.3-3.4,13-3.4c8.9,0,13.3,4.1,13.3,12.3v13.2c0,4.9,0.2,8.2,0.7,9.8H311.1z M309.3,44.2l-5.2,0.2
					c-2.4,0-4.3,0.4-5.5,1.2c-1.6,0.9-2.4,2.3-2.4,4.4c0,1.6,0.5,2.9,1.5,3.9c1,0.9,2.4,1.4,4.1,1.4c2.6,0,5.1-1.1,7.5-3.3V44.2z"/>
				<path class="st0" d="M322.9,67.6V54.4h2.2c2.4-3,4.4-6.6,5.8-10.7c1.4-4.1,2.8-10,4.2-17.5H355v28.2h4.9v13.2h-7.1v-7h-22.8v7
					H322.9z M347.4,54.4v-22h-6.8c-1.5,9.1-3.9,16.4-7.3,21.8v0.1H347.4z"/>
				<path class="st0" d="M382.2,61.3c-5.3,0-9.5-1.7-12.6-5c-3-3.3-4.5-7.6-4.5-12.7c0-5.2,1.7-9.6,5.1-13.1
					c3.4-3.5,7.6-5.2,12.8-5.2c3.5,0,6.6,0.8,9.1,2.3v6.5c-2.5-1.7-5.3-2.5-8.4-2.5c-3.3,0-5.9,1.1-7.9,3.3
					c-1.9,2.2-2.9,5.1-2.9,8.6c0,3.7,0.9,6.6,2.8,8.6s4.4,3.1,7.5,3.1c2.6,0,5.3-0.8,8.2-2.3l2.2,5.2
					C390.4,60.3,386.6,61.3,382.2,61.3z"/>
				<path class="st0" d="M399.2,60.6V26.2h7.6v12.7c1.3-0.1,2.7-0.2,4.1-0.2c5.5,0,9.4,1,11.9,3c2.4,2,3.6,4.6,3.6,7.9
					c0,7.4-5.1,11.1-15.4,11.1H399.2z M406.8,54.7h4.1c3,0,5.1-0.4,6.2-1.3c1.1-0.9,1.7-2.1,1.7-3.7c0-1.6-0.6-2.9-1.7-3.7
					c-1.2-0.8-3.3-1.3-6.3-1.3c-1.4,0-2.6,0.1-3.9,0.2V54.7z"/>
				<path class="st0" d="M433.7,60.6V26.2h7.6v14h4.1c1.3,0,2.3-0.6,3.1-1.9c0.8-1.3,1.5-3,2.1-5.1c0.7-2.1,1.3-3.7,2-4.7
					c1.4-2.1,3.4-3.1,6.1-3.1c1.3,0,2.3,0.1,3.2,0.4v6.5c-0.5-0.2-1.1-0.3-1.8-0.3c-1.1,0-1.9,0.4-2.5,1.2c-0.3,0.5-1,2.1-1.9,4.8
					c-0.9,2.7-2,4.4-3.3,5.1v0.1c1.6,0.5,2.9,1.9,4.1,4.4l6.3,13h-8.1l-4.7-11.2c-1.1-2.3-2.1-3.4-3.2-3.4h-5.5v14.6H433.7z"/>
				<path class="st0" d="M489.4,60.6l-1.2-3.5c-3,2.8-6.4,4.2-10,4.2c-3.3,0-6-1-8.1-3c-2.1-2-3.1-4.6-3.1-7.9
					c0-4.3,1.9-7.4,5.7-9.3c2-1.1,5-1.7,8.8-1.8l6.2-0.2v-1.5c0-4.3-2.3-6.4-6.9-6.4c-3.2,0-6.2,0.9-9.2,2.5l-2.6-5
					c4-2.3,8.3-3.4,13-3.4c8.9,0,13.3,4.1,13.3,12.3v13.2c0,4.9,0.2,8.2,0.7,9.8H489.4z M487.6,44.2l-5.2,0.2
					c-2.4,0-4.3,0.4-5.5,1.2c-1.6,0.9-2.4,2.3-2.4,4.4c0,1.6,0.5,2.9,1.5,3.9c1,0.9,2.4,1.4,4.1,1.4c2.6,0,5.1-1.1,7.5-3.3V44.2z"/>
				<path class="st0" d="M174.7,116.7l2.1,6c-4.4,2.4-9.3,3.6-14.6,3.6c-7.4,0-13.2-2.2-17.5-6.7c-4.2-4.5-6.3-10.3-6.3-17.5
					c0-7.1,2.3-13,6.9-17.8c4.6-4.8,10.6-7.2,18-7.2c4.8,0,8.9,0.8,12.3,2.4v7.1c-3.8-2-7.9-3.1-12.2-3.1c-5.2,0-9.3,1.7-12.3,5.2
					c-3,3.5-4.5,7.8-4.5,13c0,5.3,1.5,9.7,4.5,13c3,3.3,7,4.9,12,4.9C167.1,119.9,170.9,118.8,174.7,116.7z"/>
				<path class="st0" d="M183.6,125.6V91.2h7.4V108c0,2-0.1,4.5-0.3,7.3h0.1c1.3-2.1,2.8-4.5,4.7-7.2l11.7-16.8h7.3v34.4h-7.4v-16.7
					c0-3,0.1-5.4,0.3-7.3h-0.2c-1.3,2.2-2.8,4.6-4.6,7.2l-11.7,16.8H183.6z"/>
				<path class="st0" d="M223.7,125.6V91.2h7.6V104h14.6V91.2h7.6v34.4h-7.6v-15h-14.6v15H223.7z"/>
				<path class="st0" d="M290.6,110.3h-22.1c0.1,3,1.1,5.4,2.9,7.3c1.8,1.8,4.3,2.8,7.4,2.8c3,0,5.9-0.8,8.7-2.3l2.3,5.2
					c-3.3,2.1-7.2,3.2-11.7,3.2c-5.7,0-10-1.7-12.8-5.2c-2.9-3.4-4.3-7.7-4.3-12.9c0-5.3,1.4-9.6,4.1-13c2.7-3.3,6.4-5,11-5
					c4.7,0,8.3,1.6,10.9,4.8c2.6,3.2,3.9,7.7,3.9,13.3V110.3z M268.4,104.9h14.5c-0.1-2.4-0.7-4.5-1.9-6.1c-1.2-1.7-2.9-2.5-5.2-2.5
					c-2.2,0-4,0.8-5.3,2.5C269.1,100.4,268.4,102.5,268.4,104.9z"/>
				<path class="st0" d="M297.8,142.9V92.5c4.1-1.5,8.3-2.2,12.4-2.2c5.9,0,10.4,1.6,13.6,4.8c3.2,3.2,4.8,7.6,4.8,13.2
					c0,5.4-1.6,9.7-4.9,13.1c-3.3,3.3-7.5,5-12.8,5c-1.9,0-3.7-0.3-5.5-0.9v17.5H297.8z M305.3,118.9c1.6,0.7,3.3,1.1,5,1.1
					c3.3,0,5.9-1.1,7.7-3.2c1.8-2.1,2.7-5,2.7-8.6c0-3.8-1-6.7-2.9-8.7c-1.9-1.9-4.6-2.9-7.9-2.9c-1.6,0-3.1,0.2-4.6,0.7V118.9z"/>
				<path class="st0" d="M336,125.6V91.2h24.2l-2.3,6.7h-14.3v27.7H336z"/>
				<path class="st0" d="M373.1,83.5c-0.9,0.9-2,1.3-3.4,1.3c-1.4,0-2.5-0.4-3.4-1.3c-0.9-0.9-1.3-2-1.3-3.3c0-1.3,0.4-2.4,1.3-3.3
					c0.9-0.9,2-1.3,3.4-1.3c1.4,0,2.5,0.4,3.4,1.3c0.9,0.9,1.3,2,1.3,3.3C374.5,81.5,374,82.6,373.1,83.5z M365.9,125.6V91.2h7.6
					v34.4H365.9z"/>
				<path class="st0" d="M380.4,125.6l4.8-10.3c1.1-2.3,2.3-3.7,3.7-4.4v-0.1c-1.9-0.7-3.4-1.9-4.4-3.5c-1-1.6-1.5-3.4-1.5-5.5
					c0-3.1,1-5.6,3.1-7.6c2.1-2,5.2-3,9.5-3h13.7v34.4h-7.6V113h-6.1c-1.2,0-2.3,1.2-3.3,3.5l-3.7,9.1H380.4z M390.5,102.3
					c0,1.5,0.5,2.7,1.5,3.6c1,0.9,2.3,1.4,4.1,1.4h5.6V97h-5.3c-1.9,0-3.4,0.5-4.4,1.5C391,99.5,390.5,100.8,390.5,102.3z"/>
			</g>
		</g>
		<g>
			<g>
				<path class="st0" d="M139.4,182l3.9-18.3h9.1l-0.9,2.1h-6.2l-3.4,16.2H139.4z"/>
				<path class="st0" d="M149.7,188.6l4.2-19.5c1.4-0.4,2.7-0.6,3.9-0.6c2,0,3.5,0.5,4.5,1.5c1,1,1.6,2.4,1.6,4c0,2.5-0.8,4.5-2.3,6
					c-1.5,1.5-3.3,2.2-5.4,2.2c-0.9,0-1.8-0.1-2.7-0.4l-1.4,6.7H149.7z M154,179.8c0.6,0.2,1.2,0.4,2,0.4c1.6,0,2.9-0.6,3.9-1.7
					c1-1.1,1.5-2.6,1.5-4.3c0-1.2-0.3-2.1-1-2.7c-0.7-0.6-1.6-0.9-2.7-0.9c-0.6,0-1.2,0.1-1.8,0.2L154,179.8z"/>
				<path class="st0" d="M171,182.3c-1.7,0-2.9-0.5-3.8-1.4c-0.9-1-1.3-2.2-1.3-3.7c0-2.5,0.7-4.5,2.1-6.2c1.4-1.6,3.1-2.4,5.1-2.4
					c1.6,0,2.9,0.5,3.8,1.4c0.9,1,1.3,2.2,1.3,3.7c0,2.5-0.7,4.5-2.1,6.2C174.7,181.5,173,182.3,171,182.3z M171.1,180.2
					c1.3,0,2.4-0.6,3.3-1.9c0.9-1.3,1.3-2.8,1.3-4.5c0-2.2-0.9-3.3-2.7-3.3c-1.3,0-2.4,0.6-3.3,1.9c-0.9,1.3-1.3,2.8-1.3,4.5
					C168.4,179.1,169.3,180.2,171.1,180.2z"/>
				<path class="st0" d="M178.4,182l0.5-2c0.2,0.1,0.4,0.1,0.7,0.1c0.7,0,1.2-0.3,1.6-0.9c0.5-0.8,0.9-1.9,1.3-3.5
					c0.4-1.6,0.8-3.8,1.3-6.7h2c0.9,2,1.8,4.4,2.6,7.1h0.1c0.5-0.7,1.1-1.5,1.8-2.3l3.9-4.8h2.4l-1.6,7.7c-0.3,1.4-0.4,2.4-0.4,3.1
					c0,0.7,0.1,1.4,0.3,2l-2.3,0.5c-0.2-0.7-0.4-1.5-0.4-2.3c0-1.1,0.4-3.4,1.3-7.1h-0.1c-0.6,0.8-1.2,1.5-1.6,2.1l-3.2,3.9h-1.2
					c-0.9-3-1.6-5-2-6h-0.1c-0.4,2.2-0.8,3.9-1.2,5.1c-0.4,1.3-0.9,2.3-1.5,3.1c-0.6,0.8-1.6,1.2-2.8,1.2
					C179.3,182.2,178.8,182.1,178.4,182z"/>
				<path class="st0" d="M200.9,182.3c-1.1,0-1.9-0.3-2.5-1c-0.6-0.6-1-1.5-1-2.5c0-1.5,0.5-2.7,1.6-3.5c1.2-1,2.9-1.4,5.3-1.4
					l1.8,0c0.1-0.4,0.2-0.9,0.2-1.4c0-1.3-0.8-2-2.4-2c-1.2,0-2.5,0.3-3.9,1l-0.3-1.9c1.5-0.7,3.1-1.1,4.6-1.1
					c1.3,0,2.3,0.3,3.2,0.9c0.9,0.6,1.3,1.6,1.3,2.9c0,0.6-0.2,1.7-0.5,3.2l-0.3,1.2c-0.3,1.4-0.5,2.6-0.5,3.4
					c0,0.6,0.1,1.1,0.2,1.7l-2.1,0.4c-0.2-0.7-0.4-1.5-0.4-2.2C204,181.5,202.6,182.3,200.9,182.3z M201.6,180.3
					c0.9,0,1.7-0.4,2.5-1.1c0.8-0.7,1.3-1.6,1.5-2.7l0.2-0.9h-1c-2,0-3.3,0.3-4.1,0.9c-0.6,0.5-0.9,1.1-0.9,1.9
					C199.8,179.7,200.4,180.3,201.6,180.3z"/>
				<path class="st0" d="M216,182.3c-1.5,0-2.7-0.5-3.6-1.4c-0.9-1-1.3-2.2-1.3-3.8c0-2.1,0.6-3.9,1.9-5.4c1.3-1.5,2.8-2.2,4.7-2.2
					c1.2,0,2.3,0.3,3.3,0.8h0.1c-0.1-3.9-1.6-5.8-4.3-5.8c-0.8,0-1.7,0.1-2.5,0.4l-0.5-2c1-0.4,2-0.6,3.1-0.6c2.2,0,3.9,0.8,5,2.3
					c1.1,1.5,1.6,3.6,1.6,6.1c0,2-0.3,3.9-0.8,5.6c-0.5,1.7-1.3,3.1-2.5,4.3C219,181.7,217.6,182.3,216,182.3z M216.1,180.2
					c1.4,0,2.5-0.8,3.3-2.3c0.8-1.5,1.3-3.4,1.5-5.6c-0.9-0.6-1.9-0.9-2.9-0.9c-1.4,0-2.4,0.6-3.2,1.7s-1.2,2.5-1.2,3.9
					C213.6,179.2,214.5,180.2,216.1,180.2z"/>
				<path class="st0" d="M230.8,182.3c-1.7,0-3.1-0.5-4.1-1.5c-1-1-1.5-2.3-1.5-4c0-2.3,0.7-4.3,2.2-5.8c1.4-1.6,3.3-2.4,5.5-2.4
					c1.2,0,2.3,0.2,3.3,0.7l-0.4,2c-0.9-0.4-1.9-0.7-2.8-0.7c-1.4,0-2.6,0.6-3.7,1.7c-1,1.1-1.5,2.5-1.5,4.3c0,1.2,0.3,2.1,0.9,2.8
					c0.6,0.7,1.4,1,2.5,1c1.1,0,2.2-0.3,3.3-1l0.6,1.8c-0.5,0.4-1.2,0.7-2,0.9S231.5,182.3,230.8,182.3z"/>
				<path class="st0" d="M237.3,181.3l2.7-12.5h2.4l-1.1,5.1c0.9-0.1,1.5-0.2,2-0.2c1.6,0,2.8,0.3,3.7,1c0.9,0.7,1.3,1.5,1.3,2.6
					c0,1.4-0.6,2.6-1.7,3.5c-1.1,0.9-2.7,1.4-4.6,1.4C240.1,182.3,238.6,181.9,237.3,181.3z M240,180c0.6,0.2,1.4,0.4,2.2,0.4
					c1.1,0,2-0.2,2.7-0.7c0.7-0.5,1-1.2,1-2c0-1.3-1-1.9-3.1-1.9c-0.7,0-1.3,0.1-1.9,0.2L240,180z"/>
				<path class="st0" d="M250.2,182l2.8-13.1h2.4l-1.2,5.5h1.6c0.6,0,1-0.3,1.4-0.8c0.4-0.5,0.7-1.2,1.1-2.1c0.4-0.9,0.7-1.5,1-1.9
					c0.5-0.7,1.3-1,2.3-1c0.5,0,0.9,0.1,1.4,0.2l-0.5,2.1c-0.2-0.1-0.4-0.1-0.7-0.1c-0.4,0-0.7,0.2-1,0.5c-0.2,0.3-0.5,0.7-0.8,1.4
					c-0.3,0.6-0.6,1.2-1,1.7c-0.4,0.5-0.8,0.8-1.2,1v0.1c0.5,0.4,1,1,1.3,2.1l1.4,4.6h-2.4l-1.1-4.2c-0.3-1-0.7-1.6-1.1-1.6h-2
					l-1.3,5.7H250.2z"/>
				<path class="st0" d="M263.1,182l2.8-13.1h2.4l-2.8,13.1H263.1z M267.8,166.1c-0.4,0-0.8-0.1-1.1-0.4c-0.3-0.3-0.4-0.6-0.4-1
					c0-0.5,0.2-0.9,0.5-1.3c0.4-0.3,0.8-0.5,1.2-0.5c0.4,0,0.8,0.1,1.1,0.4c0.3,0.3,0.4,0.6,0.4,1c0,0.5-0.2,0.9-0.5,1.3
					C268.7,165.9,268.3,166.1,267.8,166.1z"/>
				<path class="st0" d="M275.6,182.3c-1.7,0-3.1-0.5-4.1-1.5c-1-1-1.5-2.3-1.5-4c0-2.3,0.7-4.3,2.2-5.8c1.4-1.6,3.3-2.4,5.5-2.4
					c1.2,0,2.3,0.2,3.3,0.7l-0.4,2c-0.9-0.4-1.9-0.7-2.8-0.7c-1.4,0-2.6,0.6-3.7,1.7c-1,1.1-1.5,2.5-1.5,4.3c0,1.2,0.3,2.1,0.9,2.8
					c0.6,0.7,1.4,1,2.5,1c1.1,0,2.2-0.3,3.3-1l0.6,1.8c-0.5,0.4-1.2,0.7-2,0.9C277.1,182.1,276.3,182.3,275.6,182.3z"/>
				<path class="st0" d="M281.8,182l2.8-13.1h1.9l-0.3,2.6h0.1c0.6-0.9,1.3-1.6,2.1-2.1c0.8-0.5,1.7-0.8,2.6-0.8
					c0.9,0,1.6,0.3,2.1,0.8c0.5,0.5,0.8,1.3,0.7,2.3h0.1c0.6-0.9,1.3-1.6,2.2-2.2c0.9-0.6,1.8-0.9,2.7-0.9c0.9,0,1.6,0.3,2.1,0.8
					c0.5,0.5,0.8,1.3,0.8,2.2c0,0.5-0.1,1.4-0.3,2.7l-1.7,7.8h-2.4l1.7-7.9c0.2-0.7,0.2-1.4,0.2-1.8c0-1.1-0.5-1.6-1.4-1.6
					c-1.1,0-2.1,0.7-3.2,2c-0.7,0.9-1.2,2.1-1.5,3.6l-1.2,5.6h-2.4l1.7-7.9c0.2-0.7,0.2-1.4,0.2-1.8c0-1.1-0.5-1.6-1.4-1.6
					c-1.1,0-2.1,0.7-3.2,2.1c-0.7,0.9-1.2,2.1-1.5,3.6l-1.2,5.6H281.8z"/>
				<path class="st0" d="M303.6,181.3l2.7-12.5h2.4l-1.1,5.1c0.9-0.1,1.5-0.2,2-0.2c1.6,0,2.8,0.3,3.7,1c0.9,0.7,1.3,1.5,1.3,2.6
					c0,1.4-0.6,2.6-1.7,3.5c-1.1,0.9-2.7,1.4-4.6,1.4C306.4,182.3,304.9,181.9,303.6,181.3z M306.3,180c0.6,0.2,1.4,0.4,2.2,0.4
					c1.1,0,2-0.2,2.7-0.7c0.7-0.5,1-1.2,1-2c0-1.3-1-1.9-3.1-1.9c-0.7,0-1.3,0.1-1.9,0.2L306.3,180z"/>
				<path class="st0" d="M142.9,210.6c-1.5,0-2.9-0.3-4.1-1l0.4-1.8c1.1,0.6,2.2,0.9,3.5,0.9c0.9,0,1.7-0.2,2.3-0.6
					c0.6-0.4,0.9-1,0.9-1.8c0-1.3-1.1-1.9-3.3-1.9c-0.4,0-0.9,0-1.3,0.1l0.4-1.9c0.4,0,0.9,0,1.6,0c1.1,0,2-0.2,2.6-0.6
					c0.6-0.4,0.9-0.9,0.9-1.5c0-0.6-0.2-1-0.7-1.3c-0.5-0.3-1.1-0.4-1.7-0.4c-1,0-2,0.2-3,0.6l-0.5-1.8c1.2-0.5,2.5-0.8,3.8-0.8
					c1.3,0,2.4,0.3,3.2,0.9c0.8,0.6,1.3,1.4,1.3,2.5c0,0.9-0.3,1.6-0.8,2.2c-0.6,0.6-1.3,1-2.1,1.3v0.1c1.4,0.5,2.1,1.4,2.1,2.8
					c0,1.2-0.5,2.2-1.5,3C145.9,210.3,144.6,210.6,142.9,210.6z"/>
				<path class="st0" d="M154.2,210.6c-1.1,0-1.9-0.3-2.5-1c-0.6-0.6-1-1.5-1-2.5c0-1.5,0.5-2.7,1.6-3.5c1.2-1,2.9-1.4,5.3-1.4
					l1.8,0c0.1-0.4,0.2-0.9,0.2-1.4c0-1.3-0.8-2-2.4-2c-1.2,0-2.5,0.3-3.9,1L153,198c1.5-0.7,3.1-1.1,4.6-1.1c1.3,0,2.3,0.3,3.2,0.9
					c0.9,0.6,1.3,1.6,1.3,2.9c0,0.6-0.2,1.7-0.5,3.2l-0.3,1.2c-0.3,1.4-0.5,2.6-0.5,3.4c0,0.6,0.1,1.1,0.2,1.7l-2.1,0.4
					c-0.2-0.7-0.4-1.5-0.4-2.2C157.3,209.9,155.9,210.6,154.2,210.6z M154.9,208.6c0.9,0,1.7-0.4,2.5-1.1c0.8-0.7,1.3-1.6,1.5-2.7
					l0.2-0.9h-1c-2,0-3.3,0.3-4.1,0.9c-0.6,0.5-0.9,1.1-0.9,1.9C153.1,208,153.7,208.6,154.9,208.6z"/>
				<path class="st0" d="M175,210.6c-1.7,0-3-0.5-4-1.5c-1-1-1.5-2.4-1.5-4.1c0-2.3,0.7-4.2,2.1-5.8c1.4-1.6,3.2-2.3,5.4-2.3
					c1.2,0,2.3,0.2,3.4,0.7l-0.5,2c-0.9-0.5-1.8-0.7-2.8-0.7c-1.1,0-2.1,0.4-3,1.1c-0.9,0.7-1.5,1.7-1.8,2.8h5.8l-0.4,1.8h-5.6
					c0,0.1,0,0.3,0,0.6c0,1.1,0.3,2,0.8,2.7c0.6,0.6,1.4,1,2.4,1c1.1,0,2.2-0.3,3.3-1l0.7,1.7C177.9,210.2,176.5,210.6,175,210.6z"
					/>
				<path class="st0" d="M181.5,209.7l2.6-12.1c1.3-0.5,2.7-0.7,4.3-0.7c1.7,0,2.9,0.3,3.7,1c0.8,0.6,1.2,1.4,1.2,2.4
					c0,0.9-0.3,1.7-0.9,2.2c-0.6,0.6-1.4,1-2.4,1.2v0.1c1.6,0.4,2.4,1.3,2.4,2.6c0,1.3-0.5,2.3-1.6,3.1c-1,0.8-2.6,1.2-4.6,1.2
					C184.4,210.6,182.9,210.3,181.5,209.7z M184.2,208.4c0.6,0.2,1.3,0.4,2.2,0.4c1.1,0,2-0.2,2.6-0.7c0.6-0.5,0.9-1,0.9-1.8
					c0-1.2-1-1.8-3-1.8h-2L184.2,208.4z M185.3,202.8h1.5c1.3,0,2.3-0.2,2.9-0.6c0.7-0.4,1-1,1-1.7c0-0.6-0.2-1-0.6-1.3
					c-0.4-0.3-1.1-0.5-2-0.5c-0.7,0-1.4,0.1-2,0.3L185.3,202.8z"/>
				<path class="st0" d="M193.3,216.9l4.2-19.5c1.4-0.4,2.7-0.6,3.9-0.6c2,0,3.5,0.5,4.5,1.5c1,1,1.6,2.4,1.6,4c0,2.5-0.8,4.5-2.3,6
					c-1.5,1.5-3.3,2.2-5.4,2.2c-0.9,0-1.8-0.1-2.7-0.4l-1.4,6.7H193.3z M197.6,208.2c0.6,0.2,1.2,0.4,2,0.4c1.6,0,2.9-0.6,3.9-1.7
					c1-1.1,1.5-2.6,1.5-4.3c0-1.2-0.3-2.1-1-2.7s-1.6-0.9-2.7-0.9c-0.6,0-1.2,0.1-1.8,0.2L197.6,208.2z"/>
				<path class="st0" d="M214.6,210.6c-1.7,0-2.9-0.5-3.8-1.4c-0.9-1-1.3-2.2-1.3-3.7c0-2.5,0.7-4.5,2.1-6.2
					c1.4-1.6,3.1-2.4,5.1-2.4c1.6,0,2.9,0.5,3.8,1.4c0.9,1,1.3,2.2,1.3,3.7c0,2.5-0.7,4.5-2.1,6.2
					C218.3,209.8,216.6,210.6,214.6,210.6z M214.7,208.6c1.3,0,2.4-0.6,3.3-1.9c0.9-1.3,1.3-2.8,1.3-4.5c0-2.2-0.9-3.3-2.7-3.3
					c-1.3,0-2.4,0.6-3.3,1.9c-0.9,1.3-1.3,2.8-1.3,4.5C211.9,207.5,212.9,208.6,214.7,208.6z"/>
				<path class="st0" d="M223.1,210.4l2.8-13.1h2.4l-2.8,13.1H223.1z M227.8,194.5c-0.4,0-0.8-0.1-1.1-0.4s-0.4-0.6-0.4-1
					c0-0.5,0.2-0.9,0.5-1.3c0.4-0.3,0.8-0.5,1.2-0.5c0.4,0,0.8,0.1,1.1,0.4c0.3,0.3,0.4,0.6,0.4,1c0,0.5-0.2,0.9-0.5,1.3
					C228.7,194.3,228.3,194.5,227.8,194.5z"/>
				<path class="st0" d="M229.4,210.4l2.8-13.1h2.4l-1.1,5.1h5.8l1.1-5.1h2.4l-2.8,13.1h-2.4l1.3-5.9h-5.8l-1.3,5.9H229.4z"/>
				<path class="st0" d="M243.6,210.4l2.8-13.1h1.9l-0.3,2.6h0.1c0.6-0.9,1.3-1.6,2.1-2.1c0.8-0.5,1.7-0.8,2.6-0.8
					c0.9,0,1.6,0.3,2.1,0.8c0.5,0.5,0.8,1.3,0.7,2.3h0.1c0.6-0.9,1.3-1.6,2.2-2.2c0.9-0.6,1.8-0.9,2.7-0.9c0.9,0,1.6,0.3,2.1,0.8
					c0.5,0.5,0.8,1.3,0.8,2.2c0,0.5-0.1,1.4-0.3,2.7l-1.7,7.8h-2.4l1.7-7.9c0.2-0.7,0.2-1.4,0.2-1.8c0-1.1-0.5-1.6-1.4-1.6
					c-1.1,0-2.1,0.7-3.2,2c-0.7,0.9-1.2,2.1-1.5,3.6l-1.2,5.6h-2.4l1.7-7.9c0.2-0.7,0.2-1.4,0.2-1.8c0-1.1-0.5-1.6-1.4-1.6
					c-1.1,0-2.1,0.7-3.2,2.1c-0.7,0.9-1.2,2.1-1.5,3.6l-1.2,5.6H243.6z"/>
				<path class="st0" d="M271.2,210.6c-1.7,0-3-0.5-4-1.5c-1-1-1.5-2.4-1.5-4.1c0-2.3,0.7-4.3,2-5.8c1.3-1.6,3-2.3,4.9-2.3
					c1.4,0,2.5,0.4,3.3,1.2c0.8,0.8,1.1,1.8,1.1,3.1c0,0.9-0.2,1.9-0.6,3.1l-8.3,0.1c0,0.1,0,0.4,0,0.7c0,1.1,0.3,2,0.9,2.7
					c0.6,0.6,1.4,1,2.4,1c1.1,0,2.3-0.3,3.6-1l0.7,1.8C274.4,210.2,272.9,210.6,271.2,210.6z M268.5,202.6l5.9-0.1
					c0.1-0.5,0.2-1,0.2-1.4c0-0.6-0.2-1.2-0.5-1.6c-0.4-0.4-0.9-0.7-1.7-0.7c-0.9,0-1.8,0.4-2.5,1.1
					C269.2,200.6,268.7,201.5,268.5,202.6z"/>
				<path class="st0" d="M282.9,210.6c-1.4,0-2.4-0.3-3.3-0.9c-0.8-0.6-1.2-1.5-1.2-2.6c0-0.9,0.3-1.6,0.8-2.3
					c0.5-0.6,1.1-1.1,1.9-1.4c0.7-0.3,1.5-0.6,2.2-0.9c0.7-0.3,1.4-0.6,1.9-0.9c0.5-0.4,0.8-0.8,0.8-1.3c0-1-0.7-1.4-2.1-1.4
					c-0.9,0-1.9,0.2-3.1,0.6l-0.5-1.8c1.3-0.5,2.5-0.8,3.8-0.8c1.4,0,2.5,0.3,3.2,0.9c0.7,0.6,1.1,1.4,1.1,2.4
					c0,0.9-0.3,1.6-0.8,2.2c-0.5,0.6-1.1,1-1.9,1.4c-0.7,0.3-1.5,0.6-2.2,0.9c-0.7,0.3-1.4,0.6-1.9,0.9c-0.5,0.4-0.8,0.8-0.8,1.4
					c0,0.5,0.2,1,0.6,1.3c0.4,0.3,0.9,0.4,1.6,0.4c1.2,0,2.3-0.3,3.3-0.8l0.7,1.8C285.8,210.3,284.4,210.6,282.9,210.6z"/>
				<path class="st0" d="M288.1,216.9l4.2-19.5c1.4-0.4,2.7-0.6,3.9-0.6c2,0,3.5,0.5,4.5,1.5c1,1,1.6,2.4,1.6,4c0,2.5-0.8,4.5-2.3,6
					c-1.5,1.5-3.3,2.2-5.4,2.2c-0.9,0-1.8-0.1-2.7-0.4l-1.4,6.7H288.1z M292.4,208.2c0.6,0.2,1.2,0.4,2,0.4c1.6,0,2.9-0.6,3.9-1.7
					c1-1.1,1.5-2.6,1.5-4.3c0-1.2-0.3-2.1-1-2.7c-0.7-0.6-1.6-0.9-2.7-0.9c-0.6,0-1.2,0.1-1.8,0.2L292.4,208.2z"/>
				<path class="st0" d="M307.3,210.6c-1.1,0-1.9-0.3-2.5-1c-0.6-0.6-1-1.5-1-2.5c0-1.5,0.5-2.7,1.6-3.5c1.2-1,2.9-1.4,5.3-1.4
					l1.8,0c0.1-0.4,0.2-0.9,0.2-1.4c0-1.3-0.8-2-2.4-2c-1.2,0-2.5,0.3-3.9,1L306,198c1.5-0.7,3.1-1.1,4.6-1.1c1.3,0,2.3,0.3,3.2,0.9
					c0.9,0.6,1.3,1.6,1.3,2.9c0,0.6-0.2,1.7-0.5,3.2l-0.3,1.2c-0.3,1.4-0.5,2.6-0.5,3.4c0,0.6,0.1,1.1,0.2,1.7l-2.1,0.4
					c-0.2-0.7-0.4-1.5-0.4-2.2C310.4,209.9,308.9,210.6,307.3,210.6z M307.9,208.6c0.9,0,1.7-0.4,2.5-1.1c0.8-0.7,1.3-1.6,1.5-2.7
					l0.2-0.9h-1c-2,0-3.3,0.3-4.1,0.9c-0.6,0.5-0.9,1.1-0.9,1.9C306.2,208,306.7,208.6,307.9,208.6z"/>
				<path class="st0" d="M320.9,210.6c-0.9,0-1.7-0.3-2.3-0.8c-0.6-0.5-0.9-1.4-0.9-2.5c0-0.7,0.1-1.6,0.3-2.6l1.6-7.5h2.4l-1.7,7.8
					c-0.1,0.7-0.2,1.3-0.2,1.8c0,1.1,0.5,1.7,1.5,1.7c1,0,1.9-0.4,2.7-1.3c0.8-0.9,1.4-2,1.7-3.3l1.4-6.8h2.4l-1.4,6.8
					c-0.3,1.6-0.5,2.8-0.5,3.3c0,0.6,0.2,1,0.5,1.2c0.3,0.2,0.9,0.2,1.9,0.1l-1.3,6.3h-2.2l0.9-4.4c-1.3-0.2-2-1-2-2.6h-0.1
					C324.4,209.7,322.8,210.6,320.9,210.6z"/>
				<path class="st0" d="M332,210.4l2.8-13.1h2.4l-2.8,13.1H332z M336.7,194.5c-0.4,0-0.8-0.1-1.1-0.4c-0.3-0.3-0.4-0.6-0.4-1
					c0-0.5,0.2-0.9,0.5-1.3c0.4-0.3,0.8-0.5,1.2-0.5c0.4,0,0.8,0.1,1.1,0.4c0.3,0.3,0.4,0.6,0.4,1c0,0.5-0.2,0.9-0.5,1.3
					C337.6,194.3,337.1,194.5,336.7,194.5z"/>
				<path class="st0" d="M342.3,210.6c-0.9,0-1.7-0.3-2.3-0.8c-0.6-0.5-0.9-1.4-0.9-2.5c0-0.6,0.1-1.5,0.3-2.6l1.6-7.5h2.4l-1.6,7.8
					c-0.2,0.7-0.2,1.4-0.2,1.8c0,1.1,0.5,1.7,1.5,1.7c1,0,2-0.4,2.8-1.3c0.8-0.9,1.4-2,1.7-3.3l1.4-6.6h2.4l-1.7,7.8
					c-0.3,1.5-0.4,2.6-0.4,3.3c0,0.5,0.1,1.1,0.2,1.7l-2.1,0.4c-0.3-0.9-0.4-1.7-0.3-2.6H347c-0.6,0.8-1.3,1.4-2.1,1.9
					C344.1,210.4,343.2,210.6,342.3,210.6z M342.5,191.6l1.9-0.4c0.2,1.5,0.8,2.3,2,2.3c0.7,0,1.4-0.2,1.9-0.7c0.5-0.5,1-1.2,1.5-2
					l1.7,0.8c-0.7,1.3-1.4,2.2-2.2,2.8c-0.8,0.6-1.8,0.9-2.9,0.9c-1.1,0-2-0.3-2.6-0.9C343.1,193.7,342.7,192.8,342.5,191.6z"/>
				<path class="st0" d="M352.4,210.4l2.8-13.1h2.4l-1.1,5.1h5.8l1.1-5.1h2.4l-2.8,13.1h-2.4l1.3-5.9H356l-1.3,5.9H352.4z"/>
				<path class="st0" d="M366.6,210.4l2.8-13.1h2.4l-2.8,13.1H366.6z M371.3,194.5c-0.4,0-0.8-0.1-1.1-0.4c-0.3-0.3-0.4-0.6-0.4-1
					c0-0.5,0.2-0.9,0.5-1.3c0.4-0.3,0.8-0.5,1.2-0.5c0.4,0,0.8,0.1,1.1,0.4c0.3,0.3,0.4,0.6,0.4,1c0,0.5-0.2,0.9-0.5,1.3
					C372.1,194.3,371.7,194.5,371.3,194.5z"/>
				<path class="st0" d="M137.7,245.3l4.2-19.5c1.4-0.4,2.7-0.6,3.9-0.6c2,0,3.5,0.5,4.5,1.5c1,1,1.6,2.4,1.6,4c0,2.5-0.8,4.5-2.3,6
					c-1.5,1.5-3.3,2.2-5.4,2.2c-0.9,0-1.8-0.1-2.7-0.4l-1.4,6.7H137.7z M142.1,236.6c0.6,0.2,1.2,0.4,2,0.4c1.6,0,2.9-0.6,3.9-1.7
					c1-1.1,1.5-2.6,1.5-4.3c0-1.2-0.3-2.1-1-2.7c-0.7-0.6-1.6-0.9-2.7-0.9c-0.6,0-1.2,0.1-1.8,0.2L142.1,236.6z"/>
				<path class="st0" d="M159.4,239c-1.7,0-3-0.5-4-1.5c-1-1-1.5-2.4-1.5-4.1c0-2.3,0.7-4.3,2-5.8c1.3-1.6,3-2.3,4.9-2.3
					c1.4,0,2.5,0.4,3.3,1.2c0.8,0.8,1.1,1.8,1.1,3.1c0,0.9-0.2,1.9-0.6,3.1l-8.3,0.1c0,0.1,0,0.4,0,0.7c0,1.1,0.3,2,0.9,2.7
					c0.6,0.6,1.4,1,2.4,1c1.1,0,2.3-0.3,3.6-1l0.7,1.8C162.6,238.6,161.1,239,159.4,239z M156.7,230.9l5.9-0.1
					c0.1-0.5,0.2-1,0.2-1.4c0-0.6-0.2-1.2-0.5-1.6c-0.4-0.4-0.9-0.7-1.7-0.7c-0.9,0-1.8,0.4-2.5,1.1
					C157.4,229,156.9,229.9,156.7,230.9z"/>
				<path class="st0" d="M168.4,245l0.7-1.9c0.3,0.1,0.6,0.2,0.9,0.2c0.6,0,1.1-0.2,1.5-0.7c0.2-0.3,0.4-0.6,0.6-1
					c0.2-0.4,0.3-1,0.6-1.9c0.2-0.9,0.4-1.4,0.5-1.7H173c-0.6,0.8-1.5,1.2-2.5,1.2c-1,0-1.8-0.4-2.5-1.3c-0.6-0.9-0.9-2-0.9-3.5
					s0.3-2.9,0.8-4.2c0.5-1.4,1.3-2.5,2.3-3.4c1-0.9,2.2-1.4,3.5-1.4c0.6,0,1.3,0.1,1.9,0.4l0.4-1.9c0.6-3.2,2.1-4.8,4.3-4.8
					c0.6,0,1.3,0.1,1.8,0.3l-0.7,1.9c-0.3-0.1-0.6-0.2-1-0.2c-0.5,0-1,0.2-1.3,0.6c-0.3,0.4-0.6,1-0.8,1.8c0,0.1-0.1,0.6-0.3,1.3
					c-0.2,0.8-0.3,1.3-0.4,1.5h0.1c0.6-0.8,1.5-1.2,2.5-1.2c1,0,1.8,0.4,2.5,1.3c0.6,0.9,0.9,2,0.9,3.5c0,1.5-0.3,2.9-0.8,4.2
					c-0.5,1.4-1.3,2.5-2.3,3.4c-1,0.9-2.2,1.4-3.5,1.4c-0.7,0-1.3-0.1-1.9-0.4c-0.7,2.9-1.5,4.8-2.3,5.6c-0.7,0.7-1.7,1.1-2.8,1.1
					C169.4,245.3,168.9,245.2,168.4,245z M171.3,237c1.2,0,2-0.9,2.4-2.7l1.4-6.6c-0.4-0.2-0.9-0.3-1.3-0.3c-1.3,0-2.3,0.7-3.1,2.2
					c-0.8,1.4-1.2,3-1.2,4.7c0,0.9,0.1,1.6,0.4,2.1C170.3,236.8,170.7,237,171.3,237z M177,237c1.3,0,2.3-0.7,3.1-2.1
					c0.8-1.4,1.2-3,1.2-4.7c0-1.9-0.6-2.9-1.8-2.9c-1.2,0-2,0.9-2.4,2.7l-1.4,6.7C176.1,236.9,176.5,237,177,237z"/>
				<path class="st0" d="M191,239c-1.7,0-2.9-0.5-3.8-1.4c-0.9-1-1.3-2.2-1.3-3.7c0-2.5,0.7-4.5,2.1-6.2c1.4-1.6,3.1-2.4,5.1-2.4
					c1.6,0,2.9,0.5,3.8,1.4c0.9,1,1.3,2.2,1.3,3.7c0,2.5-0.7,4.5-2.1,6.2C194.6,238.2,192.9,239,191,239z M191,237
					c1.3,0,2.4-0.6,3.3-1.9c0.9-1.3,1.3-2.8,1.3-4.5c0-2.2-0.9-3.3-2.7-3.3c-1.3,0-2.4,0.6-3.3,1.9c-0.9,1.3-1.3,2.8-1.3,4.5
					C188.3,235.9,189.2,237,191,237z"/>
				<path class="st0" d="M198.1,245.3l4.2-19.5c1.4-0.4,2.7-0.6,3.9-0.6c2,0,3.5,0.5,4.5,1.5c1,1,1.6,2.4,1.6,4c0,2.5-0.8,4.5-2.3,6
					c-1.5,1.5-3.3,2.2-5.4,2.2c-0.9,0-1.8-0.1-2.7-0.4l-1.4,6.7H198.1z M202.4,236.6c0.6,0.2,1.2,0.4,2,0.4c1.6,0,2.9-0.6,3.9-1.7
					c1-1.1,1.5-2.6,1.5-4.3c0-1.2-0.3-2.1-1-2.7c-0.7-0.6-1.6-0.9-2.7-0.9c-0.6,0-1.2,0.1-1.8,0.2L202.4,236.6z"/>
				<path class="st0" d="M212.5,238.7l0.5-2c0.2,0.1,0.4,0.1,0.7,0.1c0.7,0,1.2-0.3,1.6-0.9c0.5-0.8,0.9-1.9,1.3-3.5
					c0.4-1.6,0.8-3.8,1.3-6.7h2c0.9,2,1.8,4.4,2.6,7.1h0.1c0.5-0.7,1.1-1.5,1.8-2.3l3.9-4.8h2.4l-1.6,7.7c-0.3,1.4-0.4,2.4-0.4,3.1
					c0,0.7,0.1,1.4,0.3,2l-2.3,0.5c-0.2-0.7-0.4-1.5-0.4-2.3c0-1.1,0.4-3.4,1.3-7.1h-0.1c-0.6,0.8-1.2,1.5-1.6,2.1l-3.2,3.9h-1.2
					c-0.9-3-1.6-5-2-6h-0.1c-0.4,2.2-0.8,3.9-1.2,5.1c-0.4,1.3-0.9,2.3-1.5,3.1c-0.6,0.8-1.6,1.2-2.8,1.2
					C213.4,238.9,212.9,238.9,212.5,238.7z"/>
				<path class="st0" d="M235.5,239c-0.9,0-1.7-0.3-2.3-0.8c-0.6-0.5-0.9-1.4-0.9-2.5c0-0.6,0.1-1.5,0.3-2.6l1.6-7.5h2.4l-1.6,7.8
					c-0.2,0.7-0.2,1.4-0.2,1.8c0,1.1,0.5,1.7,1.5,1.7c1,0,2-0.4,2.8-1.3c0.8-0.9,1.4-2,1.7-3.3l1.4-6.6h2.4l-1.7,7.8
					c-0.3,1.5-0.4,2.6-0.4,3.3c0,0.5,0.1,1.1,0.2,1.7l-2.1,0.4c-0.3-0.9-0.4-1.7-0.3-2.6h-0.1c-0.6,0.8-1.3,1.4-2.1,1.9
					C237.3,238.8,236.4,239,235.5,239z"/>
			</g>
		</g>
	</g>
	<g>
		<path class="st1" d="M80,33.9L52.6,6.5c-1.2-1.2-2.7-1.8-4.4-1.8S45,5.3,43.8,6.5L6,44.3c-1.2,1.2-1.8,2.7-1.8,4.4
			c0,1.7,0.6,3.2,1.8,4.4l42.2,42.2l12.5-12.5l-34-34l21.5-21.5l33.9,33.9C88.1,52.9,87.4,41.3,80,33.9z"/>
		<path class="st2" d="M90.4,86.8c2.4-2.4,2.4-6.4,0-8.8L48.2,35.8L35.6,48.4l34,34l-21.5,21.5L14.3,70c-2.6,3.6-4.1,7.9-4.1,12.4
			c0,5.6,2.2,10.8,6.1,14.8l27.4,27.4c2.3,2.3,6.4,2.3,8.8,0L90.4,86.8z"/>
	</g>
</g>
</svg>
