<?xml version="1.0" encoding="utf-8"?>
<!-- Generator: Adobe Illustrator 21.0.0, SVG Export Plug-In . SVG Version: 6.00 Build 0)  -->
<svg version="1.1" id="Layer_1" xmlns="http://www.w3.org/2000/svg" xmlns:xlink="http://www.w3.org/1999/xlink" x="0px" y="0px"
	 viewBox="0 0 380 537" style="enable-background:new 0 0 380 537;" xml:space="preserve">
<style type="text/css">
	.st0{fill:#999999;}
</style>
<g>
	<path class="st0" d="M325.4,136.7L210.5,21.9c-4.9-4.9-11.4-7.6-18.4-7.6c-6.9,0-13.5,2.7-18.4,7.6L15.4,180.3
		c-4.9,4.9-7.6,11.4-7.6,18.4c0,6.9,2.7,13.5,7.6,18.4l176.8,176.8l52.6-52.6L102.1,198.7l90-90.1l141.9,141.9
		C359.3,216.3,356.4,167.7,325.4,136.7z"/>
	<path class="st0" d="M369,358.2c10.1-10.1,10.1-26.6,0-36.7L192.2,144.7l-52.6,52.6l142.6,142.6l-90,90L50.3,288
		c-11,14.9-17,32.9-17,51.9c0,23.4,9.1,45.4,25.7,61.9l114.9,114.9c9.8,9.8,26.9,9.8,36.7,0L369,358.2z"/>
</g>
</svg>
