<?xml version="1.0" encoding="utf-8"?>
<!-- Generator: Adobe Illustrator 21.0.0, SVG Export Plug-In . SVG Version: 6.00 Build 0)  -->
<svg version="1.1" id="Layer_1" xmlns="http://www.w3.org/2000/svg" xmlns:xlink="http://www.w3.org/1999/xlink" x="0px" y="0px"
	 viewBox="0 0 1257 250" style="enable-background:new 0 0 1257 250;" xml:space="preserve">
<style type="text/css">
	.st0{fill:#0069AA;}
	.st1{fill:#EDD421;}
	.st2{fill:#688708;}
	.st3{fill:#D68518;}
	.st4{fill:#0BA063;}
	.st5{fill:#A00523;}
	.st6{fill:#4E9AC4;}
</style>
<g>
	<g>
		<path class="st0" d="M130.4,105.3c6.8,22.7,36.2,30.4,48.5,12.7c13.2-19-3.1-50.5-31.1-45.8C129.9,75.3,126.9,93.8,130.4,105.3"/>
		<g>
			<path class="st1" d="M191.6,93.6c6.7,16.4,22.9,22.2,28.9,10.2c7.2-14.3-8.6-38.7-23.5-36.2C187.3,70.9,188,84.8,191.6,93.6"/>
			<path class="st1" d="M226.5,89.2c4.4,10.5,11.3,15.1,13.8,9.2c3.8-9.4-6.9-30.6-14.3-28.4C221.6,72.5,224,83.1,226.5,89.2"/>
			<path class="st1" d="M243.3,86c1.2,3.1,2.8,5.2,3.7,4.9c2.2-0.7-1.5-11.3-4.2-12.1c-0.1,0-0.3,0-0.4,0
				C241.3,79.5,242.2,83.4,243.3,86"/>
		</g>
		<g>
			<path class="st2" d="M38.4,144c4.4,14.2,21.6,16.4,29.1,3.9c7.7-12.8-2.1-31.9-18.4-27.8C37.9,124.4,36.1,136.7,38.4,144"/>
			<path class="st2" d="M16.4,155.4c2.3,8.2,10.3,10.6,14.3,4.3c4.5-7.2-0.4-20.5-9-18.5C15.9,143.3,15.1,150.8,16.4,155.4"/>
			<path class="st2" d="M78.6,129.3c7.7,17.1,30.1,18.6,39.2,2.5c8.9-15.7-2.8-40.8-26.6-34.6C76.8,102.4,73.4,117.9,78.6,129.3"/>
		</g>
		<g>
			<path class="st3" d="M152.1,61.4c14.7,10.2,31.5,6.1,30-7.3c-1.8-16-28.5-27.9-39.7-17.6C135.9,44.6,144.2,55.9,152.1,61.4"/>
			<path class="st3" d="M145.9,9.2c4.3,0.2,7.1-0.4,6.6-1.4c-1.3-2.4-16-3.7-16.8-1.4c0,0.1,0,0.3,0,0.4
				C136.8,8.1,142.3,9,145.9,9.2"/>
			<path class="st3" d="M160.6,28.6c8.9,0.4,11.6-4.4,5.3-9.6c-8.9-7.5-25.8-9-25.8-2.2c0,0.6,0.3,1.4,0.5,2
				C143.6,24.4,153.3,28.3,160.6,28.6"/>
		</g>
		<g>
			<path class="st4" d="M181.4,152.7c6.3,16.1,24.5,17.4,31.9,2.3c7.2-14.7-2.3-38.2-21.6-32.5C180,127.5,177.3,142.1,181.4,152.7"
				/>
			<path class="st4" d="M207.3,187c1.2,9.5,8.7,11.6,15.1,4.4c9.2-10.3,8-28.2-1.9-27.4c-0.9,0.1-2,0.5-2.9,0.8
				C210,168.6,206.3,179.3,207.3,187"/>
			<path class="st4" d="M216.6,211.7c-0.8,3.9,0.1,6.8,3.4,4.8c6.3-3.8,11.5-17.8,7-18.7c-0.7-0.1-1.4,0.2-2,0.4
				C221,200.6,217.6,207,216.6,211.7"/>
		</g>
		<g>
			<path class="st5" d="M126,166.8c5.7,16.2,28.2,18.5,37,3.7c8.6-14.5-3.4-34.5-22.9-29.9C124.8,145.7,123.3,159,126,166.8"/>
			<path class="st5" d="M141.8,219c11.4-3.6,12.6-19.2,1.9-24.9c-9.2-5-21.2,2-19,14.3C127.7,219,136.8,220.5,141.8,219"/>
			<path class="st5" d="M140.5,237c-2.6-6-12.9-7.4-15.6-0.6c-1.9,4.8,2.7,10.5,9.7,9.6C141.1,244.6,141.7,239.8,140.5,237"/>
		</g>
		<g>
			<path class="st6" d="M120.5,78.1c13.5-9.6,10.7-28.5-4.9-33c-15.2-4.4-34.9,10-25.3,28.6C97.6,84.7,111.6,84.5,120.5,78.1"/>
			<path class="st6" d="M65.2,37.1c-4.9,7.2-2.1,14.8,5.6,15.4c11,0.9,20.8-11.9,15-19.5c-0.5-0.7-1.4-1.4-2-1.9
				C77.4,27.4,69.2,31.3,65.2,37.1"/>
			<ellipse transform="matrix(0.7411 -0.6714 0.6714 0.7411 -5.9725 44.8968)" class="st6" cx="55.2" cy="30.2" rx="7.6" ry="4.1"/>
		</g>
	</g>
	<g>
		<g>
			<path class="st0" d="M306.2,148.7v-4.3c-11.5-1.2-17.5-8-17.5-17.2c0-9.2,6-16.1,17.5-17.2v-4.4h7.2v4.4
				c11.6,1.2,17.6,8,17.6,17.2c0,9.3-6,16.1-17.6,17.2v4.3H306.2z M306.2,137.9v-21.6c-6.9,1.1-10.2,5.3-10.2,10.8
				C296,132.6,299.3,136.9,306.2,137.9z M313.4,116.3v21.6c6.9-1,10.2-5.2,10.2-10.8C323.6,121.6,320.3,117.4,313.4,116.3z"/>
			<path class="st0" d="M335.8,133c0-8.8,4.7-16.4,13.5-16.4c8.9,0,13.5,7.6,13.5,16.4s-4.7,16.5-13.5,16.5
				C340.4,149.5,335.8,141.8,335.8,133z M356.2,133c0-5.6-2.1-10.7-6.9-10.7c-4.7,0-6.9,5.1-6.9,10.7c0,5.6,2.1,10.8,6.9,10.8
				C354,143.8,356.2,138.7,356.2,133z"/>
			<path class="st0" d="M375.4,144.5v16.1H369v-43.2h6.5v4.1c1.8-3.1,4.9-4.9,8-4.9c7.1,0,11.4,6.3,11.4,16.4
				c0,10-4.3,16.5-11.4,16.5C380.4,149.5,377.3,147.9,375.4,144.5z M388.2,133c0-6-2.2-10.7-6.7-10.7c-2.5,0-5,1.9-6.1,4.3v12.8
				c1.1,2.3,3.6,4.3,6.1,4.3C386,143.8,388.2,139.1,388.2,133z"/>
			<path class="st0" d="M400.7,155.3c0.6,0.3,1.5,0.5,2.1,0.5c1.7,0,2.9-0.6,3.6-2.6l1.3-3.8l-10.5-31.9h6.9l6.9,23.5l7-23.5h6.9
				l-12.4,37.2c-1.7,5.2-4.8,6.8-9.2,6.8c-1,0-2.7-0.2-3.5-0.5L400.7,155.3z"/>
			<path class="st0" d="M453.1,148.7v-20.4l-7.7,20.4h-2.6l-7.6-20.4v20.4h-6.5v-31.3h8.3l7.1,18.9l7.1-18.9h8.2v31.3H453.1z"/>
			<path class="st0" d="M467,155.3c0.6,0.3,1.5,0.5,2.1,0.5c1.7,0,2.9-0.6,3.6-2.6l1.3-3.8l-10.5-31.9h6.9l6.9,23.5l7-23.5h6.9
				l-12.4,37.2c-1.7,5.2-4.8,6.8-9.2,6.8c-1,0-2.7-0.2-3.5-0.5L467,155.3z"/>
			<path class="st0" d="M528.2,123.1h-13v25.7h-6.5v-31.3h19.4V123.1z"/>
			<path class="st0" d="M539.6,144.5v16.1h-6.5v-43.2h6.5v4.1c1.8-3.1,4.9-4.9,8-4.9c7.1,0,11.4,6.3,11.4,16.4
				c0,10-4.3,16.5-11.4,16.5C544.6,149.5,541.5,147.9,539.6,144.5z M552.4,133c0-6-2.2-10.7-6.7-10.7c-2.5,0-5,1.9-6.1,4.3v12.8
				c1.1,2.3,3.6,4.3,6.1,4.3C550.2,143.8,552.4,139.1,552.4,133z"/>
			<path class="st0" d="M563.5,133c0-8.8,4.7-16.4,13.5-16.4c8.9,0,13.5,7.6,13.5,16.4s-4.7,16.5-13.5,16.5
				C568.2,149.5,563.5,141.8,563.5,133z M583.9,133c0-5.6-2.1-10.7-6.9-10.7c-4.7,0-6.9,5.1-6.9,10.7c0,5.6,2.1,10.8,6.9,10.8
				C581.8,143.8,583.9,138.7,583.9,133z"/>
			<path class="st0" d="M621.1,148.7v-20.4l-7.7,20.4h-2.6l-7.6-20.4v20.4h-6.5v-31.3h8.3l7.1,18.9l7.1-18.9h8.2v31.3H621.1z"/>
			<path class="st0" d="M651.3,148.7v-3.2c-1.9,2.6-5.1,4-8.2,4c-5.1,0-9.6-3.8-9.6-10.4c0-6.7,4.5-10.2,9.6-10.2
				c3.2,0,6.4,1.2,8.2,3.8v-4.5c0-3.8-2.2-6-6.1-6c-2.8,0-5.4,1.1-7.8,3.6l-2.5-4.5c3.2-3.2,7.5-4.5,11.5-4.5
				c6.5,0,11.3,3,11.3,10.7v21.4H651.3z M651.3,141.6v-4.7c-1.2-2.2-3.6-3.5-5.9-3.5c-3.4,0-5.4,2.5-5.4,5.8c0,3.4,2.1,5.8,5.4,5.8
				C647.7,145,650.1,143.7,651.3,141.6z"/>
			<path class="st0" d="M662.7,143.6c2.5-0.5,4.1-1.5,4.8-9.8l1.4-16.4h20.2v25.7h3.4v13.6H686v-8h-16.9v8h-6.4V143.6z M674,134.3
				c-0.3,4.1-1.6,6.9-3.5,8.7h12.2v-20h-7.9L674,134.3z"/>
			<path class="st0" d="M696.1,148.7l6.7-12.3c-3.3-0.9-6.3-4-6.3-9.1c0-5.4,3.7-9.9,10.5-9.9h13.8v31.3h-6.5v-11.5h-5.2l-5.7,11.5
				H696.1z M714.4,131.8v-9h-6.5c-3,0-4.7,1.9-4.7,4.5c0,2.6,1.6,4.5,4.7,4.5H714.4z"/>
			<path class="st0" d="M728.5,148.7v-31.3h6.5v12.3h10.9v-12.3h6.4v31.3h-6.4v-13.3H735v13.3H728.5z"/>
			<path class="st0" d="M758.4,133c0-9.5,5.4-16.4,13.7-16.4c4.7,0,7.6,1.9,9.5,4.2l-3.3,4.4c-1.6-2-3.3-2.9-5.6-2.9
				c-4.9,0-7.7,4.7-7.7,10.7s2.8,10.8,7.7,10.8c2.3,0,4-1,5.6-2.9l3.3,4.4c-1.9,2.3-4.9,4.2-9.5,4.2
				C763.8,149.5,758.4,142.5,758.4,133z"/>
			<path class="st0" d="M793.3,117.4v11.5h6.9c7.1,0,10.5,4.6,10.5,10c0,5.2-3.5,9.9-10.5,9.9h-13.4v-31.3H793.3z M793.3,134.3v8.9
				h6.2c3,0,4.7-1.9,4.7-4.5c0-2.5-1.6-4.5-4.7-4.5H793.3z"/>
			<path class="st0" d="M834.2,148.7l-7.4-13.1l-3.8,5.1v8h-6.5v-31.3h6.5v15.4l11-15.4h7.5l-10.4,14.1l10.6,17.2H834.2z"/>
			<path class="st0" d="M844.2,133c0-8.8,4.7-16.4,13.5-16.4c8.9,0,13.5,7.6,13.5,16.4s-4.7,16.5-13.5,16.5
				C848.8,149.5,844.2,141.8,844.2,133z M864.6,133c0-5.6-2.1-10.7-6.9-10.7c-4.7,0-6.9,5.1-6.9,10.7c0,5.6,2.1,10.8,6.9,10.8
				C862.4,143.8,864.6,138.7,864.6,133z"/>
			<path class="st0" d="M896.8,123.1h-13v25.7h-6.5v-31.3h19.4V123.1z"/>
			<path class="st0" d="M900.2,133c0-8.8,4.7-16.4,13.5-16.4c8.9,0,13.5,7.6,13.5,16.4s-4.7,16.5-13.5,16.5
				C904.9,149.5,900.2,141.8,900.2,133z M920.6,133c0-5.6-2.1-10.7-6.9-10.7c-4.7,0-6.9,5.1-6.9,10.7c0,5.6,2.1,10.8,6.9,10.8
				C918.5,143.8,920.6,138.7,920.6,133z"/>
			<path class="st0" d="M945.6,133c0-9.5,5.4-16.4,13.7-16.4c4.7,0,7.6,1.9,9.5,4.2l-3.3,4.4c-1.6-2-3.3-2.9-5.6-2.9
				c-4.9,0-7.7,4.7-7.7,10.7s2.8,10.8,7.7,10.8c2.3,0,4-1,5.6-2.9l3.3,4.4c-1.9,2.3-4.9,4.2-9.5,4.2
				C951,149.5,945.6,142.5,945.6,133z"/>
			<path class="st0" d="M973.9,155.3c0.6,0.3,1.5,0.5,2.1,0.5c1.7,0,2.9-0.6,3.6-2.6l1.3-3.8l-10.5-31.9h6.9l6.9,23.5l7-23.5h6.9
				l-12.4,37.2c-1.7,5.2-4.8,6.8-9.2,6.8c-1,0-2.7-0.2-3.5-0.5L973.9,155.3z"/>
			<path class="st0" d="M1000.3,133c0-9.5,5.4-16.4,13.7-16.4c4.7,0,7.6,1.9,9.5,4.2l-3.3,4.4c-1.6-2-3.3-2.9-5.6-2.9
				c-4.9,0-7.7,4.7-7.7,10.7s2.8,10.8,7.7,10.8c2.3,0,4-1,5.6-2.9l3.3,4.4c-1.9,2.3-4.9,4.2-9.5,4.2
				C1005.7,149.5,1000.3,142.5,1000.3,133z"/>
			<path class="st0" d="M1046.1,148.7v-25.7h-10.9v25.7h-6.5v-31.3h23.8v31.3H1046.1z"/>
			<path class="st0" d="M1059.4,109.4c0-2.3,1.9-4.1,4.1-4.1c2.2,0,4,1.8,4,4.1c0,2.2-1.8,4-4,4
				C1061.2,113.5,1059.4,111.6,1059.4,109.4z M1060.2,148.7v-31.3h6.5v31.3H1060.2z"/>
			<path class="st0" d="M1071.7,144c2.5,0,4.1-1.9,4.8-10.2l1.4-16.4h20.2v31.3h-6.4v-25.7h-7.9l-0.8,11.3
				c-0.9,11.6-4.9,15.2-11.3,15.2V144z"/>
			<path class="st0" d="M1112.2,117.4v11.5h6.9c7.1,0,10.5,4.6,10.5,10c0,5.2-3.5,9.9-10.5,9.9h-13.4v-31.3H1112.2z M1112.2,134.3
				v8.9h6.2c3,0,4.7-1.9,4.7-4.5c0-2.5-1.6-4.5-4.7-4.5H1112.2z"/>
			<path class="st0" d="M1134,133c0-9.5,5.4-16.4,13.7-16.4c4.7,0,7.6,1.9,9.5,4.2l-3.3,4.4c-1.6-2-3.3-2.9-5.6-2.9
				c-4.9,0-7.7,4.7-7.7,10.7s2.8,10.8,7.7,10.8c2.3,0,4-1,5.6-2.9l3.3,4.4c-1.9,2.3-4.9,4.2-9.5,4.2
				C1139.3,149.5,1134,142.5,1134,133z"/>
			<path class="st0" d="M1166.8,148.7v-25.7h-7.1v-5.6h20.6v5.6h-7.1v25.7H1166.8z"/>
			<path class="st0" d="M1185.3,148.7v-31.3h14.5c6.4,0,9.5,3.5,9.5,8c0,3.8-2.3,6.2-5.4,7.1c3.5,0.8,6,4,6,7.7c0,4.9-3,8.5-9.7,8.5
				H1185.3z M1202.6,126.4c0-2-1.2-3.6-4-3.6h-6.7v7.2h6.7C1201.4,130,1202.6,128.4,1202.6,126.4z M1203.2,139.4c0-2.1-1.4-4-4.4-4
				h-7v7.9h7C1201.7,143.3,1203.2,141.8,1203.2,139.4z"/>
			<path class="st0" d="M1233.1,148.7v-3.2c-1.9,2.6-5.1,4-8.2,4c-5.1,0-9.6-3.8-9.6-10.4c0-6.7,4.5-10.2,9.6-10.2
				c3.2,0,6.4,1.2,8.2,3.8v-4.5c0-3.8-2.2-6-6.1-6c-2.8,0-5.4,1.1-7.8,3.6l-2.5-4.5c3.2-3.2,7.5-4.5,11.5-4.5
				c6.5,0,11.3,3,11.3,10.7v21.4H1233.1z M1233.1,141.6v-4.7c-1.2-2.2-3.6-3.5-5.9-3.5c-3.4,0-5.4,2.5-5.4,5.8
				c0,3.4,2.1,5.8,5.4,5.8C1229.5,145,1231.9,143.7,1233.1,141.6z"/>
		</g>
		<g>
			<g>
				<path class="st0" d="M316.6,66c0,0.1,0,0.3-0.1,0.4c-0.1,0.1-0.2,0.2-0.4,0.2c-0.2,0.1-0.4,0.1-0.7,0.2c-0.3,0-0.6,0.1-1,0.1
					c-0.4,0-0.8,0-1.1-0.1c-0.3,0-0.5-0.1-0.7-0.2c-0.2-0.1-0.3-0.1-0.4-0.2c-0.1-0.1-0.1-0.2-0.1-0.4V51.5h-14.9V66
					c0,0.1,0,0.3-0.1,0.4c-0.1,0.1-0.2,0.2-0.4,0.2c-0.2,0.1-0.4,0.1-0.7,0.2c-0.3,0-0.6,0.1-1,0.1c-0.4,0-0.7,0-1-0.1
					c-0.3,0-0.5-0.1-0.7-0.2c-0.2-0.1-0.3-0.1-0.4-0.2c-0.1-0.1-0.1-0.2-0.1-0.4V34.7c0-0.1,0-0.3,0.1-0.4c0.1-0.1,0.2-0.2,0.4-0.2
					c0.2-0.1,0.4-0.1,0.7-0.2c0.3,0,0.6-0.1,1-0.1c0.4,0,0.8,0,1,0.1c0.3,0,0.5,0.1,0.7,0.2c0.2,0.1,0.3,0.1,0.4,0.2
					c0.1,0.1,0.1,0.2,0.1,0.4v13.1h14.9V34.7c0-0.1,0-0.3,0.1-0.4c0.1-0.1,0.2-0.2,0.4-0.2c0.2-0.1,0.4-0.1,0.7-0.2
					c0.3,0,0.6-0.1,1.1-0.1c0.4,0,0.7,0,1,0.1c0.3,0,0.5,0.1,0.7,0.2c0.2,0.1,0.3,0.1,0.4,0.2c0.1,0.1,0.1,0.2,0.1,0.4V66z"/>
				<path class="st0" d="M349.7,65.1c0.1,0.4,0.2,0.7,0.2,0.9c0,0.2-0.1,0.4-0.2,0.5c-0.1,0.1-0.4,0.2-0.7,0.2
					c-0.3,0-0.7,0.1-1.2,0.1c-0.5,0-0.9,0-1.2,0c-0.3,0-0.5-0.1-0.7-0.1c-0.2-0.1-0.3-0.1-0.4-0.2c-0.1-0.1-0.1-0.2-0.2-0.4l-2.8-8
					h-13.6l-2.7,7.8c-0.1,0.2-0.1,0.3-0.2,0.4c-0.1,0.1-0.2,0.2-0.4,0.3c-0.2,0.1-0.4,0.1-0.7,0.2c-0.3,0-0.7,0.1-1.1,0.1
					c-0.5,0-0.9,0-1.2-0.1c-0.3,0-0.5-0.1-0.7-0.2c-0.1-0.1-0.2-0.3-0.2-0.5c0-0.2,0.1-0.5,0.2-0.9l11-30.3c0.1-0.2,0.2-0.3,0.3-0.5
					c0.1-0.1,0.3-0.2,0.5-0.3c0.2-0.1,0.5-0.1,0.8-0.1c0.3,0,0.7,0,1.2,0c0.5,0,1,0,1.3,0c0.4,0,0.6,0.1,0.9,0.1
					c0.2,0.1,0.4,0.2,0.5,0.3c0.1,0.1,0.2,0.3,0.3,0.5L349.7,65.1z M335.6,38.3L335.6,38.3L330,54.6h11.4L335.6,38.3z"/>
				<path class="st0" d="M382.7,74.6c0,0.1,0,0.2-0.1,0.3c-0.1,0.1-0.2,0.2-0.3,0.2c-0.1,0.1-0.3,0.1-0.6,0.1c-0.2,0-0.6,0.1-1,0.1
					c-0.3,0-0.6,0-0.9-0.1c-0.2,0-0.4-0.1-0.6-0.1c-0.2-0.1-0.3-0.1-0.3-0.2c-0.1-0.1-0.1-0.2-0.1-0.3v-8h-22.3
					c-0.5,0-0.8-0.1-1.1-0.4c-0.3-0.3-0.4-0.7-0.4-1.3V34.6c0-0.1,0-0.2,0.1-0.3c0.1-0.1,0.2-0.2,0.4-0.3c0.2-0.1,0.4-0.1,0.7-0.2
					c0.3,0,0.6-0.1,1-0.1c0.4,0,0.8,0,1,0.1c0.3,0,0.5,0.1,0.7,0.2c0.2,0.1,0.3,0.2,0.4,0.3c0.1,0.1,0.1,0.2,0.1,0.3v28.3h14.6V34.6
					c0-0.1,0-0.2,0.1-0.3c0.1-0.1,0.2-0.2,0.4-0.3c0.2-0.1,0.4-0.1,0.7-0.2c0.3,0,0.6-0.1,1-0.1c0.4,0,0.7,0,1,0.1
					c0.3,0,0.5,0.1,0.7,0.2c0.2,0.1,0.3,0.2,0.4,0.3c0.1,0.1,0.1,0.2,0.1,0.3v28.3h3.3c0.3,0,0.6,0.1,0.7,0.3
					c0.1,0.2,0.2,0.5,0.2,0.9V74.6z"/>
				<path class="st0" d="M428.6,49.9c0,2.6-0.3,5-0.9,7.1c-0.6,2.1-1.6,3.9-2.8,5.4c-1.2,1.5-2.8,2.6-4.7,3.4
					c-1.9,0.8-4,1.2-6.5,1.2c-2.5,0-4.6-0.4-6.4-1.1c-1.8-0.7-3.3-1.8-4.4-3.2c-1.2-1.4-2-3.1-2.6-5.2c-0.6-2.1-0.9-4.5-0.9-7.1
					c0-2.6,0.3-4.9,0.9-7c0.6-2.1,1.6-3.9,2.8-5.4c1.2-1.5,2.8-2.6,4.7-3.4c1.9-0.8,4-1.2,6.5-1.2c2.4,0,4.5,0.4,6.3,1.1
					c1.8,0.7,3.3,1.8,4.5,3.2c1.2,1.4,2.1,3.1,2.7,5.1C428.3,45,428.6,47.3,428.6,49.9z M424,50.3c0-1.9-0.2-3.6-0.5-5.2
					c-0.3-1.6-0.9-3-1.6-4.1c-0.8-1.2-1.8-2.1-3.1-2.7c-1.3-0.7-2.9-1-4.7-1c-1.9,0-3.5,0.4-4.7,1.1c-1.3,0.7-2.3,1.6-3.1,2.8
					c-0.8,1.2-1.4,2.6-1.7,4.1c-0.3,1.6-0.5,3.2-0.5,5c0,1.9,0.2,3.7,0.5,5.3c0.3,1.6,0.9,3,1.6,4.2c0.8,1.2,1.8,2.1,3,2.7
					c1.3,0.6,2.9,1,4.8,1c1.9,0,3.5-0.4,4.8-1.1c1.3-0.7,2.3-1.7,3.1-2.9c0.8-1.2,1.4-2.6,1.7-4.2C423.8,53.7,424,52,424,50.3z"/>
				<path class="st0" d="M459,66c0,0.1,0,0.3-0.1,0.4c-0.1,0.1-0.2,0.2-0.4,0.2c-0.2,0.1-0.4,0.1-0.7,0.2c-0.3,0-0.6,0.1-1,0.1
					c-0.4,0-0.8,0-1.1-0.1c-0.3,0-0.5-0.1-0.7-0.2c-0.2-0.1-0.3-0.1-0.4-0.2c-0.1-0.1-0.1-0.2-0.1-0.4V51.5h-14.9V66
					c0,0.1,0,0.3-0.1,0.4c-0.1,0.1-0.2,0.2-0.4,0.2c-0.2,0.1-0.4,0.1-0.7,0.2c-0.3,0-0.6,0.1-1,0.1c-0.4,0-0.7,0-1-0.1
					c-0.3,0-0.5-0.1-0.7-0.2c-0.2-0.1-0.3-0.1-0.4-0.2c-0.1-0.1-0.1-0.2-0.1-0.4V34.7c0-0.1,0-0.3,0.1-0.4c0.1-0.1,0.2-0.2,0.4-0.2
					c0.2-0.1,0.4-0.1,0.7-0.2c0.3,0,0.6-0.1,1-0.1c0.4,0,0.8,0,1,0.1c0.3,0,0.5,0.1,0.7,0.2c0.2,0.1,0.3,0.1,0.4,0.2
					c0.1,0.1,0.1,0.2,0.1,0.4v13.1h14.9V34.7c0-0.1,0-0.3,0.1-0.4c0.1-0.1,0.2-0.2,0.4-0.2c0.2-0.1,0.4-0.1,0.7-0.2
					c0.3,0,0.6-0.1,1.1-0.1c0.4,0,0.7,0,1,0.1c0.3,0,0.5,0.1,0.7,0.2c0.2,0.1,0.3,0.1,0.4,0.2c0.1,0.1,0.1,0.2,0.1,0.4V66z"/>
				<path class="st0" d="M492.1,65.1c0.1,0.4,0.2,0.7,0.2,0.9c0,0.2-0.1,0.4-0.2,0.5c-0.1,0.1-0.4,0.2-0.7,0.2
					c-0.3,0-0.7,0.1-1.2,0.1c-0.5,0-0.9,0-1.2,0s-0.5-0.1-0.7-0.1c-0.2-0.1-0.3-0.1-0.4-0.2c-0.1-0.1-0.1-0.2-0.2-0.4l-2.8-8h-13.6
					l-2.7,7.8c-0.1,0.2-0.1,0.3-0.2,0.4c-0.1,0.1-0.2,0.2-0.4,0.3c-0.2,0.1-0.4,0.1-0.7,0.2c-0.3,0-0.7,0.1-1.1,0.1
					c-0.5,0-0.9,0-1.2-0.1c-0.3,0-0.5-0.1-0.7-0.2c-0.1-0.1-0.2-0.3-0.2-0.5c0-0.2,0.1-0.5,0.2-0.9l11-30.3c0.1-0.2,0.2-0.3,0.3-0.5
					c0.1-0.1,0.3-0.2,0.5-0.3c0.2-0.1,0.5-0.1,0.8-0.1c0.3,0,0.7,0,1.2,0c0.5,0,1,0,1.3,0c0.4,0,0.6,0.1,0.9,0.1
					c0.2,0.1,0.4,0.2,0.5,0.3c0.1,0.1,0.2,0.3,0.3,0.5L492.1,65.1z M478,38.3L478,38.3l-5.7,16.3h11.4L478,38.3z"/>
				<path class="st0" d="M520.4,66c0,0.1,0,0.2-0.1,0.3c-0.1,0.1-0.2,0.2-0.4,0.2c-0.2,0.1-0.4,0.1-0.7,0.2c-0.3,0-0.6,0.1-1,0.1
					c-0.4,0-0.8,0-1-0.1c-0.3,0-0.5-0.1-0.7-0.2c-0.2-0.1-0.3-0.1-0.4-0.2c-0.1-0.1-0.1-0.2-0.1-0.3V37.7h-9.2
					c-0.5,3.9-0.9,7.3-1.4,10.3c-0.5,3-0.9,5.5-1.4,7.7c-0.5,2.2-1.1,4-1.7,5.4c-0.6,1.4-1.3,2.6-2.1,3.5c-0.8,0.9-1.7,1.5-2.7,1.9
					c-1,0.4-2.1,0.5-3.4,0.5c-0.2,0-0.3,0-0.5-0.1c-0.1-0.1-0.2-0.2-0.3-0.3c-0.1-0.2-0.2-0.3-0.2-0.6c0-0.2-0.1-0.5-0.1-0.9
					c0-0.4,0-0.8,0.1-1c0-0.3,0.1-0.5,0.2-0.7c0.1-0.2,0.2-0.3,0.3-0.4c0.1-0.1,0.2-0.1,0.4-0.1c0.6,0,1.2-0.1,1.8-0.4
					c0.5-0.3,1.1-0.7,1.6-1.4c0.5-0.7,1-1.7,1.5-2.9c0.5-1.3,0.9-2.9,1.4-4.9c0.4-2,0.9-4.4,1.3-7.3c0.4-2.9,0.8-6.3,1.2-10.2
					c0.1-0.7,0.3-1.2,0.5-1.5c0.3-0.3,0.6-0.4,1.1-0.4h14.5c0.5,0,0.8,0.1,1.1,0.4c0.3,0.3,0.4,0.7,0.4,1.3V66z"/>
				<path class="st0" d="M550.9,56.5c0,1.3-0.2,2.6-0.6,3.8c-0.4,1.2-1.1,2.3-2,3.2c-0.9,1-2.2,1.7-3.7,2.3
					c-1.5,0.6-3.7,0.9-6.5,0.9h-7.2c-0.2,0-0.4,0-0.6-0.1c-0.2-0.1-0.4-0.2-0.5-0.3c-0.2-0.1-0.3-0.3-0.4-0.6
					c-0.1-0.2-0.2-0.5-0.2-0.8V34.6c0-0.1,0-0.2,0.1-0.3c0.1-0.1,0.2-0.2,0.4-0.3c0.2-0.1,0.4-0.1,0.7-0.2c0.3,0,0.6-0.1,1-0.1
					c0.4,0,0.8,0,1,0.1c0.3,0,0.5,0.1,0.7,0.2c0.2,0.1,0.3,0.2,0.4,0.3c0.1,0.1,0.1,0.2,0.1,0.3v12.2h4.9c2.4,0,4.3,0.2,5.7,0.6
					c1.4,0.4,2.6,1,3.6,1.8c1,0.8,1.8,1.8,2.3,3C550.6,53.5,550.9,54.9,550.9,56.5z M546.4,56.9c0-1-0.1-1.9-0.4-2.7
					c-0.3-0.8-0.7-1.4-1.4-2c-0.6-0.5-1.4-1-2.3-1.3c-0.9-0.3-2.4-0.4-4.2-0.4h-4.5v12.6h4.8c2,0,3.5-0.2,4.5-0.6
					c1-0.4,1.7-0.9,2.2-1.5c0.5-0.6,0.9-1.3,1.1-2S546.4,57.5,546.4,56.9z"/>
				<path class="st0" d="M580.1,66c0,0.1,0,0.3-0.1,0.4c-0.1,0.1-0.2,0.2-0.4,0.2c-0.2,0.1-0.4,0.1-0.7,0.2c-0.3,0-0.6,0.1-1,0.1
					c-0.4,0-0.8,0-1.1-0.1c-0.3,0-0.5-0.1-0.7-0.2c-0.2-0.1-0.3-0.1-0.4-0.2c-0.1-0.1-0.1-0.2-0.1-0.4V51.5h-14.9V66
					c0,0.1,0,0.3-0.1,0.4c-0.1,0.1-0.2,0.2-0.4,0.2c-0.2,0.1-0.4,0.1-0.7,0.2c-0.3,0-0.6,0.1-1,0.1c-0.4,0-0.7,0-1-0.1
					c-0.3,0-0.5-0.1-0.7-0.2c-0.2-0.1-0.3-0.1-0.4-0.2c-0.1-0.1-0.1-0.2-0.1-0.4V34.7c0-0.1,0-0.3,0.1-0.4c0.1-0.1,0.2-0.2,0.4-0.2
					c0.2-0.1,0.4-0.1,0.7-0.2c0.3,0,0.6-0.1,1-0.1c0.4,0,0.8,0,1,0.1c0.3,0,0.5,0.1,0.7,0.2c0.2,0.1,0.3,0.1,0.4,0.2
					c0.1,0.1,0.1,0.2,0.1,0.4v13.1h14.9V34.7c0-0.1,0-0.3,0.1-0.4c0.1-0.1,0.2-0.2,0.4-0.2c0.2-0.1,0.4-0.1,0.7-0.2
					c0.3,0,0.6-0.1,1.1-0.1c0.4,0,0.7,0,1,0.1c0.3,0,0.5,0.1,0.7,0.2c0.2,0.1,0.3,0.1,0.4,0.2c0.1,0.1,0.1,0.2,0.1,0.4V66z"/>
				<path class="st0" d="M613.3,65.1c0.1,0.4,0.2,0.7,0.2,0.9c0,0.2-0.1,0.4-0.2,0.5c-0.1,0.1-0.4,0.2-0.7,0.2
					c-0.3,0-0.7,0.1-1.2,0.1c-0.5,0-0.9,0-1.2,0c-0.3,0-0.5-0.1-0.7-0.1c-0.2-0.1-0.3-0.1-0.4-0.2c-0.1-0.1-0.1-0.2-0.2-0.4l-2.8-8
					h-13.6l-2.7,7.8c-0.1,0.2-0.1,0.3-0.2,0.4c-0.1,0.1-0.2,0.2-0.4,0.3c-0.2,0.1-0.4,0.1-0.7,0.2c-0.3,0-0.7,0.1-1.1,0.1
					c-0.5,0-0.9,0-1.2-0.1c-0.3,0-0.5-0.1-0.7-0.2c-0.1-0.1-0.2-0.3-0.2-0.5c0-0.2,0.1-0.5,0.2-0.9l11-30.3c0.1-0.2,0.2-0.3,0.3-0.5
					c0.1-0.1,0.3-0.2,0.5-0.3c0.2-0.1,0.5-0.1,0.8-0.1c0.3,0,0.7,0,1.2,0c0.5,0,1,0,1.3,0c0.4,0,0.6,0.1,0.9,0.1
					c0.2,0.1,0.4,0.2,0.5,0.3c0.1,0.1,0.2,0.3,0.3,0.5L613.3,65.1z M599.2,38.3L599.2,38.3l-5.7,16.3h11.4L599.2,38.3z"/>
				<path class="st0" d="M653.8,66c0,0.1,0,0.2-0.1,0.3c-0.1,0.1-0.2,0.2-0.4,0.2c-0.2,0.1-0.4,0.1-0.7,0.2c-0.3,0-0.6,0.1-1,0.1
					c-0.4,0-0.7,0-1-0.1c-0.3,0-0.5-0.1-0.7-0.2c-0.2-0.1-0.3-0.1-0.4-0.2c-0.1-0.1-0.1-0.2-0.1-0.3V37.8h-14.8V66
					c0,0.1,0,0.2-0.1,0.3c-0.1,0.1-0.2,0.2-0.4,0.2c-0.2,0.1-0.4,0.1-0.7,0.2c-0.3,0-0.6,0.1-1,0.1s-0.8,0-1-0.1
					c-0.3,0-0.5-0.1-0.7-0.2c-0.2-0.1-0.3-0.1-0.4-0.2c-0.1-0.1-0.1-0.2-0.1-0.3V35.8c0-0.6,0.1-1,0.4-1.3c0.3-0.3,0.7-0.4,1.1-0.4
					h20.4c0.5,0,0.8,0.1,1.1,0.4c0.3,0.3,0.4,0.7,0.4,1.3V66z"/>
				<path class="st0" d="M685.4,66c0,0.1,0,0.2-0.1,0.3c-0.1,0.1-0.2,0.2-0.4,0.2c-0.2,0.1-0.4,0.1-0.7,0.2c-0.3,0-0.6,0.1-1,0.1
					c-0.4,0-0.8,0-1-0.1c-0.3,0-0.5-0.1-0.7-0.2c-0.2-0.1-0.3-0.1-0.4-0.2c-0.1-0.1-0.1-0.2-0.1-0.3V37.7h-9.2
					c-0.5,3.9-0.9,7.3-1.4,10.3c-0.5,3-0.9,5.5-1.4,7.7c-0.5,2.2-1.1,4-1.7,5.4c-0.6,1.4-1.3,2.6-2.1,3.5c-0.8,0.9-1.7,1.5-2.7,1.9
					c-1,0.4-2.1,0.5-3.4,0.5c-0.2,0-0.3,0-0.5-0.1c-0.1-0.1-0.2-0.2-0.3-0.3c-0.1-0.2-0.2-0.3-0.2-0.6c0-0.2-0.1-0.5-0.1-0.9
					c0-0.4,0-0.8,0.1-1c0-0.3,0.1-0.5,0.2-0.7c0.1-0.2,0.2-0.3,0.3-0.4c0.1-0.1,0.2-0.1,0.4-0.1c0.6,0,1.2-0.1,1.8-0.4
					c0.5-0.3,1.1-0.7,1.6-1.4c0.5-0.7,1-1.7,1.5-2.9c0.5-1.3,0.9-2.9,1.4-4.9c0.4-2,0.9-4.4,1.3-7.3c0.4-2.9,0.8-6.3,1.2-10.2
					c0.1-0.7,0.3-1.2,0.5-1.5c0.3-0.3,0.6-0.4,1.1-0.4h14.5c0.5,0,0.8,0.1,1.1,0.4c0.3,0.3,0.4,0.7,0.4,1.3V66z"/>
				<path class="st0" d="M718.6,65.1c0.1,0.4,0.2,0.7,0.2,0.9c0,0.2-0.1,0.4-0.2,0.5c-0.1,0.1-0.4,0.2-0.7,0.2
					c-0.3,0-0.7,0.1-1.2,0.1s-0.9,0-1.2,0c-0.3,0-0.5-0.1-0.7-0.1c-0.2-0.1-0.3-0.1-0.4-0.2c-0.1-0.1-0.1-0.2-0.2-0.4l-2.8-8h-13.6
					l-2.7,7.8c-0.1,0.2-0.1,0.3-0.2,0.4c-0.1,0.1-0.2,0.2-0.4,0.3c-0.2,0.1-0.4,0.1-0.7,0.2c-0.3,0-0.7,0.1-1.1,0.1
					c-0.5,0-0.9,0-1.2-0.1c-0.3,0-0.5-0.1-0.7-0.2c-0.1-0.1-0.2-0.3-0.2-0.5c0-0.2,0.1-0.5,0.2-0.9l11-30.3c0.1-0.2,0.2-0.3,0.3-0.5
					c0.1-0.1,0.3-0.2,0.5-0.3c0.2-0.1,0.5-0.1,0.8-0.1c0.3,0,0.7,0,1.2,0c0.5,0,1,0,1.3,0c0.4,0,0.6,0.1,0.9,0.1
					c0.2,0.1,0.4,0.2,0.5,0.3c0.1,0.1,0.2,0.3,0.3,0.5L718.6,65.1z M704.5,38.3L704.5,38.3l-5.7,16.3h11.4L704.5,38.3z"/>
				<path class="st0" d="M741.3,35.9c0,0.3,0,0.6-0.1,0.8c0,0.2-0.1,0.4-0.2,0.6c-0.1,0.1-0.2,0.2-0.3,0.3c-0.1,0.1-0.2,0.1-0.4,0.1
					h-9.2V66c0,0.1,0,0.3-0.1,0.4c-0.1,0.1-0.2,0.2-0.4,0.2c-0.2,0.1-0.4,0.1-0.7,0.2c-0.3,0-0.6,0.1-1,0.1c-0.4,0-0.7,0-1-0.1
					c-0.3,0-0.5-0.1-0.7-0.2c-0.2-0.1-0.3-0.1-0.4-0.2c-0.1-0.1-0.1-0.2-0.1-0.4V37.7h-9.2c-0.1,0-0.3,0-0.4-0.1
					c-0.1-0.1-0.2-0.2-0.3-0.3c-0.1-0.1-0.1-0.3-0.2-0.6c0-0.2-0.1-0.5-0.1-0.8c0-0.3,0-0.6,0.1-0.8c0-0.2,0.1-0.4,0.2-0.6
					c0.1-0.2,0.2-0.3,0.3-0.3c0.1-0.1,0.2-0.1,0.4-0.1h22.7c0.1,0,0.3,0,0.4,0.1c0.1,0.1,0.2,0.2,0.3,0.3c0.1,0.2,0.1,0.3,0.2,0.6
					C741.2,35.3,741.3,35.5,741.3,35.9z"/>
				<path class="st0" d="M773,49.4c0,1.8-0.3,3.5-0.8,4.9c-0.6,1.5-1.4,2.8-2.5,3.8c-1.1,1.1-2.6,2-4.3,2.6c-1.7,0.6-3.7,1-5.9,1.1
					v4.1c0,0.1,0,0.2-0.1,0.3c-0.1,0.1-0.2,0.2-0.4,0.2c-0.2,0.1-0.4,0.1-0.7,0.1c-0.3,0-0.6,0.1-1,0.1c-0.4,0-0.7,0-1,0
					c-0.3,0-0.5-0.1-0.7-0.1s-0.3-0.1-0.4-0.2c-0.1-0.1-0.1-0.2-0.1-0.4v-4.1c-2.3-0.1-4.3-0.4-6-0.9c-1.7-0.6-3.1-1.4-4.2-2.4
					c-1.1-1-1.9-2.3-2.5-3.8c-0.5-1.5-0.8-3.2-0.8-5.1c0-1.8,0.3-3.4,0.8-4.8c0.6-1.5,1.4-2.7,2.5-3.8c1.1-1.1,2.5-1.9,4.2-2.6
					c1.7-0.7,3.7-1.1,6-1.2v-3.9c0-0.1,0-0.2,0.1-0.3c0.1-0.1,0.2-0.2,0.4-0.2c0.2-0.1,0.4-0.1,0.7-0.2c0.3,0,0.6,0,1,0
					c0.4,0,0.7,0,1,0c0.3,0,0.5,0.1,0.7,0.2c0.2,0.1,0.3,0.1,0.4,0.2c0.1,0.1,0.1,0.2,0.1,0.3v3.9c2.3,0.1,4.3,0.4,6,1
					c1.7,0.6,3.1,1.4,4.2,2.4c1.1,1,1.9,2.3,2.5,3.7C772.7,45.8,773,47.5,773,49.4z M755.2,40.7c-1.7,0.1-3.1,0.4-4.2,0.9
					c-1.2,0.5-2.1,1.1-2.8,1.9c-0.7,0.8-1.2,1.7-1.6,2.7c-0.3,1-0.5,2.1-0.5,3.2c0,1.3,0.2,2.5,0.5,3.6c0.3,1.1,0.8,2,1.5,2.8
					c0.7,0.8,1.7,1.4,2.8,1.9c1.2,0.5,2.6,0.7,4.3,0.8V40.7z M768.6,49.6c0-1.3-0.2-2.5-0.5-3.5c-0.3-1.1-0.8-2-1.5-2.7
					c-0.7-0.8-1.6-1.4-2.8-1.8c-1.2-0.5-2.6-0.7-4.3-0.8v17.7c1.7-0.1,3.1-0.4,4.2-0.9c1.2-0.5,2.1-1.1,2.8-1.9
					c0.7-0.8,1.3-1.7,1.6-2.7C768.4,51.9,768.6,50.8,768.6,49.6z"/>
				<path class="st0" d="M807,49.9c0,2.6-0.3,5-0.9,7.1c-0.6,2.1-1.6,3.9-2.8,5.4c-1.2,1.5-2.8,2.6-4.7,3.4c-1.9,0.8-4,1.2-6.5,1.2
					c-2.5,0-4.6-0.4-6.4-1.1c-1.8-0.7-3.3-1.8-4.4-3.2c-1.2-1.4-2-3.1-2.6-5.2c-0.6-2.1-0.9-4.5-0.9-7.1c0-2.6,0.3-4.9,0.9-7
					c0.6-2.1,1.6-3.9,2.8-5.4c1.2-1.5,2.8-2.6,4.7-3.4c1.9-0.8,4-1.2,6.5-1.2c2.4,0,4.5,0.4,6.3,1.1c1.8,0.7,3.3,1.8,4.5,3.2
					c1.2,1.4,2.1,3.1,2.7,5.1C806.7,45,807,47.3,807,49.9z M802.4,50.3c0-1.9-0.2-3.6-0.5-5.2c-0.3-1.6-0.9-3-1.6-4.1
					c-0.8-1.2-1.8-2.1-3.1-2.7c-1.3-0.7-2.9-1-4.7-1c-1.9,0-3.5,0.4-4.7,1.1c-1.3,0.7-2.3,1.6-3.1,2.8c-0.8,1.2-1.4,2.6-1.7,4.1
					c-0.3,1.6-0.5,3.2-0.5,5c0,1.9,0.2,3.7,0.5,5.3c0.3,1.6,0.9,3,1.6,4.2c0.8,1.2,1.8,2.1,3,2.7c1.3,0.6,2.9,1,4.8,1
					c1.9,0,3.5-0.4,4.8-1.1c1.3-0.7,2.3-1.7,3.1-2.9c0.8-1.2,1.4-2.6,1.7-4.2C802.3,53.7,802.4,52,802.4,50.3z"/>
				<path class="st0" d="M834,43.6c0,1.6-0.3,3.1-0.8,4.4c-0.5,1.3-1.3,2.4-2.3,3.4c-1,0.9-2.2,1.6-3.7,2.1
					c-1.5,0.5-3.2,0.8-5.2,0.8h-3.7V66c0,0.1,0,0.3-0.1,0.4c-0.1,0.1-0.2,0.2-0.4,0.2c-0.2,0.1-0.4,0.1-0.7,0.2
					c-0.3,0-0.6,0.1-1,0.1c-0.4,0-0.8,0-1-0.1c-0.3,0-0.5-0.1-0.7-0.2c-0.2-0.1-0.3-0.1-0.4-0.2c-0.1-0.1-0.1-0.2-0.1-0.4V35.9
					c0-0.7,0.2-1.2,0.5-1.4c0.4-0.3,0.7-0.4,1.2-0.4h7c0.7,0,1.4,0,2,0.1c0.6,0.1,1.4,0.2,2.3,0.4c0.9,0.2,1.8,0.6,2.7,1.1
					c0.9,0.5,1.7,1.2,2.3,2c0.6,0.8,1.1,1.7,1.5,2.7C833.8,41.2,834,42.3,834,43.6z M829.4,43.9c0-1.3-0.2-2.4-0.7-3.3
					c-0.5-0.9-1.1-1.6-1.8-2c-0.7-0.4-1.5-0.7-2.3-0.8c-0.8-0.1-1.5-0.2-2.3-0.2h-4v13.1h3.9c1.3,0,2.4-0.2,3.3-0.5
					c0.9-0.3,1.6-0.8,2.2-1.4c0.6-0.6,1-1.3,1.3-2.1C829.3,45.8,829.4,44.9,829.4,43.9z"/>
				<path class="st0" d="M876.1,66c0,0.1,0,0.3-0.1,0.4c-0.1,0.1-0.2,0.2-0.4,0.2c-0.2,0.1-0.4,0.1-0.7,0.2c-0.3,0-0.6,0.1-1.1,0.1
					c-0.4,0-0.7,0-1-0.1c-0.3,0-0.5-0.1-0.7-0.2c-0.2-0.1-0.3-0.1-0.4-0.2c-0.1-0.1-0.1-0.2-0.1-0.4V37.6h-0.1l-11.5,28.6
					c-0.1,0.1-0.1,0.2-0.2,0.3c-0.1,0.1-0.2,0.2-0.4,0.2c-0.2,0.1-0.4,0.1-0.6,0.1c-0.2,0-0.5,0-0.9,0c-0.4,0-0.7,0-0.9-0.1
					c-0.3,0-0.5-0.1-0.6-0.1c-0.2-0.1-0.3-0.1-0.4-0.2c-0.1-0.1-0.2-0.2-0.2-0.3l-11-28.6h0V66c0,0.1,0,0.3-0.1,0.4
					c-0.1,0.1-0.2,0.2-0.4,0.2c-0.2,0.1-0.4,0.1-0.7,0.2c-0.3,0-0.6,0.1-1.1,0.1c-0.4,0-0.8,0-1-0.1c-0.3,0-0.5-0.1-0.7-0.2
					c-0.2-0.1-0.3-0.1-0.3-0.2c-0.1-0.1-0.1-0.2-0.1-0.4V36c0-0.7,0.2-1.2,0.6-1.5c0.4-0.3,0.8-0.5,1.3-0.5h2.7c0.5,0,1,0.1,1.4,0.2
					c0.4,0.1,0.8,0.3,1.1,0.5c0.3,0.2,0.6,0.5,0.8,0.8c0.2,0.3,0.4,0.7,0.5,1.2l9.3,23.7h0.1l9.7-23.6c0.2-0.5,0.4-0.9,0.6-1.3
					c0.2-0.4,0.5-0.6,0.7-0.8c0.3-0.2,0.6-0.4,0.9-0.5c0.3-0.1,0.7-0.1,1.1-0.1h2.8c0.3,0,0.5,0,0.7,0.1c0.2,0.1,0.4,0.2,0.6,0.4
					c0.2,0.2,0.3,0.4,0.4,0.6c0.1,0.2,0.2,0.5,0.2,0.9V66z"/>
				<path class="st0" d="M909.3,65.1c0.1,0.4,0.2,0.7,0.2,0.9c0,0.2-0.1,0.4-0.2,0.5c-0.1,0.1-0.4,0.2-0.7,0.2
					c-0.3,0-0.7,0.1-1.2,0.1c-0.5,0-0.9,0-1.2,0c-0.3,0-0.5-0.1-0.7-0.1c-0.2-0.1-0.3-0.1-0.4-0.2c-0.1-0.1-0.1-0.2-0.2-0.4l-2.8-8
					h-13.6l-2.7,7.8c-0.1,0.2-0.1,0.3-0.2,0.4c-0.1,0.1-0.2,0.2-0.4,0.3c-0.2,0.1-0.4,0.1-0.7,0.2c-0.3,0-0.7,0.1-1.1,0.1
					c-0.5,0-0.9,0-1.2-0.1c-0.3,0-0.5-0.1-0.7-0.2c-0.1-0.1-0.2-0.3-0.2-0.5c0-0.2,0.1-0.5,0.2-0.9l11-30.3c0.1-0.2,0.2-0.3,0.3-0.5
					c0.1-0.1,0.3-0.2,0.5-0.3c0.2-0.1,0.5-0.1,0.8-0.1c0.3,0,0.7,0,1.2,0c0.5,0,1,0,1.3,0c0.4,0,0.6,0.1,0.9,0.1
					c0.2,0.1,0.4,0.2,0.5,0.3c0.1,0.1,0.2,0.3,0.3,0.5L909.3,65.1z M895.2,38.3L895.2,38.3l-5.7,16.3h11.4L895.2,38.3z"/>
			</g>
			<path class="st0" d="M395.7,36.1v-1.4c0-0.4-0.3-0.7-0.7-0.7h-9.3c-0.4,0-0.7,0.3-0.7,0.7v1.4c0,0.4,0.3,0.7,0.7,0.7h2.5V64h-2.5
				c-0.4,0-0.7,0.3-0.7,0.7v1.4c0,0.4,0.3,0.7,0.7,0.7h9.3c0.4,0,0.7-0.3,0.7-0.7v-1.4c0-0.4-0.3-0.7-0.7-0.7h-2.5V36.8h2.5
				C395.4,36.8,395.7,36.5,395.7,36.1z"/>
		</g>
		<g>
			<g>
				<path class="st0" d="M317.1,219c0,0.3,0,0.5,0,0.7c0,0.2,0,0.4-0.1,0.6c0,0.2-0.1,0.3-0.2,0.4c-0.1,0.1-0.2,0.3-0.4,0.5
					c-0.2,0.2-0.5,0.4-1.1,0.8c-0.6,0.4-1.3,0.7-2.1,1.1c-0.8,0.3-1.8,0.6-2.9,0.9c-1.1,0.2-2.3,0.4-3.6,0.4c-2.2,0-4.2-0.4-6-1.1
					c-1.8-0.7-3.3-1.8-4.6-3.3c-1.3-1.4-2.2-3.2-2.9-5.4c-0.7-2.1-1-4.6-1-7.3c0-2.8,0.4-5.4,1.1-7.6c0.7-2.2,1.8-4.1,3.1-5.7
					c1.3-1.5,2.9-2.7,4.8-3.5c1.8-0.8,3.9-1.2,6.1-1.2c1,0,2,0.1,2.9,0.3c0.9,0.2,1.8,0.4,2.6,0.7c0.8,0.3,1.5,0.6,2.1,1
					c0.6,0.4,1,0.7,1.3,0.9s0.4,0.4,0.5,0.5c0.1,0.1,0.1,0.3,0.2,0.4c0,0.2,0.1,0.4,0.1,0.6c0,0.2,0,0.5,0,0.8c0,0.4,0,0.7-0.1,0.9
					c0,0.2-0.1,0.5-0.2,0.6c-0.1,0.2-0.2,0.3-0.3,0.4c-0.1,0.1-0.2,0.1-0.4,0.1c-0.2,0-0.6-0.2-1-0.5c-0.4-0.3-1-0.7-1.7-1.1
					c-0.7-0.4-1.6-0.8-2.6-1.1c-1-0.3-2.2-0.5-3.6-0.5c-1.5,0-2.9,0.3-4.2,0.9c-1.3,0.6-2.3,1.5-3.2,2.7c-0.9,1.2-1.6,2.6-2.1,4.3
					c-0.5,1.7-0.7,3.6-0.7,5.8c0,2.2,0.2,4.1,0.7,5.8c0.5,1.7,1.1,3.1,2,4.2c0.9,1.1,2,2,3.2,2.5c1.3,0.6,2.7,0.9,4.3,0.9
					c1.4,0,2.6-0.2,3.6-0.5c1-0.3,1.9-0.7,2.6-1.1c0.7-0.4,1.3-0.8,1.8-1.1c0.5-0.3,0.8-0.5,1.1-0.5c0.1,0,0.2,0,0.3,0.1
					c0.1,0.1,0.2,0.2,0.2,0.3c0.1,0.2,0.1,0.4,0.1,0.6C317.1,218.2,317.1,218.6,317.1,219z"/>
				<path class="st0" d="M347.1,222.2c0.2,0.4,0.4,0.7,0.4,0.9c0,0.2,0,0.4-0.2,0.5c-0.2,0.1-0.4,0.2-0.8,0.3
					c-0.4,0-0.8,0.1-1.4,0.1c-0.6,0-1,0-1.3,0c-0.3,0-0.6-0.1-0.8-0.1s-0.3-0.2-0.4-0.3c-0.1-0.1-0.2-0.2-0.3-0.4l-7.6-13.6
					l-7.7,13.6c-0.1,0.2-0.2,0.3-0.3,0.4c-0.1,0.1-0.3,0.2-0.4,0.3c-0.2,0.1-0.4,0.1-0.8,0.1c-0.3,0-0.7,0-1.3,0c-0.6,0-1,0-1.4-0.1
					c-0.3,0-0.6-0.1-0.7-0.3c-0.1-0.1-0.2-0.3-0.1-0.5c0-0.2,0.2-0.5,0.4-0.9l9.3-15.8l-8.9-15.2c-0.2-0.4-0.3-0.7-0.4-0.9
					c-0.1-0.2,0-0.4,0.1-0.6c0.1-0.1,0.4-0.2,0.7-0.3c0.4,0,0.8-0.1,1.5-0.1c0.5,0,1,0,1.3,0c0.3,0,0.6,0.1,0.8,0.1
					c0.2,0.1,0.3,0.2,0.4,0.3c0.1,0.1,0.2,0.2,0.3,0.4L335,203l7.3-12.8c0.1-0.1,0.2-0.3,0.3-0.4c0.1-0.1,0.2-0.2,0.4-0.3
					c0.2-0.1,0.4-0.1,0.7-0.1c0.3,0,0.7,0,1.2,0c0.5,0,1,0,1.3,0.1c0.3,0,0.6,0.1,0.7,0.3c0.1,0.1,0.2,0.3,0.2,0.5
					c0,0.2-0.2,0.6-0.4,0.9l-8.9,15.1L347.1,222.2z"/>
				<path class="st0" d="M400.7,232.2c0,0.1,0,0.3-0.1,0.3c-0.1,0.1-0.2,0.2-0.3,0.2c-0.2,0.1-0.3,0.1-0.6,0.1c-0.2,0-0.6,0.1-1,0.1
					c-0.4,0-0.7,0-0.9-0.1c-0.2,0-0.4-0.1-0.6-0.1c-0.1-0.1-0.3-0.1-0.3-0.2c-0.1-0.1-0.1-0.2-0.1-0.3v-8.3H371v8.3
					c0,0.1,0,0.3-0.1,0.3c-0.1,0.1-0.2,0.2-0.3,0.2c-0.2,0.1-0.3,0.1-0.6,0.1c-0.2,0-0.6,0.1-0.9,0.1c-0.4,0-0.7,0-1-0.1
					c-0.2,0-0.4-0.1-0.6-0.1c-0.2-0.1-0.3-0.1-0.3-0.2c-0.1-0.1-0.1-0.2-0.1-0.3v-10.9c0-0.5,0-0.8,0.2-1c0.2-0.2,0.5-0.3,0.8-0.3h2
					c0.5-0.6,1-1.3,1.4-1.9c0.4-0.7,0.8-1.4,1.2-2.3c0.4-0.9,0.8-2,1.1-3.3c0.4-1.3,0.7-2.9,1.1-4.8c0.4-1.9,0.7-4.2,1.1-6.8
					c0.4-2.6,0.8-5.8,1.2-9.4c0.1-0.6,0.3-1.1,0.5-1.4c0.3-0.3,0.6-0.5,1.1-0.5h15.8c0.5,0,0.9,0.2,1.2,0.5c0.3,0.3,0.4,0.8,0.4,1.4
					V220h3.4c0.4,0,0.6,0.1,0.8,0.3c0.2,0.2,0.2,0.6,0.2,1V232.2z M391.7,193.5h-10.2c-0.4,3.3-0.7,6.1-1.1,8.6
					c-0.4,2.4-0.7,4.6-1.1,6.4c-0.3,1.8-0.7,3.3-1,4.6c-0.4,1.2-0.7,2.3-1.1,3.2c-0.4,0.9-0.7,1.6-1.1,2.2c-0.4,0.6-0.8,1.1-1.2,1.6
					h16.7V193.5z"/>
				<path class="st0" d="M433.2,223.1c0,0.1,0,0.3-0.1,0.4c-0.1,0.1-0.2,0.2-0.4,0.3c-0.2,0.1-0.4,0.1-0.7,0.2
					c-0.3,0-0.6,0.1-1.1,0.1c-0.5,0-0.8,0-1.1-0.1c-0.3,0-0.5-0.1-0.7-0.2c-0.2-0.1-0.3-0.1-0.4-0.3c-0.1-0.1-0.1-0.2-0.1-0.4v-15.2
					h-15.6v15.2c0,0.1,0,0.3-0.1,0.4c-0.1,0.1-0.2,0.2-0.4,0.3c-0.2,0.1-0.4,0.1-0.7,0.2c-0.3,0-0.7,0.1-1.1,0.1
					c-0.4,0-0.8,0-1.1-0.1c-0.3,0-0.5-0.1-0.7-0.2c-0.2-0.1-0.3-0.1-0.4-0.3c-0.1-0.1-0.1-0.2-0.1-0.4v-32.9c0-0.1,0-0.3,0.1-0.4
					c0.1-0.1,0.2-0.2,0.4-0.3c0.2-0.1,0.4-0.1,0.7-0.2c0.3,0,0.7-0.1,1.1-0.1c0.4,0,0.8,0,1.1,0.1c0.3,0,0.5,0.1,0.7,0.2
					c0.2,0.1,0.3,0.1,0.4,0.3c0.1,0.1,0.1,0.2,0.1,0.4V204h15.6v-13.7c0-0.1,0-0.3,0.1-0.4c0.1-0.1,0.2-0.2,0.4-0.3
					c0.2-0.1,0.4-0.1,0.7-0.2c0.3,0,0.7-0.1,1.1-0.1c0.4,0,0.8,0,1.1,0.1c0.3,0,0.5,0.1,0.7,0.2c0.2,0.1,0.3,0.1,0.4,0.3
					c0.1,0.1,0.1,0.2,0.1,0.4V223.1z"/>
				<path class="st0" d="M473.2,206.3c0,2.8-0.3,5.3-1,7.5c-0.7,2.2-1.6,4.1-2.9,5.7c-1.3,1.6-2.9,2.8-4.9,3.6
					c-2,0.8-4.2,1.3-6.9,1.3c-2.6,0-4.8-0.4-6.7-1.2c-1.9-0.8-3.4-1.9-4.7-3.3c-1.2-1.5-2.1-3.3-2.7-5.5c-0.6-2.2-0.9-4.7-0.9-7.5
					c0-2.7,0.3-5.2,1-7.4c0.7-2.2,1.6-4.1,2.9-5.6c1.3-1.5,2.9-2.7,4.9-3.6c2-0.8,4.2-1.3,6.9-1.3c2.5,0,4.7,0.4,6.6,1.1
					c1.9,0.8,3.4,1.9,4.7,3.3c1.2,1.5,2.2,3.3,2.8,5.4C472.9,201.1,473.2,203.5,473.2,206.3z M468.4,206.6c0-1.9-0.2-3.7-0.5-5.4
					c-0.3-1.7-0.9-3.1-1.7-4.3c-0.8-1.2-1.9-2.2-3.2-2.9c-1.3-0.7-3-1-5-1c-2,0-3.6,0.4-5,1.1c-1.3,0.7-2.4,1.7-3.3,3
					c-0.8,1.2-1.4,2.7-1.8,4.3c-0.4,1.7-0.5,3.4-0.5,5.2c0,2,0.2,3.9,0.5,5.6c0.3,1.7,0.9,3.2,1.7,4.4c0.8,1.2,1.9,2.2,3.2,2.9
					c1.3,0.7,3,1,5,1c2,0,3.7-0.4,5-1.1c1.4-0.7,2.5-1.7,3.3-3c0.8-1.3,1.4-2.7,1.8-4.4C468.2,210.2,468.4,208.5,468.4,206.6z"/>
				<path class="st0" d="M501,191.5c0,0.3,0,0.6-0.1,0.9c0,0.2-0.1,0.5-0.2,0.6c-0.1,0.2-0.2,0.3-0.3,0.3c-0.1,0.1-0.2,0.1-0.4,0.1
					h-12.9v29.7c0,0.1,0,0.3-0.1,0.4c-0.1,0.1-0.2,0.2-0.4,0.3c-0.2,0.1-0.4,0.1-0.7,0.2c-0.3,0-0.7,0.1-1.1,0.1
					c-0.4,0-0.8,0-1.1-0.1c-0.3,0-0.5-0.1-0.7-0.2c-0.2-0.1-0.3-0.2-0.4-0.3c-0.1-0.1-0.1-0.2-0.1-0.4v-31.7c0-0.6,0.2-1.1,0.5-1.4
					c0.3-0.3,0.7-0.5,1.2-0.5h15.8c0.3,0,0.5,0.2,0.7,0.5C500.9,190.4,501,190.9,501,191.5z"/>
				<path class="st0" d="M535,206.3c0,2.8-0.3,5.3-1,7.5c-0.7,2.2-1.6,4.1-2.9,5.7c-1.3,1.6-2.9,2.8-4.9,3.6c-2,0.8-4.2,1.3-6.9,1.3
					c-2.6,0-4.8-0.4-6.7-1.2c-1.9-0.8-3.4-1.9-4.7-3.3c-1.2-1.5-2.1-3.3-2.7-5.5c-0.6-2.2-0.9-4.7-0.9-7.5c0-2.7,0.3-5.2,1-7.4
					c0.7-2.2,1.6-4.1,2.9-5.6c1.3-1.5,2.9-2.7,4.9-3.6c2-0.8,4.2-1.3,6.9-1.3c2.5,0,4.7,0.4,6.6,1.1c1.9,0.8,3.4,1.9,4.7,3.3
					c1.2,1.5,2.2,3.3,2.8,5.4S535,203.5,535,206.3z M530.2,206.6c0-1.9-0.2-3.7-0.5-5.4c-0.3-1.7-0.9-3.1-1.7-4.3
					c-0.8-1.2-1.9-2.2-3.2-2.9c-1.3-0.7-3-1-5-1c-2,0-3.6,0.4-5,1.1c-1.3,0.7-2.4,1.7-3.3,3c-0.8,1.2-1.4,2.7-1.8,4.3
					c-0.4,1.7-0.5,3.4-0.5,5.2c0,2,0.2,3.9,0.5,5.6c0.3,1.7,0.9,3.2,1.7,4.4c0.8,1.2,1.9,2.2,3.2,2.9s3,1,5,1c2,0,3.7-0.4,5-1.1
					c1.4-0.7,2.5-1.7,3.3-3c0.8-1.3,1.4-2.7,1.8-4.4C530,210.2,530.2,208.5,530.2,206.6z"/>
				<path class="st0" d="M583.4,223.2c0,0.1,0,0.3-0.1,0.4c-0.1,0.1-0.2,0.2-0.4,0.3c-0.2,0.1-0.4,0.1-0.7,0.2
					c-0.3,0-0.7,0.1-1.1,0.1c-0.4,0-0.8,0-1.1-0.1c-0.3,0-0.5-0.1-0.7-0.2c-0.2-0.1-0.3-0.2-0.4-0.3c-0.1-0.1-0.1-0.2-0.1-0.4v-29.7
					h-15.5v29.7c0,0.1,0,0.3-0.1,0.4c-0.1,0.1-0.2,0.2-0.4,0.3c-0.2,0.1-0.4,0.1-0.7,0.2c-0.3,0-0.7,0.1-1.1,0.1
					c-0.4,0-0.8,0-1.1-0.1c-0.3,0-0.5-0.1-0.7-0.2c-0.2-0.1-0.3-0.2-0.4-0.3c-0.1-0.1-0.1-0.2-0.1-0.4v-31.7c0-0.6,0.2-1.1,0.5-1.4
					c0.3-0.3,0.7-0.5,1.2-0.5h21.4c0.5,0,0.9,0.2,1.2,0.5c0.3,0.3,0.4,0.8,0.4,1.4V223.2z"/>
				<path class="st0" d="M620.3,222.2c0.1,0.4,0.2,0.7,0.2,0.9c0,0.2-0.1,0.4-0.2,0.5c-0.1,0.1-0.4,0.2-0.7,0.2
					c-0.3,0-0.8,0.1-1.3,0.1c-0.5,0-1,0-1.3,0c-0.3,0-0.6-0.1-0.7-0.1c-0.2-0.1-0.3-0.1-0.4-0.3c-0.1-0.1-0.2-0.2-0.2-0.4l-2.9-8.3
					h-14.2l-2.8,8.2c-0.1,0.2-0.1,0.3-0.2,0.4c-0.1,0.1-0.2,0.2-0.4,0.3c-0.2,0.1-0.4,0.1-0.7,0.2c-0.3,0-0.7,0.1-1.2,0.1
					c-0.5,0-0.9,0-1.3-0.1c-0.3,0-0.6-0.1-0.7-0.3c-0.1-0.1-0.2-0.3-0.2-0.5c0-0.2,0.1-0.6,0.2-0.9l11.5-31.8
					c0.1-0.2,0.2-0.4,0.3-0.5c0.1-0.1,0.3-0.2,0.5-0.3c0.2-0.1,0.5-0.1,0.8-0.1c0.3,0,0.8,0,1.3,0c0.6,0,1,0,1.4,0
					c0.4,0,0.7,0.1,0.9,0.1c0.2,0.1,0.4,0.2,0.5,0.3c0.1,0.1,0.2,0.3,0.3,0.5L620.3,222.2z M605.6,194.1L605.6,194.1l-5.9,17.1h11.9
					L605.6,194.1z"/>
				<path class="st0" d="M649.3,199.6c0,1.7-0.3,3.3-0.8,4.6c-0.6,1.4-1.4,2.6-2.4,3.5c-1.1,1-2.3,1.7-3.9,2.2
					c-1.5,0.5-3.3,0.8-5.5,0.8h-3.9v12.3c0,0.1,0,0.3-0.1,0.4c-0.1,0.1-0.2,0.2-0.4,0.3c-0.2,0.1-0.4,0.1-0.7,0.2
					c-0.3,0-0.7,0.1-1.1,0.1c-0.4,0-0.8,0-1.1-0.1c-0.3,0-0.5-0.1-0.7-0.2c-0.2-0.1-0.3-0.1-0.4-0.3c-0.1-0.1-0.1-0.2-0.1-0.4v-31.6
					c0-0.7,0.2-1.2,0.6-1.5c0.4-0.3,0.8-0.5,1.2-0.5h7.3c0.7,0,1.5,0,2.1,0.1c0.7,0.1,1.5,0.2,2.4,0.4c0.9,0.2,1.9,0.6,2.8,1.1
					c1,0.6,1.8,1.2,2.4,2.1c0.7,0.8,1.2,1.8,1.5,2.8C649.1,197.1,649.3,198.3,649.3,199.6z M644.5,200c0-1.4-0.3-2.6-0.8-3.5
					c-0.5-0.9-1.2-1.6-1.9-2.1c-0.8-0.5-1.6-0.8-2.4-0.9c-0.8-0.1-1.6-0.2-2.4-0.2h-4.2v13.7h4.1c1.4,0,2.5-0.2,3.4-0.5
					c0.9-0.4,1.7-0.8,2.3-1.5c0.6-0.6,1.1-1.4,1.4-2.3C644.3,201.9,644.5,201,644.5,200z"/>
				<path class="st0" d="M679.5,191.5c0,0.3,0,0.6-0.1,0.9c0,0.2-0.1,0.4-0.2,0.6c-0.1,0.2-0.2,0.3-0.3,0.3
					c-0.1,0.1-0.2,0.1-0.4,0.1H669v29.7c0,0.1,0,0.3-0.1,0.4c-0.1,0.1-0.2,0.2-0.4,0.3c-0.2,0.1-0.4,0.1-0.7,0.2
					c-0.3,0-0.7,0.1-1.1,0.1c-0.4,0-0.8,0-1.1-0.1c-0.3,0-0.5-0.1-0.7-0.2c-0.2-0.1-0.3-0.1-0.4-0.3c-0.1-0.1-0.1-0.2-0.1-0.4v-29.7
					h-9.6c-0.1,0-0.3,0-0.4-0.1c-0.1-0.1-0.2-0.2-0.3-0.3c-0.1-0.2-0.1-0.3-0.2-0.6c0-0.2-0.1-0.5-0.1-0.9c0-0.3,0-0.6,0.1-0.9
					c0-0.3,0.1-0.5,0.2-0.6c0.1-0.2,0.2-0.3,0.3-0.3c0.1-0.1,0.2-0.1,0.4-0.1h23.8c0.1,0,0.3,0,0.4,0.1c0.1,0.1,0.2,0.2,0.3,0.3
					c0.1,0.2,0.1,0.4,0.2,0.6C679.5,190.9,679.5,191.2,679.5,191.5z"/>
				<path class="st0" d="M711.3,223.1c0,0.1,0,0.3-0.1,0.4c-0.1,0.1-0.2,0.2-0.4,0.3c-0.2,0.1-0.4,0.1-0.7,0.2
					c-0.3,0-0.6,0.1-1.1,0.1c-0.5,0-0.8,0-1.1-0.1c-0.3,0-0.5-0.1-0.7-0.2c-0.2-0.1-0.3-0.1-0.4-0.3c-0.1-0.1-0.1-0.2-0.1-0.4v-15.2
					h-15.6v15.2c0,0.1,0,0.3-0.1,0.4c-0.1,0.1-0.2,0.2-0.4,0.3c-0.2,0.1-0.4,0.1-0.7,0.2c-0.3,0-0.7,0.1-1.1,0.1
					c-0.4,0-0.8,0-1.1-0.1c-0.3,0-0.5-0.1-0.7-0.2c-0.2-0.1-0.3-0.1-0.4-0.3c-0.1-0.1-0.1-0.2-0.1-0.4v-32.9c0-0.1,0-0.3,0.1-0.4
					c0.1-0.1,0.2-0.2,0.4-0.3c0.2-0.1,0.4-0.1,0.7-0.2c0.3,0,0.7-0.1,1.1-0.1c0.4,0,0.8,0,1.1,0.1c0.3,0,0.5,0.1,0.7,0.2
					c0.2,0.1,0.3,0.1,0.4,0.3c0.1,0.1,0.1,0.2,0.1,0.4V204h15.6v-13.7c0-0.1,0-0.3,0.1-0.4c0.1-0.1,0.2-0.2,0.4-0.3
					c0.2-0.1,0.4-0.1,0.7-0.2c0.3,0,0.7-0.1,1.1-0.1c0.4,0,0.8,0,1.1,0.1c0.3,0,0.5,0.1,0.7,0.2c0.2,0.1,0.3,0.1,0.4,0.3
					c0.1,0.1,0.1,0.2,0.1,0.4V223.1z"/>
				<path class="st0" d="M741.6,221.9c0,0.3,0,0.6-0.1,0.8c0,0.2-0.1,0.4-0.2,0.6c-0.1,0.2-0.2,0.3-0.3,0.3
					c-0.1,0.1-0.2,0.1-0.4,0.1h-16.4c-0.4,0-0.8-0.1-1.2-0.4c-0.4-0.3-0.5-0.8-0.5-1.4v-30.6c0-0.7,0.2-1.2,0.5-1.4
					c0.4-0.3,0.7-0.4,1.2-0.4h16.3c0.1,0,0.3,0,0.4,0.1c0.1,0.1,0.2,0.2,0.3,0.3c0.1,0.2,0.1,0.4,0.2,0.6c0,0.2,0.1,0.5,0.1,0.9
					c0,0.3,0,0.6-0.1,0.8c0,0.2-0.1,0.4-0.2,0.6c-0.1,0.2-0.2,0.3-0.3,0.3c-0.1,0.1-0.2,0.1-0.4,0.1h-13.4v10.7h11.5
					c0.1,0,0.3,0,0.4,0.1c0.1,0.1,0.2,0.2,0.3,0.3c0.1,0.1,0.1,0.3,0.2,0.6c0,0.2,0.1,0.5,0.1,0.9c0,0.3,0,0.6-0.1,0.8
					c0,0.2-0.1,0.4-0.2,0.6c-0.1,0.1-0.2,0.2-0.3,0.3c-0.1,0.1-0.2,0.1-0.4,0.1h-11.5V220h13.6c0.1,0,0.3,0,0.4,0.1
					c0.1,0.1,0.2,0.2,0.3,0.3c0.1,0.2,0.1,0.3,0.2,0.6C741.6,221.3,741.6,221.6,741.6,221.9z"/>
				<path class="st0" d="M772.3,199.6c0,1.7-0.3,3.3-0.8,4.6c-0.6,1.4-1.4,2.6-2.4,3.5c-1.1,1-2.3,1.7-3.9,2.2
					c-1.5,0.5-3.3,0.8-5.5,0.8h-3.9v12.3c0,0.1,0,0.3-0.1,0.4c-0.1,0.1-0.2,0.2-0.4,0.3c-0.2,0.1-0.4,0.1-0.7,0.2
					c-0.3,0-0.7,0.1-1.1,0.1c-0.4,0-0.8,0-1.1-0.1c-0.3,0-0.5-0.1-0.7-0.2c-0.2-0.1-0.3-0.1-0.4-0.3c-0.1-0.1-0.1-0.2-0.1-0.4v-31.6
					c0-0.7,0.2-1.2,0.6-1.5c0.4-0.3,0.8-0.5,1.2-0.5h7.3c0.7,0,1.5,0,2.1,0.1c0.7,0.1,1.5,0.2,2.4,0.4c0.9,0.2,1.9,0.6,2.8,1.1
					c1,0.6,1.8,1.2,2.4,2.1c0.7,0.8,1.2,1.8,1.5,2.8C772.1,197.1,772.3,198.3,772.3,199.6z M767.5,200c0-1.4-0.3-2.6-0.8-3.5
					c-0.5-0.9-1.2-1.6-1.9-2.1c-0.8-0.5-1.6-0.8-2.4-0.9c-0.8-0.1-1.6-0.2-2.4-0.2h-4.2v13.7h4.1c1.4,0,2.5-0.2,3.4-0.5
					c0.9-0.4,1.7-0.8,2.3-1.5c0.6-0.6,1.1-1.4,1.4-2.3C767.3,201.9,767.5,201,767.5,200z"/>
				<path class="st0" d="M804.3,219c0,0.3,0,0.5,0,0.7c0,0.2,0,0.4-0.1,0.6c0,0.2-0.1,0.3-0.2,0.4c-0.1,0.1-0.2,0.3-0.4,0.5
					c-0.2,0.2-0.5,0.4-1.1,0.8c-0.6,0.4-1.3,0.7-2.1,1.1c-0.8,0.3-1.8,0.6-2.9,0.9c-1.1,0.2-2.3,0.4-3.6,0.4c-2.2,0-4.2-0.4-6-1.1
					c-1.8-0.7-3.3-1.8-4.6-3.3c-1.3-1.4-2.2-3.2-2.9-5.4c-0.7-2.1-1-4.6-1-7.3c0-2.8,0.4-5.4,1.1-7.6c0.7-2.2,1.8-4.1,3.1-5.7
					c1.3-1.5,2.9-2.7,4.8-3.5c1.8-0.8,3.9-1.2,6.1-1.2c1,0,1.9,0.1,2.9,0.3c0.9,0.2,1.8,0.4,2.6,0.7c0.8,0.3,1.5,0.6,2.1,1
					c0.6,0.4,1,0.7,1.3,0.9c0.2,0.2,0.4,0.4,0.5,0.5c0.1,0.1,0.1,0.3,0.2,0.4c0,0.2,0.1,0.4,0.1,0.6c0,0.2,0,0.5,0,0.8
					c0,0.4,0,0.7-0.1,0.9c0,0.2-0.1,0.5-0.2,0.6c-0.1,0.2-0.2,0.3-0.3,0.4c-0.1,0.1-0.2,0.1-0.4,0.1c-0.2,0-0.6-0.2-1-0.5
					c-0.4-0.3-1-0.7-1.7-1.1c-0.7-0.4-1.6-0.8-2.6-1.1c-1-0.3-2.2-0.5-3.6-0.5c-1.5,0-2.9,0.3-4.2,0.9c-1.3,0.6-2.3,1.5-3.2,2.7
					c-0.9,1.2-1.6,2.6-2.1,4.3c-0.5,1.7-0.7,3.6-0.7,5.8c0,2.2,0.2,4.1,0.7,5.8c0.5,1.7,1.1,3.1,2,4.2c0.9,1.1,2,2,3.2,2.5
					c1.3,0.6,2.7,0.9,4.3,0.9c1.4,0,2.6-0.2,3.6-0.5c1-0.3,1.9-0.7,2.6-1.1c0.7-0.4,1.3-0.8,1.8-1.1c0.5-0.3,0.8-0.5,1.1-0.5
					c0.1,0,0.2,0,0.3,0.1c0.1,0.1,0.2,0.2,0.2,0.3c0.1,0.2,0.1,0.4,0.1,0.6C804.3,218.2,804.3,218.6,804.3,219z"/>
				<path class="st0" d="M833.9,191.5c0,0.3,0,0.6-0.1,0.9c0,0.2-0.1,0.4-0.2,0.6c-0.1,0.2-0.2,0.3-0.3,0.3
					c-0.1,0.1-0.2,0.1-0.4,0.1h-9.6v29.7c0,0.1,0,0.3-0.1,0.4c-0.1,0.1-0.2,0.2-0.4,0.3c-0.2,0.1-0.4,0.1-0.7,0.2
					c-0.3,0-0.7,0.1-1.1,0.1c-0.4,0-0.8,0-1.1-0.1c-0.3,0-0.5-0.1-0.7-0.2c-0.2-0.1-0.3-0.1-0.4-0.3c-0.1-0.1-0.1-0.2-0.1-0.4v-29.7
					h-9.6c-0.1,0-0.3,0-0.4-0.1c-0.1-0.1-0.2-0.2-0.3-0.3c-0.1-0.2-0.1-0.3-0.2-0.6c0-0.2-0.1-0.5-0.1-0.9c0-0.3,0-0.6,0.1-0.9
					c0-0.3,0.1-0.5,0.2-0.6c0.1-0.2,0.2-0.3,0.3-0.3c0.1-0.1,0.2-0.1,0.4-0.1H833c0.1,0,0.3,0,0.4,0.1c0.1,0.1,0.2,0.2,0.3,0.3
					c0.1,0.2,0.1,0.4,0.2,0.6C833.9,190.9,833.9,191.2,833.9,191.5z"/>
				<path class="st0" d="M863.6,214c0,1.1-0.1,2.1-0.4,3c-0.3,0.9-0.7,1.7-1.2,2.4c-0.5,0.7-1.1,1.4-1.8,1.9c-0.7,0.5-1.5,1-2.4,1.4
					c-0.9,0.4-1.8,0.6-2.8,0.8c-1,0.2-2.1,0.3-3.4,0.3h-8.9c-0.4,0-0.8-0.1-1.2-0.4c-0.4-0.3-0.5-0.8-0.5-1.4v-30.6
					c0-0.7,0.2-1.2,0.5-1.4c0.4-0.3,0.7-0.4,1.2-0.4h7.8c2,0,3.7,0.2,5,0.6c1.3,0.4,2.4,1,3.3,1.7c0.9,0.7,1.5,1.7,2,2.7
					c0.4,1.1,0.7,2.3,0.7,3.7c0,0.8-0.1,1.6-0.3,2.3c-0.2,0.7-0.5,1.4-0.9,2.1c-0.4,0.6-0.9,1.2-1.4,1.7c-0.6,0.5-1.2,0.9-2,1.2
					c0.9,0.2,1.8,0.5,2.6,1c0.8,0.5,1.5,1.1,2.1,1.8c0.6,0.7,1.1,1.6,1.4,2.5C863.5,211.8,863.6,212.8,863.6,214z M856.8,198.7
					c0-0.8-0.1-1.6-0.3-2.2c-0.2-0.7-0.6-1.2-1.1-1.7c-0.5-0.5-1.1-0.8-1.9-1.1c-0.8-0.2-1.8-0.4-3.1-0.4h-4.7v11.1h5.2
					c1.2,0,2.1-0.2,2.9-0.5c0.7-0.3,1.3-0.7,1.8-1.2c0.5-0.5,0.8-1.1,1-1.8C856.7,200.1,856.8,199.4,856.8,198.7z M858.9,214.3
					c0-1-0.2-1.9-0.5-2.7c-0.3-0.8-0.8-1.4-1.4-2c-0.6-0.5-1.4-0.9-2.4-1.2c-0.9-0.3-2.1-0.4-3.6-0.4h-5.4v12.1h6.6
					c1,0,1.9-0.1,2.7-0.4c0.8-0.2,1.5-0.6,2-1.1c0.6-0.5,1.1-1.1,1.4-1.8C858.7,216.1,858.9,215.2,858.9,214.3z"/>
				<path class="st0" d="M897.9,222.2c0.1,0.4,0.2,0.7,0.2,0.9c0,0.2-0.1,0.4-0.2,0.5c-0.1,0.1-0.4,0.2-0.7,0.2
					c-0.3,0-0.8,0.1-1.3,0.1c-0.5,0-1,0-1.3,0c-0.3,0-0.6-0.1-0.7-0.1c-0.2-0.1-0.3-0.1-0.4-0.3c-0.1-0.1-0.2-0.2-0.2-0.4l-2.9-8.3
					H876l-2.8,8.2c-0.1,0.2-0.1,0.3-0.2,0.4c-0.1,0.1-0.2,0.2-0.4,0.3c-0.2,0.1-0.4,0.1-0.7,0.2c-0.3,0-0.7,0.1-1.2,0.1
					c-0.5,0-0.9,0-1.3-0.1c-0.3,0-0.6-0.1-0.7-0.3c-0.1-0.1-0.2-0.3-0.2-0.5c0-0.2,0.1-0.6,0.2-0.9l11.5-31.8
					c0.1-0.2,0.2-0.4,0.3-0.5c0.1-0.1,0.3-0.2,0.5-0.3c0.2-0.1,0.5-0.1,0.8-0.1c0.3,0,0.8,0,1.3,0c0.6,0,1,0,1.4,0
					c0.4,0,0.7,0.1,0.9,0.1c0.2,0.1,0.4,0.2,0.5,0.3c0.1,0.1,0.2,0.3,0.3,0.5L897.9,222.2z M883.1,194.1L883.1,194.1l-5.9,17.1h11.9
					L883.1,194.1z"/>
			</g>
			<path class="st0" d="M363.5,191.6v-1.5c0-0.4-0.3-0.7-0.7-0.7H353c-0.4,0-0.7,0.3-0.7,0.7v1.5c0,0.4,0.3,0.7,0.7,0.7h2.6v28.8
				H353c-0.4,0-0.7,0.3-0.7,0.7v1.5c0,0.4,0.3,0.7,0.7,0.7h9.8c0.4,0,0.7-0.3,0.7-0.7v-1.5c0-0.4-0.3-0.7-0.7-0.7h-2.6v-28.8h2.6
				C363.2,192.4,363.5,192,363.5,191.6z"/>
		</g>
	</g>
</g>
</svg>
