<?xml version="1.0" encoding="utf-8"?>
<!-- Generator: Adobe Illustrator 21.0.0, SVG Export Plug-In . SVG Version: 6.00 Build 0)  -->
<svg version="1.1" id="Layer_1" xmlns="http://www.w3.org/2000/svg" xmlns:xlink="http://www.w3.org/1999/xlink" x="0px" y="0px"
	 viewBox="0 0 1257 250" style="enable-background:new 0 0 1257 250;" xml:space="preserve">
<style type="text/css">
	.st0{fill:#0069AA;}
	.st1{fill:#EDD421;}
	.st2{fill:#688708;}
	.st3{fill:#D68518;}
	.st4{fill:#0BA063;}
	.st5{fill:#A00523;}
	.st6{fill:#4E9AC4;}
</style>
<g>
	<g>
		<path class="st0" d="M120.1,100.3c6.8,22.7,36.2,30.4,48.5,12.7c13.2-19-3.1-50.5-31.1-45.8C119.7,70.3,116.7,88.8,120.1,100.3"/>
		<g>
			<path class="st1" d="M181.3,88.6c6.7,16.4,22.9,22.2,28.9,10.2c7.2-14.3-8.6-38.7-23.5-36.2C177,65.9,177.7,79.8,181.3,88.6"/>
			<path class="st1" d="M216.2,84.2c4.4,10.5,11.3,15.1,13.8,9.2c3.8-9.4-6.9-30.6-14.3-28.4C211.3,67.5,213.7,78.1,216.2,84.2"/>
			<path class="st1" d="M233,81c1.2,3.1,2.8,5.2,3.7,4.9c2.2-0.7-1.5-11.3-4.2-12.1c-0.1,0-0.3,0-0.4,0C231,74.5,231.9,78.4,233,81"
				/>
		</g>
		<g>
			<path class="st2" d="M28.1,139c4.4,14.2,21.6,16.4,29.1,3.9c7.7-12.8-2.1-31.9-18.4-27.8C27.6,119.4,25.8,131.7,28.1,139"/>
			<path class="st2" d="M6.1,150.4c2.3,8.2,10.3,10.6,14.3,4.3c4.5-7.2-0.4-20.5-9-18.5C5.6,138.3,4.8,145.8,6.1,150.4"/>
			<path class="st2" d="M68.3,124.3c7.7,17.1,30.1,18.6,39.2,2.5c8.9-15.7-2.8-40.8-26.6-34.6C66.5,97.4,63.2,112.9,68.3,124.3"/>
		</g>
		<g>
			<path class="st3" d="M141.8,56.4c14.7,10.2,31.5,6.1,30-7.3c-1.8-16-28.5-27.9-39.7-17.6C125.6,39.6,133.9,50.9,141.8,56.4"/>
			<path class="st3" d="M135.6,4.2c4.3,0.2,7.1-0.4,6.5-1.4c-1.3-2.4-16-3.7-16.8-1.4c0,0.1,0,0.3,0,0.4C126.5,3.1,132,4,135.6,4.2"
				/>
			<path class="st3" d="M150.3,23.6c8.9,0.4,11.6-4.4,5.3-9.6c-8.9-7.5-25.8-9-25.8-2.2c0,0.6,0.3,1.4,0.5,2
				C133.3,19.4,143,23.3,150.3,23.6"/>
		</g>
		<g>
			<path class="st4" d="M171.2,147.7c6.3,16.1,24.5,17.4,31.9,2.3c7.2-14.7-2.3-38.2-21.6-32.5C169.7,122.5,167,137.1,171.2,147.7"
				/>
			<path class="st4" d="M197,182c1.2,9.5,8.7,11.6,15.1,4.4c9.2-10.3,8-28.2-1.9-27.4c-0.9,0.1-2,0.5-2.9,0.8
				C199.8,163.6,196,174.3,197,182"/>
			<path class="st4" d="M206.3,206.7c-0.8,3.9,0.1,6.8,3.4,4.8c6.3-3.8,11.5-17.8,7-18.7c-0.7-0.1-1.4,0.2-2,0.4
				C210.8,195.6,207.3,202,206.3,206.7"/>
		</g>
		<g>
			<path class="st5" d="M115.7,161.8c5.7,16.2,28.2,18.5,37,3.7c8.6-14.5-3.4-34.5-22.9-29.9C114.5,140.7,113,154,115.7,161.8"/>
			<path class="st5" d="M131.5,214c11.4-3.6,12.6-19.2,1.9-24.9c-9.2-5-21.2,2-19,14.3C117.4,214,126.5,215.5,131.5,214"/>
			<path class="st5" d="M130.2,232c-2.6-6-12.9-7.4-15.6-0.6c-1.9,4.8,2.7,10.5,9.7,9.6C130.8,239.6,131.4,234.8,130.2,232"/>
		</g>
		<g>
			<path class="st6" d="M110.3,73.1c13.5-9.6,10.7-28.5-4.9-33c-15.2-4.4-34.9,10-25.3,28.6C87.3,79.7,101.4,79.5,110.3,73.1"/>
			<path class="st6" d="M55,32.1c-4.9,7.2-2.1,14.8,5.6,15.4c11,0.9,20.8-11.9,15-19.5c-0.5-0.7-1.4-1.4-2-1.9
				C67.2,22.4,58.9,26.3,55,32.1"/>
			<ellipse transform="matrix(0.7411 -0.6714 0.6714 0.7411 -5.2771 36.7002)" class="st6" cx="44.9" cy="25.2" rx="7.6" ry="4.1"/>
		</g>
	</g>
	<g>
		<g>
			<path class="st0" d="M305.4,41.4c0,1.9-0.3,3.5-0.8,5c-0.5,1.5-1.3,2.7-2.3,3.7c-1,1-2.2,1.8-3.7,2.3c-1.5,0.5-3.1,0.8-4.9,0.8
				c-1.7,0-3.2-0.2-4.6-0.7c-1.4-0.5-2.6-1.2-3.6-2.2c-1-1-1.8-2.2-2.3-3.6c-0.5-1.4-0.8-3.1-0.8-5v-19c0-0.1,0-0.2,0.1-0.3
				c0.1-0.1,0.2-0.2,0.3-0.2c0.2-0.1,0.4-0.1,0.6-0.1c0.3,0,0.6-0.1,1-0.1c0.4,0,0.7,0,1,0.1c0.3,0,0.5,0.1,0.6,0.1s0.3,0.1,0.3,0.2
				c0.1,0.1,0.1,0.2,0.1,0.3v18.5c0,1.4,0.2,2.7,0.5,3.7c0.3,1.1,0.8,1.9,1.5,2.6c0.7,0.7,1.4,1.2,2.4,1.6c0.9,0.4,2,0.5,3.1,0.5
				c1.2,0,2.2-0.2,3.2-0.5c0.9-0.3,1.7-0.9,2.3-1.6c0.6-0.7,1.1-1.6,1.5-2.6c0.3-1,0.5-2.2,0.5-3.6V22.7c0-0.1,0-0.2,0.1-0.3
				c0.1-0.1,0.2-0.2,0.3-0.2c0.2-0.1,0.4-0.1,0.6-0.1c0.3,0,0.6-0.1,1-0.1c0.4,0,0.7,0,1,0.1c0.3,0,0.5,0.1,0.6,0.1
				c0.1,0.1,0.3,0.1,0.3,0.2c0.1,0.1,0.1,0.2,0.1,0.3V41.4z"/>
			<path class="st0" d="M333.5,52c0,0.1,0,0.2-0.1,0.3c-0.1,0.1-0.2,0.2-0.3,0.2c-0.2,0.1-0.4,0.1-0.6,0.2c-0.3,0-0.6,0.1-1,0.1
				c-0.6,0-1,0-1.3-0.1c-0.3,0-0.6-0.1-0.8-0.3c-0.2-0.1-0.3-0.3-0.4-0.4l-11.3-15.3v15.3c0,0.1,0,0.2-0.1,0.3
				c-0.1,0.1-0.2,0.2-0.3,0.2c-0.2,0.1-0.4,0.1-0.6,0.1c-0.3,0-0.6,0.1-1,0.1c-0.4,0-0.7,0-1-0.1c-0.3,0-0.5-0.1-0.6-0.1
				c-0.2-0.1-0.3-0.1-0.3-0.2c-0.1-0.1-0.1-0.2-0.1-0.3V22.7c0-0.1,0-0.2,0.1-0.3c0.1-0.1,0.2-0.2,0.3-0.2c0.2-0.1,0.4-0.1,0.6-0.1
				c0.3,0,0.6-0.1,1-0.1c0.4,0,0.7,0,1,0.1c0.3,0,0.5,0.1,0.6,0.1c0.2,0.1,0.3,0.1,0.3,0.2s0.1,0.2,0.1,0.3v13.6l10.8-13.6
				c0.1-0.1,0.2-0.3,0.3-0.4c0.1-0.1,0.3-0.2,0.5-0.2c0.2-0.1,0.4-0.1,0.7-0.1c0.3,0,0.6,0,1,0c0.4,0,0.7,0,1,0.1
				c0.3,0,0.5,0.1,0.6,0.2c0.1,0.1,0.3,0.1,0.3,0.2c0.1,0.1,0.1,0.2,0.1,0.3c0,0.2-0.1,0.4-0.2,0.6c-0.1,0.2-0.3,0.5-0.6,0.9
				L322,36.3l10.9,14.5c0.3,0.4,0.4,0.7,0.5,0.8C333.4,51.8,333.5,51.9,333.5,52z"/>
			<path class="st0" d="M359.1,52.1c0,0.1,0,0.2-0.1,0.3c0,0.1-0.1,0.2-0.3,0.2c-0.2,0.1-0.4,0.1-0.7,0.1c-0.3,0-0.7,0-1.1,0
				c-0.4,0-0.7,0-1,0c-0.3,0-0.5-0.1-0.6-0.2c-0.2-0.1-0.3-0.2-0.4-0.3c-0.1-0.1-0.2-0.3-0.2-0.5l-2.8-7.2c-0.3-0.8-0.7-1.6-1-2.3
				c-0.4-0.7-0.8-1.3-1.3-1.8c-0.5-0.5-1.1-0.9-1.7-1.2c-0.7-0.3-1.5-0.4-2.4-0.4h-2.7v13c0,0.1,0,0.2-0.1,0.3
				c-0.1,0.1-0.2,0.2-0.3,0.2c-0.1,0.1-0.4,0.1-0.6,0.1c-0.3,0-0.6,0.1-1,0.1c-0.4,0-0.7,0-1-0.1c-0.3,0-0.5-0.1-0.6-0.1
				c-0.2-0.1-0.3-0.1-0.3-0.2c-0.1-0.1-0.1-0.2-0.1-0.3V23.7c0-0.6,0.2-1,0.5-1.3c0.3-0.2,0.7-0.4,1-0.4h6.5c0.8,0,1.4,0,1.9,0.1
				c0.5,0,1,0.1,1.4,0.1c1.2,0.2,2.2,0.5,3.1,1c0.9,0.4,1.7,1,2.3,1.7c0.6,0.7,1.1,1.5,1.4,2.3c0.3,0.9,0.5,1.8,0.5,2.9
				c0,1-0.1,1.9-0.4,2.8c-0.3,0.8-0.7,1.5-1.2,2.2c-0.5,0.6-1.1,1.2-1.9,1.6c-0.7,0.5-1.5,0.8-2.4,1.2c0.5,0.2,1,0.5,1.4,0.8
				c0.4,0.3,0.8,0.7,1.1,1.2c0.4,0.5,0.7,1,1,1.6c0.3,0.6,0.6,1.3,0.9,2.1l2.7,6.8c0.2,0.6,0.4,1,0.4,1.2
				C359.1,51.8,359.1,52,359.1,52.1z M353,30.6c0-1.2-0.3-2.2-0.8-3c-0.5-0.8-1.4-1.4-2.7-1.8c-0.4-0.1-0.8-0.2-1.3-0.2
				c-0.5,0-1.1-0.1-2-0.1h-3.4v10.3h4c1.1,0,2-0.1,2.8-0.4c0.8-0.3,1.4-0.6,2-1.1c0.5-0.5,0.9-1,1.1-1.6C352.9,32,353,31.3,353,30.6
				z"/>
			<path class="st0" d="M388,51.2c0.1,0.3,0.2,0.6,0.2,0.8c0,0.2-0.1,0.4-0.2,0.5c-0.1,0.1-0.3,0.2-0.6,0.2c-0.3,0-0.7,0-1.2,0
				c-0.5,0-0.9,0-1.2,0c-0.3,0-0.5-0.1-0.7-0.1c-0.2-0.1-0.3-0.1-0.3-0.2c-0.1-0.1-0.1-0.2-0.2-0.4l-2.6-7.5h-12.7l-2.5,7.4
				c0,0.1-0.1,0.3-0.2,0.4c-0.1,0.1-0.2,0.2-0.3,0.3c-0.2,0.1-0.4,0.1-0.6,0.2c-0.3,0-0.6,0-1.1,0c-0.5,0-0.8,0-1.1-0.1
				c-0.3,0-0.5-0.1-0.6-0.2c-0.1-0.1-0.2-0.3-0.2-0.5c0-0.2,0.1-0.5,0.2-0.8l10.3-28.5c0.1-0.2,0.1-0.3,0.2-0.4
				c0.1-0.1,0.3-0.2,0.4-0.3c0.2-0.1,0.5-0.1,0.8-0.1c0.3,0,0.7,0,1.2,0c0.5,0,0.9,0,1.3,0c0.3,0,0.6,0.1,0.8,0.1
				c0.2,0.1,0.4,0.2,0.5,0.3c0.1,0.1,0.2,0.3,0.3,0.4L388,51.2z M374.8,26.1L374.8,26.1l-5.3,15.3h10.7L374.8,26.1z"/>
			<path class="st0" d="M397.1,52.1c0,0.1,0,0.2-0.1,0.3c-0.1,0.1-0.2,0.2-0.3,0.2c-0.2,0.1-0.4,0.1-0.6,0.1c-0.3,0-0.6,0.1-1,0.1
				c-0.4,0-0.7,0-1-0.1c-0.3,0-0.5-0.1-0.6-0.1c-0.2-0.1-0.3-0.1-0.3-0.2c-0.1-0.1-0.1-0.2-0.1-0.3V22.7c0-0.1,0-0.2,0.1-0.3
				c0.1-0.1,0.2-0.2,0.4-0.2c0.2-0.1,0.4-0.1,0.6-0.1c0.3,0,0.6-0.1,0.9-0.1c0.4,0,0.7,0,1,0.1c0.3,0,0.5,0.1,0.6,0.1
				c0.2,0.1,0.3,0.1,0.3,0.2c0.1,0.1,0.1,0.2,0.1,0.3V52.1z"/>
			<path class="st0" d="M428.5,51c0,0.3-0.1,0.6-0.2,0.8c-0.1,0.2-0.2,0.4-0.4,0.5c-0.2,0.1-0.4,0.2-0.6,0.3
				c-0.2,0.1-0.4,0.1-0.6,0.1h-1.3c-0.4,0-0.8,0-1.1-0.1c-0.3-0.1-0.6-0.2-0.9-0.5c-0.3-0.2-0.6-0.5-0.9-0.9
				c-0.3-0.4-0.6-0.9-0.9-1.5l-9.3-17.4c-0.5-0.9-1-1.8-1.5-2.8c-0.5-1-1-1.9-1.4-2.9h0c0,1.1,0.1,2.3,0.1,3.5c0,1.2,0,2.4,0,3.5
				v18.5c0,0.1,0,0.2-0.1,0.3c-0.1,0.1-0.2,0.2-0.3,0.2c-0.2,0.1-0.4,0.1-0.6,0.1c-0.3,0-0.6,0.1-1,0.1c-0.4,0-0.7,0-1-0.1
				c-0.3,0-0.5-0.1-0.6-0.1c-0.1-0.1-0.3-0.1-0.3-0.2c-0.1-0.1-0.1-0.2-0.1-0.3V23.8c0-0.6,0.2-1.1,0.5-1.3c0.4-0.3,0.8-0.4,1.2-0.4
				h2c0.5,0,0.9,0,1.2,0.1s0.6,0.2,0.9,0.4c0.3,0.2,0.5,0.4,0.7,0.8c0.2,0.3,0.5,0.7,0.7,1.2l7.2,13.5c0.4,0.8,0.9,1.6,1.3,2.4
				c0.4,0.8,0.8,1.6,1.2,2.3c0.4,0.8,0.8,1.5,1.1,2.2c0.4,0.7,0.7,1.5,1.1,2.2h0c0-1.2-0.1-2.5-0.1-3.9c0-1.3,0-2.6,0-3.9V22.7
				c0-0.1,0-0.2,0.1-0.3c0.1-0.1,0.2-0.2,0.3-0.2c0.2-0.1,0.4-0.1,0.6-0.2c0.3,0,0.6,0,1,0c0.4,0,0.7,0,0.9,0c0.3,0,0.5,0.1,0.6,0.2
				c0.1,0.1,0.3,0.2,0.3,0.2c0.1,0.1,0.1,0.2,0.1,0.3V51z"/>
			<path class="st0" d="M440.7,52.1c0,0.1,0,0.2-0.1,0.3c-0.1,0.1-0.2,0.2-0.3,0.2c-0.2,0.1-0.4,0.1-0.6,0.1c-0.3,0-0.6,0.1-1,0.1
				c-0.4,0-0.7,0-1-0.1c-0.3,0-0.5-0.1-0.6-0.1c-0.2-0.1-0.3-0.1-0.3-0.2c-0.1-0.1-0.1-0.2-0.1-0.3V22.7c0-0.1,0-0.2,0.1-0.3
				c0.1-0.1,0.2-0.2,0.4-0.2c0.2-0.1,0.4-0.1,0.6-0.1c0.3,0,0.6-0.1,0.9-0.1c0.4,0,0.7,0,1,0.1c0.3,0,0.5,0.1,0.6,0.1
				c0.2,0.1,0.3,0.1,0.3,0.2c0.1,0.1,0.1,0.2,0.1,0.3V52.1z"/>
			<path class="st0" d="M471.8,51.2c0.1,0.3,0.2,0.6,0.2,0.8c0,0.2-0.1,0.4-0.2,0.5c-0.1,0.1-0.3,0.2-0.6,0.2c-0.3,0-0.7,0-1.2,0
				c-0.5,0-0.9,0-1.2,0c-0.3,0-0.5-0.1-0.7-0.1c-0.2-0.1-0.3-0.1-0.3-0.2c-0.1-0.1-0.1-0.2-0.2-0.4l-2.6-7.5h-12.7l-2.5,7.4
				c0,0.1-0.1,0.3-0.2,0.4c-0.1,0.1-0.2,0.2-0.3,0.3c-0.2,0.1-0.4,0.1-0.6,0.2c-0.3,0-0.6,0-1.1,0c-0.5,0-0.8,0-1.1-0.1
				c-0.3,0-0.5-0.1-0.6-0.2c-0.1-0.1-0.2-0.3-0.2-0.5c0-0.2,0.1-0.5,0.2-0.8l10.3-28.5c0.1-0.2,0.1-0.3,0.2-0.4
				c0.1-0.1,0.3-0.2,0.4-0.3c0.2-0.1,0.5-0.1,0.8-0.1c0.3,0,0.7,0,1.2,0c0.5,0,0.9,0,1.3,0c0.3,0,0.6,0.1,0.8,0.1
				c0.2,0.1,0.4,0.2,0.5,0.3c0.1,0.1,0.2,0.3,0.3,0.4L471.8,51.2z M458.6,26.1L458.6,26.1l-5.3,15.3h10.7L458.6,26.1z"/>
			<path class="st0" d="M500,51c0,0.3-0.1,0.6-0.2,0.8c-0.1,0.2-0.2,0.4-0.4,0.5c-0.2,0.1-0.4,0.2-0.6,0.3c-0.2,0.1-0.4,0.1-0.6,0.1
				h-1.3c-0.4,0-0.8,0-1.1-0.1c-0.3-0.1-0.6-0.2-0.9-0.5c-0.3-0.2-0.6-0.5-0.9-0.9c-0.3-0.4-0.6-0.9-0.9-1.5l-9.3-17.4
				c-0.5-0.9-1-1.8-1.5-2.8c-0.5-1-1-1.9-1.4-2.9h0c0,1.1,0.1,2.3,0.1,3.5c0,1.2,0,2.4,0,3.5v18.5c0,0.1,0,0.2-0.1,0.3
				c-0.1,0.1-0.2,0.2-0.3,0.2c-0.2,0.1-0.4,0.1-0.6,0.1c-0.3,0-0.6,0.1-1,0.1c-0.4,0-0.7,0-1-0.1c-0.3,0-0.5-0.1-0.6-0.1
				c-0.1-0.1-0.3-0.1-0.3-0.2c-0.1-0.1-0.1-0.2-0.1-0.3V23.8c0-0.6,0.2-1.1,0.5-1.3c0.4-0.3,0.8-0.4,1.2-0.4h2c0.5,0,0.9,0,1.2,0.1
				c0.3,0.1,0.6,0.2,0.9,0.4c0.3,0.2,0.5,0.4,0.7,0.8c0.2,0.3,0.5,0.7,0.7,1.2l7.2,13.5c0.4,0.8,0.9,1.6,1.3,2.4
				c0.4,0.8,0.8,1.6,1.2,2.3c0.4,0.8,0.8,1.5,1.1,2.2c0.4,0.7,0.7,1.5,1.1,2.2h0c0-1.2-0.1-2.5-0.1-3.9c0-1.3,0-2.6,0-3.9V22.7
				c0-0.1,0-0.2,0.1-0.3c0.1-0.1,0.2-0.2,0.3-0.2c0.2-0.1,0.4-0.1,0.6-0.2c0.3,0,0.6,0,1,0c0.4,0,0.7,0,0.9,0c0.3,0,0.5,0.1,0.6,0.2
				c0.1,0.1,0.3,0.2,0.3,0.2c0.1,0.1,0.1,0.2,0.1,0.3V51z"/>
			<path class="st0" d="M542.3,51c0,0.3-0.1,0.6-0.2,0.8c-0.1,0.2-0.2,0.4-0.4,0.5c-0.2,0.1-0.4,0.2-0.6,0.3
				c-0.2,0.1-0.4,0.1-0.6,0.1h-1.3c-0.4,0-0.8,0-1.1-0.1c-0.3-0.1-0.6-0.2-0.9-0.5c-0.3-0.2-0.6-0.5-0.9-0.9
				c-0.3-0.4-0.6-0.9-0.9-1.5l-9.3-17.4c-0.5-0.9-1-1.8-1.5-2.8c-0.5-1-1-1.9-1.4-2.9h0c0,1.1,0.1,2.3,0.1,3.5c0,1.2,0,2.4,0,3.5
				v18.5c0,0.1,0,0.2-0.1,0.3c-0.1,0.1-0.2,0.2-0.3,0.2c-0.2,0.1-0.4,0.1-0.6,0.1c-0.3,0-0.6,0.1-1,0.1c-0.4,0-0.7,0-1-0.1
				c-0.3,0-0.5-0.1-0.6-0.1c-0.1-0.1-0.3-0.1-0.3-0.2c-0.1-0.1-0.1-0.2-0.1-0.3V23.8c0-0.6,0.2-1.1,0.5-1.3c0.4-0.3,0.8-0.4,1.2-0.4
				h2c0.5,0,0.9,0,1.2,0.1c0.3,0.1,0.6,0.2,0.9,0.4c0.3,0.2,0.5,0.4,0.7,0.8c0.2,0.3,0.5,0.7,0.7,1.2l7.2,13.5
				c0.4,0.8,0.9,1.6,1.3,2.4c0.4,0.8,0.8,1.6,1.2,2.3c0.4,0.8,0.8,1.5,1.1,2.2c0.4,0.7,0.7,1.5,1.1,2.2h0c0-1.2-0.1-2.5-0.1-3.9
				c0-1.3,0-2.6,0-3.9V22.7c0-0.1,0-0.2,0.1-0.3c0.1-0.1,0.2-0.2,0.3-0.2c0.2-0.1,0.4-0.1,0.6-0.2c0.3,0,0.6,0,1,0
				c0.4,0,0.7,0,0.9,0c0.3,0,0.5,0.1,0.6,0.2c0.1,0.1,0.3,0.2,0.3,0.2c0.1,0.1,0.1,0.2,0.1,0.3V51z"/>
			<path class="st0" d="M573.4,51.2c0.1,0.3,0.2,0.6,0.2,0.8c0,0.2-0.1,0.4-0.2,0.5c-0.1,0.1-0.3,0.2-0.6,0.2c-0.3,0-0.7,0-1.2,0
				c-0.5,0-0.9,0-1.2,0c-0.3,0-0.5-0.1-0.7-0.1c-0.2-0.1-0.3-0.1-0.3-0.2c-0.1-0.1-0.1-0.2-0.2-0.4l-2.6-7.5h-12.7l-2.5,7.4
				c0,0.1-0.1,0.3-0.2,0.4c-0.1,0.1-0.2,0.2-0.3,0.3c-0.2,0.1-0.4,0.1-0.6,0.2c-0.3,0-0.6,0-1.1,0c-0.5,0-0.8,0-1.1-0.1
				c-0.3,0-0.5-0.1-0.6-0.2c-0.1-0.1-0.2-0.3-0.2-0.5c0-0.2,0.1-0.5,0.2-0.8l10.3-28.5c0.1-0.2,0.1-0.3,0.2-0.4
				c0.1-0.1,0.3-0.2,0.4-0.3c0.2-0.1,0.5-0.1,0.8-0.1c0.3,0,0.7,0,1.2,0c0.5,0,0.9,0,1.3,0c0.3,0,0.6,0.1,0.8,0.1
				c0.2,0.1,0.4,0.2,0.5,0.3c0.1,0.1,0.2,0.3,0.3,0.4L573.4,51.2z M560.2,26.1L560.2,26.1l-5.3,15.3h10.7L560.2,26.1z"/>
			<path class="st0" d="M593.9,23.8c0,0.3,0,0.6,0,0.8c0,0.2-0.1,0.4-0.2,0.5c-0.1,0.1-0.2,0.2-0.3,0.3c-0.1,0.1-0.2,0.1-0.3,0.1
				h-8.6v26.6c0,0.1,0,0.2-0.1,0.3c-0.1,0.1-0.2,0.2-0.3,0.2c-0.2,0.1-0.4,0.1-0.6,0.1c-0.3,0-0.6,0.1-1,0.1c-0.4,0-0.7,0-1-0.1
				c-0.3,0-0.5-0.1-0.6-0.1c-0.2-0.1-0.3-0.1-0.3-0.2c-0.1-0.1-0.1-0.2-0.1-0.3V25.5h-8.6c-0.1,0-0.2,0-0.3-0.1
				c-0.1-0.1-0.2-0.2-0.2-0.3c-0.1-0.1-0.1-0.3-0.2-0.5c0-0.2-0.1-0.5-0.1-0.8c0-0.3,0-0.6,0.1-0.8c0-0.2,0.1-0.4,0.2-0.6
				c0.1-0.1,0.1-0.2,0.2-0.3c0.1-0.1,0.2-0.1,0.3-0.1h21.3c0.1,0,0.2,0,0.3,0.1c0.1,0.1,0.2,0.2,0.3,0.3c0.1,0.1,0.1,0.3,0.2,0.6
				C593.9,23.2,593.9,23.5,593.9,23.8z"/>
			<path class="st0" d="M602.5,52.1c0,0.1,0,0.2-0.1,0.3c-0.1,0.1-0.2,0.2-0.3,0.2c-0.2,0.1-0.4,0.1-0.6,0.1c-0.3,0-0.6,0.1-1,0.1
				c-0.4,0-0.7,0-1-0.1c-0.3,0-0.5-0.1-0.6-0.1c-0.2-0.1-0.3-0.1-0.3-0.2c-0.1-0.1-0.1-0.2-0.1-0.3V22.7c0-0.1,0-0.2,0.1-0.3
				c0.1-0.1,0.2-0.2,0.4-0.2c0.2-0.1,0.4-0.1,0.6-0.1c0.3,0,0.6-0.1,0.9-0.1c0.4,0,0.7,0,1,0.1c0.3,0,0.5,0.1,0.6,0.1
				c0.2,0.1,0.3,0.1,0.3,0.2c0.1,0.1,0.1,0.2,0.1,0.3V52.1z"/>
			<path class="st0" d="M636.3,37c0,2.5-0.3,4.7-0.9,6.7c-0.6,2-1.5,3.7-2.6,5.1c-1.2,1.4-2.6,2.5-4.4,3.2c-1.8,0.7-3.8,1.1-6.1,1.1
				c-2.3,0-4.3-0.3-6-1c-1.7-0.7-3.1-1.7-4.2-3c-1.1-1.3-1.9-2.9-2.5-4.9c-0.5-1.9-0.8-4.2-0.8-6.7c0-2.4,0.3-4.6,0.9-6.6
				c0.6-2,1.5-3.7,2.6-5c1.2-1.4,2.6-2.4,4.4-3.2c1.8-0.7,3.8-1.1,6.1-1.1c2.3,0,4.2,0.3,5.9,1c1.7,0.7,3.1,1.7,4.2,3
				c1.1,1.3,1.9,2.9,2.5,4.8C636,32.3,636.3,34.5,636.3,37z M632,37.3c0-1.7-0.2-3.4-0.5-4.8c-0.3-1.5-0.8-2.8-1.5-3.9
				c-0.7-1.1-1.7-2-2.9-2.6c-1.2-0.6-2.7-0.9-4.4-0.9s-3.2,0.3-4.4,1c-1.2,0.7-2.2,1.5-2.9,2.7c-0.7,1.1-1.3,2.4-1.6,3.9
				c-0.3,1.5-0.5,3-0.5,4.7c0,1.8,0.1,3.5,0.4,5c0.3,1.5,0.8,2.8,1.5,3.9c0.7,1.1,1.7,2,2.9,2.6c1.2,0.6,2.7,0.9,4.5,0.9
				c1.8,0,3.3-0.3,4.5-1c1.2-0.7,2.2-1.6,2.9-2.7c0.7-1.1,1.3-2.4,1.6-3.9C631.8,40.5,632,39,632,37.3z"/>
			<path class="st0" d="M665.9,51c0,0.3-0.1,0.6-0.2,0.8c-0.1,0.2-0.2,0.4-0.4,0.5c-0.2,0.1-0.4,0.2-0.6,0.3
				c-0.2,0.1-0.4,0.1-0.6,0.1h-1.3c-0.4,0-0.8,0-1.1-0.1c-0.3-0.1-0.6-0.2-0.9-0.5c-0.3-0.2-0.6-0.5-0.9-0.9
				c-0.3-0.4-0.6-0.9-0.9-1.5l-9.3-17.4c-0.5-0.9-1-1.8-1.5-2.8c-0.5-1-1-1.9-1.4-2.9h0c0,1.1,0.1,2.3,0.1,3.5c0,1.2,0,2.4,0,3.5
				v18.5c0,0.1,0,0.2-0.1,0.3c-0.1,0.1-0.2,0.2-0.3,0.2c-0.2,0.1-0.4,0.1-0.6,0.1c-0.3,0-0.6,0.1-1,0.1c-0.4,0-0.7,0-1-0.1
				c-0.3,0-0.5-0.1-0.6-0.1c-0.1-0.1-0.3-0.1-0.3-0.2c-0.1-0.1-0.1-0.2-0.1-0.3V23.8c0-0.6,0.2-1.1,0.5-1.3c0.4-0.3,0.8-0.4,1.2-0.4
				h2c0.5,0,0.9,0,1.2,0.1c0.3,0.1,0.6,0.2,0.9,0.4c0.3,0.2,0.5,0.4,0.7,0.8c0.2,0.3,0.5,0.7,0.7,1.2l7.2,13.5
				c0.4,0.8,0.9,1.6,1.3,2.4c0.4,0.8,0.8,1.6,1.2,2.3c0.4,0.8,0.8,1.5,1.1,2.2c0.4,0.7,0.7,1.5,1.1,2.2h0c0-1.2-0.1-2.5-0.1-3.9
				c0-1.3,0-2.6,0-3.9V22.7c0-0.1,0-0.2,0.1-0.3c0.1-0.1,0.2-0.2,0.3-0.2c0.2-0.1,0.4-0.1,0.6-0.2c0.3,0,0.6,0,1,0
				c0.4,0,0.7,0,0.9,0c0.3,0,0.5,0.1,0.6,0.2c0.1,0.1,0.3,0.2,0.3,0.2c0.1,0.1,0.1,0.2,0.1,0.3V51z"/>
			<path class="st0" d="M697,51.2c0.1,0.3,0.2,0.6,0.2,0.8c0,0.2-0.1,0.4-0.2,0.5c-0.1,0.1-0.3,0.2-0.6,0.2c-0.3,0-0.7,0-1.2,0
				c-0.5,0-0.9,0-1.2,0c-0.3,0-0.5-0.1-0.7-0.1c-0.2-0.1-0.3-0.1-0.3-0.2c-0.1-0.1-0.1-0.2-0.2-0.4l-2.6-7.5h-12.7l-2.5,7.4
				c0,0.1-0.1,0.3-0.2,0.4c-0.1,0.1-0.2,0.2-0.3,0.3c-0.2,0.1-0.4,0.1-0.6,0.2c-0.3,0-0.6,0-1.1,0c-0.5,0-0.8,0-1.1-0.1
				c-0.3,0-0.5-0.1-0.6-0.2c-0.1-0.1-0.2-0.3-0.2-0.5c0-0.2,0.1-0.5,0.2-0.8l10.3-28.5c0.1-0.2,0.1-0.3,0.2-0.4
				c0.1-0.1,0.3-0.2,0.4-0.3c0.2-0.1,0.5-0.1,0.8-0.1c0.3,0,0.7,0,1.2,0c0.5,0,0.9,0,1.3,0c0.3,0,0.6,0.1,0.8,0.1
				c0.2,0.1,0.4,0.2,0.5,0.3c0.1,0.1,0.2,0.3,0.3,0.4L697,51.2z M683.8,26.1L683.8,26.1l-5.3,15.3h10.7L683.8,26.1z"/>
			<path class="st0" d="M718,50.9c0,0.3,0,0.6,0,0.8c0,0.2-0.1,0.4-0.2,0.5c-0.1,0.2-0.2,0.3-0.3,0.3c-0.1,0.1-0.2,0.1-0.4,0.1
				h-13.5c-0.4,0-0.7-0.1-1-0.4c-0.3-0.2-0.5-0.7-0.5-1.3V22.7c0-0.1,0-0.2,0.1-0.3s0.2-0.2,0.3-0.2s0.4-0.1,0.6-0.1
				c0.3,0,0.6-0.1,1-0.1c0.4,0,0.7,0,1,0.1c0.3,0,0.5,0.1,0.6,0.1s0.3,0.1,0.3,0.2s0.1,0.2,0.1,0.3v26.5h11c0.1,0,0.3,0,0.4,0.1
				c0.1,0.1,0.2,0.2,0.3,0.3c0.1,0.1,0.1,0.3,0.2,0.5C718,50.3,718,50.6,718,50.9z"/>
			<path class="st0" d="M752.3,31c0,1.5-0.3,2.9-0.8,4.1c-0.5,1.2-1.2,2.3-2.2,3.2c-0.9,0.9-2.1,1.5-3.5,2c-1.4,0.5-3,0.7-4.9,0.7
				h-3.5v11c0,0.1,0,0.2-0.1,0.3c-0.1,0.1-0.2,0.2-0.3,0.2c-0.1,0.1-0.4,0.1-0.6,0.1c-0.3,0-0.6,0.1-1,0.1c-0.4,0-0.7,0-1-0.1
				c-0.3,0-0.5-0.1-0.6-0.1c-0.2-0.1-0.3-0.1-0.3-0.2c-0.1-0.1-0.1-0.2-0.1-0.3V23.8c0-0.6,0.2-1.1,0.5-1.3c0.3-0.3,0.7-0.4,1.1-0.4
				h6.6c0.7,0,1.3,0,1.9,0.1c0.6,0.1,1.3,0.2,2.2,0.4c0.8,0.2,1.7,0.5,2.5,1c0.9,0.5,1.6,1.1,2.2,1.8c0.6,0.7,1.1,1.6,1.4,2.5
				C752.1,28.8,752.3,29.9,752.3,31z M748,31.4c0-1.2-0.2-2.3-0.7-3.1c-0.5-0.8-1-1.5-1.7-1.9c-0.7-0.4-1.4-0.7-2.1-0.8
				c-0.7-0.1-1.4-0.2-2.1-0.2h-3.8v12.3h3.7c1.2,0,2.3-0.2,3.1-0.5c0.8-0.3,1.5-0.8,2-1.3c0.6-0.6,1-1.2,1.3-2
				C747.8,33.1,748,32.3,748,31.4z"/>
			<path class="st0" d="M774.4,50.9c0,0.3,0,0.6,0,0.8c0,0.2-0.1,0.4-0.2,0.5c-0.1,0.2-0.2,0.3-0.3,0.3c-0.1,0.1-0.2,0.1-0.4,0.1
				H760c-0.4,0-0.7-0.1-1-0.4c-0.3-0.2-0.5-0.7-0.5-1.3V22.7c0-0.1,0-0.2,0.1-0.3s0.2-0.2,0.3-0.2c0.2-0.1,0.4-0.1,0.6-0.1
				c0.3,0,0.6-0.1,1-0.1c0.4,0,0.7,0,1,0.1c0.3,0,0.5,0.1,0.6,0.1c0.2,0.1,0.3,0.1,0.3,0.2c0.1,0.1,0.1,0.2,0.1,0.3v26.5h11
				c0.1,0,0.3,0,0.4,0.1c0.1,0.1,0.2,0.2,0.3,0.3c0.1,0.1,0.1,0.3,0.2,0.5C774.4,50.3,774.4,50.6,774.4,50.9z"/>
			<path class="st0" d="M801.8,51.2c0.1,0.3,0.2,0.6,0.2,0.8c0,0.2-0.1,0.4-0.2,0.5c-0.1,0.1-0.3,0.2-0.6,0.2c-0.3,0-0.7,0-1.2,0
				c-0.5,0-0.9,0-1.2,0c-0.3,0-0.5-0.1-0.7-0.1c-0.2-0.1-0.3-0.1-0.3-0.2c-0.1-0.1-0.1-0.2-0.2-0.4l-2.6-7.5h-12.7l-2.5,7.4
				c0,0.1-0.1,0.3-0.2,0.4c-0.1,0.1-0.2,0.2-0.3,0.3c-0.2,0.1-0.4,0.1-0.6,0.2c-0.3,0-0.6,0-1.1,0c-0.5,0-0.8,0-1.1-0.1
				c-0.3,0-0.5-0.1-0.6-0.2c-0.1-0.1-0.2-0.3-0.2-0.5c0-0.2,0.1-0.5,0.2-0.8l10.3-28.5c0.1-0.2,0.1-0.3,0.2-0.4
				c0.1-0.1,0.3-0.2,0.4-0.3c0.2-0.1,0.5-0.1,0.8-0.1c0.3,0,0.7,0,1.2,0c0.5,0,0.9,0,1.3,0c0.3,0,0.6,0.1,0.8,0.1
				c0.2,0.1,0.4,0.2,0.5,0.3c0.1,0.1,0.2,0.3,0.3,0.4L801.8,51.2z M788.6,26.1L788.6,26.1l-5.3,15.3H794L788.6,26.1z"/>
			<path class="st0" d="M822.4,23.8c0,0.3,0,0.6,0,0.8c0,0.2-0.1,0.4-0.2,0.5c-0.1,0.1-0.2,0.2-0.3,0.3c-0.1,0.1-0.2,0.1-0.3,0.1
				h-8.6v26.6c0,0.1,0,0.2-0.1,0.3c-0.1,0.1-0.2,0.2-0.3,0.2c-0.2,0.1-0.4,0.1-0.6,0.1c-0.3,0-0.6,0.1-1,0.1c-0.4,0-0.7,0-1-0.1
				c-0.3,0-0.5-0.1-0.6-0.1c-0.2-0.1-0.3-0.1-0.3-0.2c-0.1-0.1-0.1-0.2-0.1-0.3V25.5h-8.6c-0.1,0-0.2,0-0.3-0.1
				c-0.1-0.1-0.2-0.2-0.2-0.3c-0.1-0.1-0.1-0.3-0.2-0.5c0-0.2-0.1-0.5-0.1-0.8c0-0.3,0-0.6,0.1-0.8c0-0.2,0.1-0.4,0.2-0.6
				c0.1-0.1,0.1-0.2,0.2-0.3c0.1-0.1,0.2-0.1,0.3-0.1h21.3c0.1,0,0.2,0,0.3,0.1c0.1,0.1,0.2,0.2,0.3,0.3c0.1,0.1,0.1,0.3,0.2,0.6
				C822.4,23.2,822.4,23.5,822.4,23.8z"/>
			<path class="st0" d="M842.9,23.8c0,0.3,0,0.6,0,0.8c0,0.2-0.1,0.4-0.2,0.5c-0.1,0.1-0.2,0.2-0.3,0.3c-0.1,0.1-0.2,0.1-0.3,0.1
				h-11.2v10.4h10.6c0.1,0,0.2,0,0.3,0.1c0.1,0.1,0.2,0.1,0.3,0.3c0.1,0.1,0.1,0.3,0.2,0.5c0,0.2,0,0.5,0,0.8c0,0.3,0,0.6,0,0.8
				c0,0.2-0.1,0.4-0.2,0.5c-0.1,0.1-0.2,0.2-0.3,0.3c-0.1,0.1-0.2,0.1-0.3,0.1h-10.6v12.8c0,0.1,0,0.2-0.1,0.3
				c-0.1,0.1-0.2,0.2-0.3,0.2c-0.2,0.1-0.4,0.1-0.6,0.1c-0.3,0-0.6,0.1-1,0.1c-0.4,0-0.7,0-1-0.1c-0.3,0-0.5-0.1-0.6-0.1
				c-0.2-0.1-0.3-0.1-0.3-0.2c-0.1-0.1-0.1-0.2-0.1-0.3V23.7c0-0.6,0.2-1,0.5-1.3c0.3-0.2,0.7-0.4,1-0.4h13.8c0.1,0,0.2,0,0.3,0.1
				c0.1,0.1,0.2,0.2,0.3,0.3c0.1,0.1,0.1,0.3,0.2,0.6C842.9,23.2,842.9,23.5,842.9,23.8z"/>
			<path class="st0" d="M874.3,37c0,2.5-0.3,4.7-0.9,6.7c-0.6,2-1.5,3.7-2.6,5.1c-1.2,1.4-2.6,2.5-4.4,3.2c-1.8,0.7-3.8,1.1-6.1,1.1
				c-2.3,0-4.3-0.3-6-1c-1.7-0.7-3.1-1.7-4.2-3c-1.1-1.3-1.9-2.9-2.5-4.9c-0.5-1.9-0.8-4.2-0.8-6.7c0-2.4,0.3-4.6,0.9-6.6
				s1.5-3.7,2.6-5c1.2-1.4,2.6-2.4,4.4-3.2c1.8-0.7,3.8-1.1,6.1-1.1c2.3,0,4.2,0.3,5.9,1c1.7,0.7,3.1,1.7,4.2,3
				c1.1,1.3,1.9,2.9,2.5,4.8C874.1,32.3,874.3,34.5,874.3,37z M870,37.3c0-1.7-0.2-3.4-0.5-4.8c-0.3-1.5-0.8-2.8-1.5-3.9
				c-0.7-1.1-1.7-2-2.9-2.6c-1.2-0.6-2.7-0.9-4.4-0.9c-1.8,0-3.2,0.3-4.4,1c-1.2,0.7-2.2,1.5-2.9,2.7c-0.7,1.1-1.3,2.4-1.6,3.9
				c-0.3,1.5-0.5,3-0.5,4.7c0,1.8,0.1,3.5,0.4,5c0.3,1.5,0.8,2.8,1.5,3.9c0.7,1.1,1.7,2,2.9,2.6c1.2,0.6,2.7,0.9,4.5,0.9
				c1.8,0,3.3-0.3,4.5-1c1.2-0.7,2.2-1.6,2.9-2.7c0.7-1.1,1.3-2.4,1.6-3.9C869.9,40.5,870,39,870,37.3z"/>
			<path class="st0" d="M901.2,52.1c0,0.1,0,0.2-0.1,0.3c0,0.1-0.1,0.2-0.3,0.2c-0.2,0.1-0.4,0.1-0.7,0.1c-0.3,0-0.7,0-1.1,0
				c-0.4,0-0.7,0-1,0c-0.3,0-0.5-0.1-0.6-0.2c-0.2-0.1-0.3-0.2-0.4-0.3c-0.1-0.1-0.2-0.3-0.2-0.5l-2.8-7.2c-0.3-0.8-0.7-1.6-1-2.3
				c-0.4-0.7-0.8-1.3-1.3-1.8c-0.5-0.5-1.1-0.9-1.7-1.2c-0.7-0.3-1.5-0.4-2.4-0.4h-2.7v13c0,0.1,0,0.2-0.1,0.3
				c-0.1,0.1-0.2,0.2-0.3,0.2c-0.1,0.1-0.4,0.1-0.6,0.1c-0.3,0-0.6,0.1-1,0.1c-0.4,0-0.7,0-1-0.1c-0.3,0-0.5-0.1-0.6-0.1
				c-0.2-0.1-0.3-0.1-0.3-0.2c-0.1-0.1-0.1-0.2-0.1-0.3V23.7c0-0.6,0.2-1,0.5-1.3c0.3-0.2,0.7-0.4,1-0.4h6.5c0.8,0,1.4,0,1.9,0.1
				c0.5,0,1,0.1,1.4,0.1c1.2,0.2,2.2,0.5,3.1,1c0.9,0.4,1.7,1,2.3,1.7c0.6,0.7,1.1,1.5,1.4,2.3c0.3,0.9,0.5,1.8,0.5,2.9
				c0,1-0.1,1.9-0.4,2.8c-0.3,0.8-0.7,1.5-1.2,2.2c-0.5,0.6-1.1,1.2-1.9,1.6c-0.7,0.5-1.5,0.8-2.4,1.2c0.5,0.2,1,0.5,1.4,0.8
				c0.4,0.3,0.8,0.7,1.1,1.2c0.4,0.5,0.7,1,1,1.6c0.3,0.6,0.6,1.3,0.9,2.1l2.7,6.8c0.2,0.6,0.4,1,0.4,1.2
				C901.2,51.8,901.2,52,901.2,52.1z M895.1,30.6c0-1.2-0.3-2.2-0.8-3c-0.5-0.8-1.4-1.4-2.7-1.8c-0.4-0.1-0.8-0.2-1.3-0.2
				c-0.5,0-1.1-0.1-2-0.1h-3.4v10.3h4c1.1,0,2-0.1,2.8-0.4c0.8-0.3,1.4-0.6,2-1.1s0.9-1,1.1-1.6C894.9,32,895.1,31.3,895.1,30.6z"/>
			<path class="st0" d="M940.4,52.1c0,0.1,0,0.2-0.1,0.3c-0.1,0.1-0.2,0.2-0.3,0.2c-0.2,0.1-0.4,0.1-0.6,0.1c-0.3,0-0.6,0.1-1,0.1
				c-0.4,0-0.7,0-1-0.1c-0.3,0-0.5-0.1-0.6-0.1c-0.2-0.1-0.3-0.1-0.3-0.2c-0.1-0.1-0.1-0.2-0.1-0.3V25.4h0l-10.8,26.8
				c0,0.1-0.1,0.2-0.2,0.3c-0.1,0.1-0.2,0.1-0.4,0.2c-0.2,0.1-0.4,0.1-0.6,0.1c-0.2,0-0.5,0-0.8,0c-0.3,0-0.6,0-0.9,0
				c-0.2,0-0.4-0.1-0.6-0.1c-0.2-0.1-0.3-0.1-0.4-0.2c-0.1-0.1-0.1-0.2-0.2-0.3l-10.3-26.8h0v26.7c0,0.1,0,0.2-0.1,0.3
				c-0.1,0.1-0.2,0.2-0.3,0.2c-0.2,0.1-0.4,0.1-0.6,0.1c-0.3,0-0.6,0.1-1,0.1c-0.4,0-0.7,0-1-0.1c-0.3,0-0.5-0.1-0.6-0.1
				c-0.2-0.1-0.3-0.1-0.3-0.2c-0.1-0.1-0.1-0.2-0.1-0.3V23.9c0-0.7,0.2-1.1,0.5-1.4c0.4-0.3,0.7-0.4,1.2-0.4h2.5c0.5,0,1,0,1.3,0.1
				c0.4,0.1,0.7,0.2,1,0.5c0.3,0.2,0.5,0.5,0.7,0.8c0.2,0.3,0.4,0.7,0.5,1.1l8.8,22.2h0.1l9.1-22.1c0.2-0.5,0.4-0.9,0.6-1.2
				c0.2-0.3,0.4-0.6,0.7-0.8c0.2-0.2,0.5-0.3,0.8-0.4c0.3-0.1,0.7-0.1,1.1-0.1h2.6c0.2,0,0.5,0,0.7,0.1c0.2,0.1,0.4,0.2,0.6,0.3
				c0.2,0.2,0.3,0.3,0.4,0.6c0.1,0.2,0.1,0.5,0.1,0.8V52.1z"/>
			<path class="st0" d="M985.2,37c0,2.5-0.3,4.7-0.9,6.7c-0.6,2-1.5,3.7-2.6,5.1c-1.2,1.4-2.6,2.5-4.4,3.2c-1.8,0.7-3.8,1.1-6.1,1.1
				c-2.3,0-4.3-0.3-6-1c-1.7-0.7-3.1-1.7-4.2-3c-1.1-1.3-1.9-2.9-2.5-4.9c-0.5-1.9-0.8-4.2-0.8-6.7c0-2.4,0.3-4.6,0.9-6.6
				c0.6-2,1.5-3.7,2.6-5c1.2-1.4,2.6-2.4,4.4-3.2c1.8-0.7,3.8-1.1,6.1-1.1c2.3,0,4.2,0.3,5.9,1c1.7,0.7,3.1,1.7,4.2,3
				c1.1,1.3,1.9,2.9,2.5,4.8C984.9,32.3,985.2,34.5,985.2,37z M980.9,37.3c0-1.7-0.2-3.4-0.5-4.8c-0.3-1.5-0.8-2.8-1.5-3.9
				c-0.7-1.1-1.7-2-2.9-2.6c-1.2-0.6-2.7-0.9-4.4-0.9c-1.8,0-3.2,0.3-4.4,1c-1.2,0.7-2.2,1.5-2.9,2.7c-0.7,1.1-1.3,2.4-1.6,3.9
				c-0.3,1.5-0.5,3-0.5,4.7c0,1.8,0.1,3.5,0.4,5c0.3,1.5,0.8,2.8,1.5,3.9c0.7,1.1,1.7,2,2.9,2.6c1.2,0.6,2.7,0.9,4.5,0.9
				c1.8,0,3.3-0.3,4.5-1c1.2-0.7,2.2-1.6,2.9-2.7c0.7-1.1,1.3-2.4,1.6-3.9C980.7,40.5,980.9,39,980.9,37.3z"/>
			<path class="st0" d="M1007.8,23.8c0,0.3,0,0.6,0,0.8c0,0.2-0.1,0.4-0.2,0.5c-0.1,0.1-0.2,0.2-0.3,0.3c-0.1,0.1-0.2,0.1-0.3,0.1
				h-11.2v10.4h10.6c0.1,0,0.2,0,0.3,0.1c0.1,0.1,0.2,0.1,0.3,0.3c0.1,0.1,0.1,0.3,0.2,0.5c0,0.2,0,0.5,0,0.8c0,0.3,0,0.6,0,0.8
				c0,0.2-0.1,0.4-0.2,0.5c-0.1,0.1-0.2,0.2-0.3,0.3c-0.1,0.1-0.2,0.1-0.3,0.1h-10.6v12.8c0,0.1,0,0.2-0.1,0.3
				c-0.1,0.1-0.2,0.2-0.3,0.2c-0.2,0.1-0.4,0.1-0.6,0.1c-0.3,0-0.6,0.1-1,0.1c-0.4,0-0.7,0-1-0.1c-0.3,0-0.5-0.1-0.6-0.1
				c-0.2-0.1-0.3-0.1-0.3-0.2c-0.1-0.1-0.1-0.2-0.1-0.3V23.7c0-0.6,0.2-1,0.5-1.3c0.3-0.2,0.7-0.4,1-0.4h13.8c0.1,0,0.2,0,0.3,0.1
				c0.1,0.1,0.2,0.2,0.3,0.3c0.1,0.1,0.1,0.3,0.2,0.6C1007.7,23.2,1007.8,23.5,1007.8,23.8z"/>
			<path class="st0" d="M1044.1,23.8c0,0.3,0,0.6,0,0.8c0,0.2-0.1,0.4-0.2,0.5c-0.1,0.1-0.2,0.2-0.3,0.3c-0.1,0.1-0.2,0.1-0.3,0.1
				h-8.6v26.6c0,0.1,0,0.2-0.1,0.3c-0.1,0.1-0.2,0.2-0.3,0.2c-0.2,0.1-0.4,0.1-0.6,0.1c-0.3,0-0.6,0.1-1,0.1c-0.4,0-0.7,0-1-0.1
				c-0.3,0-0.5-0.1-0.6-0.1c-0.2-0.1-0.3-0.1-0.3-0.2c-0.1-0.1-0.1-0.2-0.1-0.3V25.5h-8.6c-0.1,0-0.2,0-0.3-0.1
				c-0.1-0.1-0.2-0.2-0.2-0.3c-0.1-0.1-0.1-0.3-0.2-0.5c0-0.2-0.1-0.5-0.1-0.8c0-0.3,0-0.6,0.1-0.8c0-0.2,0.1-0.4,0.2-0.6
				c0.1-0.1,0.1-0.2,0.2-0.3c0.1-0.1,0.2-0.1,0.3-0.1h21.3c0.1,0,0.2,0,0.3,0.1c0.1,0.1,0.2,0.2,0.3,0.3c0.1,0.1,0.1,0.3,0.2,0.6
				C1044.1,23.2,1044.1,23.5,1044.1,23.8z"/>
			<path class="st0" d="M1070.6,52.1c0,0.1,0,0.2-0.1,0.3c-0.1,0.1-0.2,0.2-0.3,0.2c-0.2,0.1-0.4,0.1-0.6,0.1c-0.3,0-0.6,0.1-1,0.1
				c-0.4,0-0.7,0-1-0.1c-0.3,0-0.5-0.1-0.6-0.1c-0.2-0.1-0.3-0.1-0.3-0.2c-0.1-0.1-0.1-0.2-0.1-0.3V38.5h-13.9v13.6
				c0,0.1,0,0.2-0.1,0.3c-0.1,0.1-0.2,0.2-0.3,0.2c-0.2,0.1-0.4,0.1-0.6,0.1c-0.3,0-0.6,0.1-1,0.1c-0.4,0-0.7,0-1-0.1
				c-0.3,0-0.5-0.1-0.6-0.1c-0.2-0.1-0.3-0.1-0.3-0.2c-0.1-0.1-0.1-0.2-0.1-0.3V22.7c0-0.1,0-0.2,0.1-0.3s0.2-0.2,0.3-0.2
				s0.4-0.1,0.6-0.1c0.3,0,0.6-0.1,1-0.1c0.4,0,0.7,0,1,0.1c0.3,0,0.5,0.1,0.6,0.1s0.3,0.1,0.3,0.2s0.1,0.2,0.1,0.3v12.3h13.9V22.7
				c0-0.1,0-0.2,0.1-0.3c0.1-0.1,0.2-0.2,0.3-0.2c0.2-0.1,0.4-0.1,0.6-0.1c0.3,0,0.6-0.1,1-0.1c0.4,0,0.7,0,1,0.1
				c0.3,0,0.5,0.1,0.6,0.1c0.2,0.1,0.3,0.1,0.3,0.2c0.1,0.1,0.1,0.2,0.1,0.3V52.1z"/>
			<path class="st0" d="M1095.8,51c0,0.3,0,0.5,0,0.7c0,0.2-0.1,0.4-0.2,0.5c-0.1,0.1-0.2,0.2-0.3,0.3c-0.1,0.1-0.2,0.1-0.3,0.1
				h-14.7c-0.4,0-0.7-0.1-1-0.4c-0.3-0.2-0.5-0.7-0.5-1.3V23.7c0-0.6,0.2-1,0.5-1.3c0.3-0.2,0.7-0.4,1-0.4h14.5c0.1,0,0.2,0,0.3,0.1
				c0.1,0.1,0.2,0.2,0.2,0.3c0.1,0.1,0.1,0.3,0.2,0.5c0,0.2,0.1,0.5,0.1,0.8c0,0.3,0,0.5-0.1,0.7c0,0.2-0.1,0.4-0.2,0.5
				c-0.1,0.1-0.1,0.2-0.2,0.3c-0.1,0.1-0.2,0.1-0.3,0.1h-12v9.6h10.3c0.1,0,0.2,0,0.3,0.1c0.1,0.1,0.2,0.2,0.3,0.3
				c0.1,0.1,0.1,0.3,0.2,0.5s0,0.5,0,0.8c0,0.3,0,0.5,0,0.7c0,0.2-0.1,0.4-0.2,0.5c-0.1,0.1-0.2,0.2-0.3,0.3
				c-0.1,0.1-0.2,0.1-0.3,0.1h-10.3v11h12.1c0.1,0,0.2,0,0.3,0.1c0.1,0.1,0.2,0.2,0.3,0.3c0.1,0.1,0.1,0.3,0.2,0.5
				C1095.8,50.4,1095.8,50.7,1095.8,51z"/>
		</g>
		<g>
			<path class="st0" d="M301.9,127.3c0,0.3,0,0.6-0.1,0.8c0,0.2-0.1,0.4-0.2,0.6c-0.1,0.2-0.2,0.3-0.3,0.3c-0.1,0.1-0.2,0.1-0.4,0.1
				h-16.4c-0.4,0-0.8-0.1-1.2-0.4c-0.4-0.3-0.5-0.8-0.5-1.4V96.8c0-0.7,0.2-1.2,0.5-1.4c0.4-0.3,0.7-0.4,1.2-0.4h16.3
				c0.1,0,0.3,0,0.4,0.1c0.1,0.1,0.2,0.2,0.3,0.3c0.1,0.2,0.1,0.4,0.2,0.6c0,0.2,0.1,0.5,0.1,0.9c0,0.3,0,0.6-0.1,0.8
				c0,0.2-0.1,0.4-0.2,0.6c-0.1,0.2-0.2,0.3-0.3,0.3c-0.1,0.1-0.2,0.1-0.4,0.1h-13.4v10.7h11.5c0.1,0,0.3,0,0.4,0.1
				c0.1,0.1,0.2,0.2,0.3,0.3c0.1,0.1,0.1,0.3,0.2,0.6c0,0.2,0.1,0.5,0.1,0.9c0,0.3,0,0.6-0.1,0.8c0,0.2-0.1,0.4-0.2,0.6
				c-0.1,0.1-0.2,0.2-0.3,0.3c-0.1,0.1-0.2,0.1-0.4,0.1h-11.5v12.3H301c0.1,0,0.3,0,0.4,0.1c0.1,0.1,0.2,0.2,0.3,0.3
				c0.1,0.2,0.1,0.3,0.2,0.6C301.9,126.7,301.9,126.9,301.9,127.3z"/>
			<path class="st0" d="M336.6,127.6c0.1,0.4,0.2,0.7,0.2,0.9c0,0.2-0.1,0.4-0.2,0.5c-0.1,0.1-0.4,0.2-0.7,0.2
				c-0.3,0-0.8,0.1-1.3,0.1c-0.5,0-1,0-1.3,0c-0.3,0-0.6-0.1-0.7-0.1c-0.2-0.1-0.3-0.1-0.4-0.3c-0.1-0.1-0.2-0.2-0.2-0.4l-2.9-8.3
				h-14.2l-2.8,8.2c-0.1,0.2-0.1,0.3-0.2,0.4c-0.1,0.1-0.2,0.2-0.4,0.3c-0.2,0.1-0.4,0.1-0.7,0.2c-0.3,0-0.7,0.1-1.2,0.1
				c-0.5,0-0.9,0-1.3-0.1c-0.3,0-0.6-0.1-0.7-0.3c-0.1-0.1-0.2-0.3-0.2-0.5c0-0.2,0.1-0.6,0.2-0.9L319,95.7c0.1-0.2,0.2-0.4,0.3-0.5
				c0.1-0.1,0.3-0.2,0.5-0.3c0.2-0.1,0.5-0.1,0.8-0.1c0.3,0,0.8,0,1.3,0c0.6,0,1,0,1.4,0c0.4,0,0.7,0.1,0.9,0.1
				c0.2,0.1,0.4,0.2,0.5,0.3c0.1,0.1,0.2,0.3,0.3,0.5L336.6,127.6z M321.8,99.5L321.8,99.5l-5.9,17.1h11.9L321.8,99.5z"/>
			<path class="st0" d="M362.9,119.6c0,1.6-0.3,3-0.9,4.3c-0.6,1.3-1.4,2.3-2.5,3.2c-1.1,0.9-2.3,1.5-3.7,2c-1.4,0.4-3,0.7-4.6,0.7
				c-1.1,0-2.2-0.1-3.2-0.3c-1-0.2-1.9-0.4-2.6-0.7c-0.8-0.3-1.4-0.6-1.9-0.9c-0.5-0.3-0.9-0.6-1.1-0.8c-0.2-0.2-0.4-0.5-0.5-0.8
				c-0.1-0.3-0.1-0.8-0.1-1.3c0-0.4,0-0.7,0.1-1c0-0.3,0.1-0.5,0.2-0.6c0.1-0.2,0.2-0.3,0.3-0.3c0.1-0.1,0.2-0.1,0.4-0.1
				c0.2,0,0.6,0.2,1,0.5c0.5,0.3,1,0.6,1.7,1c0.7,0.4,1.6,0.7,2.6,1c1,0.3,2.1,0.5,3.5,0.5c1,0,1.9-0.1,2.7-0.4
				c0.8-0.3,1.5-0.6,2.1-1.1c0.6-0.5,1-1.1,1.4-1.8c0.3-0.7,0.5-1.5,0.5-2.4c0-1-0.2-1.8-0.7-2.5c-0.4-0.7-1-1.3-1.7-1.8
				c-0.7-0.5-1.5-1-2.5-1.4c-0.9-0.4-1.9-0.9-2.8-1.3c-1-0.5-1.9-0.9-2.8-1.5c-0.9-0.5-1.7-1.2-2.5-1.9c-0.7-0.7-1.3-1.6-1.8-2.6
				c-0.5-1-0.7-2.2-0.7-3.6c0-1.4,0.3-2.7,0.8-3.8c0.5-1.1,1.2-2.1,2.2-2.8c0.9-0.8,2-1.3,3.3-1.7c1.3-0.4,2.7-0.6,4.1-0.6
				c0.8,0,1.5,0.1,2.3,0.2c0.8,0.1,1.5,0.3,2.2,0.5c0.7,0.2,1.3,0.5,1.8,0.7c0.5,0.3,0.9,0.5,1,0.7c0.2,0.2,0.3,0.3,0.3,0.4
				c0.1,0.1,0.1,0.2,0.1,0.4c0,0.2,0.1,0.3,0.1,0.5c0,0.2,0,0.5,0,0.8c0,0.3,0,0.6,0,0.8c0,0.2-0.1,0.5-0.1,0.6
				c-0.1,0.2-0.1,0.3-0.2,0.4c-0.1,0.1-0.2,0.1-0.3,0.1c-0.2,0-0.5-0.1-0.9-0.4c-0.4-0.2-0.9-0.5-1.5-0.8c-0.6-0.3-1.3-0.6-2.1-0.8
				c-0.8-0.3-1.7-0.4-2.8-0.4c-1,0-1.8,0.1-2.5,0.4c-0.7,0.3-1.3,0.6-1.7,1c-0.5,0.4-0.8,0.9-1,1.5s-0.3,1.2-0.3,1.9
				c0,1,0.2,1.8,0.7,2.5c0.4,0.7,1,1.3,1.8,1.8c0.7,0.5,1.6,1,2.5,1.5c0.9,0.4,1.9,0.9,2.9,1.3c1,0.5,1.9,0.9,2.9,1.5
				c0.9,0.5,1.8,1.2,2.5,1.9c0.7,0.7,1.3,1.6,1.8,2.6C362.6,117,362.9,118.2,362.9,119.6z"/>
			<path class="st0" d="M392.6,96.9c0,0.3,0,0.6-0.1,0.9c0,0.2-0.1,0.4-0.2,0.6c-0.1,0.2-0.2,0.3-0.3,0.3c-0.1,0.1-0.2,0.1-0.4,0.1
				h-9.6v29.7c0,0.1,0,0.3-0.1,0.4c-0.1,0.1-0.2,0.2-0.4,0.3c-0.2,0.1-0.4,0.1-0.7,0.2c-0.3,0-0.7,0.1-1.1,0.1c-0.4,0-0.8,0-1.1-0.1
				c-0.3,0-0.5-0.1-0.7-0.2c-0.2-0.1-0.3-0.1-0.4-0.3c-0.1-0.1-0.1-0.2-0.1-0.4V98.8h-9.6c-0.1,0-0.3,0-0.4-0.1
				c-0.1-0.1-0.2-0.2-0.3-0.3c-0.1-0.2-0.1-0.3-0.2-0.6c0-0.2-0.1-0.5-0.1-0.9c0-0.3,0-0.6,0.1-0.9c0-0.3,0.1-0.5,0.2-0.6
				c0.1-0.2,0.2-0.3,0.3-0.3c0.1-0.1,0.2-0.1,0.4-0.1h23.8c0.1,0,0.3,0,0.4,0.1c0.1,0.1,0.2,0.2,0.3,0.3c0.1,0.2,0.1,0.4,0.2,0.6
				C392.6,96.2,392.6,96.5,392.6,96.9z"/>
			<path class="st0" d="M418.8,127.3c0,0.3,0,0.6-0.1,0.8c0,0.2-0.1,0.4-0.2,0.6c-0.1,0.2-0.2,0.3-0.3,0.3c-0.1,0.1-0.2,0.1-0.4,0.1
				h-16.4c-0.4,0-0.8-0.1-1.2-0.4c-0.4-0.3-0.5-0.8-0.5-1.4V96.8c0-0.7,0.2-1.2,0.5-1.4c0.4-0.3,0.7-0.4,1.2-0.4h16.3
				c0.1,0,0.3,0,0.4,0.1c0.1,0.1,0.2,0.2,0.3,0.3c0.1,0.2,0.1,0.4,0.2,0.6c0,0.2,0.1,0.5,0.1,0.9c0,0.3,0,0.6-0.1,0.8
				c0,0.2-0.1,0.4-0.2,0.6c-0.1,0.2-0.2,0.3-0.3,0.3c-0.1,0.1-0.2,0.1-0.4,0.1h-13.4v10.7h11.5c0.1,0,0.3,0,0.4,0.1
				c0.1,0.1,0.2,0.2,0.3,0.3c0.1,0.1,0.1,0.3,0.2,0.6c0,0.2,0.1,0.5,0.1,0.9c0,0.3,0,0.6-0.1,0.8c0,0.2-0.1,0.4-0.2,0.6
				c-0.1,0.1-0.2,0.2-0.3,0.3c-0.1,0.1-0.2,0.1-0.4,0.1h-11.5v12.3h13.6c0.1,0,0.3,0,0.4,0.1c0.1,0.1,0.2,0.2,0.3,0.3
				c0.1,0.2,0.1,0.3,0.2,0.6C418.8,126.7,418.8,126.9,418.8,127.3z"/>
			<path class="st0" d="M451.3,128.5c0,0.1,0,0.3-0.1,0.4c-0.1,0.1-0.2,0.2-0.3,0.3c-0.2,0.1-0.4,0.1-0.7,0.2
				c-0.3,0-0.7,0.1-1.3,0.1c-0.5,0-0.8,0-1.1-0.1c-0.3,0-0.5-0.1-0.7-0.2c-0.2-0.1-0.3-0.2-0.4-0.3c-0.1-0.1-0.2-0.3-0.3-0.5
				l-3.2-8.1c-0.4-0.9-0.8-1.8-1.2-2.5c-0.4-0.8-0.9-1.4-1.4-2c-0.5-0.6-1.2-1-1.9-1.3c-0.7-0.3-1.6-0.5-2.7-0.5h-3v14.6
				c0,0.1,0,0.3-0.1,0.4c-0.1,0.1-0.2,0.2-0.4,0.3c-0.2,0.1-0.4,0.1-0.7,0.2c-0.3,0-0.7,0.1-1.1,0.1c-0.4,0-0.8,0-1.1-0.1
				c-0.3,0-0.5-0.1-0.7-0.2c-0.2-0.1-0.3-0.1-0.4-0.3c-0.1-0.1-0.1-0.2-0.1-0.4V96.8c0-0.7,0.2-1.2,0.5-1.4c0.4-0.3,0.7-0.4,1.2-0.4
				h7.3c0.9,0,1.6,0,2.2,0.1c0.6,0,1.1,0.1,1.5,0.1c1.3,0.2,2.5,0.6,3.5,1.1c1,0.5,1.9,1.1,2.6,1.9c0.7,0.8,1.2,1.6,1.5,2.6
				c0.3,1,0.5,2.1,0.5,3.2c0,1.1-0.2,2.2-0.5,3.1c-0.3,0.9-0.8,1.7-1.3,2.4c-0.6,0.7-1.3,1.3-2.1,1.8c-0.8,0.5-1.7,0.9-2.7,1.3
				c0.6,0.2,1.1,0.6,1.5,0.9c0.5,0.4,0.9,0.8,1.3,1.4c0.4,0.5,0.8,1.1,1.1,1.8c0.4,0.7,0.7,1.5,1.1,2.3l3.1,7.5
				c0.2,0.6,0.4,1.1,0.5,1.3C451.2,128.2,451.3,128.4,451.3,128.5z M444.4,104.4c0-1.3-0.3-2.5-0.9-3.4c-0.6-0.9-1.6-1.6-3-2
				c-0.4-0.1-0.9-0.2-1.5-0.3c-0.6-0.1-1.3-0.1-2.2-0.1H433v11.5h4.4c1.2,0,2.2-0.1,3.1-0.4c0.9-0.3,1.6-0.7,2.2-1.2
				c0.6-0.5,1-1.1,1.3-1.8C444.3,106,444.4,105.3,444.4,104.4z"/>
			<path class="st0" d="M485.9,127.3c0,0.4-0.1,0.7-0.2,0.9c-0.1,0.2-0.3,0.5-0.5,0.6c-0.2,0.2-0.4,0.3-0.6,0.3
				c-0.2,0.1-0.5,0.1-0.7,0.1h-1.5c-0.5,0-0.9,0-1.2-0.1c-0.4-0.1-0.7-0.3-1-0.5c-0.3-0.3-0.6-0.6-1-1c-0.3-0.4-0.7-1-1-1.7
				l-10.5-19.5c-0.5-1-1.1-2.1-1.7-3.2c-0.6-1.1-1.1-2.2-1.5-3.2h-0.1c0,1.3,0.1,2.6,0.1,3.9c0,1.3,0,2.6,0,3.9v20.7
				c0,0.1,0,0.2-0.1,0.4c-0.1,0.1-0.2,0.2-0.4,0.3c-0.2,0.1-0.4,0.1-0.7,0.2c-0.3,0-0.7,0.1-1.1,0.1c-0.4,0-0.8,0-1.1-0.1
				c-0.3,0-0.5-0.1-0.7-0.2c-0.2-0.1-0.3-0.1-0.4-0.3c-0.1-0.1-0.1-0.2-0.1-0.4V96.9c0-0.7,0.2-1.2,0.6-1.5c0.4-0.3,0.8-0.5,1.3-0.5
				h2.2c0.5,0,1,0,1.3,0.1c0.4,0.1,0.7,0.2,1,0.4c0.3,0.2,0.6,0.5,0.8,0.8c0.3,0.4,0.5,0.8,0.8,1.4l8,15c0.5,0.9,1,1.8,1.4,2.7
				c0.5,0.9,0.9,1.7,1.3,2.6c0.4,0.8,0.8,1.7,1.3,2.5c0.4,0.8,0.8,1.6,1.2,2.5h0c0-1.4-0.1-2.8-0.1-4.4c0-1.5,0-3,0-4.4V95.7
				c0-0.1,0-0.2,0.1-0.3c0.1-0.1,0.2-0.2,0.4-0.3c0.2-0.1,0.4-0.1,0.7-0.2c0.3,0,0.7-0.1,1.1-0.1c0.4,0,0.8,0,1.1,0.1
				c0.3,0,0.5,0.1,0.7,0.2c0.2,0.1,0.3,0.2,0.4,0.3c0.1,0.1,0.1,0.2,0.1,0.3V127.3z"/>
			<path class="st0" d="M532.7,105c0,1.7-0.3,3.3-0.8,4.6c-0.6,1.4-1.4,2.6-2.4,3.5s-2.3,1.7-3.9,2.2c-1.5,0.5-3.3,0.8-5.5,0.8h-3.9
				v12.3c0,0.1,0,0.3-0.1,0.4c-0.1,0.1-0.2,0.2-0.4,0.3c-0.2,0.1-0.4,0.1-0.7,0.2c-0.3,0-0.7,0.1-1.1,0.1c-0.4,0-0.8,0-1.1-0.1
				c-0.3,0-0.5-0.1-0.7-0.2c-0.2-0.1-0.3-0.1-0.4-0.3c-0.1-0.1-0.1-0.2-0.1-0.4V96.9c0-0.7,0.2-1.2,0.6-1.5c0.4-0.3,0.8-0.5,1.2-0.5
				h7.3c0.7,0,1.5,0,2.1,0.1c0.7,0.1,1.5,0.2,2.4,0.4c0.9,0.2,1.9,0.6,2.8,1.1c1,0.6,1.8,1.2,2.4,2.1c0.7,0.8,1.2,1.8,1.5,2.8
				C532.5,102.5,532.7,103.7,532.7,105z M527.9,105.3c0-1.4-0.3-2.6-0.8-3.5c-0.5-0.9-1.2-1.6-1.9-2.1c-0.8-0.5-1.6-0.8-2.4-0.9
				c-0.8-0.1-1.6-0.2-2.4-0.2h-4.2v13.7h4.1c1.4,0,2.5-0.2,3.4-0.5c0.9-0.4,1.7-0.8,2.3-1.5c0.6-0.6,1.1-1.4,1.4-2.3
				C527.7,107.3,527.9,106.4,527.9,105.3z"/>
			<path class="st0" d="M563.5,127.6c0.1,0.4,0.2,0.7,0.2,0.9c0,0.2-0.1,0.4-0.2,0.5c-0.1,0.1-0.4,0.2-0.7,0.2
				c-0.3,0-0.8,0.1-1.3,0.1c-0.5,0-1,0-1.3,0c-0.3,0-0.6-0.1-0.7-0.1c-0.2-0.1-0.3-0.1-0.4-0.3c-0.1-0.1-0.2-0.2-0.2-0.4l-2.9-8.3
				h-14.2l-2.8,8.2c-0.1,0.2-0.1,0.3-0.2,0.4c-0.1,0.1-0.2,0.2-0.4,0.3c-0.2,0.1-0.4,0.1-0.7,0.2c-0.3,0-0.7,0.1-1.2,0.1
				c-0.5,0-0.9,0-1.3-0.1c-0.3,0-0.6-0.1-0.7-0.3c-0.1-0.1-0.2-0.3-0.2-0.5c0-0.2,0.1-0.6,0.2-0.9l11.5-31.8
				c0.1-0.2,0.2-0.4,0.3-0.5c0.1-0.1,0.3-0.2,0.5-0.3c0.2-0.1,0.5-0.1,0.8-0.1c0.3,0,0.8,0,1.3,0c0.6,0,1,0,1.4,0
				c0.4,0,0.7,0.1,0.9,0.1c0.2,0.1,0.4,0.2,0.5,0.3c0.1,0.1,0.2,0.3,0.3,0.5L563.5,127.6z M548.7,99.5L548.7,99.5l-5.9,17.1h11.9
				L548.7,99.5z"/>
			<path class="st0" d="M594.2,128.5c0,0.1,0,0.3-0.1,0.4c-0.1,0.1-0.2,0.2-0.3,0.3c-0.2,0.1-0.4,0.1-0.7,0.2
				c-0.3,0-0.7,0.1-1.3,0.1c-0.5,0-0.8,0-1.1-0.1c-0.3,0-0.5-0.1-0.7-0.2c-0.2-0.1-0.3-0.2-0.4-0.3c-0.1-0.1-0.2-0.3-0.3-0.5
				l-3.2-8.1c-0.4-0.9-0.8-1.8-1.2-2.5c-0.4-0.8-0.9-1.4-1.4-2c-0.5-0.6-1.2-1-1.9-1.3c-0.7-0.3-1.6-0.5-2.7-0.5h-3v14.6
				c0,0.1,0,0.3-0.1,0.4c-0.1,0.1-0.2,0.2-0.4,0.3c-0.2,0.1-0.4,0.1-0.7,0.2c-0.3,0-0.7,0.1-1.1,0.1c-0.4,0-0.8,0-1.1-0.1
				c-0.3,0-0.5-0.1-0.7-0.2c-0.2-0.1-0.3-0.1-0.4-0.3c-0.1-0.1-0.1-0.2-0.1-0.4V96.8c0-0.7,0.2-1.2,0.5-1.4c0.4-0.3,0.7-0.4,1.2-0.4
				h7.3c0.9,0,1.6,0,2.2,0.1c0.6,0,1.1,0.1,1.5,0.1c1.3,0.2,2.5,0.6,3.5,1.1c1,0.5,1.9,1.1,2.6,1.9c0.7,0.8,1.2,1.6,1.5,2.6
				c0.3,1,0.5,2.1,0.5,3.2c0,1.1-0.2,2.2-0.5,3.1c-0.3,0.9-0.8,1.7-1.3,2.4c-0.6,0.7-1.3,1.3-2.1,1.8c-0.8,0.5-1.7,0.9-2.7,1.3
				c0.6,0.2,1.1,0.6,1.5,0.9c0.5,0.4,0.9,0.8,1.3,1.4c0.4,0.5,0.8,1.1,1.1,1.8c0.4,0.7,0.7,1.5,1.1,2.3l3.1,7.5
				c0.2,0.6,0.4,1.1,0.5,1.3C594.2,128.2,594.2,128.4,594.2,128.5z M587.3,104.4c0-1.3-0.3-2.5-0.9-3.4c-0.6-0.9-1.6-1.6-3-2
				c-0.4-0.1-0.9-0.2-1.5-0.3c-0.6-0.1-1.3-0.1-2.2-0.1h-3.8v11.5h4.4c1.2,0,2.2-0.1,3.1-0.4c0.9-0.3,1.6-0.7,2.2-1.2
				c0.6-0.5,1-1.1,1.3-1.8C587.2,106,587.3,105.3,587.3,104.4z"/>
			<path class="st0" d="M623.9,96.9c0,0.3,0,0.6-0.1,0.9c0,0.2-0.1,0.4-0.2,0.6c-0.1,0.2-0.2,0.3-0.3,0.3c-0.1,0.1-0.2,0.1-0.4,0.1
				h-9.6v29.7c0,0.1,0,0.3-0.1,0.4c-0.1,0.1-0.2,0.2-0.4,0.3c-0.2,0.1-0.4,0.1-0.7,0.2c-0.3,0-0.7,0.1-1.1,0.1c-0.4,0-0.8,0-1.1-0.1
				c-0.3,0-0.5-0.1-0.7-0.2c-0.2-0.1-0.3-0.1-0.4-0.3c-0.1-0.1-0.1-0.2-0.1-0.4V98.8h-9.6c-0.1,0-0.3,0-0.4-0.1
				c-0.1-0.1-0.2-0.2-0.3-0.3c-0.1-0.2-0.1-0.3-0.2-0.6c0-0.2-0.1-0.5-0.1-0.9c0-0.3,0-0.6,0.1-0.9c0-0.3,0.1-0.5,0.2-0.6
				c0.1-0.2,0.2-0.3,0.3-0.3c0.1-0.1,0.2-0.1,0.4-0.1H623c0.1,0,0.3,0,0.4,0.1c0.1,0.1,0.2,0.2,0.3,0.3c0.1,0.2,0.1,0.4,0.2,0.6
				C623.9,96.2,623.9,96.5,623.9,96.9z"/>
			<path class="st0" d="M656.9,127.3c0,0.4-0.1,0.7-0.2,0.9c-0.1,0.2-0.3,0.5-0.5,0.6c-0.2,0.2-0.4,0.3-0.6,0.3
				c-0.2,0.1-0.5,0.1-0.7,0.1h-1.5c-0.5,0-0.9,0-1.2-0.1c-0.4-0.1-0.7-0.3-1-0.5c-0.3-0.3-0.6-0.6-1-1c-0.3-0.4-0.7-1-1-1.7
				l-10.5-19.5c-0.5-1-1.1-2.1-1.7-3.2c-0.6-1.1-1.1-2.2-1.5-3.2h-0.1c0,1.3,0.1,2.6,0.1,3.9c0,1.3,0,2.6,0,3.9v20.7
				c0,0.1,0,0.2-0.1,0.4c-0.1,0.1-0.2,0.2-0.4,0.3c-0.2,0.1-0.4,0.1-0.7,0.2c-0.3,0-0.7,0.1-1.1,0.1c-0.4,0-0.8,0-1.1-0.1
				c-0.3,0-0.5-0.1-0.7-0.2c-0.2-0.1-0.3-0.1-0.4-0.3c-0.1-0.1-0.1-0.2-0.1-0.4V96.9c0-0.7,0.2-1.2,0.6-1.5c0.4-0.3,0.8-0.5,1.3-0.5
				h2.2c0.5,0,1,0,1.3,0.1c0.4,0.1,0.7,0.2,1,0.4c0.3,0.2,0.6,0.5,0.8,0.8c0.3,0.4,0.5,0.8,0.8,1.4l8,15c0.5,0.9,1,1.8,1.4,2.7
				c0.5,0.9,0.9,1.7,1.3,2.6c0.4,0.8,0.8,1.7,1.3,2.5c0.4,0.8,0.8,1.6,1.2,2.5h0c0-1.4-0.1-2.8-0.1-4.4c0-1.5,0-3,0-4.4V95.7
				c0-0.1,0-0.2,0.1-0.3c0.1-0.1,0.2-0.2,0.4-0.3c0.2-0.1,0.4-0.1,0.7-0.2c0.3,0,0.7-0.1,1.1-0.1c0.4,0,0.8,0,1.1,0.1
				c0.3,0,0.5,0.1,0.7,0.2c0.2,0.1,0.3,0.2,0.4,0.3c0.1,0.1,0.1,0.2,0.1,0.3V127.3z"/>
			<path class="st0" d="M687.2,127.3c0,0.3,0,0.6-0.1,0.8c0,0.2-0.1,0.4-0.2,0.6s-0.2,0.3-0.3,0.3c-0.1,0.1-0.2,0.1-0.4,0.1h-16.4
				c-0.4,0-0.8-0.1-1.2-0.4c-0.4-0.3-0.5-0.8-0.5-1.4V96.8c0-0.7,0.2-1.2,0.5-1.4c0.4-0.3,0.7-0.4,1.2-0.4h16.3c0.1,0,0.3,0,0.4,0.1
				c0.1,0.1,0.2,0.2,0.3,0.3c0.1,0.2,0.1,0.4,0.2,0.6c0,0.2,0.1,0.5,0.1,0.9c0,0.3,0,0.6-0.1,0.8c0,0.2-0.1,0.4-0.2,0.6
				c-0.1,0.2-0.2,0.3-0.3,0.3c-0.1,0.1-0.2,0.1-0.4,0.1h-13.4v10.7h11.5c0.1,0,0.3,0,0.4,0.1c0.1,0.1,0.2,0.2,0.3,0.3
				c0.1,0.1,0.1,0.3,0.2,0.6c0,0.2,0.1,0.5,0.1,0.9c0,0.3,0,0.6-0.1,0.8c0,0.2-0.1,0.4-0.2,0.6c-0.1,0.1-0.2,0.2-0.3,0.3
				c-0.1,0.1-0.2,0.1-0.4,0.1h-11.5v12.3h13.6c0.1,0,0.3,0,0.4,0.1c0.1,0.1,0.2,0.2,0.3,0.3c0.1,0.2,0.1,0.3,0.2,0.6
				C687.2,126.7,687.2,126.9,687.2,127.3z"/>
			<path class="st0" d="M719.7,128.5c0,0.1,0,0.3-0.1,0.4c-0.1,0.1-0.2,0.2-0.3,0.3c-0.2,0.1-0.4,0.1-0.7,0.2
				c-0.3,0-0.7,0.1-1.3,0.1c-0.5,0-0.8,0-1.1-0.1c-0.3,0-0.5-0.1-0.7-0.2c-0.2-0.1-0.3-0.2-0.4-0.3c-0.1-0.1-0.2-0.3-0.3-0.5
				l-3.2-8.1c-0.4-0.9-0.8-1.8-1.2-2.5c-0.4-0.8-0.9-1.4-1.4-2c-0.5-0.6-1.2-1-1.9-1.3c-0.7-0.3-1.6-0.5-2.7-0.5h-3v14.6
				c0,0.1,0,0.3-0.1,0.4c-0.1,0.1-0.2,0.2-0.4,0.3c-0.2,0.1-0.4,0.1-0.7,0.2c-0.3,0-0.7,0.1-1.1,0.1c-0.4,0-0.8,0-1.1-0.1
				c-0.3,0-0.5-0.1-0.7-0.2c-0.2-0.1-0.3-0.1-0.4-0.3c-0.1-0.1-0.1-0.2-0.1-0.4V96.8c0-0.7,0.2-1.2,0.5-1.4c0.4-0.3,0.7-0.4,1.2-0.4
				h7.3c0.9,0,1.6,0,2.2,0.1c0.6,0,1.1,0.1,1.5,0.1c1.3,0.2,2.5,0.6,3.5,1.1c1,0.5,1.9,1.1,2.6,1.9c0.7,0.8,1.2,1.6,1.5,2.6
				c0.3,1,0.5,2.1,0.5,3.2c0,1.1-0.2,2.2-0.5,3.1c-0.3,0.9-0.8,1.7-1.3,2.4c-0.6,0.7-1.3,1.3-2.1,1.8c-0.8,0.5-1.7,0.9-2.7,1.3
				c0.6,0.2,1.1,0.6,1.5,0.9c0.5,0.4,0.9,0.8,1.3,1.4c0.4,0.5,0.8,1.1,1.1,1.8c0.4,0.7,0.7,1.5,1.1,2.3l3.1,7.5
				c0.2,0.6,0.4,1.1,0.5,1.3C719.6,128.2,719.7,128.4,719.7,128.5z M712.8,104.4c0-1.3-0.3-2.5-0.9-3.4c-0.6-0.9-1.6-1.6-3-2
				c-0.4-0.1-0.9-0.2-1.5-0.3c-0.6-0.1-1.3-0.1-2.2-0.1h-3.8v11.5h4.4c1.2,0,2.2-0.1,3.1-0.4c0.9-0.3,1.6-0.7,2.2-1.2
				c0.6-0.5,1-1.1,1.3-1.8C712.7,106,712.8,105.3,712.8,104.4z"/>
			<path class="st0" d="M746.1,119.6c0,1.6-0.3,3-0.9,4.3c-0.6,1.3-1.4,2.3-2.5,3.2c-1.1,0.9-2.3,1.5-3.7,2c-1.4,0.4-3,0.7-4.6,0.7
				c-1.1,0-2.2-0.1-3.2-0.3c-1-0.2-1.9-0.4-2.6-0.7c-0.8-0.3-1.4-0.6-1.9-0.9c-0.5-0.3-0.9-0.6-1.1-0.8c-0.2-0.2-0.4-0.5-0.5-0.8
				c-0.1-0.3-0.1-0.8-0.1-1.3c0-0.4,0-0.7,0.1-1c0-0.3,0.1-0.5,0.2-0.6c0.1-0.2,0.2-0.3,0.3-0.3c0.1-0.1,0.2-0.1,0.4-0.1
				c0.2,0,0.6,0.2,1,0.5c0.5,0.3,1,0.6,1.7,1c0.7,0.4,1.6,0.7,2.6,1c1,0.3,2.1,0.5,3.5,0.5c1,0,1.9-0.1,2.7-0.4
				c0.8-0.3,1.5-0.6,2.1-1.1c0.6-0.5,1-1.1,1.4-1.8c0.3-0.7,0.5-1.5,0.5-2.4c0-1-0.2-1.8-0.7-2.5c-0.4-0.7-1-1.3-1.7-1.8
				c-0.7-0.5-1.5-1-2.5-1.4c-0.9-0.4-1.9-0.9-2.8-1.3c-1-0.5-1.9-0.9-2.8-1.5c-0.9-0.5-1.7-1.2-2.5-1.9c-0.7-0.7-1.3-1.6-1.8-2.6
				c-0.5-1-0.7-2.2-0.7-3.6c0-1.4,0.3-2.7,0.8-3.8c0.5-1.1,1.2-2.1,2.2-2.8c0.9-0.8,2-1.3,3.3-1.7c1.3-0.4,2.7-0.6,4.1-0.6
				c0.8,0,1.5,0.1,2.3,0.2c0.8,0.1,1.5,0.3,2.2,0.5c0.7,0.2,1.3,0.5,1.8,0.7c0.5,0.3,0.9,0.5,1,0.7c0.2,0.2,0.3,0.3,0.3,0.4
				c0.1,0.1,0.1,0.2,0.1,0.4c0,0.2,0.1,0.3,0.1,0.5c0,0.2,0,0.5,0,0.8c0,0.3,0,0.6,0,0.8c0,0.2-0.1,0.5-0.1,0.6
				c-0.1,0.2-0.1,0.3-0.2,0.4c-0.1,0.1-0.2,0.1-0.3,0.1c-0.2,0-0.5-0.1-0.9-0.4c-0.4-0.2-0.9-0.5-1.5-0.8c-0.6-0.3-1.3-0.6-2.1-0.8
				c-0.8-0.3-1.7-0.4-2.8-0.4c-1,0-1.8,0.1-2.5,0.4c-0.7,0.3-1.3,0.6-1.7,1c-0.5,0.4-0.8,0.9-1,1.5c-0.2,0.6-0.3,1.2-0.3,1.9
				c0,1,0.2,1.8,0.7,2.5c0.4,0.7,1,1.3,1.8,1.8c0.7,0.5,1.6,1,2.5,1.5c0.9,0.4,1.9,0.9,2.9,1.3c1,0.5,1.9,0.9,2.9,1.5
				c0.9,0.5,1.8,1.2,2.5,1.9c0.7,0.7,1.3,1.6,1.8,2.6C745.9,117,746.1,118.2,746.1,119.6z"/>
			<path class="st0" d="M779.5,128.5c0,0.1,0,0.3-0.1,0.4c-0.1,0.1-0.2,0.2-0.4,0.3c-0.2,0.1-0.4,0.1-0.7,0.2
				c-0.3,0-0.6,0.1-1.1,0.1c-0.5,0-0.8,0-1.1-0.1c-0.3,0-0.5-0.1-0.7-0.2c-0.2-0.1-0.3-0.1-0.4-0.3c-0.1-0.1-0.1-0.2-0.1-0.4v-15.2
				h-15.6v15.2c0,0.1,0,0.3-0.1,0.4c-0.1,0.1-0.2,0.2-0.4,0.3c-0.2,0.1-0.4,0.1-0.7,0.2c-0.3,0-0.7,0.1-1.1,0.1
				c-0.4,0-0.8,0-1.1-0.1c-0.3,0-0.5-0.1-0.7-0.2c-0.2-0.1-0.3-0.1-0.4-0.3c-0.1-0.1-0.1-0.2-0.1-0.4V95.6c0-0.1,0-0.3,0.1-0.4
				c0.1-0.1,0.2-0.2,0.4-0.3c0.2-0.1,0.4-0.1,0.7-0.2c0.3,0,0.7-0.1,1.1-0.1c0.4,0,0.8,0,1.1,0.1c0.3,0,0.5,0.1,0.7,0.2
				c0.2,0.1,0.3,0.1,0.4,0.3c0.1,0.1,0.1,0.2,0.1,0.4v13.7H775V95.6c0-0.1,0-0.3,0.1-0.4c0.1-0.1,0.2-0.2,0.4-0.3
				c0.2-0.1,0.4-0.1,0.7-0.2c0.3,0,0.7-0.1,1.1-0.1c0.4,0,0.8,0,1.1,0.1c0.3,0,0.5,0.1,0.7,0.2c0.2,0.1,0.3,0.1,0.4,0.3
				c0.1,0.1,0.1,0.2,0.1,0.4V128.5z"/>
			<path class="st0" d="M795.3,128.5c0,0.1,0,0.3-0.1,0.4c-0.1,0.1-0.2,0.2-0.4,0.3c-0.2,0.1-0.4,0.1-0.7,0.2
				c-0.3,0-0.7,0.1-1.1,0.1c-0.4,0-0.8,0-1.1-0.1c-0.3,0-0.5-0.1-0.7-0.2c-0.2-0.1-0.3-0.1-0.4-0.3c-0.1-0.1-0.1-0.2-0.1-0.4V95.6
				c0-0.1,0-0.3,0.1-0.4c0.1-0.1,0.2-0.2,0.4-0.3c0.2-0.1,0.4-0.1,0.7-0.2c0.3,0,0.6-0.1,1-0.1c0.4,0,0.8,0,1.1,0.1
				c0.3,0,0.5,0.1,0.7,0.2c0.2,0.1,0.3,0.1,0.4,0.3c0.1,0.1,0.1,0.2,0.1,0.4V128.5z"/>
			<path class="st0" d="M827.6,105c0,1.7-0.3,3.3-0.8,4.6c-0.6,1.4-1.4,2.6-2.4,3.5c-1.1,1-2.3,1.7-3.9,2.2
				c-1.5,0.5-3.3,0.8-5.5,0.8h-3.9v12.3c0,0.1,0,0.3-0.1,0.4c-0.1,0.1-0.2,0.2-0.4,0.3c-0.2,0.1-0.4,0.1-0.7,0.2
				c-0.3,0-0.7,0.1-1.1,0.1c-0.4,0-0.8,0-1.1-0.1c-0.3,0-0.5-0.1-0.7-0.2c-0.2-0.1-0.3-0.1-0.4-0.3c-0.1-0.1-0.1-0.2-0.1-0.4V96.9
				c0-0.7,0.2-1.2,0.6-1.5c0.4-0.3,0.8-0.5,1.2-0.5h7.3c0.7,0,1.5,0,2.1,0.1c0.7,0.1,1.5,0.2,2.4,0.4c0.9,0.2,1.9,0.6,2.8,1.1
				c1,0.6,1.8,1.2,2.4,2.1c0.7,0.8,1.2,1.8,1.5,2.8C827.5,102.5,827.6,103.7,827.6,105z M822.9,105.3c0-1.4-0.3-2.6-0.8-3.5
				c-0.5-0.9-1.2-1.6-1.9-2.1c-0.8-0.5-1.6-0.8-2.4-0.9c-0.8-0.1-1.6-0.2-2.4-0.2h-4.2v13.7h4.1c1.4,0,2.5-0.2,3.4-0.5
				c0.9-0.4,1.7-0.8,2.3-1.5c0.6-0.6,1.1-1.4,1.4-2.3C822.7,107.3,822.9,106.4,822.9,105.3z"/>
		</g>
		<g>
			<path class="st0" d="M278.7,188.9c0-15.2,7.9-26,20.5-26c8.8,0,13.3,5.5,15.9,11.1l-6.9,3.1c-1.7-4-4.8-6.8-9-6.8
				c-7.4,0-12,7.8-12,18.6c0,10.7,4.6,18.6,12,18.6c4.4,0,7.5-3.2,9.1-7.4l6.9,3.1c-2.6,5.9-7.1,11.8-16,11.8
				C286.7,215,278.7,204,278.7,188.9z"/>
			<path class="st0" d="M320.5,168.3c0-2.6,2.2-4.8,4.8-4.8c2.6,0,4.7,2.1,4.7,4.8c0,2.6-2.1,4.7-4.7,4.7
				C322.7,173,320.5,170.9,320.5,168.3z M321.5,214v-36.5h7.5V214H321.5z"/>
			<path class="st0" d="M345.7,214l-12-36.5h8l8.1,27.5l8.2-27.5h8L353.8,214H345.7z"/>
			<path class="st0" d="M369.4,168.3c0-2.6,2.2-4.8,4.8-4.8c2.6,0,4.7,2.1,4.7,4.8c0,2.6-2.1,4.7-4.7,4.7
				C371.6,173,369.4,170.9,369.4,168.3z M370.4,214v-36.5h7.5V214H370.4z"/>
			<path class="st0" d="M386.9,214v-50.3h7.5V214H386.9z"/>
			<path class="st0" d="M416.5,208.5l4.2-6.5c2.7,3.1,7,5.4,12,5.4c5.2,0,7.8-3.1,7.8-6.6c0-10.3-22.6-7.2-22.6-23.9
				c0-7.8,6.1-14,15.6-14c5.9,0,10.9,2,14.5,5.4l-4.1,6.3c-2.9-2.9-6.7-4.3-10.6-4.3c-4.1,0-6.9,2.4-6.9,6.1c0,9,22.6,6.8,22.6,23.7
				c0,8.2-5.6,14.8-16.4,14.8C425.6,215,420.2,212.5,416.5,208.5z"/>
			<path class="st0" d="M454.2,195.8c0-10.3,5.4-19.1,15.8-19.1c10.3,0,15.8,8.8,15.8,19.1c0,10.3-5.4,19.2-15.8,19.2
				C459.6,215,454.2,206,454.2,195.8z M478,195.8c0-6.6-2.5-12.5-8-12.5s-8,5.9-8,12.5c0,6.6,2.5,12.5,8,12.5S478,202.3,478,195.8z"
				/>
			<path class="st0" d="M491,195.8c0-11,6.3-19.1,16-19.1c5.4,0,8.9,2.2,11.1,4.9l-3.8,5.1c-1.8-2.3-3.8-3.4-6.5-3.4
				c-5.7,0-9,5.5-9,12.5c0,6.9,3.2,12.5,9,12.5c2.6,0,4.7-1.1,6.5-3.4l3.8,5.1c-2.2,2.7-5.7,4.9-11.1,4.9
				C497.3,215,491,206.8,491,195.8z"/>
			<path class="st0" d="M523.2,168.3c0-2.6,2.2-4.8,4.8-4.8c2.6,0,4.7,2.1,4.7,4.8c0,2.6-2.1,4.7-4.7,4.7
				C525.3,173,523.2,170.9,523.2,168.3z M524.1,214v-36.5h7.5V214H524.1z"/>
			<path class="st0" d="M538.8,195.8c0-10.6,5.9-19.1,15.6-19.1c9.9,0,15.2,8.4,15.2,19.4v2.2h-23.2c0.3,6,3.6,10.5,9.5,10.5
				c2.9,0,6.1-1.4,8.2-3.9l3.6,4.5c-3.1,3.5-7.7,5.6-12.6,5.6C545.1,215,538.8,207.1,538.8,195.8z M554.3,182.8
				c-5.7,0-7.8,5.7-8,10.1h15.9C562.2,188.4,560.1,182.8,554.3,182.8z"/>
			<path class="st0" d="M577.7,205.9v-21.7H573v-6.6h4.8v-10h7.5v10h6v6.6h-6v20.2c0,2.5,0.8,4,2.8,4c1.2,0,2.3-0.5,2.9-1.2l1.8,5.7
				c-1.4,1.4-3.5,2.2-6.6,2.2C580.4,215,577.7,211.9,577.7,205.9z"/>
			<path class="st0" d="M597.6,221.7c0.7,0.4,1.7,0.5,2.4,0.5c2,0,3.3-0.8,4.2-3l1.5-4.4l-12.2-37.2h8l8.1,27.4l8.2-27.4h8
				l-14.4,43.3c-2,6.1-5.6,7.9-10.7,7.9c-1.1,0-3.1-0.2-4.1-0.5L597.6,221.7z"/>
			<path class="st0" d="M646.5,214v-50.3h27.5v7.3h-19.2v13.7h18.6v7.4h-18.6v22H646.5z"/>
			<path class="st0" d="M679.4,195.8c0-10.3,5.4-19.1,15.8-19.1c10.3,0,15.8,8.8,15.8,19.1c0,10.3-5.4,19.2-15.8,19.2
				C684.8,215,679.4,206,679.4,195.8z M703.1,195.8c0-6.6-2.5-12.5-8-12.5c-5.5,0-8,5.9-8,12.5c0,6.6,2.5,12.5,8,12.5
				C700.7,208.3,703.1,202.3,703.1,195.8z"/>
			<path class="st0" d="M718,214v-36.5h7.5v5.4c2.1-3.5,6-6.2,10-6.2v7.5c-0.6-0.2-1.3-0.2-2-0.2c-3.1,0-6.6,2.3-8.1,5.1v25H718z"/>
			<path class="st0" d="M761.4,214v-4.8c-2,3-6,5.7-10.6,5.7c-6.5,0-9.5-3.5-9.5-9.8v-27.5h7.5v24.9c0,4.2,2,5.8,5.2,5.8
				c3.2,0,6-2.4,7.4-5v-25.7h7.5V214H761.4z"/>
			<path class="st0" d="M815.9,214v-25.4c0-3.4-1.4-5.4-4.5-5.4c-3,0-5.7,2.6-6.9,5.1V214h-7.5v-25.4c0-3.3-1.4-5.4-4.5-5.4
				c-3,0-5.7,2.6-6.9,5.1V214h-7.5v-36.5h7.5v4.9c1.4-2.6,5.6-5.8,10.1-5.8c4.6,0,7.7,2.3,8.5,6.4c1.7-3.2,6-6.4,10.5-6.4
				c5.5,0,8.9,2.9,8.9,9.6V214H815.9z"/>
		</g>
	</g>
</g>
</svg>
