<?xml version="1.0" encoding="utf-8"?>
<!-- Generator: Adobe Illustrator 21.0.2, SVG Export Plug-In . SVG Version: 6.00 Build 0)  -->
<svg version="1.1" id="Layer_1" xmlns="http://www.w3.org/2000/svg" xmlns:xlink="http://www.w3.org/1999/xlink" x="0px" y="0px"
	 viewBox="0 0 14 16" style="enable-background:new 0 0 14 16;" xml:space="preserve">
<style type="text/css">
	.st0{fill:#FFFFFF;}
</style>
<title>youtube-logo</title>
<desc>Created with Sketch.</desc>
<g id="screen">
	<g id="screen_1440" transform="translate(-396.000000, -448.000000)">
		<g id="head" transform="translate(0.000000, 20.000000)">
			<g id="social" transform="translate(247.000000, 382.000000)">
				<g id="youtube" transform="translate(140.000000, 34.000000)">
					<g id="Group-21" transform="translate(9.000000, 12.000000)">
						<g id="youtube-logo">
							<path id="Shape" class="st0" d="M13,8.3c-0.1-0.4-0.2-0.6-0.5-0.9C12.2,7.1,11.9,7,11.6,7c-1.1-0.1-2.7-0.2-5-0.2
								C4.4,6.8,2.8,6.8,1.7,7C1.3,7,1,7.1,0.8,7.4C0.5,7.6,0.3,7.9,0.2,8.3C0.1,9,0,10,0,11.4c0,1.4,0.1,2.5,0.2,3.1
								c0.1,0.4,0.2,0.6,0.5,0.9c0.3,0.2,0.6,0.4,0.9,0.4c1.1,0.1,2.7,0.2,5,0.2c2.2,0,3.9-0.1,5-0.2c0.3,0,0.6-0.2,0.9-0.4
								c0.3-0.2,0.4-0.5,0.5-0.9c0.2-0.7,0.2-1.7,0.2-3.1C13.2,10,13.2,8.9,13,8.3z M3.8,9.2h-1v5.1H1.9V9.2H1V8.3h2.8L3.8,9.2
								L3.8,9.2z M6.2,14.2H5.4v-0.5c-0.3,0.4-0.6,0.5-0.9,0.5C4.2,14.3,4,14.2,4,14c0-0.1-0.1-0.4-0.1-0.7V9.8h0.8v3.2
								c0,0.2,0,0.3,0,0.3c0,0.1,0.1,0.2,0.2,0.2c0.2,0,0.3-0.1,0.5-0.4V9.8h0.8L6.2,14.2L6.2,14.2z M9.2,12.9c0,0.4,0,0.7-0.1,0.9
								c-0.1,0.3-0.3,0.5-0.6,0.5c-0.3,0-0.6-0.2-0.8-0.5v0.4H6.9V8.3h0.8v1.9c0.3-0.3,0.5-0.5,0.8-0.5c0.3,0,0.5,0.2,0.6,0.5
								c0.1,0.2,0.1,0.4,0.1,0.9V12.9z M12.2,12.2h-1.6V13c0,0.4,0.1,0.6,0.4,0.6c0.2,0,0.3-0.1,0.4-0.3c0-0.1,0-0.2,0-0.5h0.8v0.1
								c0,0.3,0,0.5,0,0.5c0,0.2-0.1,0.3-0.2,0.5c-0.2,0.3-0.5,0.5-1,0.5c-0.4,0-0.7-0.2-1-0.5c-0.2-0.2-0.3-0.6-0.3-1v-1.5
								c0-0.5,0.1-0.8,0.2-1c0.2-0.3,0.6-0.5,1-0.5c0.4,0,0.7,0.2,0.9,0.5c0.2,0.2,0.2,0.6,0.2,1V12.2L12.2,12.2z"/>
							<path id="Shape_1_" class="st0" d="M8.1,10.5c-0.1,0-0.3,0.1-0.4,0.2v2.7c0.1,0.1,0.3,0.2,0.4,0.2c0.2,0,0.3-0.2,0.3-0.6
								v-1.9C8.4,10.7,8.3,10.5,8.1,10.5z"/>
							<path id="Shape_2_" class="st0" d="M11,10.5c-0.3,0-0.4,0.2-0.4,0.6v0.4h0.8v-0.4C11.4,10.7,11.3,10.5,11,10.5z"/>
							<path id="Shape_3_" class="st0" d="M3.3,3.6V6h0.9V3.6L5.2,0H4.3L3.7,2.3L3.1,0H2.1c0.2,0.5,0.4,1.1,0.6,1.7
								C3,2.5,3.2,3.1,3.3,3.6z"/>
							<path id="Shape_4_" class="st0" d="M6.4,6c0.4,0,0.7-0.2,0.9-0.5C7.5,5.4,7.6,5,7.6,4.5V3c0-0.5-0.1-0.8-0.2-1
								C7.2,1.6,6.8,1.5,6.4,1.5C6,1.5,5.7,1.6,5.5,1.9C5.3,2.1,5.2,2.5,5.2,3v1.6c0,0.5,0.1,0.8,0.2,1.1C5.7,5.9,6,6,6.4,6z M6,2.8
								c0-0.4,0.1-0.6,0.4-0.6c0.3,0,0.4,0.2,0.4,0.6v1.9c0,0.4-0.1,0.6-0.4,0.6C6.2,5.3,6,5.1,6,4.7V2.8L6,2.8z"/>
							<path id="Shape_5_" class="st0" d="M8.9,6c0.3,0,0.6-0.2,0.9-0.6V6h0.8V1.5H9.8v3.4C9.6,5.2,9.5,5.3,9.3,5.3
								c-0.1,0-0.2-0.1-0.2-0.2c0,0,0-0.1,0-0.3V1.5H8.3V5c0,0.3,0,0.5,0.1,0.7C8.4,5.9,8.6,6,8.9,6z"/>
						</g>
					</g>
				</g>
			</g>
		</g>
	</g>
</g>
</svg>
